<svg xmlns="http://www.w3.org/2000/svg" width="200" height="200" viewBox="0 0 200 200">
  <defs>
    <style>
      .a {
        fill: #333;
      }

      .b {
        fill: #87c576;
      }

      .c {
        fill: none;
      }
    </style>
  </defs>
  <g>
    <g>
      <g>
        <path class="a" d="M31.814,112.337a5.545,5.545,0,1,0,5.551-5.538A5.545,5.545,0,0,0,31.814,112.337Z"/>
        <path class="a" d="M53.646,119.179a5.189,5.189,0,0,0,1.651,3.9,5.6,5.6,0,0,0,3.9,1.651,5.538,5.538,0,0,0,5.537-5.538v-.013a5.944,5.944,0,0,0-1.529-3.886,5.616,5.616,0,0,0-4.011-1.651,5.537,5.537,0,0,0-5.548,5.526Z"/>
        <path class="a" d="M6.1,110.574v-7.549a2.07,2.07,0,0,1,2.012-2.014H69.216v9.563a1.769,1.769,0,0,0,3.538,0v-9.563h2.013a5.545,5.545,0,1,0-5.551-5.538h0v2H35.95l5.662-5.66a5.557,5.557,0,0,0,1.652-3.887,5.623,5.623,0,0,0-5.552-5.551,5.51,5.51,0,0,0-4.01,1.541,5.547,5.547,0,0,0,1.776,9.076l-4.607,4.483H8.112a5.549,5.549,0,0,0-5.553,5.546v7.554a1.741,1.741,0,0,0,1.72,1.763h.057a1.729,1.729,0,0,0,1.762-1.7Z"/>
        <path class="a" d="M74.059,128.866H72.047v-6.5a1.815,1.815,0,0,0-1.763-1.777,1.745,1.745,0,0,0-1.776,1.712v6.56H49.634V115.529a1.676,1.676,0,0,0-1.569-1.776,1.444,1.444,0,0,0-.208,0,1.741,1.741,0,0,0-1.762,1.72.523.523,0,0,0,0,.056v13.337H34.3a5.8,5.8,0,0,1-5.789-5.788v-7.549a1.672,1.672,0,0,0-1.561-1.775,1.5,1.5,0,0,0-.2,0,1.745,1.745,0,0,0-1.777,1.712v7.614a9.416,9.416,0,0,0,9.328,9.312h11.56a12.031,12.031,0,0,1-11.683,9.215,1.73,1.73,0,0,0-1.763,1.7v.065a1.672,1.672,0,0,0,1.562,1.776,1.925,1.925,0,0,0,.2,0A15.568,15.568,0,0,0,49.4,132.391H68.51V134.4a5.545,5.545,0,1,0,5.552-5.537h0Z"/>
        <path class="a" d="M63.553,153.277a1.815,1.815,0,0,0-1.762,1.777v8.6a2,2,0,0,1-1.979,2.012.182.182,0,0,1-.033,0H41.612V150.918a1.8,1.8,0,0,0-1.776-1.762,1.73,1.73,0,0,0-1.763,1.7V165.67H19.546V155.054a1.813,1.813,0,0,0-1.763-1.777,1.745,1.745,0,0,0-1.776,1.712V165.67h-2a5.546,5.546,0,0,0-.221,11.089c.074,0,.147,0,.221,0a5.538,5.538,0,0,0,5.537-5.538v-2.012H59.779a5.549,5.549,0,0,0,5.551-5.548v-8.607a1.745,1.745,0,0,0-1.713-1.777Z"/>
        <path class="a" d="M16.243,126.854a5.514,5.514,0,0,0-1.526-4.011,5.559,5.559,0,0,0-1.777-1.069l5.08-5.064a1.719,1.719,0,0,0,.054-2.43l-.054-.055a1.854,1.854,0,0,0-2.6,0l-8.618,8.618v.111a5.186,5.186,0,0,0-1.651,3.9,5.544,5.544,0,0,0,11.088,0Z"/>
      </g>
      <g>
        <path class="a" d="M88.446,142.422l.207-3.9a168.426,168.426,0,0,1,22.683,2.368l-.414,3.9A169.017,169.017,0,0,0,88.446,142.422Zm1.3-17.359.175-3.815a205,205,0,0,1,20.435,1.774l-.443,3.815A199.1,199.1,0,0,0,89.748,125.063Zm1.272,8.4.3-3.933a134.785,134.785,0,0,1,17.272,1.892l-.533,3.9a132.34,132.34,0,0,0-17.035-1.863Z"/>
        <path class="a" d="M115.773,123.524l3.727-.827q1.213,4.078,2.663,9.847l-3.845.829Q116.956,127.664,115.773,123.524Zm24.25-1.478q-.119,7.717-2.071,12.392a14.449,14.449,0,0,1-6,7.083,27.475,27.475,0,0,1-10.943,3.179l-.739-3.64a30.643,30.643,0,0,0,7.408-1.759,11.973,11.973,0,0,0,4.777-3.429,13.6,13.6,0,0,0,2.706-5.6,39.564,39.564,0,0,0,.9-8.459Zm-16.266.5,3.846-.857q1.27,4.522,2.661,10.173l-3.845.828q-1.3-5.235-2.662-10.144Z"/>
        <path class="a" d="M144.548,131.451l.711-3.52q3.873.65,9.759,1.893l-.74,3.49Q148.985,132.189,144.548,131.451Zm1.184,9.492q9.317-.8,13.574-4.347t5.737-11.83l3.755.622q-1.686,9.552-6.861,13.973T146.322,144.7Zm.176-16.65.739-3.548q4.7.768,10.056,1.863l-.741,3.548Q150.612,125.064,145.908,124.293Z"/>
        <path class="a" d="M176.1,121.248h4.023v6a49.206,49.206,0,0,1-.681,9.332,11.869,11.869,0,0,1-2.129,5.116,12.388,12.388,0,0,1-4.347,3.179l-2.129-3.312a13.47,13.47,0,0,0,2.276-1.4,7.778,7.778,0,0,0,1.494-1.612,6.223,6.223,0,0,0,.947-2.469,31.1,31.1,0,0,0,.414-3.549q.13-2.025.131-5.279Zm11.978,19.222a7.043,7.043,0,0,0,4.332-3.061,15.153,15.153,0,0,0,1.908-6.728l3.756.533q-1.182,13.4-13.4,13.4h-.712V121.248h4.111Z"/>
      </g>
    </g>
    <g>
      <path class="b" d="M32.352,49.932V48.257h-4.88a11.555,11.555,0,0,1,2.052,1.062L28.372,50.9a7.485,7.485,0,0,0-2.143-1.368l.972-1.278-3.457-.018v1.584h-.737l1.4.613a14.568,14.568,0,0,1-1.549,3.384L21.1,52.65a11.921,11.921,0,0,0,1.476-2.827H21.548V46.2h5.258V44.962h2.448V46.2l5.294-.017v3.745Zm-.721,12.045v-.829H24.465v.829H22.322v-5.15h2.143v2.161h2.5V56.4h-.4a1.543,1.543,0,0,1-1.71-1.063,17.822,17.822,0,0,1-2.629,1.1L21.17,54.469a18.28,18.28,0,0,0,3.583-1.206V49.949h1.98V52.38a13.061,13.061,0,0,0,3.98-3.745l1.548,1.188A15.976,15.976,0,0,1,26.9,54.4a.7.7,0,0,0,.3.055H29.38c.864,0,1.009-.108,1.045-1.657l.017-.288,1.981.936C32.369,56,31.487,56.4,30.047,56.4h-.919v2.592h2.5V56.882h2.161v5.095Zm1.549-7.4a18.417,18.417,0,0,0-1.639-3.151l1.729-.937A24.958,24.958,0,0,1,35,53.461Z"/>
      <path class="b" d="M48.317,61.688A13.336,13.336,0,0,1,43.456,58.5v3.475H41.331V58.556a12.881,12.881,0,0,1-4.771,3.169l-1.1-2.088a12.558,12.558,0,0,0,4.466-1.982l-3.961.019V55.747h5.365V54.9H37.189V50.922a8.183,8.183,0,0,1-.918,1.008l-.81-2.359a10.1,10.1,0,0,0,3.151-4.609l2.089.486c-.126.361-.288.7-.432,1.044h1.548a8.146,8.146,0,0,0,.648-1.548l2.251.288a6.425,6.425,0,0,1-.558,1.26l4.051-.017v1.746H43.726v.72h3.889v1.351H43.726v.756h3.889V52.4H43.726v.775h4.717V54.9H43.456v.846h5.473v1.908h-4a13,13,0,0,0,4.5,1.946ZM41.673,48.221H39.351l-.109.2v.522h2.431Zm0,2.071H39.242v.756h2.431Zm0,2.106H39.242v.775h2.431Z"/>
      <path class="b" d="M54.758,54V51.372h-1.6a34.348,34.348,0,0,1-1.332,10.335L49.879,60.32a27.583,27.583,0,0,0,1.17-9.164V45.988h5.023V44.962h2.287v1.026h4.952v2.089H53.155v1.315h1.6v-.937h2.071v.937h2.412v-.937h2.071v.937h1.962v1.98H61.312V54Zm7.8,7.85a12.519,12.519,0,0,1-4.2-1.458,13.14,13.14,0,0,1-4.843,1.476L52.4,59.654a15.221,15.221,0,0,0,4-.666,11.877,11.877,0,0,1-2.016-2.341H53.317v-1.98h9v1.782a12.483,12.483,0,0,1-2.161,2.557,11.965,11.965,0,0,0,3.476.576Zm-5.853-5.2a6.792,6.792,0,0,0,1.549,1.477,5.9,5.9,0,0,0,1.513-1.477Zm2.539-5.275H56.829v.918h2.412Z"/>
      <path class="b" d="M77.17,60.951a21.618,21.618,0,0,1-3.3.252c-3.079,0-4.97-.217-4.97-3.331V54.486H64.8V52.2h4.105V49.031H65.4V46.763H76.63v2.268H71.318L71.3,52.182h6.05v2.3H71.3c-.018,1.225-.036,2.251-.036,2.72v.306c0,1.134,1.117,1.224,2.233,1.224a19.318,19.318,0,0,0,3.853-.4Z"/>
      <path class="b" d="M79.29,60.068v-2.52H92v2.52ZM80.5,50.058v-2.45H90.831v2.45Z"/>
      <path class="b" d="M94.121,59.78a11.38,11.38,0,0,0,6.644-3.673,29.131,29.131,0,0,0-3.2-2.377l1.458-1.674a29.506,29.506,0,0,1,3.06,2.161,12.815,12.815,0,0,0,1.5-4.52H99.343a17.073,17.073,0,0,1-4.2,5.294l-1.854-1.747a14.418,14.418,0,0,0,5.275-8.03l2.431.5c-.2.612-.432,1.261-.684,1.89,1.71,0,5.078-.036,5.87-.036C105.717,52.65,104.061,59.564,95.9,61.8Z"/>
      <path class="b" d="M108.16,54.685V52.272h12.569v2.413Z"/>
      <path class="b" d="M126.755,54.757a15.3,15.3,0,0,0-4.5-2.395l1.188-2.142a20.408,20.408,0,0,1,4.52,2.268Zm-3.475,4.357c6.842-.828,9.273-5.977,10.282-10.893l2.087,1.566c-.99,4.123-3.078,10.1-11.018,11.74Zm5.564-8.534a14.853,14.853,0,0,0-4.466-2.377l1.135-2.089A17.507,17.507,0,0,1,130,48.257Z"/>
      <path class="b" d="M147.925,61.077a27.442,27.442,0,0,0-3.619-5.023,15.394,15.394,0,0,1-6.248,5.113l-1.567-2.215a12.528,12.528,0,0,0,8.246-9.723l-6.607.072V46.853h9.614a21.1,21.1,0,0,1-2.124,7.112,30.267,30.267,0,0,1,4.195,4.9Z"/>
      <path class="b" d="M159.245,53.118c-.216,3.89-1.3,6.969-5.348,8.553l-2.052-2.034c4.033-1.171,4.807-3.619,4.933-6.519h-5.546V50.777h12.821v2.341Zm-6.5-4.555V46.2h9.795v2.377Z"/>
      <path class="b" d="M176.489,61.293c-.2-.685-.378-1.189-.612-1.837-3.673.685-7.454,1.189-10.119,1.53l-.414-2.61,1.692-.126a95.5,95.5,0,0,0,3.079-12.279l2.665.593a115.561,115.561,0,0,1-3.259,11.47c2.143-.234,4.034-.45,5.546-.7a28.6,28.6,0,0,0-2.251-4.483l2.251-.9a42.963,42.963,0,0,1,3.835,8.12Z"/>
    </g>
    <rect class="c" width="200" height="200"/>
  </g>
</svg>
