<svg xmlns="http://www.w3.org/2000/svg" width="2095.649" height="1651" viewBox="0 0 2095.649 1651">
  <defs>
    <style>
      .a, .b, .d, .e {
        fill: #8cd278;
      }

      .a {
        opacity: 0.66;
      }

      .b, .e {
        stroke: #fff;
        stroke-miterlimit: 10;
      }

      .b {
        stroke-width: 5px;
      }

      .c {
        fill: #fff;
      }

      .e {
        stroke-width: 6px;
      }

      .f {
        fill: #f4d446;
      }

      .g {
        fill: none;
      }
    </style>
  </defs>
  <g>
    <circle class="a" cx="365.217" cy="1192.877" r="253.826"/>
    <circle class="a" cx="1301.321" cy="868.822" r="165.121"/>
    <circle class="a" cx="221.141" cy="939.051" r="122.204"/>
    <circle class="a" cx="1660.153" cy="521.836" r="421.986"/>
  </g>
  <g>
    <g>
      <g>
        <path class="b" d="M548.341,938.143c0,23.511-35.159,78.778-47.4,97.307a4.964,4.964,0,0,1-8.284,0c-12.241-18.529-47.4-73.8-47.4-97.307a51.542,51.542,0,0,1,103.083,0Z"/>
        <circle class="c" cx="496.799" cy="938.768" r="36.942" transform="translate(-509.425 1278.778) rotate(-80.783)"/>
      </g>
      <path class="d" d="M505.052,932.961a8.783,8.783,0,1,0-8.782-8.783A8.784,8.784,0,0,0,505.052,932.961Z"/>
      <path class="d" d="M485.694,923.81a6.549,6.549,0,1,0,6.548,6.548A6.548,6.548,0,0,0,485.694,923.81Z"/>
      <path class="d" d="M477.038,944.132v4.941a7.555,7.555,0,0,0,7.555,7.555h6.175V942.363l.06-.281a9.037,9.037,0,0,1,.627-1.841,9.522,9.522,0,0,0-5.836-1.829C480.2,938.412,477.49,942.026,477.038,944.132Z"/>
      <path class="d" d="M505.052,934.98c-7.268,0-10.9,4.845-11.508,7.672v12.637a4.121,4.121,0,0,0,4.12,4.121H512.44a4.122,4.122,0,0,0,4.121-4.121V942.652C515.955,939.825,512.321,934.98,505.052,934.98Z"/>
    </g>
    <g>
      <g>
        <path class="e" d="M1279.917,664.075c0,24.518-36.666,82.154-49.431,101.478a5.178,5.178,0,0,1-8.639,0c-12.766-19.324-49.431-76.96-49.431-101.478a53.751,53.751,0,1,1,107.5,0Z"/>
        <circle class="c" cx="1226.166" cy="664.726" r="38.526" transform="translate(373.613 1768.582) rotate(-80.783)"/>
      </g>
      <path class="d" d="M1226.166,654.361a9.16,9.16,0,1,0-9.159-9.16A9.16,9.16,0,0,0,1226.166,654.361Z"/>
      <path class="d" d="M1226.166,656.466c-7.58,0-11.369,5.054-12,8v13.179a4.3,4.3,0,0,0,4.3,4.3h15.409a4.3,4.3,0,0,0,4.3-4.3V664.467C1237.536,661.52,1233.746,656.466,1226.166,656.466Z"/>
    </g>
    <g>
      <g>
        <path class="e" d="M1473.706,156.8c0,25.978-38.849,87.046-52.375,107.521a5.486,5.486,0,0,1-9.154,0C1398.651,243.848,1359.8,182.78,1359.8,156.8a56.952,56.952,0,0,1,113.9,0Z"/>
        <circle class="c" cx="1416.754" cy="157.492" r="40.82" transform="matrix(0.16, -0.987, 0.987, 0.16, 1034.357, 1530.724)"/>
      </g>
      <g>
        <path class="d" d="M1416.754,155.261a9.7,9.7,0,1,0-9.7-9.7A9.706,9.706,0,0,0,1416.754,155.261Z"/>
        <path class="d" d="M1438.144,159.621a7.236,7.236,0,1,0-7.236-7.236A7.236,7.236,0,0,0,1438.144,159.621Z"/>
        <path class="d" d="M1438.227,161.284a10.509,10.509,0,0,0-6.448,2.022,10.045,10.045,0,0,1,.692,2.033l.066.311v15.762h6.824a8.347,8.347,0,0,0,8.347-8.348v-5.459C1447.21,165.277,1444.215,161.284,1438.227,161.284Z"/>
        <path class="d" d="M1395.363,145.15a7.236,7.236,0,1,0,7.236,7.235A7.235,7.235,0,0,0,1395.363,145.15Z"/>
        <path class="d" d="M1385.8,167.605v5.46a8.347,8.347,0,0,0,8.348,8.347h6.823V165.65l.067-.311a9.983,9.983,0,0,1,.692-2.033,10.512,10.512,0,0,0-6.448-2.022C1389.293,161.284,1386.3,165.277,1385.8,167.605Z"/>
        <path class="d" d="M1416.754,157.492c-8.031,0-12.047,5.354-12.717,8.478v13.963a4.554,4.554,0,0,0,4.554,4.553h16.326a4.554,4.554,0,0,0,4.553-4.553V165.97C1428.8,162.846,1424.785,157.492,1416.754,157.492Z"/>
      </g>
    </g>
    <circle class="f" cx="429.963" cy="266.413" r="49.01"/>
    <rect class="g" width="2095.649" height="1651"/>
  </g>
</svg>
