<svg xmlns="http://www.w3.org/2000/svg" width="100" height="30" viewBox="0 0 100 30">
  <defs>
    <style>
      .a {
        fill: none;
      }

      .b {
        fill: #333132;
      }
    </style>
  </defs>
  <g>
    <rect class="a" width="100" height="30"/>
    <g>
      <path class="b" d="M47.1,9.942a1.673,1.673,0,1,0,1.675-1.67A1.675,1.675,0,0,0,47.1,9.942Z"/>
      <path class="b" d="M53.684,12.006a1.563,1.563,0,0,0,.5,1.176,1.691,1.691,0,0,0,1.176.5,1.67,1.67,0,0,0,1.67-1.674,1.794,1.794,0,0,0-.46-1.172,1.7,1.7,0,0,0-1.21-.5A1.67,1.67,0,0,0,53.684,12.006Z"/>
      <path class="b" d="M39.343,9.411V7.134a.624.624,0,0,1,.607-.607H58.38V9.411a.534.534,0,0,0,1.067,0V6.527h.607a1.673,1.673,0,1,0-1.674-1.67v.6H48.347l1.707-1.707a1.675,1.675,0,0,0,.5-1.172A1.7,1.7,0,0,0,48.878.905a1.663,1.663,0,0,0-1.209.465,1.693,1.693,0,0,0-.5,1.21A1.708,1.708,0,0,0,48.2,4.107L46.815,5.459H39.95a1.674,1.674,0,0,0-1.674,1.675V9.411a.534.534,0,0,0,1.067,0Z"/>
      <path class="b" d="M59.841,14.928h-.607V12.969a.547.547,0,0,0-.532-.536.527.527,0,0,0-.536.536v1.959H52.474V10.905a.506.506,0,0,0-.536-.536.526.526,0,0,0-.532.536v4.023H47.849A1.75,1.75,0,0,1,46.1,13.182V10.905a.5.5,0,0,0-.531-.536.527.527,0,0,0-.536.536v2.277a2.84,2.84,0,0,0,2.813,2.809h3.486a3.627,3.627,0,0,1-3.524,2.779.522.522,0,0,0-.532.532.5.5,0,0,0,.532.536A4.7,4.7,0,0,0,52.4,15.991h5.763V16.6a1.673,1.673,0,1,0,1.675-1.67Z"/>
      <path class="b" d="M56.672,22.29a.548.548,0,0,0-.531.536v2.595a.6.6,0,0,1-.607.607h-5.48V21.579a.544.544,0,0,0-.535-.532.522.522,0,0,0-.532.532v4.449H43.4v-3.2a.548.548,0,0,0-.532-.536.526.526,0,0,0-.535.536v3.2h-.6a1.673,1.673,0,1,0,0,3.345A1.67,1.67,0,0,0,43.4,27.7v-.6H55.534a1.674,1.674,0,0,0,1.674-1.675V22.826A.527.527,0,0,0,56.672,22.29Z"/>
      <path class="b" d="M42.4,14.321a1.664,1.664,0,0,0-.461-1.21,1.684,1.684,0,0,0-.535-.322l1.532-1.528a.519.519,0,0,0,0-.749.558.558,0,0,0-.783,0l-2.6,2.6v.033a1.567,1.567,0,0,0-.5,1.177,1.673,1.673,0,0,0,3.345,0Z"/>
    </g>
  </g>
</svg>
