<svg xmlns="http://www.w3.org/2000/svg" xmlns:xlink="http://www.w3.org/1999/xlink" width="640" height="390" viewBox="0 0 640 390">
  <defs>
    <style>
      .a {
        fill: none;
      }

      .b {
        fill: #fff;
      }

      .c {
        fill: #33c85c;
      }

      .d, .j {
        fill: #8cd278;
      }

      .e {
        fill: #73c8d3;
      }

      .f {
        fill: url(#a);
      }

      .g {
        fill: #2e2e2e;
      }

      .h, .i, .j {
        opacity: 0.58;
      }

      .h {
        fill: url(#e);
      }

      .i {
        fill: url(#f);
      }
    </style>
    <pattern id="a" data-name="新規パターン1 2" width="12.5" height="12.5" patternTransform="translate(-358.864 286.682) rotate(-45) scale(0.373)" patternUnits="userSpaceOnUse" viewBox="0 0 12.5 12.5">
      <rect class="a" width="12.5" height="12.5"/>
      <rect class="b" width="12.5" height="12.5"/>
      <circle class="c" cx="6.25" cy="6.25" r="2.431"/>
    </pattern>
    <pattern id="e" data-name="新規パターン1 2" width="12.5" height="12.5" patternTransform="translate(-6.148 -1.179) scale(1.098)" patternUnits="userSpaceOnUse" viewBox="0 0 12.5 12.5">
      <rect class="a" width="12.5" height="12.5"/>
      <rect class="b" width="12.5" height="12.5"/>
      <circle class="c" cx="6.25" cy="6.25" r="2.431"/>
    </pattern>
    <pattern id="f" data-name="新規パターン1 2" width="12.5" height="12.5" patternUnits="userSpaceOnUse" viewBox="0 0 12.5 12.5">
      <rect class="a" width="12.5" height="12.5"/>
      <rect class="b" width="12.5" height="12.5"/>
      <circle class="c" cx="6.25" cy="6.25" r="2.431"/>
    </pattern>
  </defs>
  <g>
    <g>
      <rect class="b" width="640" height="390"/>
      <g>
        <path class="b" d="M289.734,178.34c1.1,2.048,2.225,4.09,3.277,6.166q.235.465.467.934a67.434,67.434,0,0,1-1.383-11.271,91.492,91.492,0,0,1,.466-11.115c.126-1.379.256-2.759.248-4.145a7.8,7.8,0,0,0-.17-1.929c-.026-.1-.061-.2-.09-.3.093.327-.121-.11,0-.009-.16-.132-.132-.13-.263-.188a1.9,1.9,0,0,0-1.274.033s-.209.112-.3.152c-.006.012-.014.027-.018.033a6.133,6.133,0,0,0-.333.626,19.575,19.575,0,0,0-.927,3.656c-.658,3.632-1.158,7.288-1.7,10.939a1.4,1.4,0,0,1-1,1.054C287.687,174.789,288.768,176.545,289.734,178.34Z"/>
        <path class="d" d="M289.434,120.062a2.75,2.75,0,0,0-1.858,2.58c-.007.32,0,.641,0,.96v5.979a7.625,7.625,0,0,1,0,1.19v10.766a7.341,7.341,0,0,0,.022,1.13,2.773,2.773,0,0,0,2.689,2.274A2.744,2.744,0,0,0,293,142.23c.008-.347,0-.695,0-1.042V123a4.96,4.96,0,0,0-.064-.869c-.053.029-.1.062-.156.089.054-.027.1-.06.156-.089a2.547,2.547,0,0,0-.24-.736A2.725,2.725,0,0,0,289.434,120.062Z"/>
        <path class="b" d="M330.6,164.9a11.366,11.366,0,0,0,7.451-3.518l-1.22.048c-4.714.176-9.433.24-14.151.264A11.23,11.23,0,0,0,330.6,164.9Z"/>
        <path class="e" d="M290.732,156.635c.008-.015.012-.019.023-.041-.007.014-.016.028-.024.042Z"/>
        <path class="e" d="M290.709,156.668c-.022.03-.028.051-.012.03l.018-.032Z"/>
        <polygon class="e" points="290.722 156.654 290.72 156.655 290.715 156.666 290.715 156.665 290.722 156.654"/>
        <path class="d" d="M335.045,173.4c-1.674-.037-3.353,0-5.028,0a13.574,13.574,0,0,0-1.779.022,2.285,2.285,0,0,0,0,4.5,13.758,13.758,0,0,0,1.779.021h5.028a2.274,2.274,0,0,0,0-4.548Z"/>
        <path class="b" d="M373.928,137.014v3.294a3.392,3.392,0,0,0,3.171-3.378c.04-2.57,0-5.143,0-7.713,0-.857.024-1.717,0-2.573a3.372,3.372,0,0,0-3.169-3.221Z"/>
        <path class="d" d="M370.764,141.33v-6.482c0-3.892.011-7.785,0-11.677a3.116,3.116,0,0,0-.408-1.739A2.735,2.735,0,0,0,367,120.349c-1.559.661-1.659,2.112-1.659,3.547v17.922a6.956,6.956,0,0,0,.031,1.073,2.714,2.714,0,0,0,5.391-.443C370.772,142.076,370.764,141.7,370.764,141.33Z"/>
        <polygon class="e" points="303.311 83.421 303.311 83.421 303.311 83.421 303.311 83.421"/>
        <path class="e" d="M303.311,83.421c-.158.118-.05.039,0,0Z"/>
        <path class="f" d="M229.441,267l-.118.424q-2.832,10.214-5.625,20.436c-.811,2.979-1.646,5.954-2.388,8.951a26.47,26.47,0,0,0,1.119,15.508,25.194,25.194,0,0,0,11.209,13.253,24.878,24.878,0,0,0,7.551,2.688q-.183-3.322-.368-6.643l-1.1-19.877q-.53-9.534-1.058-19.068l-.435-7.834-3.357,7.4q-1.336,2.949-2.674,5.9a1.6,1.6,0,0,1-2.165.567,1.629,1.629,0,0,1-.567-2.164c.015-.035.031-.069.046-.1,1.073-2.412,2.182-4.809,3.272-7.214q2.535-5.586,5.068-11.172l-.048-.863-.507-9.131c-.024-.438-.054-.877-.073-1.316a9.833,9.833,0,0,1,7.417-10.082,13.966,13.966,0,0,1,3.035-.269q2.994-6.6,5.987-13.2l2.674-5.9a1.254,1.254,0,0,1,.649-.62,1.663,1.663,0,0,1,.662-.805,1.633,1.633,0,0,1,2.165.568,21.161,21.161,0,0,0,4.5,4.44l2.046-3.61a1.56,1.56,0,0,1-.742-2.192,101.232,101.232,0,0,0,6.822-14.25A34.076,34.076,0,0,0,274.661,198a36.556,36.556,0,0,0-.408-4.021l-2,.8a1.407,1.407,0,0,1-.718,1.662c-4.232,2.35-8.924,3.313-13.543,4.577-3.721,1.019-7.164,2.318-9.753,5.225a18.156,18.156,0,0,0-3.3,5.988c-1.115,3.088-2.133,6.21-3.089,9.351-3.818,12.551-6.635,25.387-10.687,37.869a1.581,1.581,0,0,1-2.036,1.018l-1.113,4.585A1.53,1.53,0,0,1,229.441,267Z"/>
        <path class="b" d="M306.445,246.4h50.943q.4-7.521.721-15.046c.248-5.973.456-11.949.573-17.926l-1.519.836a1.567,1.567,0,0,1-.6,2.717A75.279,75.279,0,0,1,346,219.927c-12.915,2.621-26.761,2.414-39.36-1.654a1.636,1.636,0,0,1-.741-2.584l-1.368-.228q.563,7.434,1.009,14.874Q306.032,238.368,306.445,246.4Z"/>
        <path class="f" d="M447.359,301.19q-1.974-6.853-4.054-13.677c-2.263-7.416-4.542-14.873-7.416-22.08-3.394-8.511-6.409-17.135-9.466-25.77-1.562-4.411-3.177-8.8-4.947-13.137-1.591-3.9-3.392-7.7-4.966-11.6a35.553,35.553,0,0,0-3.771-7.622,23.52,23.52,0,0,0-7.376-6.284c-6.557-3.757-14.247-4.95-21.586-6.244-7.5-1.324-15.193-2.694-21.9-6.506a1.42,1.42,0,0,1-.722-1.639l-3.8-1.718q.548,2.46,1.3,4.881a1.726,1.726,0,0,1,1.231-.595,1.629,1.629,0,0,1,1.582,1.582q.076.681.131,1.363c.476,5.8.387,11.653.31,17.462-.112,8.389-.41,16.775-.783,25.155q-.26,5.823-.576,11.643h40.212c1.281-9.17,2.3-18.363,2.665-27.62.08-2.033,3.245-2.037,3.164,0q-.334,8.412-1.278,16.783c-.4,3.621-.89,7.23-1.394,10.837h1.787q2.5,0,5.012,0a10.239,10.239,0,0,1,5.092,1.24A9.956,9.956,0,0,1,420.7,256.8c-.09,1.943-.216,3.884-.323,5.826l-.738,13.283-.684,12.317,6.757-4.79a1.594,1.594,0,0,1,2.164.568,1.624,1.624,0,0,1-.567,2.164l-1.436,1.019-7.141,5.062-.09,1.631-1.1,19.886L416.476,332.8l-.054.975c2.224-.067,4.449-.13,6.673-.175a27.477,27.477,0,0,0,8.432-1.361,24.55,24.55,0,0,0,8.159-4.695,25.389,25.389,0,0,0,8.63-16.363A26.247,26.247,0,0,0,447.359,301.19Z"/>
        <path class="b" d="M297.679,192.742a1.723,1.723,0,0,1,.094-1.741,18.566,18.566,0,0,1-1.792-3.289,1.71,1.71,0,0,1-1.381.112,34.5,34.5,0,0,1,1.623,4.331c.647,2.215,1.008,4.6.059,6.77a1.594,1.594,0,0,1-2.165.567,1.633,1.633,0,0,1-.567-2.164c-.15.343.071-.312.1-.424.013-.048.022-.079.028-.1,0,0,0-.008,0-.023.012-.12.021-.239.027-.36a7.411,7.411,0,0,0-.007-.76c-.008-.16-.022-.319-.039-.479,0-.013-.008-.064-.014-.106a19.116,19.116,0,0,0-1-3.66,57.982,57.982,0,0,0-3.467-7.41c-1.126-2.113-2.251-4.229-3.434-6.31a36.793,36.793,0,0,1-4.122-9.014c-1.623-6.448.882-12.758,2.153-19.02.571-2.811,1-6.044.079-8.832a2.065,2.065,0,0,0-.489-.83c-.013-.008-.028-.042-.085.021a3.966,3.966,0,0,0-.447.516,13.9,13.9,0,0,0-1.349,4.379q-2.649,11.051-4.485,22.273a1.594,1.594,0,0,1-1.946,1.1,1.629,1.629,0,0,1-1.105-1.946q1.108-6.759,2.508-13.465.7-3.351,1.476-6.688a39.3,39.3,0,0,1,1.566-6.03,4.975,4.975,0,0,1,3.1-3.237,3.109,3.109,0,0,1,.686-.088,1.278,1.278,0,0,1-.016-.277c.131-1.919.9-3.688,1.126-5.58q0-.671-.007-1.342c-.118-.881-.49-1.766-1.407-1.823-.8-.049-1.3,1-1.587,1.707-.46,1.11-.75,2.311-1.109,3.457q-1.237,3.951-2.5,7.9c-1.668,5.25-3.347,10.5-4.978,15.756a1.626,1.626,0,0,1-2.671.66c-.056.663-.091,1.319-.112,1.982a1.5,1.5,0,0,1,.577.035,1.631,1.631,0,0,1,1.105,1.946c-.722,4.539.014,9.183,1.056,13.61,1.965,8.345,5.358,16.663,5.067,25.372-.319,9.534-5.039,18.25-9.489,26.436a1.424,1.424,0,0,1-1.99.595l-2.046,3.61a19.54,19.54,0,0,0,2.079,1.323c7.338,4.024,16.157,2.837,23.895.208l.344-1.148a1.679,1.679,0,0,1-1.446-2.395c.613-1.233,1.208-2.475,1.8-3.719a99.99,99.99,0,0,0,5.676-13.5c.471-1.544.844-3.123,1.252-4.684a46.307,46.307,0,0,0,1.1-5.019A16.108,16.108,0,0,0,297.679,192.742Z"/>
        <path class="b" d="M290.287,148.1a6.093,6.093,0,0,1-2.933-.795c-.085.7-.19,1.383-.305,2.043-1.12,6.454-4.144,12.989-2.06,19.561a101.084,101.084,0,0,1,1.766-10.572,8.161,8.161,0,0,1,1.769-3.965,4.907,4.907,0,0,1,4.856-.854c3.3,1.278,2.68,5.8,2.429,8.623a101.234,101.234,0,0,0-.553,11.9,64.439,64.439,0,0,0,1.557,11.91,1.547,1.547,0,0,1-.832,1.76A18.566,18.566,0,0,0,297.773,191a1.534,1.534,0,0,1,.473-.423,1.594,1.594,0,0,1,2.165.567c.049.107.088.215.135.322a20.221,20.221,0,0,0,1.429-1.44,1.461,1.461,0,0,1,.092-1.371c2.761-4.1,3.682-9.267,3.771-14.133a1.744,1.744,0,0,1,.036-.307c-6.129-7.8-9.514-17.44-10.628-27.253a1.3,1.3,0,0,1,.411-1.054c-.044-.385-.086-.77-.134-1.158A5.778,5.778,0,0,1,290.287,148.1Z"/>
        <path class="b" d="M306.275,81.767a9.854,9.854,0,0,0-1.608.76c-.257.148-.51.3-.756.469q-.272.182-.532.375l-.068.05a17.089,17.089,0,0,0-2.655,2.692c-3.262,4.244-4.81,9.551-5.756,14.777a55.664,55.664,0,0,0-.68,15.251,1.5,1.5,0,0,1-.963,1.441,6.055,6.055,0,0,1,2.117,2.138c.211-.292.419-.587.632-.877a1.632,1.632,0,0,1-.154-.126,1.6,1.6,0,0,1,0-2.238,37.536,37.536,0,0,0,7.031-8.822c2.059-3.275,3.914-6.675,6.009-9.928a1.648,1.648,0,0,1,2.949.492c.844-.786,1.634-1.637,2.453-2.436a1.538,1.538,0,0,1-.72-1.766c1.586-3.994,5.246-6.217,9.437-6.6,3.91-.356,7.864,1.167,11.147,3.176,3.7,2.263,6.736,5.344,9.78,8.392,1.514,1.517,3.042,3.024,4.682,4.406,1.433,1.207,2.918,2.333,4.312,3.589,2.13,1.918,5.05,5.014,8.2,4.573a1.625,1.625,0,0,1,1.946,1.1,1.593,1.593,0,0,1-1.105,1.947,8.556,8.556,0,0,1-2.948-.1,11.708,11.708,0,0,0,4.305,4.967,6.034,6.034,0,0,1,1.747-1.627,1.607,1.607,0,0,1-.105-.609,105.729,105.729,0,0,0-1.28-19.034A1.62,1.62,0,0,1,364.8,96.26a1.713,1.713,0,0,1,1.287.21,13.007,13.007,0,0,0-.517-2.745,1.621,1.621,0,0,1-3.114.15,44.883,44.883,0,0,0-2.537-6.549,33.024,33.024,0,0,0-3.309-5.416c-5.241-6.723-13.191-9.726-21.576-10.637a30,30,0,0,0-12.807,1.289c-3.758,1.216-7.811,3.245-9.571,6.756-.914,1.822-3.643.218-2.733-1.6.1-.2.218-.4.331-.591a22.083,22.083,0,0,0-3.17,2.131,1.529,1.529,0,0,1,.3.561A1.624,1.624,0,0,1,306.275,81.767Zm3.141-1.464a1.622,1.622,0,0,1,1.105,1.946,26.487,26.487,0,0,0-.195,6.02c.109,2.1.322,4.187.439,6.283a1.6,1.6,0,0,1-1.582,1.582,1.617,1.617,0,0,1-1.582-1.582c-.243-4.354-.977-8.813-.131-13.144A1.6,1.6,0,0,1,309.416,80.3Z"/>
        <path class="b" d="M291.262,116.845a2.036,2.036,0,0,1-.206-.7,53.387,53.387,0,0,1-.113-8.6A52.651,52.651,0,0,1,294.766,90.1c2.106-4.921,5.486-9.486,10.668-11.383a1.521,1.521,0,0,1,1.646.544,22.083,22.083,0,0,1,3.17-2.131c2.524-4.345,7.805-6.721,12.435-8.01a34.89,34.89,0,0,1,7.029-1.2,36.3,36.3,0,0,1,7.375.451,38.343,38.343,0,0,1,13.559,4.3c7.772,4.37,12.283,12.058,14.855,20.367a1.575,1.575,0,0,1,.063.691,13.007,13.007,0,0,1,.517,2.745,1.306,1.306,0,0,1,.659.895A110.311,110.311,0,0,1,368.137,117a5.739,5.739,0,0,1,5.186,3.3,1.69,1.69,0,0,1,.428-.058q.3,0,.6.029l.085-1.194a1.584,1.584,0,0,1-2.385-1.334v-1.018q0-5.046,0-10.092a40.175,40.175,0,0,0-2.844-14.9,41.666,41.666,0,0,0-22.48-22.552,44.1,44.1,0,0,0-33.559-.086,41.7,41.7,0,0,0-22.535,22.252,39.921,39.921,0,0,0-3,15.232q0,4.432,0,8.863a1.454,1.454,0,0,1-1.224,1.489c.078.38.178.759.279,1.139A5.7,5.7,0,0,1,291.262,116.845Z"/>
        <path class="b" d="M366.484,156.107a37.278,37.278,0,0,1-9.412,12.425c-.824.706-1.683,1.362-2.557,1.994A13.5,13.5,0,0,1,355,173.7a1.5,1.5,0,0,1,1.089,1.441,53.044,53.044,0,0,0,1.266,9.768l3.8,1.718a1.573,1.573,0,0,1,2.319-1.094,34.3,34.3,0,0,0,4.928,2.306,79.273,79.273,0,0,0,13.743,3.448c-.195-.447-.385-.888-.574-1.329a1.591,1.591,0,0,1-2.893-.346q-.978-3.759-1.928-7.524c-2.328-9.2-4.577-18.416-6.968-27.6a1.582,1.582,0,0,1,1.7-1.961c-.222-1.658-.371-3.3-.555-5a5.831,5.831,0,0,1-1.615.635A44.945,44.945,0,0,1,366.484,156.107Z"/>
        <path class="b" d="M340.26,177.089a5.13,5.13,0,0,1-.161.521,5.513,5.513,0,0,1-5.054,3.5c-2.126,0-4.253.03-6.378,0A5.557,5.557,0,0,1,324,178.561a5.437,5.437,0,0,1,4.64-8.323c.966-.016,1.933,0,2.9,0,2.62,0,5.587-.4,7.521,1.792a5.609,5.609,0,0,1,1.163,2.126,1.586,1.586,0,0,1,.221-.1,46.031,46.031,0,0,0,9.065-4,37.112,37.112,0,0,0,6.031-4.387c.841-2.156,1.648-4.344,2.595-6.393a1.59,1.59,0,0,1-.8-1.822,46.673,46.673,0,0,0,1.5-6.976q.266-1.61.5-3.224.062-.427.121-.857c0,.024.006-.056.06-.436-.015.1-.028.206-.042.309l-.018.127c0-.018.013-.086.021-.145a1.622,1.622,0,0,1,1.582-1.582,1.732,1.732,0,0,1,1.143.494c.073-.473.121-.96.149-1.456a6.059,6.059,0,0,1-.162-1.149c-.012-.358,0-.718,0-1.077v-6.25c0-4.1-.061-8.2,0-12.3a6.041,6.041,0,0,1,1.152-3.46,11.708,11.708,0,0,1-4.305-4.967c-2.908-.6-5.353-2.62-7.625-4.655-2.882-2.583-5.95-4.917-8.707-7.641-2.879-2.844-5.638-5.878-9.007-8.16-2.993-2.028-6.547-3.709-10.246-3.5-2.8.158-5.73,1.579-6.814,4.309a1.62,1.62,0,0,1-1.946,1.1,1.451,1.451,0,0,1-.385-.181c-.819.8-1.609,1.65-2.453,2.436a1.4,1.4,0,0,1-.217,1.1c-2.14,3.324-4.031,6.8-6.143,10.142a39.9,39.9,0,0,1-7.392,9.249,1.629,1.629,0,0,1-2.083.126c-.213.29-.421.585-.632.877a5.673,5.673,0,0,1,.6,1.425,8.228,8.228,0,0,1,.192,2.092v13.7c0,1.679.006,3.359,0,5.038a6.441,6.441,0,0,1-.639,2.775c.048.388.09.773.134,1.158a1.714,1.714,0,0,1,1.171-.528,1.63,1.63,0,0,1,1.582,1.582,53.527,53.527,0,0,0,4.231,15.776c3.855,8.6,10.519,16.932,19.707,20.077a22.243,22.243,0,0,0,13.938.36,26.023,26.023,0,0,0,11.833-7.957,1.6,1.6,0,0,1,2.238,0,1.624,1.624,0,0,1,0,2.237A28.626,28.626,0,0,1,335.4,186.7c-9.892,2.3-19.683-2.11-26.56-9.1a26.954,26.954,0,0,1-4.039,12.648,1.563,1.563,0,0,1-2.824-.226,20.221,20.221,0,0,1-1.429,1.44,19.922,19.922,0,0,1,1.484,11.54c-.167,1.052-.4,2.092-.649,3.127.085.631.155,1.246.224,1.861a1.6,1.6,0,0,1,.859-.269,1.623,1.623,0,0,1,1.582,1.582q.258,3.077.488,6.153l1.368.228a1.359,1.359,0,0,1,1.582-.468,66.331,66.331,0,0,0,10.381,2.432,78.2,78.2,0,0,0,37.854-3.72,1.469,1.469,0,0,1,1.444.334l1.519-.836q.065-3.243.092-6.486c.036-4.911.106-9.887-.337-14.791a1.642,1.642,0,0,1-2.59-.738,58.827,58.827,0,0,1-2.919-16.272A1.506,1.506,0,0,1,355,173.7a13.5,13.5,0,0,0-.488-3.177,47.521,47.521,0,0,1-13.234,6.584A1.43,1.43,0,0,1,340.26,177.089Zm3.225-44.875a1.583,1.583,0,0,1,0-3.165A1.583,1.583,0,0,1,343.485,132.214Zm-5.393-14.191a24,24,0,0,1,14.874.854,1.619,1.619,0,0,1,1.105,1.947,1.594,1.594,0,0,1-1.946,1.105,21.812,21.812,0,0,0-6.525-1.557,21.514,21.514,0,0,0-6.667.7C336.956,121.579,336.12,118.526,338.092,118.023ZM328.107,133.4a33.018,33.018,0,0,1,3.8-9.429c.97-1.794,3.7-.194,2.733,1.6a30.674,30.674,0,0,0-3.436,8.443,16.37,16.37,0,0,0,.835,8.57,1.6,1.6,0,0,1-1.105,1.946,1.619,1.619,0,0,1-1.946-1.105A19.588,19.588,0,0,1,328.107,133.4Zm-.034,15.875a1.633,1.633,0,0,1,1.119-.464h2.424a1.646,1.646,0,0,1,1.119.464,1.583,1.583,0,0,1,0,2.237,1.633,1.633,0,0,1-1.119.464h-2.424a1.642,1.642,0,0,1-1.119-.464,1.583,1.583,0,0,1,0-2.237Zm-19.322-27.345a1.594,1.594,0,0,1-1.946-1.105,1.629,1.629,0,0,1,1.105-1.947,24,24,0,0,1,14.874-.854c1.975.5,1.133,3.555-.841,3.051a21.514,21.514,0,0,0-6.667-.7A21.812,21.812,0,0,0,308.751,121.929Zm7.017,9.664a1.583,1.583,0,0,1,0-3.164A1.583,1.583,0,0,1,315.768,131.593Zm2.081,29.334a1.529,1.529,0,0,1,.168-1.81,1.405,1.405,0,0,1,.151-.167l.012-.012a1.383,1.383,0,0,1,.516-.3l.042-.014a1.64,1.64,0,0,1,.222-.049c.043-.007.087-.01.13-.013s.081-.012.125-.012q1.106,0,2.21-.009c3.469-.02,6.938-.057,10.406-.129,3.242-.068,6.518-.08,9.746-.425a1.591,1.591,0,0,1,1.366,2.381c-2.785,4.195-7.155,7.519-12.345,7.7C325.356,168.254,320.788,165.035,317.849,160.927Z"/>
        <path class="b" d="M360.583,160a38.375,38.375,0,0,0,5.512-12.031,6.074,6.074,0,0,1-.883-.384,5.889,5.889,0,0,1-2.87-3.88c-.028.5-.076.983-.149,1.456a1.288,1.288,0,0,1,.439,1.088q-.325,2.47-.73,4.93a47.47,47.47,0,0,1-1.519,7.114,1.612,1.612,0,0,1-1.947,1.105,1.471,1.471,0,0,1-.305-.125c-.947,2.049-1.754,4.237-2.595,6.393A33.152,33.152,0,0,0,360.583,160Z"/>
        <path class="f" d="M295.323,232.371a1.52,1.52,0,0,1,.049.476,1.3,1.3,0,0,1-.049.644q-.886,2.55-1.77,5.1-1.355,3.9-2.7,7.812h12.428c-.554-10.5-1.163-21-1.963-31.477l-.283-.047.283.047c-.143-1.873-.28-3.746-.437-5.618a1.462,1.462,0,0,1,.723-1.313c-.069-.615-.139-1.23-.224-1.861q-.25,1.028-.521,2.05c-.4,1.524-.76,3.068-1.236,4.571a76.7,76.7,0,0,1-2.877,7.336q-2.277,5.245-4.831,10.371a1.317,1.317,0,0,1-1.286.8l-.344,1.148c1.052-.357,2.085-.741,3.091-1.142A1.592,1.592,0,0,1,295.323,232.371Z"/>
        <path class="f" d="M270.958,237.254a22.742,22.742,0,0,1-8.19-3.653l-1.16,2.048,1.16-2.048a25.047,25.047,0,0,1-4.157-3.705c-.946,2.108-1.911,4.208-2.865,6.312L251.122,246.4H287.51q1.9-5.514,3.817-11.024c-1.574.538-3.17,1.015-4.789,1.4A34.868,34.868,0,0,1,270.958,237.254Z"/>
        <path class="g" d="M257.15,86.634l.339,1.083a1.583,1.583,0,1,0,3.051-.842l-2.364-7.546-.339-1.082a1.582,1.582,0,0,0-3.051.841Z"/>
        <path class="g" d="M241.474,88.807l7.8,5.711,1.108.811a1.588,1.588,0,0,0,2.165-.567,1.628,1.628,0,0,0-.568-2.165l-7.8-5.711-1.108-.811a1.588,1.588,0,0,0-2.165.567A1.628,1.628,0,0,0,241.474,88.807Z"/>
        <path class="g" d="M236.615,102.574l7.506,2.215,1.091.323a1.583,1.583,0,0,0,.841-3.052l-7.506-2.216-1.091-.322a1.583,1.583,0,1,0-.841,3.052Z"/>
        <polygon class="g" points="303.311 83.421 303.311 83.421 303.311 83.421 303.311 83.421"/>
        <path class="g" d="M307.08,79.26a31.6,31.6,0,0,0-4.809,4.985,31.6,31.6,0,0,1,4.809-4.985,1.521,1.521,0,0,0-1.646-.544c-5.182,1.9-8.562,6.462-10.668,11.383a52.651,52.651,0,0,0-3.823,17.438,53.387,53.387,0,0,0,.113,8.6,2.036,2.036,0,0,0,.206.7,5.7,5.7,0,0,0-4.577,1.226,8.848,8.848,0,0,1,.4,2.248,8.848,8.848,0,0,0-.4-2.248,6.086,6.086,0,0,0-2.274,4.624c-.012.755-.016,1.509-.02,2.264a4.06,4.06,0,0,0-3.242.117,6.067,6.067,0,0,0-2.726,3.415c-1.065,2.63-1.755,5.463-2.612,8.168q-1.486,4.7-2.983,9.4-1.543,4.863-3.064,9.734a1.375,1.375,0,0,0,.38,1.5,30.152,30.152,0,0,1,.483-3.43,30.152,30.152,0,0,0-.483,3.43,1.626,1.626,0,0,0,2.671-.66c1.631-5.261,3.31-10.506,4.978-15.756q1.252-3.947,2.5-7.9c.359-1.146.649-2.347,1.109-3.457.29-.7.791-1.756,1.587-1.707.917.057,1.289.942,1.407,1.823q0,.671.007,1.342c-.223,1.892-1,3.661-1.126,5.58a1.278,1.278,0,0,0,.016.277,3.109,3.109,0,0,0-.686.088,4.975,4.975,0,0,0-3.1,3.237,39.3,39.3,0,0,0-1.566,6.03q-.774,3.336-1.476,6.688-1.4,6.7-2.508,13.465a1.629,1.629,0,0,0,1.105,1.946,1.594,1.594,0,0,0,1.946-1.1q1.841-11.213,4.485-22.273a13.9,13.9,0,0,1,1.349-4.379,3.966,3.966,0,0,1,.447-.516c.057-.063.072-.029.085-.021a2.065,2.065,0,0,1,.489.83c.925,2.788.492,6.021-.079,8.832-1.271,6.262-3.776,12.572-2.153,19.02a36.793,36.793,0,0,0,4.122,9.014c1.183,2.081,2.308,4.2,3.434,6.31a57.982,57.982,0,0,1,3.467,7.41,19.116,19.116,0,0,1,1,3.66c.006.042.012.093.014.106.017.16.031.319.039.479a7.411,7.411,0,0,1,.007.76c-.006.121-.015.24-.027.36,0,.015,0,.021,0,.023-.006.024-.015.055-.028.1-.031.112-.252.767-.1.424a1.633,1.633,0,0,0,.567,2.164,1.594,1.594,0,0,0,2.165-.567c.949-2.174.588-4.555-.059-6.77a34.5,34.5,0,0,0-1.623-4.331,1.71,1.71,0,0,0,1.381-.112,12.23,12.23,0,0,1-.672-2.208,12.23,12.23,0,0,0,.672,2.208,1.547,1.547,0,0,0,.832-1.76,64.439,64.439,0,0,1-1.557-11.91,101.234,101.234,0,0,1,.553-11.9c.251-2.824.873-7.345-2.429-8.623a4.907,4.907,0,0,0-4.856.854,8.161,8.161,0,0,0-1.769,3.965,101.084,101.084,0,0,0-1.766,10.572c-2.084-6.572.94-13.107,2.06-19.561.115-.66.22-1.345.305-2.043a6.093,6.093,0,0,0,2.933.795,5.778,5.778,0,0,0,5.236-3.354,13.767,13.767,0,0,0-.847-3.548,13.767,13.767,0,0,1,.847,3.548,6.441,6.441,0,0,0,.639-2.775c.006-1.679,0-3.359,0-5.038v-13.7a8.228,8.228,0,0,0-.192-2.092,5.673,5.673,0,0,0-.6-1.425,7.686,7.686,0,0,1-2.44,2.408A4.96,4.96,0,0,1,293,123v18.191c0,.347.008.7,0,1.042a2.744,2.744,0,0,1-2.711,2.711,2.773,2.773,0,0,1-2.689-2.274,7.341,7.341,0,0,1-.022-1.13V130.771a7.625,7.625,0,0,0,0-1.19V123.6c0-.319-.007-.64,0-.96a2.71,2.71,0,0,1,5.118-1.25,2.547,2.547,0,0,1,.24.736,7.686,7.686,0,0,0,2.44-2.408,6.055,6.055,0,0,0-2.117-2.138,1.5,1.5,0,0,0,.963-1.441,55.664,55.664,0,0,1,.68-15.251c.946-5.226,2.494-10.533,5.756-14.777a17.089,17.089,0,0,1,2.655-2.692h0c-.05.039-.158.118,0,0h0l.068-.05q.261-.193.532-.375c.246-.165.5-.321.756-.469a9.854,9.854,0,0,1,1.608-.76,1.624,1.624,0,0,0,1.105-1.946A1.529,1.529,0,0,0,307.08,79.26Zm-16.325,77.334c-.011.022-.015.026-.023.041h0C290.739,156.622,290.748,156.608,290.755,156.594Zm-3.02,15.325c.544-3.651,1.044-7.307,1.7-10.939a19.575,19.575,0,0,1,.927-3.656,6.133,6.133,0,0,1,.333-.626c-.016.021-.01,0,.012-.03l.006,0,.005-.011h0l-.007.011c.089-.04.3-.152.3-.152a1.9,1.9,0,0,1,1.274-.033c.131.058.1.056.263.188-.122-.1.092.336,0,.009.029.1.064.2.09.3a7.8,7.8,0,0,1,.17,1.929c.008,1.386-.122,2.766-.248,4.145a91.492,91.492,0,0,0-.466,11.115,67.434,67.434,0,0,0,1.383,11.271q-.231-.469-.467-.934c-1.052-2.076-2.173-4.118-3.277-6.166-.966-1.8-2.047-3.551-3-5.367A1.4,1.4,0,0,0,287.735,171.919Z"/>
        <path class="g" d="M290.715,156.665h0l-.018.032C290.7,156.692,290.709,156.677,290.715,156.665Z"/>
        <path class="g" d="M350.357,175.219a1.6,1.6,0,0,0-2.238,0,26.023,26.023,0,0,1-11.833,7.957,22.243,22.243,0,0,1-13.938-.36c-9.188-3.145-15.852-11.475-19.707-20.077a53.527,53.527,0,0,1-4.231-15.776,1.63,1.63,0,0,0-1.582-1.582,1.714,1.714,0,0,0-1.171.528,15.136,15.136,0,0,0,.918,4.154,15.136,15.136,0,0,1-.918-4.154,1.3,1.3,0,0,0-.411,1.054c1.114,9.813,4.5,19.458,10.628,27.253a1.744,1.744,0,0,0-.036.307c-.089,4.866-1.01,10.033-3.771,14.133a1.461,1.461,0,0,0-.092,1.371,17.628,17.628,0,0,0,1.561-1.991,17.628,17.628,0,0,1-1.561,1.991,1.563,1.563,0,0,0,2.824.226,26.954,26.954,0,0,0,4.039-12.648c6.877,6.986,16.668,11.4,26.56,9.1a28.626,28.626,0,0,0,14.959-9.245A1.624,1.624,0,0,0,350.357,175.219Z"/>
        <path class="g" d="M362.193,145.164a7.32,7.32,0,0,1-1.066,3,7.32,7.32,0,0,0,1.066-3,1.732,1.732,0,0,0-1.143-.494,1.622,1.622,0,0,0-1.582,1.582c-.008.059-.018.127-.021.145q-.06.429-.121.857-.234,1.615-.5,3.224a46.673,46.673,0,0,1-1.5,6.976,1.59,1.59,0,0,0,.8,1.822c.153-.331.3-.663.465-.985-.161.322-.312.654-.465.985a1.471,1.471,0,0,0,.305.125,1.612,1.612,0,0,0,1.947-1.105,47.47,47.47,0,0,0,1.519-7.114q.4-2.458.73-4.93A1.288,1.288,0,0,0,362.193,145.164Z"/>
        <path class="g" d="M359.507,145.961c-.054.38-.064.46-.06.436l.018-.127C359.479,146.167,359.492,146.064,359.507,145.961Z"/>
        <path class="g" d="M365.5,93.034c-2.572-8.309-7.083-16-14.855-20.367a38.343,38.343,0,0,0-13.559-4.3,36.3,36.3,0,0,0-7.375-.451,34.89,34.89,0,0,0-7.029,1.2c-4.63,1.289-9.911,3.665-12.435,8.01.29-.161.575-.325.881-.478-.306.153-.591.317-.881.478-.113.195-.229.388-.331.591-.91,1.816,1.819,3.42,2.733,1.6,1.76-3.511,5.813-5.54,9.571-6.756a30,30,0,0,1,12.807-1.289c8.385.911,16.335,3.914,21.576,10.637a33.024,33.024,0,0,1,3.309,5.416,44.883,44.883,0,0,1,2.537,6.549,1.621,1.621,0,0,0,3.114-.15,8.331,8.331,0,0,0-1.274-2.518,8.331,8.331,0,0,1,1.274,2.518A1.575,1.575,0,0,0,365.5,93.034Z"/>
        <path class="g" d="M308.892,97.729c-2.095,3.253-3.95,6.653-6.009,9.928a37.536,37.536,0,0,1-7.031,8.822,1.6,1.6,0,0,0,0,2.238,1.632,1.632,0,0,0,.154.126,7.078,7.078,0,0,1,2.467-2.322,7.078,7.078,0,0,0-2.467,2.322,1.629,1.629,0,0,0,2.083-.126,39.9,39.9,0,0,0,7.392-9.249c2.112-3.341,4-6.818,6.143-10.142a1.4,1.4,0,0,0,.217-1.1,10.658,10.658,0,0,1-3.874,2.479,10.658,10.658,0,0,0,3.874-2.479A1.648,1.648,0,0,0,308.892,97.729Z"/>
        <path class="g" d="M310.521,82.249a1.622,1.622,0,0,0-1.105-1.946,1.6,1.6,0,0,0-1.946,1.105c-.846,4.331-.112,8.79.131,13.144a1.617,1.617,0,0,0,1.582,1.582,1.6,1.6,0,0,0,1.582-1.582c-.117-2.1-.33-4.186-.439-6.283A26.487,26.487,0,0,1,310.521,82.249Z"/>
        <path class="g" d="M322.784,118.023a24,24,0,0,0-14.874.854,1.629,1.629,0,0,0-1.105,1.947,1.594,1.594,0,0,0,1.946,1.105,21.812,21.812,0,0,1,6.525-1.557,21.514,21.514,0,0,1,6.667.7C323.917,121.578,324.759,118.527,322.784,118.023Z"/>
        <path class="g" d="M315.768,131.593a1.583,1.583,0,0,0,0-3.164A1.583,1.583,0,0,0,315.768,131.593Z"/>
        <path class="g" d="M343.485,129.049a1.583,1.583,0,0,0,0,3.165A1.583,1.583,0,0,0,343.485,129.049Z"/>
        <path class="g" d="M334.639,125.567c.968-1.791-1.763-3.391-2.733-1.6a33.018,33.018,0,0,0-3.8,9.429,19.588,19.588,0,0,0,.88,10.022,1.619,1.619,0,0,0,1.946,1.105,1.6,1.6,0,0,0,1.105-1.946,16.37,16.37,0,0,1-.835-8.57A30.674,30.674,0,0,1,334.639,125.567Z"/>
        <path class="g" d="M328.073,151.511a1.642,1.642,0,0,0,1.119.464h2.424a1.633,1.633,0,0,0,1.119-.464,1.583,1.583,0,0,0,0-2.237,1.646,1.646,0,0,0-1.119-.464h-2.424a1.633,1.633,0,0,0-1.119.464,1.583,1.583,0,0,0,0,2.237Z"/>
        <path class="g" d="M317.849,160.927c2.939,4.108,7.507,7.327,12.749,7.141,5.19-.184,9.56-3.508,12.345-7.7a1.591,1.591,0,0,0-1.366-2.381c-3.228.345-6.5.357-9.746.425-3.468.072-6.937.109-10.406.129q-1.106.006-2.21.009c-.044,0-.082.009-.125.012s-.087.006-.13.013a1.64,1.64,0,0,0-.222.049l-.042.014a1.383,1.383,0,0,0-.516.3l-.012.012a1.405,1.405,0,0,0-.151.167A1.529,1.529,0,0,0,317.849,160.927Zm18.98.507,1.22-.048A11.366,11.366,0,0,1,330.6,164.9a11.23,11.23,0,0,1-7.92-3.206C327.4,161.674,332.115,161.61,336.829,161.434Z"/>
        <path class="g" d="M300.546,191.467c-.047-.107-.086-.215-.135-.322a1.594,1.594,0,0,0-2.165-.567,1.534,1.534,0,0,0-.473.423c.39.585.8,1.158,1.223,1.728A18.334,18.334,0,0,0,300.546,191.467Z"/>
        <path class="g" d="M300.546,191.467a18.334,18.334,0,0,1-1.55,1.262q.369.5.743,1-.375-.5-.743-1c-.174.126-.348.253-.523.369.175-.116.349-.243.523-.369-.42-.57-.833-1.143-1.223-1.728a1.723,1.723,0,0,0-.094,1.741,16.108,16.108,0,0,1,1.335,9.2,46.307,46.307,0,0,1-1.1,5.019c-.408,1.561-.781,3.14-1.252,4.684a99.99,99.99,0,0,1-5.676,13.5c-.59,1.244-1.185,2.486-1.8,3.719a1.679,1.679,0,0,0,1.446,2.395l.9-3-.9,3a1.317,1.317,0,0,0,1.286-.8q2.547-5.121,4.831-10.371a76.7,76.7,0,0,0,2.877-7.336c.476-1.5.835-3.047,1.236-4.571q.268-1.023.521-2.05c-.1-.733-.218-1.485-.376-2.277.158.792.277,1.544.376,2.277.252-1.035.482-2.075.649-3.127A19.922,19.922,0,0,0,300.546,191.467Z"/>
        <path class="g" d="M272.77,174.864c-1.042-4.427-1.778-9.071-1.056-13.61a1.631,1.631,0,0,0-1.105-1.946,1.5,1.5,0,0,0-.577-.035c-.037,1.1-.038,2.229-.038,3.448,0-1.219,0-2.344.038-3.448a1.507,1.507,0,0,0-1.369,1.14c-1.367,8.591,1.487,16.975,3.7,25.168a76.43,76.43,0,0,1,1.885,8.4l1.437-.575-1.437.575a36.556,36.556,0,0,1,.408,4.021,34.076,34.076,0,0,1-2.223,12.825,101.232,101.232,0,0,1-6.822,14.25,1.56,1.56,0,0,0,.742,2.192l1.235-2.179-1.235,2.179a1.424,1.424,0,0,0,1.99-.595c4.45-8.186,9.17-16.9,9.489-26.436C278.128,191.527,274.735,183.209,272.77,174.864Z"/>
        <path class="g" d="M357.163,214.267l-3.673,2.02,3.673-2.02a1.469,1.469,0,0,0-1.444-.334,78.2,78.2,0,0,1-37.854,3.72,66.331,66.331,0,0,1-10.381-2.432,1.359,1.359,0,0,0-1.582.468l7.808,1.3-7.808-1.3a1.636,1.636,0,0,0,.741,2.584c12.6,4.068,26.445,4.275,39.36,1.654a75.279,75.279,0,0,0,10.557-2.943,1.567,1.567,0,0,0,.6-2.717Z"/>
        <path class="g" d="M451.579,307.138c-.221-4.224-1.571-8.21-2.757-12.237-2.478-8.414-5.01-16.827-7.937-25.1-1.3-3.672-2.808-7.256-4.209-10.891-1.694-4.4-3.266-8.84-4.819-13.289-3.153-9.024-6.314-18.044-10.262-26.759-1.4-3.1-2.542-6.319-3.981-9.4a22.578,22.578,0,0,0-5.418-7.416c-8.4-7.471-19.343-8.823-30.051-10.754.337.774.7,1.569,1.133,2.441-.436-.872-.8-1.667-1.133-2.441a79.273,79.273,0,0,1-13.743-3.448,34.3,34.3,0,0,1-4.928-2.306,1.573,1.573,0,0,0-2.319,1.094l2.13.963-2.13-.963a1.42,1.42,0,0,0,.722,1.639c6.707,3.812,14.4,5.182,21.9,6.506,7.339,1.294,15.029,2.487,21.586,6.244a23.52,23.52,0,0,1,7.376,6.284,35.553,35.553,0,0,1,3.771,7.622c1.574,3.9,3.375,7.706,4.966,11.6,1.77,4.333,3.385,8.726,4.947,13.137,3.057,8.635,6.072,17.259,9.466,25.77,2.874,7.207,5.153,14.664,7.416,22.08q2.082,6.822,4.054,13.677a26.247,26.247,0,0,1,.957,9.986,25.389,25.389,0,0,1-8.63,16.363,24.55,24.55,0,0,1-8.159,4.695A27.477,27.477,0,0,1,423.1,333.6c-2.224.045-4.449.108-6.673.175l.054-.975,1.057-19.029,1.1-19.886.09-1.631,7.141-5.062,1.436-1.019a1.624,1.624,0,0,0,.567-2.164,1.594,1.594,0,0,0-2.164-.568l-6.757,4.79.684-12.317.738-13.283c.107-1.942.233-3.883.323-5.826a9.956,9.956,0,0,0-4.884-9.157,10.239,10.239,0,0,0-5.092-1.24q-2.507,0-5.012,0H403.92c.5-3.607.992-7.216,1.394-10.837q.931-8.367,1.278-16.783c.081-2.037-3.084-2.033-3.164,0-.368,9.257-1.384,18.45-2.665,27.62H360.551q.312-5.82.576-11.643c.373-8.38.671-16.766.783-25.155.077-5.809.166-11.666-.31-17.462q-.056-.683-.131-1.363a1.629,1.629,0,0,0-1.582-1.582,1.726,1.726,0,0,0-1.231.595q-.753-2.419-1.3-4.881l-1.56-.706,1.56.706a53.044,53.044,0,0,1-1.266-9.768A1.5,1.5,0,0,0,355,173.7c.125,2.3,0,4.616,1.061,6.738C355,178.319,355.128,176,355,173.7a1.506,1.506,0,0,0-2.075,1.441,58.827,58.827,0,0,0,2.919,16.272,1.642,1.642,0,0,0,2.59.738c.443,4.9.373,9.88.337,14.791q-.025,3.243-.092,6.486l1.849-1.017-1.849,1.017c-.117,5.977-.325,11.953-.573,17.926q-.314,7.525-.721,15.046H306.445q-.425-8.035-.9-16.068-.454-7.44-1.009-14.874l-3.215-.535c.8,10.482,1.409,20.979,1.963,31.477H290.854q1.349-3.906,2.7-7.812.884-2.55,1.77-5.1a1.3,1.3,0,0,0,.049-.644,1.52,1.52,0,0,0-.049-.476,1.592,1.592,0,0,0-1.946-1.105c-1.006.4-2.039.785-3.091,1.142l-.867,2.889.867-2.889c-7.738,2.629-16.557,3.816-23.895-.208a19.54,19.54,0,0,1-2.079-1.323l-1.544,2.724a22.742,22.742,0,0,0,8.19,3.653,34.868,34.868,0,0,0,15.58-.477c1.619-.383,3.215-.86,4.789-1.4q-1.914,5.51-3.817,11.024H251.122l4.624-10.195c.954-2.1,1.919-4.2,2.865-6.312a25.047,25.047,0,0,0,4.157,3.705l1.544-2.724a21.161,21.161,0,0,1-4.5-4.44,1.633,1.633,0,0,0-2.165-.568,1.663,1.663,0,0,0-.662.805,1.254,1.254,0,0,0-.649.62l-2.674,5.9q-2.994,6.6-5.987,13.2a13.966,13.966,0,0,0-3.035.269,9.833,9.833,0,0,0-7.417,10.082c.019.439.049.878.073,1.316l.507,9.131.048.863q-2.534,5.586-5.068,11.172c-1.09,2.405-2.2,4.8-3.272,7.214-.015.035-.031.069-.046.1a1.629,1.629,0,0,0,.567,2.164,1.6,1.6,0,0,0,2.165-.567q1.336-2.949,2.674-5.9l3.357-7.4.435,7.834q.53,9.534,1.058,19.068l1.1,19.877q.184,3.321.368,6.643a24.878,24.878,0,0,1-7.551-2.688,25.194,25.194,0,0,1-11.209-13.253,26.47,26.47,0,0,1-1.119-15.508c.742-3,1.577-5.972,2.388-8.951q2.784-10.226,5.625-20.436l.118-.424a1.53,1.53,0,0,0-1.422-1.949l-3.375,13.9,3.375-13.9a1.466,1.466,0,0,0-1.63,1.108q-2.572,9.272-5.112,18.552c-.944,3.454-1.9,6.906-2.793,10.373a30.11,30.11,0,0,0-.153,14.658,29.47,29.47,0,0,0,10.444,16.415,27.357,27.357,0,0,0,12.593,5.322q.225,4.06.451,8.121.365,6.573.73,13.146c.1,1.873.186,3.749.312,5.621a9.922,9.922,0,0,0,7.029,8.809,11.684,11.684,0,0,0,3.449.429h151.79a10,10,0,0,0,9.907-8.949c.043-.483.058-.969.085-1.453q.249-4.477.5-8.956.314-5.65.628-11.3l5.218-.144a51.23,51.23,0,0,0,6.42-.422,27.617,27.617,0,0,0,9.709-3.475,28.723,28.723,0,0,0,12.61-15.624A27.723,27.723,0,0,0,451.579,307.138Zm-36.088-13.606q-.543,9.8-1.088,19.609-.526,9.468-1.051,18.938-.43,7.74-.86,15.481-.258,4.662-.517,9.325c-.028.5-.048,1-.084,1.5a6.783,6.783,0,0,1-6.762,6.061H253.58c-.434,0-.87.012-1.3-.015a6.741,6.741,0,0,1-6.253-6.076c-.113-1.9-.21-3.8-.316-5.692q-.361-6.528-.725-13.057-.489-8.818-.979-17.636-.546-9.844-1.093-19.687l-1.053-18.967q-.43-7.773-.863-15.546-.261-4.713-.523-9.426c-.029-.524-.063-1.049-.087-1.573A6.66,6.66,0,0,1,246,249.612a29.885,29.885,0,0,1,3.69-.045H410.519a8.312,8.312,0,0,1,2.6.326,6.709,6.709,0,0,1,4.411,6.923c-.091,1.937-.215,3.874-.323,5.81l-.729,13.138Z"/>
        <path class="g" d="M304.046,209.308a1.623,1.623,0,0,0-1.582-1.582,1.6,1.6,0,0,0-.859.269c.169,1.522.328,3.032.666,4.722-.338-1.69-.5-3.2-.666-4.722a1.462,1.462,0,0,0-.723,1.313c.157,1.872.294,3.745.437,5.618l3.215.535Q304.3,212.385,304.046,209.308Z"/>
        <path class="g" d="M272.254,194.778l-7.126,2.851,7.126-2.851a1.584,1.584,0,0,0-2.316-1.07c-7.2,4-16.577,3.45-22.886,9.232-4.156,3.809-5.645,9.581-7.3,14.765-2.028,6.343-3.749,12.778-5.458,19.213-1.93,7.266-3.853,14.538-6.176,21.691a1.411,1.411,0,0,0,1.016,1.859l1.5-6.161-1.5,6.161a1.581,1.581,0,0,0,2.036-1.018c4.052-12.482,6.869-25.318,10.687-37.869.956-3.141,1.974-6.263,3.089-9.351a18.156,18.156,0,0,1,3.3-5.988c2.589-2.907,6.032-4.206,9.753-5.225,4.619-1.264,9.311-2.227,13.543-4.577A1.407,1.407,0,0,0,272.254,194.778Z"/>
        <path class="g" d="M380.264,129.5a30.947,30.947,0,0,0-.043-3.392,6.588,6.588,0,0,0-6.47-5.863,1.69,1.69,0,0,0-.428.058,5.739,5.739,0,0,0-5.186-3.3,110.311,110.311,0,0,0-1.395-19.631,1.306,1.306,0,0,0-.659-.895c.106,1.175.107,2.386.107,3.6,0-1.211,0-2.422-.107-3.6a1.713,1.713,0,0,0-1.287-.21,1.62,1.62,0,0,0-1.105,1.946,105.729,105.729,0,0,1,1.28,19.034,1.607,1.607,0,0,0,.105.609,6.034,6.034,0,0,0-1.747,1.627c.109.07.216.141.33.21a2.322,2.322,0,0,0,1.9-.633,2.322,2.322,0,0,1-1.9.633c-.114-.069-.221-.14-.33-.21a6.041,6.041,0,0,0-1.152,3.46c-.061,4.1,0,8.2,0,12.3v6.25c0,.359-.009.719,0,1.077a6.059,6.059,0,0,0,.162,1.149c.047-.82.051-1.661.051-2.5,0,.844,0,1.685-.051,2.5a5.889,5.889,0,0,0,2.87,3.88,6.074,6.074,0,0,0,.883.384A38.375,38.375,0,0,1,360.583,160a33.152,33.152,0,0,1-5.047,5.666c-.479,1.229-.972,2.445-1.511,3.615a8.1,8.1,0,0,1,.49,1.242c.874-.632,1.733-1.288,2.557-1.994a37.278,37.278,0,0,0,9.412-12.425,44.945,44.945,0,0,0,2.831-7.943,5.831,5.831,0,0,0,1.615-.635c-.09-.826-.186-1.663-.31-2.528.124.865.22,1.7.31,2.528a6.017,6.017,0,0,0,2.86-4.049,6.612,6.612,0,0,0,6.191-4.616,13.246,13.246,0,0,0,.283-3.957Zm-9.5,5.352v6.482c0,.372.008.746,0,1.118a2.714,2.714,0,0,1-5.391.443,6.956,6.956,0,0,1-.031-1.073V123.9c0-1.435.1-2.886,1.659-3.547a2.735,2.735,0,0,1,3.355,1.083,3.116,3.116,0,0,1,.408,1.739C370.775,127.063,370.764,130.956,370.764,134.848Zm6.335,2.082a3.392,3.392,0,0,1-3.171,3.378V123.423a3.372,3.372,0,0,1,3.169,3.221c.026.856,0,1.716,0,2.573C377.1,131.787,377.139,134.36,377.1,136.93Z"/>
        <path class="g" d="M353.533,170.315c.169-.338.332-.683.492-1.031a7.479,7.479,0,0,0-.492-.867,7.479,7.479,0,0,1,.492.867c.539-1.17,1.032-2.386,1.511-3.615a37.112,37.112,0,0,1-6.031,4.387,46.031,46.031,0,0,1-9.065,4,1.586,1.586,0,0,0-.221.1,5.609,5.609,0,0,0-1.163-2.126c-1.934-2.194-4.9-1.792-7.521-1.792-.966,0-1.933-.016-2.9,0a5.439,5.439,0,1,0,.031,10.877c2.125.03,4.252,0,6.378,0a5.513,5.513,0,0,0,5.054-3.5,5.13,5.13,0,0,0,.161-.521,1.43,1.43,0,0,0,1.021.021,47.521,47.521,0,0,0,13.234-6.584,8.1,8.1,0,0,0-.49-1.242C353.865,169.632,353.7,169.977,353.533,170.315Zm-18.488,7.635h-5.028a13.758,13.758,0,0,1-1.779-.021,2.285,2.285,0,0,1,0-4.5,13.574,13.574,0,0,1,1.779-.022c1.675,0,3.354-.037,5.028,0a2.274,2.274,0,0,1,0,4.548Z"/>
        <path class="g" d="M380.113,186.77c.578,1.156,1.024,2.179,1.458,3.191a1.478,1.478,0,0,0,.159-1.188c-2.391-9.181-4.641-18.4-6.969-27.6q-.953-3.765-1.928-7.524a1.418,1.418,0,0,0-1.348-1.12,35.6,35.6,0,0,0,1.034,5.126,35.6,35.6,0,0,1-1.034-5.126,1.582,1.582,0,0,0-1.7,1.961c2.391,9.182,4.64,18.4,6.968,27.6q.952,3.765,1.928,7.524a1.591,1.591,0,0,0,2.893.346C381.137,188.949,380.691,187.926,380.113,186.77Z"/>
        <path class="g" d="M361.972,114.607a1.593,1.593,0,0,0,1.105-1.947,1.625,1.625,0,0,0-1.946-1.1c-3.149.441-6.069-2.655-8.2-4.573-1.394-1.256-2.879-2.382-4.312-3.589-1.64-1.382-3.168-2.889-4.682-4.406-3.044-3.048-6.081-6.129-9.78-8.392-3.283-2.009-7.237-3.532-11.147-3.176-4.191.383-7.851,2.606-9.437,6.6a1.538,1.538,0,0,0,.72,1.766,14.011,14.011,0,0,1,2.533-2.047,14.011,14.011,0,0,0-2.533,2.047,1.451,1.451,0,0,0,.385.181,1.62,1.62,0,0,0,1.946-1.1c1.084-2.73,4.016-4.151,6.814-4.309,3.7-.208,7.253,1.473,10.246,3.5,3.369,2.282,6.128,5.316,9.007,8.16,2.757,2.724,5.825,5.058,8.707,7.641,2.272,2.035,4.717,4.053,7.625,4.655-.378-.761-.72-1.565-1.061-2.418.341.853.683,1.657,1.061,2.418A8.556,8.556,0,0,0,361.972,114.607Z"/>
        <path class="g" d="M352.125,121.929a1.594,1.594,0,0,0,1.946-1.105,1.619,1.619,0,0,0-1.105-1.947,24,24,0,0,0-14.874-.854c-1.972.5-1.136,3.556.841,3.051a21.514,21.514,0,0,1,6.667-.7A21.812,21.812,0,0,1,352.125,121.929Z"/>
        <path class="g" d="M373.424,94.24a44.51,44.51,0,0,0-21.669-26.149,47.135,47.135,0,0,0-35.4-3.475,45.4,45.4,0,0,0-26.66,21.4,42.974,42.974,0,0,0-5.067,16.751c-.34,3.788-.164,7.645-.164,11.444v1.232a1.536,1.536,0,0,0,1.94,1.489,4.383,4.383,0,0,1,.043-2.309,4.383,4.383,0,0,0-.043,2.309,1.454,1.454,0,0,0,1.224-1.489q0-4.431,0-8.863a39.921,39.921,0,0,1,3-15.232A41.7,41.7,0,0,1,313.164,69.1a44.1,44.1,0,0,1,33.559.086A41.666,41.666,0,0,1,369.2,91.734a40.175,40.175,0,0,1,2.844,14.9q0,5.046,0,10.092v1.018a1.583,1.583,0,0,0,3.164,0C375.211,109.872,375.722,101.873,373.424,94.24Z"/>
        <path class="b" d="M413.352,332.079q.525-9.469,1.051-18.938.544-9.8,1.088-19.609l.987-17.768.729-13.138c.108-1.936.232-3.873.323-5.81a6.709,6.709,0,0,0-4.411-6.923,8.312,8.312,0,0,0-2.6-.326H249.688a29.885,29.885,0,0,0-3.69.045,6.66,6.66,0,0,0-5.613,7.155c.024.524.058,1.049.087,1.573q.262,4.713.523,9.426.432,7.773.863,15.546l1.053,18.967q.548,9.843,1.093,19.687.49,8.819.979,17.636.363,6.529.725,13.057c.106,1.9.2,3.8.316,5.692a6.741,6.741,0,0,0,6.253,6.076c.433.027.869.015,1.3.015H405.129a6.783,6.783,0,0,0,6.762-6.061c.036-.5.056-1,.084-1.5q.258-4.663.517-9.325Q412.923,339.82,413.352,332.079ZM325.54,303.81a6.991,6.991,0,0,1,7.68-2.051,6.992,6.992,0,1,1-7.68,2.051Zm77.522,56.061h-.26c-2.007.037-4.018,0-6.025,0H248.44a1.583,1.583,0,0,1,0-3.164c.086,0,.173,0,.26,0,2.007-.037,4.018,0,6.025,0H403.062A1.583,1.583,0,0,1,403.062,359.871Z"/>
        <path class="b" d="M329.376,304.8c-.217.073-.068.029,0,0Z"/>
        <path class="b" d="M327.835,310.692c.049.06.124.144,0,0Z"/>
        <path class="b" d="M329.351,311.861c-.135-.064-.067-.03,0,0Z"/>
        <path class="b" d="M334.665,308.842c-.007.078-.009.186,0,0Z"/>
        <path class="b" d="M327.059,308.849l.018.1c.021.1.039.19.063.285a5.192,5.192,0,0,0,.193.6c.032.063.1.208.108.227.045.084.091.166.139.247.073.122.153.238.232.355l.017.022c.184.213.383.4.582.6.023.022.034.034.049.049l.016.011c.1.07.192.136.292.2a5.765,5.765,0,0,0,.608.332l.033.012c.137.046.271.095.411.134s.282.067.425.1l.064.016h.026a5.9,5.9,0,0,0,.752.021c.089,0,.178-.012.267-.02.048-.009.153-.024.193-.033a6.49,6.49,0,0,0,.7-.195c.036-.012.072-.026.108-.04l.106-.05c.083-.046.169-.086.251-.133a5.137,5.137,0,0,0,.517-.336c.051-.047.172-.149.187-.163.069-.063.137-.129.2-.2.082-.084.159-.172.237-.26a.514.514,0,0,1,.036-.038l.02-.031c.16-.237.295-.479.436-.728l.028-.05c.048-.121.092-.245.13-.369a5.716,5.716,0,0,0,.164-.693l0-.035c.006-.151.016-.3.018-.451,0-.182-.011-.363-.03-.543,0-.029-.009-.058-.012-.073-.07-.284-.141-.558-.234-.836a.776.776,0,0,1-.023-.075.83.83,0,0,1-.043-.071c-.07-.124-.131-.252-.2-.374s-.153-.238-.232-.355l-.039-.061-.063-.061c-.165-.167-.33-.333-.5-.5-.058-.048-.087-.073-.1-.083-.046-.033-.092-.068-.14-.1-.079-.052-.158-.1-.239-.151-.143-.085-.289-.16-.438-.235a.35.35,0,0,1-.04-.022l-.042-.013c-.277-.093-.553-.164-.836-.234a.787.787,0,0,1-.081-.022c-.021,0-.045,0-.084,0-.125,0-.25-.016-.375-.018s-.252,0-.378.008l-.234.023-.222.041c-.095.021-.189.045-.282.071-.14.039-.274.087-.411.133l-.024.008a5.761,5.761,0,0,0-.735.413c.006,0-.109.083-.178.132l-.165.145a6.023,6.023,0,0,0-.454.478c-.031.037-.066.082-.081.1-.065.1-.131.2-.192.3-.073.122-.134.25-.2.374-.02.035-.032.054-.044.073s-.011.039-.023.073c-.076.229-.151.457-.2.693-.013.06-.023.12-.034.18.018-.081-.028.242-.03.277a5.681,5.681,0,0,0,.005.678C327.05,308.757,327.055,308.8,327.059,308.849Z"/>
        <path class="g" d="M332.245,315.182a6.982,6.982,0,1,0-7.4-3.278A7.053,7.053,0,0,0,332.245,315.182ZM329.376,304.8c-.068.029-.217.073,0,0Zm-2.3,2.96c.011-.06.021-.12.034-.18.053-.236.128-.464.2-.693.012-.034.017-.052.023-.073s.024-.038.044-.073c.069-.124.13-.252.2-.374.061-.1.127-.2.192-.3.015-.023.05-.068.081-.1a6.023,6.023,0,0,1,.454-.478l.165-.145c.069-.049.184-.136.178-.132a5.761,5.761,0,0,1,.735-.413l.024-.008c.137-.046.271-.094.411-.133.093-.026.187-.05.282-.071l.222-.041.234-.023c.126-.007.252-.009.378-.008s.25.013.375.018c.039,0,.063,0,.084,0a.787.787,0,0,0,.081.022c.283.07.559.141.836.234l.042.013a.35.35,0,0,0,.04.022c.149.075.3.15.438.235.081.048.16.1.239.151.048.032.094.067.14.1.011.01.04.035.1.083.167.164.332.33.5.5l.063.061.039.061c.079.117.159.233.232.355s.134.25.2.374a.83.83,0,0,0,.043.071.776.776,0,0,0,.023.075c.093.278.164.552.234.836,0,.015.008.044.012.073.019.18.028.361.03.543,0,.151-.012.3-.018.451l0,.035a5.716,5.716,0,0,1-.164.693c-.038.124-.082.248-.13.369l-.028.05c-.141.249-.276.491-.436.728l-.02.031a.514.514,0,0,0-.036.038c-.078.088-.155.176-.237.26-.065.067-.133.133-.2.2-.015.014-.136.116-.187.163a5.137,5.137,0,0,1-.517.336c-.082.047-.168.087-.251.133l-.106.05c-.036.014-.072.028-.108.04a6.49,6.49,0,0,1-.7.195c-.04.009-.145.024-.193.033-.089.008-.178.016-.267.02a5.9,5.9,0,0,1-.752-.021h-.026l-.064-.016c-.143-.033-.284-.061-.425-.1s-.274-.088-.411-.134l-.033-.012a5.765,5.765,0,0,1-.608-.332c-.1-.063-.2-.129-.292-.2l-.016-.011c-.015-.015-.026-.027-.049-.049-.2-.2-.4-.385-.582-.6l-.017-.022c-.079-.117-.159-.233-.232-.355-.048-.081-.094-.163-.139-.247-.01-.019-.076-.164-.108-.227a5.192,5.192,0,0,1-.193-.6c-.024-.1-.042-.19-.063-.285l-.018-.1c0-.046-.009-.092-.012-.138a5.681,5.681,0,0,1-.005-.678C327.044,308,327.09,307.675,327.072,307.756Zm7.593,1.086c-.009.186-.007.078,0,0Zm-5.314,3.019c-.067-.03-.135-.064,0,0Zm-1.516-1.169c.124.144.049.06,0,0Z"/>
        <path class="g" d="M403.062,356.707H254.725c-2.007,0-4.018-.037-6.025,0-.087,0-.174,0-.26,0a1.583,1.583,0,0,0,0,3.164H396.777c2.007,0,4.018.037,6.025,0h.26A1.583,1.583,0,0,0,403.062,356.707Z"/>
      </g>
      <circle class="d" cx="64.195" cy="310.692" r="11.461"/>
      <circle class="d" cx="192.249" cy="324.55" r="11.461"/>
      <circle class="d" cx="103.742" cy="238.149" r="11.461"/>
      <circle class="d" cx="622.881" cy="234.813" r="11.461"/>
      <circle class="d" cx="474.843" cy="358.289" r="11.461"/>
    </g>
    <g>
      <circle class="h" cx="73.835" cy="85.206" r="60.975"/>
      <circle class="i" cx="559.12" cy="298.604" r="52.299"/>
      <circle class="j" cx="129.019" cy="129.925" r="29.77"/>
      <circle class="j" cx="517.778" cy="249.531" r="24.218"/>
    </g>
  </g>
</svg>
