<svg xmlns="http://www.w3.org/2000/svg" xmlns:xlink="http://www.w3.org/1999/xlink" width="700" height="630" viewBox="0 0 700 630">
  <defs>
    <style>
      .a {
        fill: none;
      }

      .b {
        fill: #fff;
      }

      .c {
        fill: #33c85c;
      }

      .d {
        fill: #8cd278;
      }

      .e {
        fill: #ebebeb;
      }

      .f {
        fill: #2e2e2e;
      }

      .g {
        fill: #ffdc3f;
      }

      .h {
        fill: #00c8e7;
      }

      .i {
        fill: url(#a);
      }

      .j {
        fill: url(#b);
      }
    </style>
    <pattern id="a" data-name="新規パターン1 2" width="12.5" height="12.5" patternTransform="matrix(0.433, -0.421, 0.433, 0.421, -570.832, -113.338)" patternUnits="userSpaceOnUse" viewBox="0 0 12.5 12.5">
      <rect class="a" width="12.5" height="12.5"/>
      <rect class="b" width="12.5" height="12.5"/>
      <circle class="c" cx="6.25" cy="6.25" r="2.431"/>
    </pattern>
    <pattern id="b" data-name="新規パターン1 2" width="12.5" height="12.5" patternTransform="matrix(0.018, -1.133, 1.167, -0.017, -965.002, 641.892)" patternUnits="userSpaceOnUse" viewBox="0 0 12.5 12.5">
      <rect class="a" width="12.5" height="12.5"/>
      <rect class="b" width="12.5" height="12.5"/>
      <circle class="c" cx="6.25" cy="6.25" r="2.431"/>
    </pattern>
  </defs>
  <g>
    <rect class="d" width="700" height="630"/>
    <g>
      <path class="e" d="M422.32,441.758q19.039.046,38.079.081,42.585.081,85.171.15,37.285.065,74.573.147-.185,1.927-.368,3.855-19-.047-37.993-.081-42.567-.081-85.133-.151-37.164-.065-74.329-.147Z"/>
      <path class="e" d="M614.3,438.619l.861-2.869a1.8,1.8,0,0,0,2.629-.976l4-12.217q8.711-26.609,17.42-53.216,5.466-16.694,10.93-33.387a1.767,1.767,0,0,0-1.69-2.217c-.084,0-.169,0-.253,0-5.743-.254-11.554,0-17.3,0H505.546a1.6,1.6,0,0,0-1.619,1.213l-1.793.174a1.837,1.837,0,0,0-3.3.334l-4,12.217q-8.711,26.608-17.42,53.216-5.465,16.693-10.93,33.387a1.554,1.554,0,0,0,1.107,2.054l-.775,2.015-7.229-.016.668-1.918a1.707,1.707,0,0,0,1.549-1.2l.669-1.994,12.37-36.877,15.97-47.607,4.3-12.815c.651-1.942,1.511-3.7,3.49-4.681,2.123-1.054,4.864-.652,7.17-.652H651.363c.87,0,1.929-.143,2.639.462,1.172,1,.453,2.434.073,3.6q-.849,2.612-1.7,5.223-3.035,9.348-6.068,18.7l-16.128,49.687-8.76,26.988a1.675,1.675,0,0,0,1.986,2.126l-.6,1.452a1.733,1.733,0,0,0-.752-.187Z"/>
      <path class="b" d="M497.06,438.4l-30.24-.054.775-2.015a1.761,1.761,0,0,0,2.272-1.123q2-6.108,4-12.217,8.709-26.607,17.42-53.216l10.929-33.386a1.549,1.549,0,0,0-.082-1.266l1.793-.174a1.722,1.722,0,0,0,1.619,2.291c.084,0,.169,0,.253,0,5.742.253,11.554,0,17.3,0H646.038q-1.637,5-3.274,10-8.709,26.607-17.42,53.216l-10.929,33.386a1.515,1.515,0,0,0,.75,1.908l-.861,2.869q-16.036-.038-32.073-.068Q539.645,438.47,497.06,438.4Z"/>
      <path class="f" d="M505.238,334.824l-1.311.126a1.6,1.6,0,0,1,1.619-1.213H630.9c5.746,0,11.557-.254,17.3,0,.084,0,.169,0,.253,0a1.767,1.767,0,0,1,1.69,2.217q-5.465,16.694-10.93,33.387-8.709,26.608-17.42,53.216l-4,12.217a1.8,1.8,0,0,1-2.629.976l1.069-3.565-1.069,3.565a1.515,1.515,0,0,1-.75-1.908l10.929-33.386q8.71-26.609,17.42-53.216,1.636-5,3.274-10H523.1c-5.746,0-11.558.253-17.3,0-.084,0-.169,0-.253,0a1.722,1.722,0,0,1-1.619-2.291Z"/>
      <path class="f" d="M418.816,440v7.359a1.778,1.778,0,0,0,1.752,1.752q19.79.048,39.579.084,42.565.081,85.132.151,38.042.066,76.081.151a1.6,1.6,0,0,0,1.61-1.181,1.936,1.936,0,0,0,.143-.572q.349-3.679.7-7.358a1.651,1.651,0,0,0-1-1.566L621.3,442.5l1.51-3.676a1.733,1.733,0,0,0-.752-.187l-7.757-.016-.692,2.306.692-2.306q-16.036-.038-32.073-.068-42.586-.081-85.171-.15l-30.24-.054-1.261,3.277,1.261-3.277-7.229-.016-1.024,2.944,1.024-2.944q-19.51-.036-39.023-.081A1.776,1.776,0,0,0,418.816,440Zm3.5,1.756q19.039.046,38.079.081,42.585.081,85.171.15,37.285.065,74.573.147-.185,1.927-.368,3.855-19-.047-37.993-.081-42.567-.081-85.133-.151-37.164-.065-74.329-.147Z"/>
      <path class="f" d="M468.181,434.807l-.586,1.525a1.554,1.554,0,0,1-1.107-2.054q5.464-16.694,10.93-33.387,8.709-26.609,17.42-53.216l4-12.217a1.837,1.837,0,0,1,3.3-.334l-2.315.224,2.315-.224a1.549,1.549,0,0,1,.082,1.266l-10.929,33.386q-8.71,26.608-17.42,53.216-2,6.109-4,12.217a1.761,1.761,0,0,1-2.272,1.123Z"/>
      <path class="f" d="M458.429,434.278l9.354-27.886q8.4-25.049,16.805-50.1l5.908-17.61c1.441-4.3,2.472-8.906,7.182-10.854,3.238-1.34,7.3-.751,10.809-.751H651.9a6.016,6.016,0,0,1,5.157,2.161c1.412,1.865,1.19,3.89.533,5.917L653.421,348l-15.738,48.488q-6.12,18.853-12.239,37.707l-.642,1.976a1.678,1.678,0,0,1-1.393,1.195l1.914-4.66-1.914,4.66a1.675,1.675,0,0,1-1.986-2.126l8.76-26.988,16.128-49.687q3.034-9.348,6.068-18.7.847-2.611,1.7-5.223c.38-1.171,1.1-2.606-.073-3.6-.71-.605-1.769-.462-2.639-.462H505.776c-2.306,0-5.047-.4-7.17.652-1.979.983-2.839,2.739-3.49,4.681l-4.3,12.815-15.97,47.607-12.37,36.877-.669,1.994a1.707,1.707,0,0,1-1.549,1.2l1.1-3.179-1.1,3.179A1.642,1.642,0,0,1,458.429,434.278Z"/>
    </g>
    <g>
      <path class="g" d="M349.758,323.042v8.41a1.754,1.754,0,0,0,3.5,0v-8.41A1.754,1.754,0,0,0,349.758,323.042Z"/>
      <path class="g" d="M337.733,335.978a1.754,1.754,0,0,0,3.026-1.769l-4.206-7.283a1.753,1.753,0,0,0-3.025,1.769Z"/>
      <path class="g" d="M365.288,335.978l4.2-7.283a1.754,1.754,0,0,0-3.026-1.769q-2.1,3.642-4.2,7.283A1.754,1.754,0,0,0,365.288,335.978Z"/>
    </g>
    <g>
      <path class="e" d="M280.7,441.758q-19.04.046-38.079.081-42.585.081-85.171.15-37.287.065-74.573.147.183,1.927.367,3.855,19-.047,37.994-.081,42.566-.081,85.133-.151,37.164-.065,74.329-.147Z"/>
      <path class="e" d="M88.717,438.619l-.861-2.869a1.8,1.8,0,0,1-2.629-.976l-4-12.217L63.807,369.341,52.878,335.954a1.767,1.767,0,0,1,1.69-2.217c.084,0,.169,0,.253,0,5.742-.254,11.553,0,17.3,0H197.475a1.6,1.6,0,0,1,1.618,1.213l1.794.174a1.836,1.836,0,0,1,3.3.334l4,12.217L225.6,400.891l10.929,33.387a1.553,1.553,0,0,1-1.106,2.054l.775,2.015,7.228-.016-.667-1.918a1.706,1.706,0,0,1-1.549-1.2l-.669-1.994-12.37-36.877q-7.986-23.8-15.97-47.607l-4.3-12.815c-.652-1.942-1.511-3.7-3.49-4.681-2.123-1.054-4.865-.652-7.17-.652H51.658c-.87,0-1.93-.143-2.639.462-1.173,1-.453,2.434-.073,3.6l1.7,5.223,6.069,18.7,16.128,49.687,8.76,26.988a1.676,1.676,0,0,1-1.987,2.126l.6,1.452a1.729,1.729,0,0,1,.751-.187Z"/>
      <path class="b" d="M205.961,438.4l30.24-.054-.775-2.015a1.762,1.762,0,0,1-2.273-1.123l-4-12.217-17.421-53.216L200.8,336.39a1.549,1.549,0,0,1,.083-1.266l-1.794-.174a1.721,1.721,0,0,1-1.618,2.291c-.084,0-.169,0-.253,0-5.743.253-11.554,0-17.3,0H56.983l3.273,10,17.421,53.216,10.929,33.386a1.515,1.515,0,0,1-.75,1.908l.861,2.869q16.037-.038,32.073-.068Q163.375,438.47,205.961,438.4Z"/>
      <path class="f" d="M197.783,334.824l1.31.126a1.6,1.6,0,0,0-1.618-1.213H72.121c-5.747,0-11.558-.254-17.3,0-.084,0-.169,0-.253,0a1.767,1.767,0,0,0-1.69,2.217l10.929,33.387,17.421,53.216,4,12.217a1.8,1.8,0,0,0,2.629.976l-1.069-3.565,1.069,3.565a1.515,1.515,0,0,0,.75-1.908L77.677,400.456,60.256,347.24l-3.273-10H179.922c5.746,0,11.557.253,17.3,0,.084,0,.169,0,.253,0a1.721,1.721,0,0,0,1.618-2.291Z"/>
      <path class="f" d="M282.453,438.25q-19.512.048-39.024.081l1.024,2.944-1.024-2.944-7.228.016,1.26,3.277-1.26-3.277-30.24.054q-42.585.073-85.171.15-16.037.03-32.073.068l.692,2.306-.692-2.306-7.758.016a1.729,1.729,0,0,0-.751.187l1.51,3.676-1.51-3.676a1.653,1.653,0,0,0-1,1.566q.351,3.678.7,7.358a1.905,1.905,0,0,0,.143.572A1.594,1.594,0,0,0,81.66,449.5q38.042-.095,76.081-.151,42.567-.075,85.133-.151,19.79-.037,39.579-.084a1.778,1.778,0,0,0,1.752-1.752V440A1.776,1.776,0,0,0,282.453,438.25Zm-1.752,7.362q-37.166.091-74.329.147-42.567.075-85.133.151-19,.036-37.994.081-.183-1.927-.367-3.855,37.287-.092,74.573-.147,42.585-.075,85.171-.15,19.039-.037,38.079-.081Z"/>
      <path class="f" d="M234.839,434.807l.587,1.525a1.553,1.553,0,0,0,1.106-2.054L225.6,400.891l-17.421-53.216-4-12.217a1.836,1.836,0,0,0-3.3-.334l2.314.224-2.314-.224a1.549,1.549,0,0,0-.083,1.266l10.929,33.386,17.421,53.216,4,12.217a1.762,1.762,0,0,0,2.273,1.123Z"/>
      <path class="f" d="M244.592,434.278l-9.354-27.886-16.806-50.1-5.907-17.61c-1.442-4.3-2.472-8.906-7.182-10.854-3.239-1.34-7.295-.751-10.809-.751H51.119a6.016,6.016,0,0,0-5.157,2.161c-1.413,1.865-1.191,3.89-.533,5.917L49.6,348q7.869,24.244,15.739,48.488,6.12,18.853,12.239,37.707l.642,1.976a1.678,1.678,0,0,0,1.392,1.195L77.7,432.71l1.914,4.66a1.676,1.676,0,0,0,1.987-2.126l-8.76-26.988L56.71,358.569l-6.069-18.7-1.7-5.223c-.38-1.171-1.1-2.606.073-3.6.709-.605,1.769-.462,2.639-.462H197.245c2.305,0,5.047-.4,7.17.652,1.979.983,2.838,2.739,3.49,4.681l4.3,12.815q7.984,23.8,15.97,47.607l12.37,36.877.669,1.994a1.706,1.706,0,0,0,1.549,1.2l-1.106-3.179,1.106,3.179A1.642,1.642,0,0,0,244.592,434.278Z"/>
    </g>
    <path class="h" d="M227.655,429.181a1.5,1.5,0,0,0,0-3,1.5,1.5,0,0,0,0,3Z"/>
    <g>
      <path class="d" d="M244.581,381.83a77.847,77.847,0,0,0-.084-13.875c-.71-8.061-2.189-16.787-5.963-24.07a32.974,32.974,0,0,1-3.357,1.47,89.32,89.32,0,0,1,2.145,9.226,52.694,52.694,0,0,1,.806,13.927c-.349,3.909-.942,7.761-.955,11.7a1.711,1.711,0,0,1-.24.9q2.377,6.245,4.821,12.464a1.757,1.757,0,0,1,.191-.992A30.049,30.049,0,0,0,244.581,381.83Z"/>
      <path class="h" d="M502.279,286.109c.046.158.046.116.026.04l-.035-.067Z"/>
      <path class="h" d="M295.947,402.985a.382.382,0,0,0,.068-.044C295.991,402.955,295.973,402.972,295.947,402.985Z"/>
      <path class="h" d="M502.216,285.983s.022.038.054.1l-.027-.085C502.234,285.987,502.225,285.981,502.216,285.983Z"/>
      <path class="b" d="M337.748,437.057c.933-2.845-2.259-4.9-4.71-3.577-.049.026-.1.048-.146.07a10.608,10.608,0,0,1-1.286,2.486,1.7,1.7,0,0,1,.507.828,2.981,2.981,0,0,0,2.7,2.209h.316A2.816,2.816,0,0,0,337.748,437.057Z"/>
      <path class="b" d="M335.132,439.073h-.316A2.776,2.776,0,0,0,335.132,439.073Z"/>
      <path class="b" d="M322.588,426.569a2.265,2.265,0,0,0-2.847-2.484c-1.516.367-3.041,2.308-3.632,3.631-.962,2.155.153,3.956,2.475,4.03C321,431.824,322.069,428.408,322.588,426.569Z"/>
      <path class="b" d="M296.926,424.2c-.441-6.8-.284-14.167,1.691-20.746a1.736,1.736,0,0,1,.445-.748,11.128,11.128,0,0,0-3.162.587l-.012.035c-.072.212-.137.426-.2.642a23.612,23.612,0,0,0-.635,3.346,84.882,84.882,0,0,0,0,19.75,50.489,50.489,0,0,0,1.9,9.74c.237.752.5,1.519.817,2.264h2.3C297.726,434.637,297.226,428.838,296.926,424.2Z"/>
      <path class="b" d="M297.77,439.073a9.9,9.9,0,0,0,2.622,3.816,1.859,1.859,0,0,1,.275.281,19.647,19.647,0,0,1,1.821-.766,13.645,13.645,0,0,1-2.418-3.331Z"/>
      <path class="d" d="M381.491,441.277l23.7,8.08a80.25,80.25,0,0,0,7.688,2.545,41.219,41.219,0,0,0,9.128,1.124c2.351.011,5.323-.058,7.294-1.544a2.842,2.842,0,0,0,.266-.248c.266-.313.5-.665.742-.994L433,446.633l5.64-7.56H375.026Z"/>
      <path class="d" d="M469.521,419.614l.009-.24a97.858,97.858,0,0,1-2.11-9.6,1.693,1.693,0,0,1-1.746-1.207,134.384,134.384,0,0,1-3.55-13.493c-3.687-17.313-5.621-35.534-4.534-53.235a1.738,1.738,0,0,1,1.5-1.648c-.03-1.578-.034-3.156.081-4.734l-3.836,4.476a1.762,1.762,0,0,1-2.977-1.233q.011-1.157.008-2.324a17.221,17.221,0,0,0-1.419,1.142,1.873,1.873,0,0,1,.824,2.411q-2.087,4.648-4.281,9.249a131.418,131.418,0,0,1-6.048,11.8c-1.464,2.413-3.261,4.637-4.891,6.939q-2.85,4.023-5.625,8.1c-6.766,9.927-13.442,19.874-20.658,29.487a1.929,1.929,0,0,1-2.91.152l-1.417,2.244.844.274c2.129.691,1.213,4.058-.927,3.363l-5.546-1.8-39.019-12.661a32.3,32.3,0,0,1,.216,5.995,15.169,15.169,0,0,1-.992,5.159c3.105,2.06,8.08,4.475,7.987,8.772a5.173,5.173,0,0,1-3.417,4.648c1.262,3.119-.782,7.308-4.182,7.986-.123,2.462-2.605,4.213-5.218,4.759a24.765,24.765,0,0,1,3.344,1.122,1.54,1.54,0,0,1,2.066-1.187l13.928,4.748h63.615l2.547-3.413q6.053-8.115,12.106-16.228a1.869,1.869,0,0,1,2.372-.534l.69-1.241a507.222,507.222,0,0,1-6.787-65c-.1-2.248,3.387-2.235,3.487,0q.473,10.509,1.362,21c1.167,13.9,2.8,27.779,5.092,41.542,1.335,8,2.869,16,4.831,23.883h4.925C469.118,432.581,469.29,426.071,469.521,419.614Zm-52.847,6.461-5.58-12.555c-.9-2.035,2.1-3.807,3.012-1.76l5.58,12.555C420.59,426.35,417.584,428.122,416.674,426.075Z"/>
      <path class="b" d="M502.943,290.982c-2.378,1.9-4.827,3.718-7.277,5.521-10.216,7.519-20.634,14.773-31.1,21.945a88.807,88.807,0,0,1,2.742,8.73,34.776,34.776,0,0,1,.7,6.639,31.348,31.348,0,0,1-.365,7.441c-.389,2.21-3.749,1.268-3.363-.927a31.985,31.985,0,0,0,.2-7.185,25.4,25.4,0,0,0-.721-5.753c-.825-3.1-1.861-6.148-2.972-9.153a1.781,1.781,0,0,1,.8-1.969q1.059-.726,2.115-1.456c-.088-.068-.175-.137-.263-.207a1.466,1.466,0,0,1-1.555.381l-7.551,4.356a79.208,79.208,0,0,1,1.486,14.676l3.322-3.876c1.464-1.707,3.92.771,2.466,2.466q-1.219,1.425-2.441,2.848c-.115,1.578-.111,3.156-.081,4.734a1.58,1.58,0,0,1,1.987,1.648,186.954,186.954,0,0,0,1.3,33.251,170.1,170.1,0,0,0,6.662,32.55,1.621,1.621,0,0,1-1.617,2.134,97.858,97.858,0,0,0,2.11,9.6c.812-22.469,2.658-45.249,7.053-67.325a121.9,121.9,0,0,1,4.989-17.563c-.04-.074-.077-.151-.112-.228a1.479,1.479,0,0,1-2.433.1q-5.755-7.149-11.509-14.3c-1.4-1.733,1.058-4.215,2.466-2.466q5.754,7.149,11.509,14.3a1.85,1.85,0,0,1-.033,2.369c.035.077.072.154.112.228,1.239-3.441,2.6-6.847,4.036-10.24a81.7,81.7,0,0,1,8.158-15.157A84.882,84.882,0,0,1,506.09,295.34Z"/>
      <path class="d" d="M563.382,412.126c-1.294-11.011-3.112-21.975-5.115-32.879-1.944-10.584-4.171-21.226-7.805-31.377a69.488,69.488,0,0,0-15.518-25.213c-6.49-6.642-13.974-12.246-20.814-18.526a1.773,1.773,0,0,1-.211.885l-13.573,26.129c-1.036,2-4.045.229-3.011-1.76l13.572-26.129a1.49,1.49,0,0,1,1.391-.875,1.64,1.64,0,0,1,.4-2.312c-.986-1.365-1.885-2.8-2.754-4.25a1.511,1.511,0,0,1-.548,1.219,80.054,80.054,0,0,0-14.11,16.035,89.789,89.789,0,0,0-7.529,15.054,1.633,1.633,0,0,1,.918.284l7.047,4.565c1.88,1.218.129,4.235-1.76,3.012l-7.047-4.566a1.917,1.917,0,0,1-.344-.283,135.714,135.714,0,0,0-4.717,13.521c-1.083,4.026-1.908,8.12-2.644,12.221-1.926,10.74-3.206,21.6-4.219,32.456-1.091,11.692-1.841,23.424-2.128,35.164-.118,4.842-.191,9.711-.089,14.572h46.721q-4.908-22.4-9.817-44.8-3.516-16.047-7.033-32.093c-.48-2.191,2.883-3.118,3.363-.927l2.559,11.676q5.579,25.461,11.159,50.92,1.668,7.609,3.335,15.22h42.392C565.191,430.065,564.432,421.065,563.382,412.126ZM494.5,344.049c-6.282,21.548-13.431,42.754-16.33,65.1-.285,2.2-3.775,2.22-3.487,0a236.829,236.829,0,0,1,6.362-31.831c3.122-11.468,6.766-22.79,10.092-34.2C491.761,340.968,495.126,341.89,494.5,344.049Zm40.752-10.989c-12.275-3.336-24.446,6.931-28.557,17.883-.782,2.085-4.152,1.176-3.363-.927,4.781-12.736,18.614-24.187,32.847-20.319A1.745,1.745,0,0,1,535.249,333.06Z"/>
      <path class="b" d="M209.971,286.349c5.742,4.841,11.379,9.814,16.7,15.117,5.171,5.157,10.347,10.7,14.175,17,.1-.213.208-.427.324-.635a1.5,1.5,0,0,1-.409-2.172l5.021-7.483a1.8,1.8,0,0,1,2.386-.625,28.723,28.723,0,0,0,10.906,2.66,8.169,8.169,0,0,0,5.166-.936,5.543,5.543,0,0,0,2.39-3.981c.537-2.527,1.292-5.035,2.06-7.535-.707-.366-1.451-.65-2.161-1.01a12.639,12.639,0,0,1-2.878-2.061c-1.646-1.535.826-4,2.467-2.467a13.664,13.664,0,0,0,3.6,2.154c.135-.457.268-.913.4-1.369a20.731,20.731,0,0,1,3.575-6.877,17.127,17.127,0,0,1,3.732-3.569c.78-.553,1.589-.805,1.1-1.872a13.707,13.707,0,0,0-1.837-2.418,24.266,24.266,0,0,1-5.019-9.869c-.725-3.663.118-7.215,1.118-10.74a25.4,25.4,0,0,0,1.074-11.5,36.208,36.208,0,0,0-1.4-6.047,1.788,1.788,0,0,1-.1-.574,10.557,10.557,0,0,0-.986-.7,1.537,1.537,0,0,1-1.569,1.042c-3.506-.088-5.673,2.64-7.1,5.519a34.247,34.247,0,0,1-3.813,6.546c-2.415,3.023-6.412,7.536-10.694,7.494-.317.368-.655.715-.983,1.064a7.5,7.5,0,0,1,1.223,1.923c.89,2.039-2.115,3.812-3.012,1.761-.951-2.177-3.131-3.441-5.18-1.691a7.328,7.328,0,0,0-2.084,5.054c-.294,3.966.858,8.809,4.011,11.465,1.72,1.449-.759,3.9-2.466,2.466a15.651,15.651,0,0,1-4.88-9.62,4.21,4.21,0,0,1-1.954.283,1.842,1.842,0,0,1-2.026,1.156c-4.538-.742-8.552.64-10.647,4.92a1.586,1.586,0,0,1-2.671.3c-1.657,1.646-4.03,2.131-6.447,2.351A8.083,8.083,0,0,1,209.971,286.349Zm57.4-22.421a1.745,1.745,0,0,1,0,3.488A1.745,1.745,0,0,1,267.372,263.928Z"/>
      <path class="b" d="M231.133,332.242q3.079-4.058,6.157-8.116a1.629,1.629,0,0,1,.486-.64l1.03-1.358c.024-.032.05-.061.076-.091-3.853-6.959-9.458-12.929-15.066-18.489-5.46-5.414-11.249-10.483-17.137-15.425q-2.794,3.237-5.591,6.473a1.6,1.6,0,0,1-.783.521c.081.148.162.294.244.441a1.68,1.68,0,0,1,1.586.409A136.589,136.589,0,0,1,219.7,314.914a95.206,95.206,0,0,1,11.668,19.838c.057-.12.111-.239.163-.359A1.406,1.406,0,0,1,231.133,332.242Z"/>
      <path class="d" d="M239.436,334.375c-.4-1.883-.842-3.759-1.3-5.628L234.145,334a1.913,1.913,0,0,1-2.616.391c-.052.12-.106.239-.163.359q1.545,3.575,2.779,7.284c1.942-.728,4.42-1.677,5.585-3.336C240.5,337.6,239.69,335.567,239.436,334.375Z"/>
      <path class="i" d="M211.233,439.073l.051.084h0a78.823,78.823,0,0,0,6.911,9.656,20.457,20.457,0,0,0,2.943,2.956c-.015-.019.42.291.53.359a6.716,6.716,0,0,0,.666.365l.009,0c.027.006.085.021.2.056a30.2,30.2,0,0,0,3.027.708c8.193,1.533,16.626-.233,24.706-1.627,14.548-2.511,29.146-4.651,43.627-7.544a1.777,1.777,0,0,1,2.065,1.2c.457-.146.9-.319,1.344-.509a15.231,15.231,0,0,1-3.287-5.713Z"/>
      <path class="j" d="M293.316,436.814c-2.053-7.249-2.439-15.1-2.233-22.6a61.815,61.815,0,0,1,.866-9.469c.054-.3.112-.617.18-.952q-22,4.11-44.04,7.965c.024.049.045.1.07.151-.025-.05-.046-.1-.07-.151-.229.039-.458.08-.687.12-2.2.379-3.135-2.982-.927-3.363l.267-.047q-.242-.672-.479-1.345a1.941,1.941,0,0,1-3.1-.648q-2.067-5.1-4.079-10.231c-5.138-13.028-10.28-26.1-14.626-39.419-2.07-6.344-3.488-12.882-6.73-18.781-4.349-7.914-11.224-13.464-19.451-17.02-2.057-.889-.279-3.893,1.76-3.011a42.2,42.2,0,0,1,21.6,20c2.989,6.058,4.443,12.655,6.56,19.034,1.852,5.578,3.859,11.106,5.917,16.612.215-2.046.459-4.091.6-6.152a52.956,52.956,0,0,0-1.207-14.33,83.2,83.2,0,0,0-6.66-20.231c-6.514-13.245-16.257-24.7-27.184-34.514a1.681,1.681,0,0,1,.88-2.875c-.082-.147-.163-.293-.244-.441a1.6,1.6,0,0,1-1.529-.463,32.028,32.028,0,0,1-2.531,2.88,1.719,1.719,0,0,1-.741,1.869,98.353,98.353,0,0,0-24.089,23.687c-12.619,17.207-21.906,37.192-28.639,57.369a191.943,191.943,0,0,0-7.913,31.33c-1.408,9.105-2.176,18.285-3.759,27.368h76.171l-.05-.084h0c-3.062-5.072-5.833-10.339-8.572-15.528-5.633-10.67-10.916-21.522-16.163-32.386-3.456-7.155-6.648-14.563-10.646-21.44a1.745,1.745,0,0,1,3.011-1.761c4.534,7.8,8.12,16.226,12.046,24.337,5.18,10.7,10.416,21.382,16.026,31.866,2.64,4.935,5.3,10.05,8.306,14.912h82.8C293.759,438.315,293.525,437.554,293.316,436.814ZM191.949,322.248c-8.282,2.356-14.7,8.563-18.538,16.136-4.54,8.954-5.3,19.416-3.263,29.151.46,2.193-2.9,3.122-3.363.927-2.242-10.695-1.369-22.01,3.615-31.838,4.239-8.36,11.51-15.147,20.622-17.739C193.188,318.269,194.1,321.635,191.949,322.248Zm54.33,92.888-3.525,10.558c-.709,2.122-4.076,1.207-3.363-.927l3.525-10.558C243.625,412.087,246.992,413,246.279,415.136Z"/>
      <path class="d" d="M242.086,394.415q1.128,2.862,2.266,5.719a44.8,44.8,0,0,0,.37-5.441A1.681,1.681,0,0,1,242.086,394.415Z"/>
      <path class="d" d="M213.338,226.752a1.256,1.256,0,0,0-.8-.061c.009.117.024.242.046.376-.022-.134-.037-.259-.046-.376a8.465,8.465,0,0,0-2.888,1.66,32.324,32.324,0,0,0-4.72,4.716c-2.364,2.789-4.47,5.712-5.424,9.285a30.926,30.926,0,0,0,.555,16.915,61.873,61.873,0,0,0,4.084,9.12,42.5,42.5,0,0,0,3.734,6.41,15.586,15.586,0,0,1,3.136,5.723c.026.116.048.232.067.348,2.417-.22,4.79-.7,6.447-2.351a1.746,1.746,0,0,1-.34-2.056c2.819-5.761,8.58-7.5,14.586-6.522a1.488,1.488,0,0,1,1.1,2.207,4.21,4.21,0,0,0,1.954-.283,18.142,18.142,0,0,1,.274-7.085c.7-2.737,2.473-5.382,5.262-6.3a6.375,6.375,0,0,1,6.852,2.025c.328-.349.666-.7.983-1.064-.1,0-.2,0-.3-.007-2.234-.131-2.242-3.62,0-3.487,2.02.118,3.979-1.742,5.343-3.016a25.771,25.771,0,0,0,4.311-5.039c1.664-2.661,2.5-5.722,4.653-8.083a9.948,9.948,0,0,1,7.591-3.415,1.769,1.769,0,0,1,1.569,2.446,10.557,10.557,0,0,1,.986.7c-.013-1.7,2.808-2.262,3.466-.354.186.541.351,1.093.506,1.649a4.855,4.855,0,0,0,4.464-2.567c-4.027,1.819-8.092-1-11.127-3.6-3.595-3.08-6.643-6.74-10.366-9.678a35.776,35.776,0,0,0-14.228-7.046c-9.217-2.068-20.831-.45-25.227,8.981-.948,2.035-3.953.262-3.011-1.76.228-.49.481-.96.747-1.42a4.667,4.667,0,0,0-2.241.131C216.957,224.986,215.258,227.691,213.338,226.752Zm17.715,25.215a19.747,19.747,0,0,0,9.557-.3c3.421-1.125,5.738-3.73,7.321-6.874,1.01-2.007,4.018-.239,3.011,1.76a16.263,16.263,0,0,1-8.994,8.336c-3.793,1.36-7.92,1.123-11.822.439C227.916,254.943,228.858,251.583,231.053,251.967Z"/>
      <path class="d" d="M466.344,218.576c-3.678-2.317-8.786-1.612-12.7-.288-4.485,1.515-7.664,5-9.728,9.155a1.736,1.736,0,0,1-1.5.864c-2.59.056-5.526,2.313-6.9,4.382-1.71,2.577-.068,5.7,2.187,7.065a39.97,39.97,0,0,0,15.95,5.568,1.878,1.878,0,0,1,.646.182,1.476,1.476,0,0,1,2.092.244c3.035,3.5,9.017,5.286,9.906,10.257.385,2.155.618,4.346.788,6.54l2.185-2.5a1.675,1.675,0,0,1,.666-.477c2-2.349,5.124-3.491,8.09-1.962,2.682,1.383,3.927,4.3,4.175,7.17a15.675,15.675,0,0,1-.107,3.462c3.476.2,6.867,1.316,8.554,4.672.887,1.766,1.056,3.7,1.677,5.543a5.673,5.673,0,0,0,4.9,3.774,1.869,1.869,0,0,1,.775.275c.021-.068.045-.137.074-.206a112.532,112.532,0,0,0,6.762-19.959,50.261,50.261,0,0,0,.9-18.68c-.782-4.873-2.226-9.4-5.587-13.084a35.711,35.711,0,0,0-11.19-8.137c-3.572-1.678-7.852-2.965-11.8-2.05a1.817,1.817,0,0,1-1.951-2.661c-2.628-.857-5.2-2.173-7.987-2.667.3.155.6.322.89.5C470,216.759,468.249,219.776,466.344,218.576Zm1.307,26.723c-5.031.126-10.182-1.184-14.919-2.767a44.916,44.916,0,0,1-6.475-2.645,8.318,8.318,0,0,1-3.386-2.655c-1.193-1.912,1.826-3.661,3.012-1.761a6.1,6.1,0,0,0,.849.675,17.888,17.888,0,0,0,2.044,1.105,44.578,44.578,0,0,0,5.746,2.2,40.669,40.669,0,0,0,13.129,2.361C469.9,241.755,469.891,245.243,467.651,245.3Z"/>
      <path class="b" d="M437.362,246.28a88.56,88.56,0,0,0,.133,9.2,28.129,28.129,0,0,1-.394,7.895,19.528,19.528,0,0,1-4.345,8.463,22.234,22.234,0,0,1-1.83,1.892,11.524,11.524,0,0,0-1.909,1.743c-.873,1.331,1.42,2.774,2.208,3.813,2.589,3.416,3.444,7.269,3.934,11.289a14.665,14.665,0,0,0,4.088-1.56c1.9-1.216,3.644,1.8,1.76,3.012a21.5,21.5,0,0,1-5.472,2.078c.182,1.664.467,3.263.686,4.923.38,2.876.345,5.272,2.841,7.256,2.962,2.355,6.456,1.115,9.8.56a72.8,72.8,0,0,0,8.264-1.564,1.705,1.705,0,0,1,1.7.449q2.442,3.138,4.883,6.278a1.91,1.91,0,0,1-.261,2.6c.088.07.175.139.263.207q.921-.635,1.843-1.268,9.476-6.542,18.866-13.205c5.209-3.706,10.493-7.377,15.5-11.366a1.513,1.513,0,0,1-.238-.313,10.415,10.415,0,0,1-.794-1.715c-.01-.031-.019-.062-.029-.093a.476.476,0,0,1-.063-.152c-.134-.259-.375-.733-.386-.753a1.829,1.829,0,0,1-.166-.434,1.482,1.482,0,0,1-1.023.2c-4.221-.536-7.367-2.887-8.473-7.066-.507-1.914-.683-4.093-2.244-5.5-1.42-1.281-3.36-1.415-5.182-1.452l-.054,0a16.031,16.031,0,0,1-6.68,8.8,1.745,1.745,0,0,1-1.76-3.011c3.428-1.974,5.43-6.5,5.851-10.29a7.651,7.651,0,0,0-1.084-5.5c-1.529-1.97-3.977-1.481-5.27.439a1.734,1.734,0,0,1-.868.692l-4.61,5.27c-1.06,1.21-2.9.163-2.977-1.233a90.524,90.524,0,0,0-.889-9.605c-.33-2-1.348-2.869-2.979-4.039a37.858,37.858,0,0,1-5.61-4.491,1.655,1.655,0,0,1-.746.084,42.093,42.093,0,0,1-11.623-3.148,35.409,35.409,0,0,1-6.228-2.935V244.6A1.564,1.564,0,0,1,437.362,246.28ZM442.611,261a1.745,1.745,0,0,1,0,3.488A1.745,1.745,0,0,1,442.611,261Z"/>
      <path class="b" d="M348.262,399.847c3.123,2.1,6.216,4.236,9.315,6.365,1.006-2.719.622-6.5.236-9.058a1.9,1.9,0,0,1,1.5-2.135c0-.021.005-.042.007-.063a14.935,14.935,0,0,1-2.129-.937,8.005,8.005,0,0,1,.5,1.859c.3,2.2-3.062,3.141-3.363.927-.531-3.9-4.525-6.007-7.768-7.5-1.127-.519-2.377-1.289-3.623-1.219-2.064.115-4.029.862-6.11.93-1.49.049-2.972.133-4.456.283a12.584,12.584,0,0,0-3.44.413c-1.941.871-1.213,3.382.06,4.424,1.828,1.5,4.85,1.17,7.033,1.118,2.981-.071,5.855.046,8.475,1.627a1.7,1.7,0,0,1,.48,2.5q.537.458,1.09.9A1.511,1.511,0,0,1,348.262,399.847Z"/>
      <path class="b" d="M364.561,415.625c-.989-1.461-2.876-2.4-4.3-3.365q-2.295-1.551-4.574-3.126c-3.055-2.1-6.108-4.209-9.188-6.275a1.794,1.794,0,0,1-.434-2.573q-.554-.441-1.09-.9a1.6,1.6,0,0,1-2.241.506c-4.99-3.012-11.988.959-16.487-3.547a6.639,6.639,0,0,1-1.932-5.009,7.521,7.521,0,0,0-1.19.412,1.535,1.535,0,0,1-.674,2.168,48.6,48.6,0,0,0-9.561,6.743,23.165,23.165,0,0,1-7.945,4.942,1.67,1.67,0,0,1-2.143-1.8l-.746.145a1.867,1.867,0,0,1-.078.436c-1.809,6.027-1.945,12.69-1.619,18.925a49.988,49.988,0,0,0,1.422,10.038,27.552,27.552,0,0,0,.852,2.754l.941-.289a1.636,1.636,0,0,1,1.142-2.184l6.626-1.744a1.633,1.633,0,0,1,1.974.931l.135-.042a6.176,6.176,0,0,1-.7-6.02c1.12-2.888,4.19-6.273,7.545-6.166,3.66.116,6.342,3.016,5.714,6.611a1.841,1.841,0,0,1-.058.3,1.861,1.861,0,0,1-.067.229,14.46,14.46,0,0,1-2.436,4.965,1.832,1.832,0,0,1,.124.62c.075,2.359,3.1,2.646,4.629,1.356a7.005,7.005,0,0,0,1.735-3.411,3.377,3.377,0,0,0,.234-1.789c-.339-.824-1.611-1.041-2.364-1.144-2.217-.306-1.268-3.666.927-3.363,2.715.373,4.731,2.179,4.894,4.736a6.972,6.972,0,0,1,7.123,3.633,17.24,17.24,0,0,0,6.147,2.1c1.289.1,3.135-.178,3.887-1.269-3.876-.987-7.276-3.542-10.654-5.618-1.911-1.175-.157-4.19,1.761-3.011,2.86,1.758,5.639,3.932,8.862,4.991a8.327,8.327,0,0,0,4.726.393c.736-.206,1.981-.72,1.933-1.546a25.242,25.242,0,0,1-3.907-1.724q-4.316-2.174-8.627-4.355c-2.006-1.013-.238-4.02,1.76-3.011,3.526,1.78,7.021,3.811,10.663,5.341,1.333.56,2.922,1.128,3.974-.141a2.369,2.369,0,0,0,.2-3.143c-.03-.039-.055-.079-.08-.119a6.646,6.646,0,0,1-1.127-.2c-4.413-1.22-6.864-5.968-11.381-6.788-2.208-.4-1.267-3.761.927-3.363,3.681.668,5.967,3.5,8.893,5.525,1.318.912,2.948,1.787,4.586,1.261C364.739,418.18,365.479,416.98,364.561,415.625Z"/>
      <path class="b" d="M343.727,438.441c0-.038.008-.073.013-.109a22.189,22.189,0,0,1-2.489-.922,7.182,7.182,0,0,1-.281.974,6.726,6.726,0,0,1-.3.689H343.6A2.519,2.519,0,0,0,343.727,438.441Z"/>
      <path class="b" d="M340.668,439.073a6.375,6.375,0,0,1-.759,1.192c.25.533.682.774,1.565.652a2.706,2.706,0,0,0,2.129-1.844Z"/>
      <path class="h" d="M498.821,286.743c-.047-.157-.047-.115-.027-.04l.036.068Z"/>
      <path class="h" d="M498.883,286.87s-.022-.039-.053-.1c.008.028.018.056.027.084C498.866,286.866,498.875,286.872,498.883,286.87Z"/>
      <path class="f" d="M279.539,235.009c-3.365,1.856-7.794-3.057-9.9-5.093-3.586-3.464-6.976-6.986-11.131-9.8-8.525-5.766-19.9-8.317-29.88-5.055a19.509,19.509,0,0,0-11.044,8.687,3.194,3.194,0,0,1,1.631.874,3.194,3.194,0,0,0-1.631-.874c-.266.46-.519.93-.747,1.42-.942,2.022,2.063,3.8,3.011,1.76,4.4-9.431,16.01-11.049,25.227-8.981A35.776,35.776,0,0,1,259.3,225c3.723,2.938,6.771,6.6,10.366,9.678,3.035,2.6,7.1,5.416,11.127,3.6a5.162,5.162,0,0,0,.5-1.788,5.162,5.162,0,0,1-.5,1.788c.169-.077.338-.158.506-.251C283.266,236.937,281.508,233.924,279.539,235.009Z"/>
      <path class="f" d="M467.651,241.811a40.669,40.669,0,0,1-13.129-2.361,44.578,44.578,0,0,1-5.746-2.2,17.888,17.888,0,0,1-2.044-1.105,6.1,6.1,0,0,1-.849-.675c-1.186-1.9-4.2-.151-3.012,1.761a8.318,8.318,0,0,0,3.386,2.655,44.916,44.916,0,0,0,6.475,2.645c4.737,1.583,9.888,2.893,14.919,2.767C469.891,245.243,469.9,241.755,467.651,241.811Z"/>
      <path class="f" d="M269.8,236.394a9.948,9.948,0,0,0-7.591,3.415c-2.155,2.361-2.989,5.422-4.653,8.083a25.771,25.771,0,0,1-4.311,5.039c-1.364,1.274-3.323,3.134-5.343,3.016-2.242-.133-2.234,3.356,0,3.487.1.006.2.006.3.007a5.214,5.214,0,0,0,1.355-2.729,5.214,5.214,0,0,1-1.355,2.729c4.282.042,8.279-4.471,10.694-7.494a34.247,34.247,0,0,0,3.813-6.546c1.423-2.879,3.59-5.607,7.1-5.519a1.537,1.537,0,0,0,1.569-1.042,10.538,10.538,0,0,0-1.938-.961,10.538,10.538,0,0,1,1.938.961A1.769,1.769,0,0,0,269.8,236.394Z"/>
      <path class="f" d="M241.948,254.891a16.263,16.263,0,0,0,8.994-8.336c1.007-2-2-3.767-3.011-1.76-1.583,3.144-3.9,5.749-7.321,6.874a19.747,19.747,0,0,1-9.557.3c-2.195-.384-3.137,2.976-.927,3.363C234.028,256.014,238.155,256.251,241.948,254.891Z"/>
      <path class="f" d="M193.744,296.391c-16.967,11.42-28.974,28.323-38.458,46.162-10.608,19.953-18.939,41.738-23.057,64-1.947,10.525-2.66,21.231-4.505,31.776-.384,2.195,2.976,3.138,3.363.927.006-.034.011-.069.017-.1h0c1.583-9.083,2.351-18.263,3.759-27.368a191.943,191.943,0,0,1,7.913-31.33c6.733-20.177,16.02-40.162,28.639-57.369A98.353,98.353,0,0,1,195.5,299.4a1.719,1.719,0,0,0,.741-1.869,6.482,6.482,0,0,1-3.19,1.727,6.482,6.482,0,0,0,3.19-1.727A1.612,1.612,0,0,0,193.744,296.391Z"/>
      <path class="f" d="M173.411,338.384c3.841-7.573,10.256-13.78,18.538-16.136,2.155-.613,1.239-3.979-.927-3.363-9.112,2.592-16.383,9.379-20.622,17.739-4.984,9.828-5.857,21.143-3.615,31.838.461,2.195,3.823,1.266,3.363-.927C168.107,357.8,168.871,347.338,173.411,338.384Z"/>
      <path class="f" d="M267.372,267.416a1.745,1.745,0,0,0,0-3.488A1.745,1.745,0,0,0,267.372,267.416Z"/>
      <path class="f" d="M277.4,273.228a14.967,14.967,0,0,1-1.97-11.962c1.041-4.384,2.651-8.529,2.19-13.121a43.945,43.945,0,0,0-1.292-7.306,7.154,7.154,0,0,1-1.664-.17,7.154,7.154,0,0,0,1.664.17c-.155-.556-.32-1.108-.506-1.649-.658-1.908-3.479-1.348-3.466.354a12.613,12.613,0,0,1,3.354,4.264,12.613,12.613,0,0,0-3.354-4.264,1.788,1.788,0,0,0,.1.574,36.208,36.208,0,0,1,1.4,6.047,25.4,25.4,0,0,1-1.074,11.5c-1,3.525-1.843,7.077-1.118,10.74a24.266,24.266,0,0,0,5.019,9.869,13.707,13.707,0,0,1,1.837,2.418c.484,1.067-.325,1.319-1.1,1.872a17.127,17.127,0,0,0-3.732,3.569,20.731,20.731,0,0,0-3.575,6.877c-.128.456-.261.912-.4,1.369a13.664,13.664,0,0,1-3.6-2.154c-1.641-1.528-4.113.932-2.467,2.467a12.639,12.639,0,0,0,2.878,2.061c.71.36,1.454.644,2.161,1.01-.768,2.5-1.523,5.008-2.06,7.535a5.543,5.543,0,0,1-2.39,3.981,8.169,8.169,0,0,1-5.166.936,28.723,28.723,0,0,1-10.906-2.66,1.8,1.8,0,0,0-2.386.625l-5.021,7.483a1.5,1.5,0,0,0,.409,2.172,3.407,3.407,0,0,1,1.41-1.482,3.407,3.407,0,0,0-1.41,1.482,1.8,1.8,0,0,0,2.6-.412q2.07-3.087,4.142-6.173a33.336,33.336,0,0,0,8.567,2.158c3.4.466,6.982.687,9.928-1.4,3.13-2.215,3.253-5.249,4.229-8.634.572-1.983,1.287-3.917,1.848-5.913a33.078,33.078,0,0,1,1.926-5.883,17.8,17.8,0,0,1,3.074-4.546c1.217-1.256,3.067-2.015,4.046-3.479C283.988,279.873,279.146,276.1,277.4,273.228Z"/>
      <path class="f" d="M212.539,226.691a1.256,1.256,0,0,1,.8.061c1.92.939,3.619-1.766,2-2.869a6.056,6.056,0,0,0-1.011.394C213.676,224.93,212.413,224.972,212.539,226.691Z"/>
      <path class="f" d="M205.759,227.117a42.726,42.726,0,0,0-7.594,9.332c-2.753,4.641-3.314,10.564-2.917,15.842.5,6.628,3.074,12.278,6.029,18.138a39.732,39.732,0,0,0,2.308,4.35c.733,1.1,1.567,2.118,2.322,3.2a9.191,9.191,0,0,1,1.55,3.141c1.162-.093,2.4-.137,3.626-.249-.019-.116-.041-.232-.067-.348a15.586,15.586,0,0,0-3.136-5.723,42.5,42.5,0,0,1-3.734-6.41,61.873,61.873,0,0,1-4.084-9.12,30.926,30.926,0,0,1-.555-16.915c.954-3.573,3.06-6.5,5.424-9.285a32.324,32.324,0,0,1,4.72-4.716,8.465,8.465,0,0,1,2.888-1.66c-.126-1.719,1.137-1.761,1.79-2.414a6.056,6.056,0,0,1,1.011-.394,1.813,1.813,0,0,0-.242-.142C211.683,222.069,208.155,224.9,205.759,227.117Z"/>
      <path class="f" d="M198.776,294.654a1.6,1.6,0,0,0,1.529.463q-.371-.683-.7-1.39C199.318,294.024,199.044,294.335,198.776,294.654Z"/>
      <path class="f" d="M246.527,405.55q-1.095-2.7-2.175-5.416l-.03.268.03-.268q-1.139-2.858-2.266-5.719a1.681,1.681,0,0,0,2.636.278,17.915,17.915,0,0,0-.4-3.708,17.915,17.915,0,0,1,.4,3.708,1.79,1.79,0,0,0,.234-.355c3.966-7.884,3.783-17.819,3.028-26.383-.772-8.766-2.381-18.142-6.538-26.022q.195-.174.381-.359c1.82-1.8,1.8-3.717,1.383-6.065-.622-3.471-1.489-6.908-2.378-10.322l.985-1.3a1.869,1.869,0,0,0,.126-.188,1.732,1.732,0,0,0,.572-2.27c-.521-1.007-1.081-1.993-1.67-2.963a11.645,11.645,0,0,1-.708,1.371,11.645,11.645,0,0,0,.708-1.371c-3.828-6.3-9-11.844-14.175-17-5.32-5.3-10.957-10.276-16.7-15.117a8.083,8.083,0,0,0,1.112-5.481c-1.227.112-2.464.156-3.626.249a4.7,4.7,0,0,1-.295,3,1.618,1.618,0,0,0-1.913.335l-6.627,7.673a1.8,1.8,0,0,0,.154,2.524c.268-.319.542-.63.826-.927-.222-.472-.434-.95-.619-1.442.185.492.4.97.619,1.442a10.674,10.674,0,0,1,.777-.744,10.674,10.674,0,0,0-.777.744q.332.707.7,1.39a1.6,1.6,0,0,0,.783-.521q2.8-3.236,5.591-6.473c5.888,4.942,11.677,10.011,17.137,15.425,5.608,5.56,11.213,11.53,15.066,18.489-.026.03-.052.059-.076.091l-1.03,1.358a1.629,1.629,0,0,0-.486.64q-3.078,4.058-6.157,8.116c-1.356,1.788,1.671,3.528,3.012,1.76l3.987-5.255c.462,1.869.9,3.745,1.3,5.628.254,1.192,1.067,3.225.294,4.325-1.165,1.659-3.643,2.608-5.585,3.336A93.359,93.359,0,0,0,219.7,314.914a136.589,136.589,0,0,0-17.563-18.947,1.68,1.68,0,0,0-1.586-.409c.852,1.514,1.8,2.958,2.62,4.4-.824-1.442-1.768-2.886-2.62-4.4a1.681,1.681,0,0,0-.88,2.875c10.927,9.818,20.67,21.269,27.184,34.514a83.2,83.2,0,0,1,6.66,20.231,52.956,52.956,0,0,1,1.207,14.33c-.144,2.061-.388,4.106-.6,6.152-2.058-5.506-4.065-11.034-5.917-16.612-2.117-6.379-3.571-12.976-6.56-19.034a42.2,42.2,0,0,0-21.6-20c-2.039-.882-3.817,2.122-1.76,3.011,8.227,3.556,15.1,9.106,19.451,17.02,3.242,5.9,4.66,12.437,6.73,18.781,4.346,13.318,9.488,26.391,14.626,39.419q2.02,5.123,4.079,10.231a1.941,1.941,0,0,0,3.1.648,34.364,34.364,0,0,0-1.592-3.933,34.364,34.364,0,0,1,1.592,3.933A1.365,1.365,0,0,0,246.527,405.55Zm-4.773-11.98q-2.443-6.219-4.821-12.464a1.711,1.711,0,0,0,.24-.9c.013-3.936.606-7.788.955-11.7a52.694,52.694,0,0,0-.806-13.927,89.32,89.32,0,0,0-2.145-9.226,32.974,32.974,0,0,0,3.357-1.47c3.774,7.283,5.253,16.009,5.963,24.07a77.847,77.847,0,0,1,.084,13.875,30.049,30.049,0,0,1-2.636,10.748A1.757,1.757,0,0,0,241.754,393.57Z"/>
      <path class="f" d="M231.776,269.939c-6.006-.982-11.767.761-14.586,6.522a1.746,1.746,0,0,0,.34,2.056,6.542,6.542,0,0,0,1.333-1.926,6.542,6.542,0,0,1-1.333,1.926,1.586,1.586,0,0,0,2.671-.3c2.095-4.28,6.109-5.662,10.647-4.92a1.842,1.842,0,0,0,2.026-1.156c-1.5-.078-3.044-.541-4.246.26,1.2-.8,2.75-.338,4.246-.26A1.488,1.488,0,0,0,231.776,269.939Z"/>
      <path class="f" d="M248.439,262.428a7.5,7.5,0,0,0-1.223-1.923,8.628,8.628,0,0,0-1.15,1.438,8.628,8.628,0,0,1,1.15-1.438,6.375,6.375,0,0,0-6.852-2.025c-2.789.916-4.561,3.561-5.262,6.3a18.142,18.142,0,0,0-.274,7.085,3.134,3.134,0,0,0,1.124-.852,3.134,3.134,0,0,1-1.124.852,15.651,15.651,0,0,0,4.88,9.62c1.707,1.438,4.186-1.017,2.466-2.466-3.153-2.656-4.305-7.5-4.011-11.465a7.328,7.328,0,0,1,2.084-5.054c2.049-1.75,4.229-.486,5.18,1.691C246.324,266.24,249.329,264.467,248.439,262.428Z"/>
      <path class="f" d="M442.611,264.484a1.745,1.745,0,0,0,0-3.488A1.745,1.745,0,0,0,442.611,264.484Z"/>
      <path class="f" d="M463.706,312.01q-2.442-3.139-4.883-6.278a1.705,1.705,0,0,0-1.7-.449,72.8,72.8,0,0,1-8.264,1.564c-3.345.555-6.839,1.8-9.8-.56-2.5-1.984-2.461-4.38-2.841-7.256-.219-1.66-.5-3.259-.686-4.923a21.5,21.5,0,0,0,5.472-2.078c1.884-1.208.137-4.228-1.76-3.012a14.665,14.665,0,0,1-4.088,1.56c-.49-4.02-1.345-7.873-3.934-11.289-.788-1.039-3.081-2.482-2.208-3.813a11.524,11.524,0,0,1,1.909-1.743,22.234,22.234,0,0,0,1.83-1.892,19.528,19.528,0,0,0,4.345-8.463,28.129,28.129,0,0,0,.394-7.895,88.56,88.56,0,0,1-.133-9.2,1.564,1.564,0,0,0-1.569-1.677v0a1.733,1.733,0,0,0-1.919,1.677,85.645,85.645,0,0,0,.114,8.936,26.251,26.251,0,0,1-.2,6.978,16.906,16.906,0,0,1-5.33,9.073c-1.192,1.1-2.628,2.107-3.133,3.736-.586,1.891.376,3.457,1.656,4.769a16.662,16.662,0,0,1,4.54,8.95c.31,1.929.376,3.928.562,5.873.215,2.248.673,4.44.881,6.688a10.468,10.468,0,0,0,3.63,7.47c3.176,2.707,6.851,2.671,10.73,1.9,3.194-.632,6.447-.941,9.608-1.717l2.621,3.369-8.076,4.659a1.787,1.787,0,0,0-.8,1.97,76.789,76.789,0,0,1,1.69,17.44c.517-.384,1.05-.768,1.561-1.195-.511.427-1.044.811-1.561,1.195q0,1.167-.008,2.324a1.762,1.762,0,0,0,2.977,1.233l3.836-4.476a25.97,25.97,0,0,1,.336-2.717,25.97,25.97,0,0,0-.336,2.717q1.221-1.424,2.441-2.848c1.454-1.695-1-4.173-2.466-2.466l-3.322,3.876a79.208,79.208,0,0,0-1.486-14.676l7.551-4.356a1.466,1.466,0,0,0,1.555-.381,3.305,3.305,0,0,1-1.147-1.4,3.305,3.305,0,0,0,1.147,1.4A1.91,1.91,0,0,0,463.706,312.01Z"/>
      <path class="f" d="M481.493,331.889q-5.755-7.149-11.509-14.3c-1.408-1.749-3.862.733-2.466,2.466q5.754,7.149,11.509,14.3a1.479,1.479,0,0,0,2.433-.1,3.009,3.009,0,0,0-1.375-1.865,3.009,3.009,0,0,1,1.375,1.865A1.85,1.85,0,0,0,481.493,331.889Z"/>
      <path class="f" d="M466.484,404.935c.34,1.616.638,3.231.936,4.841a1.621,1.621,0,0,0,1.617-2.134,170.1,170.1,0,0,1-6.662-32.55,186.954,186.954,0,0,1-1.3-33.251,1.58,1.58,0,0,0-1.987-1.648c.026,1.353.069,2.705.069,4.058,0-1.353-.043-2.7-.069-4.058a1.738,1.738,0,0,0-1.5,1.648c-1.087,17.7.847,35.922,4.534,53.235a134.384,134.384,0,0,0,3.55,13.493,1.693,1.693,0,0,0,1.746,1.207C467.122,408.166,466.824,406.551,466.484,404.935Z"/>
      <path class="f" d="M498.794,286.7a.476.476,0,0,0,.063.152c-.009-.028-.019-.056-.027-.084Z"/>
      <path class="f" d="M502.305,286.149a.5.5,0,0,0-.062-.152l.027.085Z"/>
      <path class="f" d="M562.321,382.171c-3.645-20.76-7.957-42.666-22.194-59.038-7.453-8.571-16.947-15.175-25.153-22.981a1.672,1.672,0,0,0-2.278-.083,26.744,26.744,0,0,0,4.707,5.121,26.744,26.744,0,0,1-4.707-5.121,1.64,1.64,0,0,0-.4,2.312,1.49,1.49,0,0,0-1.391.875l-13.572,26.129c-1.034,1.989,1.975,3.755,3.011,1.76l13.573-26.129a1.773,1.773,0,0,0,.211-.885c6.84,6.28,14.324,11.884,20.814,18.526a69.488,69.488,0,0,1,15.518,25.213c3.634,10.151,5.861,20.793,7.805,31.377,2,10.9,3.821,21.868,5.115,32.879,1.05,8.939,1.809,17.939,2.069,26.947h3.5C568.418,419.98,565.619,400.957,562.321,382.171Z"/>
      <path class="f" d="M519.724,423.853q-5.58-25.459-11.159-50.92l-2.559-11.676c-.48-2.191-3.843-1.264-3.363.927q3.516,16.047,7.033,32.093,4.908,22.4,9.817,44.8h3.566Q521.392,431.464,519.724,423.853Z"/>
      <path class="f" d="M332.113,436.864a1.7,1.7,0,0,0-.507-.828,10.608,10.608,0,0,0,1.286-2.486c.048-.022.1-.044.146-.07,2.451-1.325,5.643.732,4.71,3.577a2.816,2.816,0,0,1-2.616,2.016h5.536a6.726,6.726,0,0,0,.3-.689,7.182,7.182,0,0,0,.281-.974,22.189,22.189,0,0,0,2.489.922c0,.036-.01.071-.013.109a2.519,2.519,0,0,1-.124.632h3.534c.009-.056.022-.11.029-.166a9.59,9.59,0,0,0,1.638-.1c2.579-.394,4.947-1.823,5.617-4.247a8.505,8.505,0,0,0,1.267-.171q-1.078-.283-2.2-.507,1.126.225,2.2.507c2.613-.546,5.1-2.3,5.218-4.759,3.4-.678,5.444-4.867,4.182-7.986A5.173,5.173,0,0,0,368.505,417c.093-4.3-4.882-6.712-7.987-8.772a15.169,15.169,0,0,0,.992-5.159,32.3,32.3,0,0,0-.216-5.995l39.019,12.661,5.546,1.8c2.14.695,3.056-2.672.927-3.363l-.844-.274L404.6,410.02l1.343-2.126-38.95-12.638-5.545-1.8a1.606,1.606,0,0,0-2.124,1.5c.471.175.961.353,1.486.563-.525-.21-1.015-.388-1.486-.563,0,.021,0,.042-.007.063a1.9,1.9,0,0,0-1.5,2.135c.386,2.561.77,6.339-.236,9.058-3.1-2.129-6.192-4.269-9.315-6.365a1.511,1.511,0,0,0-2.195.439c.83.662,1.682,1.29,2.535,1.859-.853-.569-1.7-1.2-2.535-1.859a1.794,1.794,0,0,0,.434,2.573c3.08,2.066,6.133,4.172,9.188,6.275q2.281,1.572,4.574,3.126c1.422.962,3.309,1.9,4.3,3.365.918,1.355.178,2.555-1.266,3.019-1.638.526-3.268-.349-4.586-1.261-2.926-2.026-5.212-4.857-8.893-5.525-2.194-.4-3.135,2.962-.927,3.363,4.517.82,6.968,5.568,11.381,6.788a6.646,6.646,0,0,0,1.127.2c.025.04.05.08.08.119a2.369,2.369,0,0,1-.2,3.143c-1.052,1.269-2.641.7-3.974.141-3.642-1.53-7.137-3.561-10.663-5.341-2-1.009-3.766,2-1.76,3.011q4.314,2.178,8.627,4.355a25.242,25.242,0,0,0,3.907,1.724c.048.826-1.2,1.34-1.933,1.546a8.327,8.327,0,0,1-4.726-.393c-3.223-1.059-6-3.233-8.862-4.991-1.918-1.179-3.672,1.836-1.761,3.011,3.378,2.076,6.778,4.631,10.654,5.618-.752,1.091-2.6,1.374-3.887,1.269a17.24,17.24,0,0,1-6.147-2.1,6.972,6.972,0,0,0-7.123-3.633c-.163-2.557-2.179-4.363-4.894-4.736-2.195-.3-3.144,3.057-.927,3.363.753.1,2.025.32,2.364,1.144a3.377,3.377,0,0,1-.234,1.789,7.005,7.005,0,0,1-1.735,3.411c-1.528,1.29-4.554,1-4.629-1.356a1.832,1.832,0,0,0-.124-.62,14.46,14.46,0,0,0,2.436-4.965,1.861,1.861,0,0,0,.067-.229,1.841,1.841,0,0,0,.058-.3c.628-3.595-2.054-6.5-5.714-6.611-3.355-.107-6.425,3.278-7.545,6.166a6.176,6.176,0,0,0,.7,6.02l1.641-.505-1.641.505a6.167,6.167,0,0,0,4.248,2.379,6.07,6.07,0,0,0,2.654-.229c1.088,3.473,5.25,4.869,8.558,3.363a6.543,6.543,0,0,0,.356.787h5.547A2.981,2.981,0,0,1,332.113,436.864Zm-9.525-10.295c-.519,1.839-1.587,5.255-4,5.177-2.322-.074-3.437-1.875-2.475-4.03.591-1.323,2.116-3.264,3.632-3.631A2.265,2.265,0,0,1,322.588,426.569Z"/>
      <path class="f" d="M343.6,439.073a2.706,2.706,0,0,1-2.129,1.844c-.883.122-1.315-.119-1.565-.652a6.375,6.375,0,0,0,.759-1.192h-5.536a2.776,2.776,0,0,1-.316,0h-5.547a6.564,6.564,0,0,0,7.739,3.143,4.755,4.755,0,0,0,4.861,2.142,6.182,6.182,0,0,0,5.268-5.285Z"/>
      <path class="f" d="M357.689,395.878a8.005,8.005,0,0,0-.5-1.859,8.2,8.2,0,0,1-.919-.593,8.2,8.2,0,0,0,.919.593c-1.167-2.958-3.967-5.121-6.694-6.63-2.593-1.435-5.6-3.087-8.625-2.671-1.115.154-2.2.429-3.307.644a22.732,22.732,0,0,1-3.281.223c-1.233.062-2.461.176-3.688.308-1.36.147-3,.06-4.227.69a5.559,5.559,0,0,0-3.055,4.754c.539-.142,1.093-.247,1.616-.352-.523.1-1.077.21-1.616.352a6.639,6.639,0,0,0,1.932,5.009c4.5,4.506,11.5.535,16.487,3.547a1.6,1.6,0,0,0,2.241-.506c-.81-.693-1.587-1.408-2.3-2.124.717.716,1.494,1.431,2.3,2.124a1.7,1.7,0,0,0-.48-2.5c-2.62-1.581-5.494-1.7-8.475-1.627-2.183.052-5.2.379-7.033-1.118-1.273-1.042-2-3.553-.06-4.424a12.584,12.584,0,0,1,3.44-.413c1.484-.15,2.966-.234,4.456-.283,2.081-.068,4.046-.815,6.11-.93,1.246-.07,2.5.7,3.623,1.219,3.243,1.492,7.237,3.6,7.768,7.5C354.627,399.019,357.988,398.076,357.689,395.878Z"/>
      <path class="f" d="M297.315,444.786c.2.2.4.389.611.569,1.6,1.345,3.881-.729,2.741-2.185C299.539,443.705,298.447,444.3,297.315,444.786Z"/>
      <path class="f" d="M296.953,436.809a50.489,50.489,0,0,1-1.9-9.74,84.882,84.882,0,0,1,0-19.75,23.612,23.612,0,0,1,.635-3.346c.06-.216.125-.43.2-.642l.012-.035c-.7.207-1.4.429-2.053.593.656-.164,1.351-.386,2.053-.593.084-.244.111-.292.074-.195a1.779,1.779,0,0,1,.128-.218c1.585-1.046.3-3.422-1.5-3.085-15.936,2.987-31.885,5.913-47.862,8.672a32.14,32.14,0,0,0,1.347,3.29q22.05-3.813,44.04-7.965c-.068.335-.126.657-.18.952a61.815,61.815,0,0,0-.866,9.469c-.206,7.5.18,15.349,2.233,22.6.209.74.443,1.5.712,2.259h3.742C297.454,438.328,297.19,437.561,296.953,436.809Zm-.938-33.868a.382.382,0,0,1-.068.044C295.973,402.972,295.991,402.955,296.015,402.941Z"/>
      <path class="f" d="M300.392,442.889a9.9,9.9,0,0,1-2.622-3.816h-3.742a15.231,15.231,0,0,0,3.287,5.713c1.132-.487,2.224-1.081,3.352-1.616A1.859,1.859,0,0,0,300.392,442.889Z"/>
      <path class="f" d="M246.475,408.517c-2.208.381-1.272,3.742.927,3.363.229-.04.458-.081.687-.12a32.14,32.14,0,0,1-1.347-3.29Z"/>
      <path class="f" d="M321.4,393.426a3.136,3.136,0,0,1,1.728-1.677,1.764,1.764,0,0,0-2.434-.843,41.418,41.418,0,0,0-8.885,6.028c-2.232,2.038-4.956,4.439-7.788,5.3A1.649,1.649,0,0,0,302.8,403.8l2.364-.457-2.364.457a1.67,1.67,0,0,0,2.143,1.8,23.165,23.165,0,0,0,7.945-4.942,48.6,48.6,0,0,1,9.561-6.743,1.535,1.535,0,0,0,.674-2.168A3.136,3.136,0,0,0,321.4,393.426Z"/>
      <path class="f" d="M311.344,431.884l-6.626,1.744a1.636,1.636,0,0,0-1.142,2.184l9.742-3A1.633,1.633,0,0,0,311.344,431.884Z"/>
      <path class="f" d="M303.576,435.812a1.66,1.66,0,0,0,2.069,1.179l6.626-1.744a1.671,1.671,0,0,0,1.047-2.432Z"/>
      <path class="f" d="M301.716,404.014l.342-.066a1.783,1.783,0,0,0-3-1.239A3.114,3.114,0,0,1,301.716,404.014Z"/>
      <path class="f" d="M302.635,436.1l-.889.274.889-.274a27.552,27.552,0,0,1-.852-2.754,49.988,49.988,0,0,1-1.422-10.038c-.326-6.235-.19-12.9,1.619-18.925a1.867,1.867,0,0,0,.078-.436l-.342.066c.052.071.1.145.152.224-.049-.079-.1-.153-.152-.224l-1.853.359,1.853-.359a3.114,3.114,0,0,0-2.654-1.305,1.736,1.736,0,0,0-.445.748c-1.975,6.579-2.132,13.944-1.691,20.746.3,4.635.8,10.434,3.144,14.87h4.14A12.031,12.031,0,0,1,302.635,436.1Z"/>
      <path class="f" d="M304.21,439.073h-4.14a13.645,13.645,0,0,0,2.418,3.331,11.549,11.549,0,0,1,1.821-.5,11.549,11.549,0,0,0-1.821.5l.065.067c1.6,1.573,4.073-.891,2.466-2.466A8.126,8.126,0,0,1,304.21,439.073Z"/>
      <path class="f" d="M207.225,439.073l.05.084h4.009l-.051-.084Z"/>
      <path class="f" d="M202.927,424.161C197.317,413.677,192.081,403,186.9,392.3c-3.926-8.111-7.512-16.538-12.046-24.337a1.745,1.745,0,0,0-3.011,1.761c4,6.877,7.19,14.285,10.646,21.44,5.247,10.864,10.53,21.716,16.163,32.386,2.739,5.189,5.51,10.456,8.572,15.528h4.008C208.23,434.211,205.567,429.1,202.927,424.161Z"/>
      <path class="f" d="M293.847,445.741a9.87,9.87,0,0,0,2.124-.446,1.777,1.777,0,0,0-2.065-1.2c-14.481,2.893-29.079,5.033-43.627,7.544-8.08,1.394-16.513,3.16-24.706,1.627a30.2,30.2,0,0,1-3.027-.708c-.118-.035-.176-.05-.2-.056l-.009,0a6.716,6.716,0,0,1-.666-.365c-.11-.068-.545-.378-.53-.359a20.457,20.457,0,0,1-2.943-2.956,78.823,78.823,0,0,1-6.911-9.656h-4.009a106.215,106.215,0,0,0,7.383,10.808c1.742,2.213,3.821,4.786,6.546,5.809,6.975,2.617,15.3,1.579,22.457.486,17.1-2.609,34.211-5.418,51.172-8.806a1.536,1.536,0,0,0,1.138-2.159A9.87,9.87,0,0,1,293.847,445.741Z"/>
      <path class="f" d="M411.094,413.52l5.58,12.555c.91,2.047,3.916.275,3.012-1.76l-5.58-12.555C413.2,409.713,410.19,411.485,411.094,413.52Z"/>
      <path class="f" d="M361.1,434.325a1.54,1.54,0,0,0-2.066,1.187,18.194,18.194,0,0,1,3.869,2.207,18.194,18.194,0,0,0-3.869-2.207,1.764,1.764,0,0,0,1.139,2.176l4.063,1.385h10.792Z"/>
      <path class="f" d="M438.641,439.073l-5.64,7.56-2.691,3.607c-.246.329-.476.681-.742.994a2.842,2.842,0,0,1-.266.248c-1.971,1.486-4.943,1.555-7.294,1.544a41.219,41.219,0,0,1-9.128-1.124,80.25,80.25,0,0,1-7.688-2.545l-23.7-8.08-6.465-2.2H364.234l38.92,13.269c2.519.858,3.991,1.575,6.475,2.312,5.658,1.68,12.542,2.776,18.341,1.2a8.163,8.163,0,0,0,4.445-2.644c.6-.765,1.162-1.557,1.742-2.334l7.563-10.137,1.245-1.67Z"/>
      <path class="f" d="M456.306,421.193a1.462,1.462,0,0,0-.64-2.295l-.582,1.048.582-1.048a1.869,1.869,0,0,0-2.372.534q-6.052,8.113-12.106,16.228l-2.547,3.413h4.324Z"/>
      <path class="f" d="M450.948,337.52a5.452,5.452,0,0,0-1.9,3.592,5.452,5.452,0,0,1,1.9-3.592,1.447,1.447,0,0,0-2.188.651c-3,6.693-6.027,13.456-9.633,19.849-2.823,5-6.609,9.528-9.864,14.262-3.048,4.433-6.014,8.922-9.04,13.371-4.172,6.136-8.511,12.151-12.965,18.085a1.375,1.375,0,0,0,.1,1.912l1.347-2.133-1.347,2.133a1.929,1.929,0,0,0,2.91-.152c7.216-9.613,13.892-19.56,20.658-29.487q2.776-4.074,5.625-8.1c1.63-2.3,3.427-4.526,4.891-6.939a131.418,131.418,0,0,0,6.048-11.8q2.188-4.6,4.281-9.249A1.873,1.873,0,0,0,450.948,337.52Z"/>
      <path class="f" d="M459.51,415.19c-2.3-13.763-3.925-27.638-5.092-41.542q-.879-10.484-1.362-21c-.1-2.235-3.588-2.248-3.487,0a507.222,507.222,0,0,0,6.787,65l.44-.791-.44.791q1.392,7.916,3.106,15.753.624,2.838,1.31,5.663h3.569C462.379,431.189,460.845,423.19,459.51,415.19Z"/>
      <path class="f" d="M242.916,414.209l-3.525,10.558c-.713,2.134,2.654,3.049,3.363.927l3.525-10.558C246.992,413,243.625,412.087,242.916,414.209Z"/>
      <path class="f" d="M472.861,424.5c.287-11.74,1.037-23.472,2.128-35.164,1.013-10.86,2.293-21.716,4.219-32.456.736-4.1,1.561-8.195,2.644-12.221a135.714,135.714,0,0,1,4.717-13.521,1.917,1.917,0,0,0,.344.283l7.047,4.566c1.889,1.223,3.64-1.794,1.76-3.012l-7.047-4.565a1.633,1.633,0,0,0-.918-.284,89.789,89.789,0,0,1,7.529-15.054,80.054,80.054,0,0,1,14.11-16.035,1.511,1.511,0,0,0,.548-1.219c-.424-.709-.841-1.424-1.258-2.139.417.715.834,1.43,1.258,2.139a1.656,1.656,0,0,0-.31-.879,1.5,1.5,0,0,0-.314-1.062q-2.268-3.138-4.534-6.278a1.764,1.764,0,0,0-2.107-.724c-.053-.1-.254-.5-.372-.727.02.076.02.118-.026-.04l-.009-.027c-.032-.061-.053-.1-.054-.1s.018,0,.027.014l-.03-.092a10.494,10.494,0,0,0-.793-1.715,1.547,1.547,0,0,0-.256-.329c5.28-12.358,9.915-25.789,8.174-39.422-.7-5.5-2.194-10.837-5.736-15.182a37.153,37.153,0,0,0-12.035-9.415c-4.666-2.349-10.114-4.028-15.342-2.817a1.56,1.56,0,0,0-1.024.7,16.856,16.856,0,0,0,2.443.621,16.856,16.856,0,0,1-2.443-.621,1.817,1.817,0,0,0,1.951,2.661c3.95-.915,8.23.372,11.8,2.05a35.711,35.711,0,0,1,11.19,8.137c3.361,3.686,4.805,8.211,5.587,13.084a50.261,50.261,0,0,1-.9,18.68,112.532,112.532,0,0,1-6.762,19.959c-.029.069-.053.138-.074.206a1.869,1.869,0,0,0-.775-.275,5.673,5.673,0,0,1-4.9-3.774c-.621-1.848-.79-3.777-1.677-5.543-1.687-3.356-5.078-4.474-8.554-4.672a15.675,15.675,0,0,0,.107-3.462c-.248-2.875-1.493-5.787-4.175-7.17-2.966-1.529-6.085-.387-8.09,1.962a1.675,1.675,0,0,0-.666.477l-2.185,2.5c-.17-2.194-.4-4.385-.788-6.54-.889-4.971-6.871-6.761-9.906-10.257a1.476,1.476,0,0,0-2.092-.244,1.878,1.878,0,0,0-.646-.182,39.97,39.97,0,0,1-15.95-5.568c-2.255-1.369-3.9-4.488-2.187-7.065,1.374-2.069,4.31-4.326,6.9-4.382a1.736,1.736,0,0,0,1.5-.864c2.064-4.155,5.243-7.64,9.728-9.155,3.918-1.324,9.026-2.029,12.7.288,1.905,1.2,3.657-1.817,1.76-3.011-.29-.183-.587-.35-.89-.5a12.233,12.233,0,0,0-2.125-.2,12.233,12.233,0,0,1,2.125.2c-4.362-2.225-10.022-1.641-14.5-.135a20.479,20.479,0,0,0-11.416,10,13.929,13.929,0,0,0-8.085,5.03,8.36,8.36,0,0,0,1,11.532,11.405,11.405,0,0,0,1.582,1.241v0a35.409,35.409,0,0,0,6.228,2.935,42.093,42.093,0,0,0,11.623,3.148,1.655,1.655,0,0,0,.746-.084,37.858,37.858,0,0,0,5.61,4.491c1.631,1.17,2.649,2.041,2.979,4.039a90.524,90.524,0,0,1,.889,9.605c.08,1.4,1.917,2.443,2.977,1.233l4.61-5.27a1.734,1.734,0,0,0,.868-.692c1.293-1.92,3.741-2.409,5.27-.439a7.651,7.651,0,0,1,1.084,5.5c-.421,3.79-2.423,8.316-5.851,10.29a1.745,1.745,0,0,0,1.76,3.011,16.031,16.031,0,0,0,6.68-8.8l.054,0c1.822.037,3.762.171,5.182,1.452,1.561,1.409,1.737,3.588,2.244,5.5,1.106,4.179,4.252,6.53,8.473,7.066a1.482,1.482,0,0,0,1.023-.2,1.829,1.829,0,0,0,.166.434c.011.02.252.494.386.753-.02-.075-.02-.117.027.04l.009.028c.031.06.052.1.053.1s-.017,0-.026-.015c.01.031.019.062.029.093a10.415,10.415,0,0,0,.794,1.715,1.513,1.513,0,0,0,.238.313c-5.008,3.989-10.292,7.66-15.5,11.366q-9.381,6.677-18.866,13.205-.921.636-1.843,1.268a11.218,11.218,0,0,1,1.032.837,11.218,11.218,0,0,0-1.032-.837q-1.058.729-2.115,1.456a1.781,1.781,0,0,0-.8,1.969c1.111,3,2.147,6.057,2.972,9.153a25.4,25.4,0,0,1,.721,5.753,31.985,31.985,0,0,1-.2,7.185c-.386,2.195,2.974,3.137,3.363.927a31.348,31.348,0,0,0,.365-7.441,34.776,34.776,0,0,0-.7-6.639,88.807,88.807,0,0,0-2.742-8.73c10.463-7.172,20.881-14.426,31.1-21.945,2.45-1.8,4.9-3.62,7.277-5.521l3.147,4.358a84.882,84.882,0,0,0-12.324,13.749,81.7,81.7,0,0,0-8.158,15.157c-1.437,3.393-2.8,6.8-4.036,10.24a1.829,1.829,0,0,0,.606.7,1.829,1.829,0,0,1-.606-.7,121.9,121.9,0,0,0-4.989,17.563c-4.4,22.076-6.241,44.856-7.053,67.325a40.051,40.051,0,0,0,1.836,5.092,40.051,40.051,0,0,1-1.836-5.092l-.009.24c-.231,6.457-.4,12.967-.255,19.459h3.506C472.67,434.212,472.743,429.343,472.861,424.5Z"/>
      <path class="f" d="M491.134,343.121c-3.326,11.41-6.97,22.732-10.092,34.2a236.829,236.829,0,0,0-6.362,31.831c-.288,2.22,3.2,2.2,3.487,0,2.9-22.349,10.048-43.555,16.33-65.1C495.126,341.89,491.761,340.968,491.134,343.121Z"/>
      <path class="f" d="M536.176,329.7c-14.233-3.868-28.066,7.583-32.847,20.319-.789,2.1,2.581,3.012,3.363.927,4.111-10.952,16.282-21.219,28.557-17.883A1.745,1.745,0,0,0,536.176,329.7Z"/>
    </g>
    <g>
      <path class="b" d="M149.229,149.643a27.028,27.028,0,0,1-7.234.936c-7.646,0-9.626-3.411-9.626-5.886a6.3,6.3,0,0,1,1.539-3.933l3.191,1.1a3.367,3.367,0,0,0-1.044,2.117v.083c0,1.733,2.31,2.751,5.583,2.751a22.464,22.464,0,0,0,7.4-1.128ZM147.5,130.336c-.028,1.045-.083,2.447-.083,2.613a44.346,44.346,0,0,0-6.986-.523,41.116,41.116,0,0,0-6.793.5l-.111-3.685a65.282,65.282,0,0,1,7.372-.441c1.265,0,3.135.055,4.951.22a28.5,28.5,0,0,0-1.32-3.686l2.035-.274A34.412,34.412,0,0,1,148.4,130.2Zm2.311.027a36.673,36.673,0,0,0-1.816-5.089l1.981-.275a30.814,30.814,0,0,1,1.9,4.9Z"/>
      <path class="b" d="M157.011,151.734v-5.391l.136-5.5a32.14,32.14,0,0,1-2.86,7.344l-1.87-3.824a24.744,24.744,0,0,0,4.318-7.645H153.16v-3.411h3.851v-2.97c-1.183.11-2.283.164-3.192.192l-.77-3.493a37.1,37.1,0,0,0,9.435-1.183l1.374,3.356a31.113,31.113,0,0,1-3.768.77v3.328h3.851v3.411h-3.493a22.764,22.764,0,0,0,3.823,5.61l-1.4,3.988a30.65,30.65,0,0,1-2.779-6.133v11.552Zm8.058-6.436V127.612H167.9V145.27Zm.8,2.751,1.375.026c2.035,0,2.227-.137,2.227-1.513v-20.82h3.219v20.986c0,4.153-.44,4.979-5.5,5.006Z"/>
      <path class="b" d="M187.95,148.049c2.641,0,2.971-.083,2.971-1.459v-3.107h-4.346v7.811h-3.246v-7.811h-4.4a24.842,24.842,0,0,1-1.761,8.058l-3.026-2.117c1.459-3.521,1.734-7.482,1.734-14.743v-7.7h18.318v19.335c0,4.319-.743,5.117-4.924,5.392Zm-4.621-11.2h-4.181l-.055,3.3h4.236Zm0-6.407h-4.181v3.079h4.181Zm7.592,0h-4.346v3.079h4.346Zm0,6.407h-4.346v3.3h4.346Z"/>
      <path class="b" d="M197.271,151.707V126.43h9.022v10.287h-5.859v14.99Zm5.968-22.5h-2.805v1.21h2.805Zm0,3.548h-2.805V134.1h2.805Zm4.511,18.208v-5.117h-1.677a7.654,7.654,0,0,1-2.834,5.364l-2.557-1.9a4.9,4.9,0,0,0,2.531-3.466h-2.036v-2.97h2.228V140.87H201.7v-2.806h10.4v2.806h-1.541v2.007l2.036-.028v3h-2.036v5.117Zm0-10.094h-1.539v2.007h1.539Zm3.108,7.179h.771c1.595,0,1.732-.138,1.732-1.376v-9.956h-6V126.43h9.16v19.94c0,4.264-.22,5.2-4.373,5.2Zm2.5-18.841h-2.97v1.21h2.97Zm0,3.548h-2.97V134.1h2.97Z"/>
      <path class="b" d="M235.28,151.762v-1.321h-4.07v1.321h-3.136v-4.539l-1.843,2.365c-.632-.824-1.321-1.65-2.008-2.475a19.863,19.863,0,0,1-3.713,4.594l-2.062-3.247a14,14,0,0,0,3.437-3.794c-1.045-1.019-2.063-1.953-3.026-2.751a50.312,50.312,0,0,0,1.4-8.417h-1.458V130.17h1.7c.083-1.568.11-3.081.11-4.428h3.109c-.028,1.347-.083,2.888-.166,4.428h3.96c0,1.541-.027,3-.109,4.428.275.028.577.028.88.028a49.475,49.475,0,0,0,2.448-8.884l3.245.881a79.3,79.3,0,0,1-2.366,7.866c1.211-.083,2.421-.193,3.439-.33-.413-1.21-.852-2.393-1.265-3.356l2.75-1.485c1.074,2.586,2.283,5.968,2.889,8l-2.889,1.706c-.109-.523-.275-1.072-.467-1.678a81.921,81.921,0,0,1-8.251.88l-.468-2.64a30.1,30.1,0,0,1-1.678,8.388c.88.853,1.7,1.734,2.393,2.476v-6.821h10.369v12.13ZM223.261,133.5a51.735,51.735,0,0,1-1.156,7.151c.358.276.743.634,1.183,1.019a26.5,26.5,0,0,0,1.237-8.17Zm12.019,9.325h-4.07v4.456h4.07Z"/>
      <path class="b" d="M258.024,150.662a21.445,21.445,0,0,0-4.4-4.4c-.521,3.081-2.475,4.951-5.583,4.951-4.373,0-6-2.777-6-5.088,0-3.246,3.081-4.9,6.189-4.9a10.18,10.18,0,0,1,2.2.22l-.027-2.777-7.509.027v-3.274h7.454l-.028-2.695h-8.086v-3.273l8-.027c-.026-1.4-.054-2.558-.054-3.218h3.575v3.218H260V132.7h-6.271l.027,2.695h5.529v3.274H253.76c0,1.237.028,2.585.028,3.74a25.632,25.632,0,0,1,6.188,4.675Zm-10.068-6.245c-.962,0-2.557.413-2.557,1.651,0,1.266,1.265,1.815,2.42,1.815,1.705,0,2.394-1.457,2.586-3.053A7.619,7.619,0,0,0,247.956,144.417Z"/>
      <path class="b" d="M279.887,150.8c-.357.027-.77.055-1.155.055-6.492,0-11.139-3.273-11.139-9.132a13.161,13.161,0,0,1,4.813-9.571c-2.393.11-6.519.44-9.3.577l-.082-3.713c4.483-.082,13.532-.192,18.813-.55l.275,3.52-1.183.028a9.851,9.851,0,0,0-3.8.606c-3.245,1.54-6,5.087-6,8.745,0,3.164,2.119,5.529,6.9,5.611a20.4,20.4,0,0,0,2.531-.137Zm-1.045-11.278a26.168,26.168,0,0,0-2.31-4.977l1.87-.661a35.447,35.447,0,0,1,2.393,4.9Zm3.218-1.1a31.35,31.35,0,0,0-2.365-4.813l1.788-.659a29.586,29.586,0,0,1,2.419,4.675Z"/>
      <path class="b" d="M302.054,150.358a41.909,41.909,0,0,0-5.53-7.673,23.488,23.488,0,0,1-9.543,7.811l-2.394-3.383a19.14,19.14,0,0,0,12.6-14.852l-10.1.109v-3.74h14.688a32.263,32.263,0,0,1-3.245,10.864,46.288,46.288,0,0,1,6.408,7.481Z"/>
      <path class="b" d="M323.7,150.688c-.3-1.045-.577-1.815-.935-2.8-5.611,1.045-11.387,1.815-15.458,2.338l-.632-3.988,2.586-.192a145.869,145.869,0,0,0,4.7-18.759l4.072.909a177.2,177.2,0,0,1-4.979,17.52c3.273-.358,6.161-.688,8.471-1.073a43.612,43.612,0,0,0-3.438-6.849l3.438-1.375a65.574,65.574,0,0,1,5.86,12.405Z"/>
      <path class="b" d="M329.3,140.594v-3.685h19.2v3.685Z"/>
      <path class="b" d="M367.836,150.441a40.964,40.964,0,0,0-5.528-7.673,23.691,23.691,0,0,1-9.517,7.811l-2.393-3.411A19.239,19.239,0,0,0,363,132.316l-10.122.11v-3.741h12.845a32.744,32.744,0,0,0-1.293-3.026l1.926-.494a35.473,35.473,0,0,1,2.035,5.115l-1.1.33a31.7,31.7,0,0,1-2.97,8.967,42.612,42.612,0,0,1,6.409,7.481Zm2.036-19.941a33.289,33.289,0,0,0-2.008-5.033l1.87-.44A30.481,30.481,0,0,1,371.8,129.9Z"/>
      <path class="b" d="M374.407,150.743a54.694,54.694,0,0,1-.522-7.811,126.007,126.007,0,0,1,1.155-15.7l3.685.441a96.091,96.091,0,0,0-1.238,15.072,46.067,46.067,0,0,0,.6,7.7Zm18.1-1.677a22.813,22.813,0,0,1-4.649.44,17.646,17.646,0,0,1-3.794-.357c-2.339-.551-4.292-2.311-4.292-4.813a5.713,5.713,0,0,1,.907-2.917l3.054.8a3.051,3.051,0,0,0-.66,1.623c0,1.237,1.183,1.981,4.346,1.981a21.7,21.7,0,0,0,5.116-.661Zm-.962-15.622a24.46,24.46,0,0,0-5.529-.495,30.306,30.306,0,0,0-5.281.44l.027-3.576a42.385,42.385,0,0,1,5.749-.385,30.742,30.742,0,0,1,5.088.412Z"/>
      <path class="b" d="M413.24,149.643a27.016,27.016,0,0,1-7.233.936c-7.646,0-9.627-3.411-9.627-5.886a6.3,6.3,0,0,1,1.54-3.933l3.191,1.1a3.367,3.367,0,0,0-1.044,2.117v.083c0,1.733,2.309,2.751,5.583,2.751a22.467,22.467,0,0,0,7.4-1.128Zm-1.732-19.307c-.028,1.045-.083,2.447-.083,2.613a44.355,44.355,0,0,0-6.986-.523,41.108,41.108,0,0,0-6.793.5l-.111-3.685a65.263,65.263,0,0,1,7.371-.441c1.266,0,3.136.055,4.951.22a28.521,28.521,0,0,0-1.319-3.686l2.034-.274a34.412,34.412,0,0,1,1.843,5.143Zm2.311.027A36.673,36.673,0,0,0,412,125.274l1.98-.275a30.624,30.624,0,0,1,1.9,4.9Z"/>
      <path class="b" d="M435.764,151.266a20.505,20.505,0,0,1-7.289-5.115v5.583h-3.217v-5.5a20.443,20.443,0,0,1-7.207,5.061l-1.7-3.245a17.307,17.307,0,0,0,6.409-2.861h-5.749v-2.861h8.252V140.7h3.217v1.623h8.334v2.861h-5.776a17.087,17.087,0,0,0,6.436,2.833Zm-2.283-19.775V130.17H420.334v1.321h-3.355v-4.374h8.031v-1.375h3.713v1.375h8.114v4.374Zm1.266,10.231a42.2,42.2,0,0,0-5.749-2.53c-2.668,1.568-6.271,2.063-10.369,2.146l-.991-2.889h2.256a23.352,23.352,0,0,0,5.694-.494,39.411,39.411,0,0,0-5.749-.853,24.522,24.522,0,0,0,1.9-2.366h-4.429v-2.8h6.19c.3-.55.549-1.046.77-1.513l3.162.441c-.164.357-.357.715-.549,1.072h9.626v2.8h-3.741a10.339,10.339,0,0,1-1.485,2.393,41.458,41.458,0,0,1,4.924,1.76Zm-9.545-6.986-.632.77c1.1.22,2.337.44,3.52.715a4.859,4.859,0,0,0,1.238-1.485Z"/>
      <path class="b" d="M451.246,148.075h.771c2.97,0,3.135-.137,3.135-1.7v-3.547l-1.925,2.639a38.326,38.326,0,0,0-4.015-6.16,14.205,14.205,0,0,1-5.034,6.6l-1.458-2.641v8.472h-3.245V129.263h7.894v-3.521h3.162c0,.8,0,2.119-.027,3.521H458.4v16.722c0,4.979-.577,5.666-5.748,5.694Zm-8.526-15.347v9.6c3.549-2.393,4.373-5.693,4.594-9.6Zm12.432,0h-4.731c0,.193-.028.357-.028.523-.054.66-.109,1.457-.247,2.365a64.6,64.6,0,0,1,5.006,6.271Z"/>
      <path class="b" d="M472.34,144.693c-1.155,3.218-2.916,5.39-5.226,5.39a4.071,4.071,0,0,1-3.327-2.008c-1.541-2.228-2.174-7.618-2.174-13.477,0-.3,0-.605.165-5.83l3.686.138a63.42,63.42,0,0,0-.358,6.628c0,6.326.77,10.259,2.256,10.259.908,0,1.4-1.183,2.53-4.676Zm5.033,2.778c-.027-4.951-1.4-13.065-4.675-17.273l3.107-1.348c3.108,3.933,5.089,11.965,5.089,17Z"/>
      <path class="b" d="M483.119,150.083a138.608,138.608,0,0,0,4.291-17.162h-4.016v-3.356h4.456c.247-1.265.357-2.448.5-3.438l3.686.275c-.138.991-.3,2.063-.5,3.163l5.2-.027v3.328l-5.748.027a167.207,167.207,0,0,1-4.291,18.071Zm19.528.468a16.2,16.2,0,0,1-3.356.3c-2.585,0-8.279-.688-8.279-4.9a4.337,4.337,0,0,1,.853-2.366l3.081.578a2.031,2.031,0,0,0-.687,1.292c0,.853.742,1.844,3.851,1.844a20.649,20.649,0,0,0,4.345-.5Zm-.522-12.019a25.575,25.575,0,0,0-5.2-.5,16.393,16.393,0,0,0-3.713.385l-.276-3.328a34.951,34.951,0,0,1,5.006-.357,33.907,33.907,0,0,1,4.538.275Z"/>
      <path class="b" d="M524.924,141.722c-2.283,5.529-6.162,9.406-11.332,9.406-3.851,0-5.914-2.722-5.914-6.792,0-4.511.082-12.075.082-17.466l3.934.138c-.22,5.281-.33,12.458-.33,16.612,0,2.091.632,3.74,2.613,3.74,4.923,0,7.453-7.151,7.838-8.388Z"/>
      <path class="b" d="M544.036,150.662a21.441,21.441,0,0,0-4.4-4.4c-.521,3.081-2.475,4.951-5.583,4.951-4.373,0-6-2.777-6-5.088,0-3.246,3.081-4.9,6.188-4.9a10.183,10.183,0,0,1,2.2.22l-.027-2.777-7.509.027v-3.274h7.454l-.028-2.695h-8.087v-3.273l8-.027c-.027-1.4-.055-2.558-.055-3.218h3.576v3.218h6.244V132.7h-6.271l.027,2.695H545.3v3.274h-5.529c0,1.237.028,2.585.028,3.74a25.632,25.632,0,0,1,6.188,4.675Zm-10.067-6.245c-.962,0-2.557.413-2.557,1.651,0,1.266,1.265,1.815,2.42,1.815,1.705,0,2.393-1.457,2.586-3.053A7.619,7.619,0,0,0,533.969,144.417Z"/>
      <path class="b" d="M551.708,148.268c5.033-.715,7.205-2.447,7.92-4.153a4.131,4.131,0,0,1-2.5.743,4.661,4.661,0,0,1-4.869-4.869c0-2.86,1.9-5.253,5.556-5.253a4.269,4.269,0,0,1,1.211.138L559,132.949l-10.039.027v-3.3l9.956-.028c0-1.155-.055-2.255-.081-3.274h3.547c0,1.019.028,2.119.028,3.247h6.546v3.3l-6.491.028c0,1.595,0,3.189-.028,4.483a9.284,9.284,0,0,1,.907,4.208c0,4.483-2.667,8.609-9.213,9.929Zm7.59-9.681a2.278,2.278,0,0,0-2.007-1.073,2.1,2.1,0,0,0-1.9,2.283,1.825,1.825,0,0,0,1.788,2.035c1.76,0,2.117-1.7,2.117-3.081Z"/>
    </g>
  </g>
</svg>
