<svg xmlns="http://www.w3.org/2000/svg" xmlns:xlink="http://www.w3.org/1999/xlink" width="640" height="210" viewBox="0 0 640 210">
  <defs>
    <style>
      .a {
        fill: none;
      }

      .b {
        fill: #fff;
      }

      .c {
        fill: #f4d446;
      }

      .d {
        fill: url(#a);
      }

      .e {
        fill: #2d2e2e;
      }

      .f {
        fill: #413d3c;
      }
    </style>
    <pattern id="a" data-name="新規パターンスウォッチ 3" width="12.5" height="12.5" patternTransform="matrix(-0.411, -0.399, -0.411, 0.399, 1133.427, 718.51)" patternUnits="userSpaceOnUse" viewBox="0 0 12.5 12.5">
      <rect class="a" width="12.5" height="12.5"/>
      <rect class="b" width="12.5" height="12.5"/>
      <circle class="c" cx="6.25" cy="6.25" r="2.431"/>
    </pattern>
  </defs>
  <g>
    <rect class="a" width="640" height="210"/>
    <g>
      <path class="b" d="M221.509,164.867a2.033,2.033,0,0,0,.351-.3c.431-.238.855-.5,1.276-.754,1.833-1.125,3.608-2.349,5.4-3.547a36.5,36.5,0,0,0,4.325-3.122,6.594,6.594,0,0,1,2.065,2.822c.186.936-.612,1.608-1.274,2.171a46.137,46.137,0,0,1-6.759,4.308c-.956.557-2.454,1.8-3.563,1.755C222.054,168.154,220.028,165.859,221.509,164.867Z"/>
      <path class="b" d="M229.639,155.053c-2.291,1.757-4.768,3.332-7.2,4.894-1.41.908-3.877,3.063-5.539,1.539-1-.916-1.595-3.447-.179-4.249l.026-.017a34.876,34.876,0,0,0,6.036-3.727c1.834-1.231,4.306-2.5,6.079-4.2,1.322.506,2.745,1.718,2.727,3.2C231.58,153.658,230.5,154.4,229.639,155.053Z"/>
      <path class="c" d="M24.032,84.467a9.889,9.889,0,0,0-1.2-2.04,7.039,7.039,0,0,0-1.666-1.55A8.5,8.5,0,0,0,22.9,79.693a7.849,7.849,0,0,0,1.167-1.31,6.938,6.938,0,0,0,1.264,1.4,7.811,7.811,0,0,0,1.974,1.2,8.172,8.172,0,0,0-1.991,1.523A7.125,7.125,0,0,0,24.032,84.467Z"/>
      <path class="c" d="M164.235,85.924a9.9,9.9,0,0,0-1.2-2.041,7.054,7.054,0,0,0-1.666-1.549,8.528,8.528,0,0,0,1.726-1.185,7.9,7.9,0,0,0,1.168-1.309,6.956,6.956,0,0,0,1.263,1.4,7.857,7.857,0,0,0,1.974,1.2,8.168,8.168,0,0,0-1.991,1.522A7.112,7.112,0,0,0,164.235,85.924Z"/>
      <path class="c" d="M193.143,56.161a10.965,10.965,0,0,0-1.219,2.518,14.1,14.1,0,0,0-1.408-3,8.477,8.477,0,0,0-3-2.843,9.537,9.537,0,0,0,2.99-2.119,10.424,10.424,0,0,0,1.43-1.933,8.717,8.717,0,0,0,1.635,2.149,9.2,9.2,0,0,0,3.445,2.013A9.754,9.754,0,0,0,193.143,56.161Z"/>
      <path class="d" d="M169.246,131.463q.648,2.035,1.295,4.071,4.451,13.988,8.9,27.975a1.728,1.728,0,0,0,1.087,1.158q-1.306,3.484-2.7,6.932a1.459,1.459,0,0,0,.1,1.436c-.133.5-.253.971-.419,1.412a1.905,1.905,0,0,0-2.7.728c-.255-.247-.472-.416-.625-.263a16.569,16.569,0,0,0-2.069,4.775,1.584,1.584,0,0,0-1.762.874c-4.435,8.283-9.045,16.477-13.573,24.71a1.835,1.835,0,0,0,1.251,2.676H117.624l7.155-15.455a1.853,1.853,0,0,0-1.088-2.675l-2.283-.692c2.324-4.533,6.318-7.959,10.5-10.78a134.892,134.892,0,0,1,14.207-8.332c2.254-1.149,5.082-2.261,6.405-4.571a5.765,5.765,0,0,0-.557-6.312,6.768,6.768,0,0,0-.486-.508c2.851-1.732,4.77-4.131,3.751-7.755a5.06,5.06,0,0,0-2.913-3.519,6.272,6.272,0,0,0,1.159-4.2,6.648,6.648,0,0,0-1.9-4.473c2.3-.929,4.594-1.882,6.856-2.9,1.9-.856,4.254-1.716,5.49-3.5a6.083,6.083,0,0,0,.791-4.956,15.942,15.942,0,0,1,4.9,2.476A1.578,1.578,0,0,0,169.246,131.463Z"/>
      <path class="b" d="M225.217,172.026c-2.045,3.008-5.066,4.659-8.23,6.272a15.87,15.87,0,0,1-4.952,1.438c-1.484.231-3.462.388-4.756,1.209-1.219.774-2,2.863-2.712,4.04l-1.944,3.2c-2.106-.786-4.189-1.637-6.244-2.531-6.575-2.862-13.264-6.206-18.637-11.029a2.174,2.174,0,0,0-.23-.177c.166-.441.286-.917.419-1.412a2.014,2.014,0,0,0,3.412-.468c2.588-6.387,4.922-12.883,7.113-19.416a203.078,203.078,0,0,0,5.814-19.941,52.762,52.762,0,0,0,1.245-7.543c.2-2.684-.179-5.474.486-8.115.588-2.334,2.342-2.508,3.487-.542,1.077,1.852,1.154,4.254,1.238,6.333.185,4.532-.4,9.07.267,13.582.609,4.149,2.843,7.743,2.346,12.05-.538,4.667-3.371,8.863-6.246,12.424-1.46,1.808,1.1,4.4,2.575,2.575,3.479-4.307,6.629-9.123,7.281-14.746.489-4.215-1.193-7.979-2.1-11.95a1.708,1.708,0,0,0,1.408-.165c3.593-2.027,7.2-4.032,10.849-5.957,5.39-2.845,10.866-5.586,16.318-8.312,1.8-.9,3.615-1.763,5.488-2.491,1.381-.538,3.2-1.478,4.726-1.278,1.046.138,1.719.538,1.766,1.558.014.3-.011.984-.019,1.03-.191,1.165-2,2.471-3.308,3.241-2.909,1.707-6.027,3.1-9,4.71-4.635,2.519-9.219,5.119-13.907,7.543a1.738,1.738,0,0,0-.029,3.042,1.453,1.453,0,0,0,1.569.829c1.174-.12,2.475-.635,3.635-.628,1.251.008,2.244,1.245,2.715,2.329.83,1.911.342,3.085-1.226,4.269-1.809,1.366-3.741,2.582-5.624,3.842a30.115,30.115,0,0,1-4.964,3.089,1.875,1.875,0,0,0-.231.095,2.577,2.577,0,0,1-3.331-1.525,2.131,2.131,0,0,1,.8-2.926c2-1.5,3.89-3.165,5.827-4.74,1.82-1.48-.772-4.042-2.575-2.575l-3.6,2.928a28.953,28.953,0,0,0-3.117,2.526c-2.576,2.885-.892,7.832,2.291,9.479a5.814,5.814,0,0,0,1.111.437,7.419,7.419,0,0,0,1.1,5.463,5.8,5.8,0,0,0,3.912,2.517,6.15,6.15,0,0,0,2.3,4.817c2.69,2.256,5.337,1.245,8.025-.282.3-.17.606-.34.915-.511q-.543.882-1.1,1.76A1.843,1.843,0,0,0,225.217,172.026Z"/>
      <path class="c" d="M58.612,52.774a49.026,49.026,0,0,1-1.05-19.544c.862-6.007,3.387-13.5,10.562-13.708,2.343-.066,2.345-3.708,0-3.642l-.135.007a27.936,27.936,0,0,1,2.737-2.67,1.8,1.8,0,0,0,3.016-.122C76.727,7.939,82.753,6.25,88.38,6.177c12.058-.158,23.69,6.527,30.37,16.474,5.63,8.385,5.814,19.406,2.565,28.784a1.642,1.642,0,0,0,1.544,2.208,12.362,12.362,0,0,1-.128,1.328,1.941,1.941,0,0,0-1.537,2.143,11.712,11.712,0,0,1-4.466-.847,1.911,1.911,0,0,0-1.048-2.673c-4.906-1.735-9.074-5.259-12.812-8.776-3.82-3.594-7.314-7.507-10.856-11.369-1.589-1.732-4.157.85-2.575,2.575,2.707,2.952,5.472,6.133,8.417,9.151a11.3,11.3,0,0,1-3.688-.882,1.473,1.473,0,0,0-1.313-1.442C85.86,41.614,79.9,38.439,76.83,31.769c-.98-2.128-4.117-.276-3.144,1.838A20.955,20.955,0,0,0,75,36.012a12.21,12.21,0,0,1-1.436,1.727c-.5-1.6-3.386-1.354-3.576.7A18.622,18.622,0,0,1,62.25,51.672a2.017,2.017,0,0,0,.387,3.4,6.886,6.886,0,0,1-1.9,1.967,1.849,1.849,0,0,0-1.56-1.126,5.847,5.847,0,0,0-1.484.048,6.485,6.485,0,0,1-.259-1.047A1.7,1.7,0,0,0,58.612,52.774Z"/>
      <path class="b" d="M126.894,62.268c-.655-1.653-1.934-3.868-3.961-3.68a1.529,1.529,0,0,1-1.747-1.467,11.577,11.577,0,0,1-4.46-.842,1.544,1.544,0,0,1-2.027.811c-6.488-2.277-11.915-6.862-16.844-11.915a11.526,11.526,0,0,1-3.68-.873A1.985,1.985,0,0,1,91.9,46.361c-6.955-1.217-13.193-4.46-16.9-10.355a12.549,12.549,0,0,1-1.435,1.746,1.623,1.623,0,0,1,.062.686C73,45.3,69.535,50.7,64.076,54.813a1.4,1.4,0,0,1-1.434.25,6.381,6.381,0,0,1-1.9,1.965c.5,1.154-.031,2.682-1.56,2.526-4.491-.436-4.709,5.927-3.992,8.89a16.672,16.672,0,0,0,2.277,5.364c.655.967,1.965,2.652,3.337,2.464,1.872-.249,2.87,2,1.965,3.026.125.5.281,1,.406,1.528a1.7,1.7,0,0,1,2,1.248c1.466,5.333,2.682,10.885,5.489,15.689A21.464,21.464,0,0,0,84.1,107.712a24.78,24.78,0,0,0,18.37-2.152A28.051,28.051,0,0,0,114.23,92.117c2.246-5.676,2.652-11.915,3.463-17.9.312-2.308,3.836-1.341,3.493.967a2.423,2.423,0,0,1-.062.468c3.493-1.123,5.645-4.554,6.269-8.141A9.107,9.107,0,0,0,126.894,62.268ZM91.025,65.605a88.123,88.123,0,0,0,4.8,9.732,1.892,1.892,0,0,1-.655,2.495c-1.59,1-3.087,2.152-4.678,3.15-2,1.279-3.837-1.871-1.841-3.119,1.061-.686,2.121-1.435,3.182-2.183-1.466-2.651-2.714-5.49-3.93-8.234C86.939,65.325,90.089,63.453,91.025,65.605ZM78.174,62.486a1.826,1.826,0,0,1,0-3.649A1.826,1.826,0,0,1,78.174,62.486ZM97.107,90.527a9.822,9.822,0,0,1-6.862,3.586c-2.714.063-5.053-1.4-6.924-3.275-1.622-1.684.936-4.273,2.589-2.589,2.9,2.932,5.9,2.683,8.639-.311C96.109,86.222,98.7,88.78,97.107,90.527Zm6.082-28.041a1.826,1.826,0,0,1,0-3.649A1.826,1.826,0,0,1,103.189,62.486Z"/>
      <path class="b" d="M61.084,117.734c1.8-.661,3.578-1.355,5.318-2.125,2.528-1.12,3.19-5.76,3.8-8.2q.4-1.587.742-3.189c8.667,9.07,24.372,10.669,34.756,3.62a34.143,34.143,0,0,0,4.384-3.544,22.845,22.845,0,0,0,.535,3.881,30.58,30.58,0,0,0,1.047,3.4c.419,1.166.668,2.6,1.822,3.229a13.556,13.556,0,0,0,2.994.859c-1.3,1.5-2.218,3.352-3.726,4.542A1.937,1.937,0,0,0,110,118.482l-.334.164a5.619,5.619,0,0,0-5.269-1.461c-2.385.654-3.488,3.069-3.892,5.306-.014.074-.024.147-.036.221a39.939,39.939,0,0,1-11.491,2.577c-8.059.459-15.65-2.333-22.66-6.079a1.785,1.785,0,0,0-2.4.63A6.561,6.561,0,0,1,61.084,117.734Z"/>
      <path class="d" d="M7.645,192.285c1.093-11.035,2.361-22.072,4.254-33a135.046,135.046,0,0,1,3.039-14.016,41.807,41.807,0,0,1,1.63-4.81A11.247,11.247,0,0,1,18.4,137.4c3.585-3.816,8.991-6.161,13.651-8.33,6.211-2.893,12.61-5.372,19.026-7.771,3.3-1.232,6.679-2.338,10-3.562a6.561,6.561,0,0,0,2.833,2.106,1.662,1.662,0,0,0,.559,2.514c7.541,4.031,15.821,7.082,24.5,6.576a43.059,43.059,0,0,0,11.3-2.329c.064,1.6.241,3.2.307,4.832A44.119,44.119,0,0,1,99,143.414,200.078,200.078,0,0,0,94.709,166.6c-.393,3.371.187,6.79-1.095,10-.493,1.232-1.056,2.423-1.612,3.614l-2.766-.838a1.834,1.834,0,0,0-2.056.837L85.335,183.9,73.313,207.947H6.244C6.65,202.721,7.128,197.5,7.645,192.285Z"/>
      <path class="d" d="M116.485,115.658c.052.013.107.026.158.04l3.372.929q3.519.969,7.039,1.941,9.17,2.529,18.337,5.062a1.775,1.775,0,0,0,2.252-1.76c2.177.822,4.291,1.835,6.468,2.658-13.347,4.545-26.791,9.387-39.551,15.4-1.655-1.909-1.343-5.78-1.455-7.967-.1-2-.344-3.985-.608-5.966a20.827,20.827,0,0,0-.779-4.315l.116-.057a1.523,1.523,0,0,0,.925-1.426C114.267,119.01,115.189,117.156,116.485,115.658Z"/>
      <path class="d" d="M174.814,175.175a1.554,1.554,0,0,0,.353,2.024c5.623,5.047,12.49,8.6,19.374,11.6,3.387,1.474,6.833,2.869,10.342,4.041q-3.627,7.4-7.252,14.807a2.024,2.024,0,0,0-.118.3H158.924a1.646,1.646,0,0,0,1-.838c4.529-8.233,9.139-16.427,13.573-24.71a1.867,1.867,0,0,0-1.382-2.712,16.569,16.569,0,0,1,2.069-4.775C174.342,174.759,174.559,174.928,174.814,175.175Z"/>
      <path class="e" d="M91.036,65.6a89.343,89.343,0,0,0,4.781,9.733,1.853,1.853,0,0,1-.653,2.491c-1.6,1.007-3.086,2.166-4.682,3.173-1.988,1.254-3.817-1.9-1.838-3.145,1.085-.684,2.123-1.438,3.177-2.167-1.466-2.663-2.692-5.484-3.929-8.247C86.942,65.318,90.079,63.463,91.036,65.6Z"/>
      <path class="e" d="M90.246,94.12a9.626,9.626,0,0,1-6.915-3.3c-1.647-1.67.926-4.247,2.575-2.575,2.891,2.932,5.893,2.687,8.63-.3,1.586-1.732,4.156.849,2.575,2.575A9.8,9.8,0,0,1,90.246,94.12Z"/>
      <path class="e" d="M103.189,62.473a1.822,1.822,0,0,1,0-3.641A1.822,1.822,0,0,1,103.189,62.473Z"/>
      <path class="e" d="M78.169,62.473a1.822,1.822,0,0,1,0-3.641A1.822,1.822,0,0,1,78.169,62.473Z"/>
      <path class="e" d="M121.194,57.114a1.941,1.941,0,0,1,1.537-2.143,7.009,7.009,0,0,1-.685,2.174C121.763,57.136,121.478,57.127,121.194,57.114Z"/>
      <path class="e" d="M6.922,167.677c1.253-8.8,2.5-17.908,5.431-26.336a16.785,16.785,0,0,1,4.434-7.441c3.829-3.4,8.626-5.732,13.226-7.883,11.319-5.293,23.2-9.108,34.8-13.679,1.734-3.659,2.48-7.985,3.182-11.94-3.287-5.224-4.732-11.449-6.335-17.344a1.754,1.754,0,0,1,1.506-2.227,20.951,20.951,0,0,0,1.406,4.137,20.951,20.951,0,0,1-1.406-4.137,1.692,1.692,0,0,1,2.006,1.259c1.446,5.318,2.685,10.879,5.477,15.69A21.471,21.471,0,0,0,84.1,107.708a24.719,24.719,0,0,0,18.365-2.144A28.061,28.061,0,0,0,114.22,92.1c2.264-5.664,2.651-11.909,3.469-17.892.316-2.311,3.825-1.327,3.511.969l-.063.476c3.479-1.135,5.637-4.574,6.265-8.149a9.408,9.408,0,0,0-.5-5.252c-.679-1.64-1.949-3.854-3.977-3.672a1.518,1.518,0,0,1-1.735-1.47c.284.013.569.022.852.031a5.766,5.766,0,0,1-.3.507,5.766,5.766,0,0,0,.3-.507c.906.028,1.8.051,2.617.143-.821-.092-1.711-.115-2.617-.143a7.009,7.009,0,0,0,.685-2.174c.064-.012.13-.022.2-.028,5.9-.531,8.7,7.466,8.185,12.16-.608,5.578-4.3,11.414-10.189,12.36a2.113,2.113,0,0,1-.27.024,55.931,55.931,0,0,1-2.84,13.375,30.749,30.749,0,0,1-4.157,7.433,2.041,2.041,0,0,1,.037.445,28.387,28.387,0,0,0,1.874,10.885q15.4,4.236,30.79,8.494a1.676,1.676,0,0,1,1.284,1.751c-.85-.321-1.71-.615-2.587-.854.877.239,1.737.533,2.587.854a1.775,1.775,0,0,1-2.252,1.76q-9.168-2.533-18.337-5.062-3.519-.972-7.039-1.941l-3.372-.929c-.051-.014-.106-.027-.158-.04a8.156,8.156,0,0,1,1.259-1.2,8.156,8.156,0,0,0-1.259,1.2,13.556,13.556,0,0,1-2.994-.859c-1.154-.627-1.4-2.063-1.822-3.229a30.58,30.58,0,0,1-1.047-3.4,22.845,22.845,0,0,1-.535-3.881,34.143,34.143,0,0,1-4.384,3.544c-10.384,7.049-26.089,5.45-34.756-3.62q-.344,1.6-.742,3.189c-.613,2.445-1.275,7.085-3.8,8.2-1.74.77-3.521,1.464-5.318,2.125a3.279,3.279,0,0,1-.513-1.452,3.279,3.279,0,0,0,.513,1.452c-3.325,1.224-6.708,2.33-10,3.562-6.416,2.4-12.815,4.878-19.026,7.771-4.66,2.169-10.066,4.514-13.651,8.33a11.247,11.247,0,0,0-1.835,3.061,41.807,41.807,0,0,0-1.63,4.81A135.046,135.046,0,0,0,11.9,159.284c-1.893,10.929-3.161,21.966-4.254,33-.517,5.215-.995,10.436-1.4,15.662H2.6C3.611,194.487,5.02,181.034,6.922,167.677Z"/>
      <path class="e" d="M53.582,36.7c.358-5.9,1.529-12.636,5.778-17.081a12.334,12.334,0,0,1,8.629-3.728,28.382,28.382,0,0,0-1.956,2.435,28.382,28.382,0,0,1,1.956-2.435l.135-.007c2.345-.066,2.343,3.576,0,3.642-7.175.2-9.7,7.7-10.562,13.708a49.026,49.026,0,0,0,1.05,19.544,1.7,1.7,0,0,1-1.175,2.144,17.154,17.154,0,0,1-.144-2.729,17.154,17.154,0,0,0,.144,2.729A1.736,1.736,0,0,1,55.1,53.742,52.892,52.892,0,0,1,53.582,36.7Z"/>
      <path class="e" d="M70.6,11.257c6.11-10.552,21.5-10.151,31.494-6.3,13.4,5.162,24.512,17.556,24.933,32.294a43.429,43.429,0,0,1-2.2,15.154,1.822,1.822,0,0,1-1.968,1.24c.058-1.219-.017-2.467-.017-3.639,0,1.172.075,2.42.017,3.639a1.642,1.642,0,0,1-1.544-2.208c3.249-9.378,3.065-20.4-2.565-28.784C112.07,12.7,100.438,6.019,88.38,6.177,82.753,6.25,76.727,7.939,73.742,13.1a1.8,1.8,0,0,1-3.016.122q.9-.759,1.862-1.45-.966.69-1.862,1.45A1.664,1.664,0,0,1,70.6,11.257Z"/>
      <path class="e" d="M62.25,51.672a18.622,18.622,0,0,0,7.735-13.234c.19-2.053,3.078-2.3,3.576-.7C72.518,38.8,71.36,39.751,70.4,40.9c.957-1.149,2.115-2.1,3.158-3.161a1.773,1.773,0,0,1,.065.7C72.99,45.29,69.537,50.7,64.088,54.816a1.45,1.45,0,0,1-1.451.26,30.7,30.7,0,0,0,1.939-3.615,30.7,30.7,0,0,1-1.939,3.615A2.017,2.017,0,0,1,62.25,51.672Z"/>
      <path class="e" d="M76.83,31.769c3.071,6.67,9.03,9.845,16.023,11.082a1.473,1.473,0,0,1,1.313,1.442,7.862,7.862,0,0,1-1.913-1.208,7.862,7.862,0,0,0,1.913,1.208,1.973,1.973,0,0,1-2.281,2.07C84.951,45.136,78.713,41.9,75,36.012a7.978,7.978,0,0,0,.868-1.666A7.978,7.978,0,0,1,75,36.012a20.955,20.955,0,0,1-1.311-2.405C72.713,31.493,75.85,29.641,76.83,31.769Z"/>
      <path class="e" d="M92.012,33.449c3.542,3.862,7.036,7.775,10.856,11.369,3.738,3.517,7.906,7.041,12.812,8.776a1.911,1.911,0,0,1,1.048,2.673,4.994,4.994,0,0,1-1.9-1.528,4.994,4.994,0,0,0,1.9,1.528,1.536,1.536,0,0,1-2.016.838c-6.513-2.3-11.938-6.889-16.858-11.93,1.06.093,2.121.1,3.138.1-1.017,0-2.078,0-3.138-.1-2.945-3.018-5.71-6.2-8.417-9.151C87.855,34.3,90.423,31.717,92.012,33.449Z"/>
      <path class="e" d="M52.1,60.773A7.833,7.833,0,0,1,57.7,55.965a4.729,4.729,0,0,0,.69,1.323,4.729,4.729,0,0,1-.69-1.323,5.847,5.847,0,0,1,1.484-.048,1.849,1.849,0,0,1,1.56,1.126,3.872,3.872,0,0,1-1.626.609,3.872,3.872,0,0,0,1.626-.609c.495,1.127-.018,2.665-1.56,2.515-4.5-.437-4.7,5.93-3.988,8.9A16.315,16.315,0,0,0,57.465,73.8c.662.98,1.964,2.664,3.351,2.469A1.988,1.988,0,0,1,62.764,79.3c-.117-.425-.238-.845-.373-1.25.135.405.256.825.373,1.25a1.533,1.533,0,0,1-.98.488c-5.849.821-9.188-6.03-10.2-10.8A13.119,13.119,0,0,1,52.1,60.773Z"/>
      <path class="e" d="M164.7,127.331a5.9,5.9,0,0,0-2.964-3.867c-2.12-1.061-4.366-.032-6.425.654-.405.125-.81.281-1.185.406-13.35,4.554-26.793,9.388-39.549,15.408-1.653-1.9-1.342-5.77-1.466-7.953-.094-2-.344-3.993-.624-5.989a20.1,20.1,0,0,0-.78-4.3c.063-.031.094-.031.125-.063a1.53,1.53,0,0,0,.935-1.434,1.946,1.946,0,0,0-2.775-1.716c-.094.062-.219.125-.312.187a5.592,5.592,0,0,0-5.271-1.466c-2.4.655-3.494,3.057-3.9,5.3a.532.532,0,0,0-.031.218,40.583,40.583,0,0,1-11.51,2.589c-8.047.436-15.657-2.34-22.644-6.082a1.778,1.778,0,0,0-2.4.623,1.643,1.643,0,0,0,.562,2.5c7.548,4.055,15.813,7.08,24.484,6.581a43.492,43.492,0,0,0,11.322-2.308c.063,1.59.219,3.181.281,4.834a43.291,43.291,0,0,1-1.559,11.977A194.23,194.23,0,0,0,94.705,166.6c-.374,3.368.187,6.8-1.091,10.012-.5,1.217-1.061,2.4-1.622,3.587-.905-.25-1.841-.53-2.745-.811a1.834,1.834,0,0,0-2.059.811c-.623,1.248-1.247,2.464-1.84,3.712q-6.034,12.024-12.039,24.047h4.054c.063-.124.125-.249.187-.374,4.055-8.078,8.079-16.188,12.134-24.266.967.281,1.933.593,2.9.873,9.357,2.839,18.746,5.677,28.1,8.515q-3.556,7.626-7.049,15.252h3.992c2.371-5.177,4.773-10.324,7.143-15.47a1.859,1.859,0,0,0-1.092-2.682c-.748-.219-1.5-.437-2.277-.687,2.34-4.522,6.332-7.953,10.511-10.76A132.233,132.233,0,0,1,146.107,170c2.246-1.123,5.084-2.246,6.394-4.554a5.725,5.725,0,0,0-.53-6.3c-.156-.187-.343-.374-.5-.53,2.838-1.715,4.772-4.117,3.743-7.735a4.943,4.943,0,0,0-2.9-3.525,6.4,6.4,0,0,0,1.154-4.21,6.629,6.629,0,0,0-1.9-4.46c2.308-.936,4.584-1.9,6.861-2.9,1.9-.874,4.242-1.716,5.49-3.525A5.992,5.992,0,0,0,164.7,127.331Zm-4.336,3.4a23.091,23.091,0,0,1-4.491,2.214c-3.494,1.56-7.049,3-10.636,4.4a13.617,13.617,0,0,0-1.872.437,57.3,57.3,0,0,0-9.856,3.992c-1.84.905-.53,4.024,1.4,3.307,3.774-1.373,7.548-2.808,11.322-4.274a4.458,4.458,0,0,1,1.435,0,2.7,2.7,0,0,1,2.121,3.556c-.5,1.934-4.523,2.776-6.114,3.4-2.183.873-4.4,1.684-6.581,2.62-2.089.873-1.248,4.335.967,3.493,2.183-.811,4.429-1.435,6.612-2.152,1.841-.624,6.207-2.807,7.049.125.811,2.932-2.869,4.023-4.99,4.9-2.215.873-4.461,1.653-6.706,2.526-2.121.842-1.31,4.18.967,3.525.811-.25,1.591-.53,2.37-.842,1-.344,2.059-.687,3.151-1.092,1.559-.312,3.555.468,2.994,2.433-.312,1-1.4,1.5-2.246,2-1.123.624-2.277,1.216-3.431,1.809-2.152,1.092-4.241,2.277-6.331,3.493-7.642,4.554-15.564,9.326-19.588,17.467-7.455-2.246-14.909-4.523-22.364-6.768a27.086,27.086,0,0,0,2.308-6.083c.437-2.183.156-4.429.313-6.643.187-2.589.654-5.115,1.091-7.673.811-5.022,1.622-9.918,2.87-14.878,1.153-4.741,2.277-9.638,2.089-14.566-.125-3.119-1.091-6.8.25-9.762.78-1.685,2.526-.936,3.368.343.905,1.341.936,3.244,1.123,4.8.468,3.618.25,7.33.967,10.854.437,2.246,2.152,7.174,5.271,5.958,2.527-1,4.991-2.277,7.486-3.338,3.026-1.278,6.051-2.5,9.108-3.68q8.748-3.416,17.591-6.581c2.121-.749,4.242-1.5,6.394-2.246a15.382,15.382,0,0,1,3.68-1.185C161.578,126.52,161.7,129.733,160.361,130.731Z"/>
      <path class="e" d="M245.043,115.666c-3.493-.936-7.392,1.216-10.511,2.62-3.961,1.809-7.8,3.992-11.665,5.989-2.527,1.278-5.115,2.432-7.61,3.742-3.619,1.934-7.237,3.93-10.824,5.958-.031,0-.062.031-.093.031v-.343c-.25-5.178.592-10.48-.593-15.6-.811-3.556-4.117-7.736-8.172-5.677-3.68,1.871-3.649,7.08-3.649,10.636a36.356,36.356,0,0,1-.78,7.33,177.518,177.518,0,0,1-6.207,21.833c-.873,2.651-1.809,5.3-2.745,7.954-.187-.562-.374-1.123-.53-1.685q-4.445-13.989-8.92-27.978a1.881,1.881,0,0,0-3.151-.686,1.6,1.6,0,0,0-.342,1.653c.436,1.373.873,2.714,1.278,4.086q4.491,13.989,8.921,27.978a1.631,1.631,0,0,0,1.091,1.154c-.873,2.308-1.777,4.648-2.713,6.924a1.511,1.511,0,0,0,.093,1.435,2.02,2.02,0,0,0,3.431-.468c2.589-6.362,4.929-12.881,7.112-19.4,2.183-6.55,4.273-13.194,5.8-19.962a51.124,51.124,0,0,0,1.248-7.517c.218-2.682-.188-5.489.5-8.141.593-2.308,2.339-2.5,3.462-.53,1.092,1.84,1.154,4.242,1.247,6.332.188,4.522-.405,9.076.281,13.6.593,4.148,2.838,7.735,2.34,12.039-.53,4.679-3.369,8.858-6.239,12.414-1.465,1.809,1.092,4.4,2.558,2.589,3.493-4.3,6.644-9.139,7.3-14.753.469-4.211-1.216-7.985-2.12-11.946a1.817,1.817,0,0,0,1.434-.156c3.588-2.027,7.174-4.055,10.823-5.957,5.4-2.87,10.886-5.583,16.344-8.328,1.778-.905,3.587-1.747,5.49-2.5,1.372-.531,3.181-1.466,4.709-1.279,1.061.156,1.716.561,1.778,1.559,0,.312-.031,1-.031,1.03-.187,1.185-2,2.463-3.306,3.243-2.9,1.716-6.02,3.088-8.983,4.71-4.647,2.526-9.232,5.115-13.91,7.548a1.747,1.747,0,0,0-.032,3.057,1.436,1.436,0,0,0,1.56.811c1.185-.125,2.464-.624,3.649-.624,1.248,0,2.246,1.248,2.713,2.339.811,1.9.344,3.088-1.247,4.273-1.809,1.342-3.743,2.558-5.615,3.837a30.059,30.059,0,0,1-4.958,3.088,1.5,1.5,0,0,0-.219.093A2.588,2.588,0,0,1,211.7,152.5a2.147,2.147,0,0,1,.78-2.932c2-1.5,3.9-3.15,5.833-4.741,1.809-1.466-.78-4.024-2.558-2.558-1.216.967-2.4,1.934-3.617,2.9a29.338,29.338,0,0,0-3.12,2.526c-2.557,2.9-.873,7.861,2.309,9.482a5.213,5.213,0,0,0,1.091.437,7.4,7.4,0,0,0,1.123,5.49,5.784,5.784,0,0,0,3.9,2.5,6.138,6.138,0,0,0,2.308,4.834c2.682,2.246,5.333,1.248,8.016-.28.311-.188.592-.343.9-.531,2.932-1.59,6.238-3.275,8.391-5.739,3.056-3.4.748-6.861-1.9-9.606-.063-.063-.125-.094-.187-.156.966-3.088-1.154-6.426-4.086-7.923a5.068,5.068,0,0,0,.218-1.84,8.7,8.7,0,0,0-3.68-6.675,2.777,2.777,0,0,0-.718-.405c4.211-2.308,8.39-4.647,12.632-6.862,4.149-2.183,9.545-4.148,9.7-9.544A4.992,4.992,0,0,0,245.043,115.666Zm-10.137,44.29c.187.936-.593,1.622-1.247,2.184a43.676,43.676,0,0,1-6.768,4.3c-.968.561-2.465,1.809-3.557,1.747-1.278-.032-3.306-2.34-1.839-3.338a1.194,1.194,0,0,0,.374-.28c.437-.25.842-.5,1.278-.749,1.809-1.123,3.587-2.37,5.4-3.556a40.651,40.651,0,0,0,4.3-3.119A6.322,6.322,0,0,1,234.906,159.956Zm-3.306-7.485c-.031,1.185-1.092,1.933-1.965,2.589-2.277,1.746-4.772,3.337-7.2,4.9-1.4.905-3.867,3.057-5.521,1.529-1-.905-1.59-3.431-.187-4.242l.032-.031a35,35,0,0,0,6.019-3.712c1.841-1.248,4.336-2.526,6.082-4.211C230.2,149.788,231.6,151.005,231.6,152.471Z"/>
      <path class="e" d="M174.814,175.175c.351.34.773.829,1.2.829-.423,0-.845-.489-1.2-.829a1.905,1.905,0,0,1,2.7-.728,3.95,3.95,0,0,1-.41.829,3.95,3.95,0,0,0,.41-.829,2.174,2.174,0,0,1,.23.177c5.373,4.823,12.062,8.167,18.637,11.029,2.055.894,4.138,1.745,6.244,2.531l1.944-3.2c.716-1.177,1.493-3.266,2.712-4.04,1.294-.821,3.272-.978,4.756-1.209a15.87,15.87,0,0,0,4.952-1.438c3.164-1.613,6.185-3.264,8.23-6.272a1.843,1.843,0,0,1,2.357-.634,29.371,29.371,0,0,1-3.859,4.976,29.371,29.371,0,0,0,3.859-4.976,1.613,1.613,0,0,1,.787,2.472,22.084,22.084,0,0,1-8.591,7.088,19.593,19.593,0,0,1-5.3,2.056c-1.714.335-3.4.538-5.065,1.032l-3.27,5.38c.376.124.752.247,1.13.366a1.72,1.72,0,0,1,1.184,1.164,1.819,1.819,0,0,1,.354,2.146q-3.636,7.425-7.273,14.851h-4.015a2.024,2.024,0,0,1,.118-.3q3.626-7.4,7.252-14.807c-3.509-1.172-6.955-2.567-10.342-4.041-6.884-3-13.751-6.551-19.374-11.6A1.554,1.554,0,0,1,174.814,175.175Z"/>
      <path class="e" d="M156.785,205.271c4.528-8.233,9.138-16.427,13.573-24.71a1.584,1.584,0,0,1,1.762-.874,28.656,28.656,0,0,1-1.573,4.329,28.656,28.656,0,0,0,1.573-4.329A1.867,1.867,0,0,1,173.5,182.4c-4.434,8.283-9.044,16.477-13.573,24.71a1.646,1.646,0,0,1-1,.838h-.888A1.835,1.835,0,0,1,156.785,205.271Z"/>
      <path class="e" d="M158.036,207.947h.888A1.714,1.714,0,0,1,158.036,207.947Z"/>
      <path class="e" d="M203.934,50.478c-2.5-.281-5.8-.312-7.8-2.121-1.964-1.84-2.152-4.9-2.308-7.423.063-.9.063-1.809.063-2.683a1.826,1.826,0,0,0-3.649,0v1.934a1.806,1.806,0,0,0-.063.593,1.475,1.475,0,0,1,.032.374c-.094,2.526-.531,5.084-2.277,6.987-2.121,2.308-5.74,2.495-8.64,2.62-2.4.093-2.277,3.337,0,3.618,3.431.436,7.174.779,8.733,4.366,1.31,3.119,1.591,6.644,2.215,9.981.312,1.747,3.119,1.685,3.493,0,.686-3.243.593-6.986,2.121-9.981,1.466-2.931,5.739-3.68,8.546-4.678A1.836,1.836,0,0,0,203.934,50.478Zm-10.792,5.677a11.089,11.089,0,0,0-1.216,2.526,14.549,14.549,0,0,0-1.4-2.994,8.359,8.359,0,0,0-2.994-2.839,10.454,10.454,0,0,0,2.994-2.121,10.091,10.091,0,0,0,1.4-1.933,9.014,9.014,0,0,0,1.653,2.152,9.541,9.541,0,0,0,3.431,2A9.936,9.936,0,0,0,193.142,56.155Z"/>
      <path class="e" d="M174.615,80.078c-2.058-.219-4.741-.156-6.488-1.4-1.653-1.185-1.84-3.368-2-5.24.062-.624.062-1.279.062-1.934a1.826,1.826,0,0,0-3.65,0v1.31a1.806,1.806,0,0,0-.031.593v.187c-.093,1.871-.468,3.743-2,4.991-1.934,1.559-4.834,1.59-7.174,1.684-2.4.093-2.277,3.4,0,3.649,2.589.281,5.926.343,7.3,2.963,1.154,2.183,1.4,4.866,1.9,7.268.375,1.777,3.088,1.684,3.525,0,.561-2.309.436-5.708,2.027-7.611,1.529-1.809,4.835-2.214,6.987-2.869A1.834,1.834,0,0,0,174.615,80.078Zm-9.107,3.9a7.185,7.185,0,0,0-1.279,1.934,10.2,10.2,0,0,0-1.185-2.027,7.977,7.977,0,0,0-1.685-1.56,7.215,7.215,0,0,0,1.747-1.185,7.525,7.525,0,0,0,1.154-1.31,6.084,6.084,0,0,0,1.279,1.4,7.134,7.134,0,0,0,1.965,1.216A7.917,7.917,0,0,0,165.508,83.976Z"/>
      <path class="e" d="M34.414,78.612c-2.059-.187-4.741-.156-6.487-1.4-1.654-1.185-1.841-3.337-2-5.209.063-.655.063-1.31.063-1.933a1.826,1.826,0,0,0-3.65,0v1.278a1.86,1.86,0,0,0-.031.593v.187c-.094,1.871-.5,3.774-2,4.99-1.934,1.56-4.834,1.622-7.174,1.716-2.4.062-2.308,3.369,0,3.618,2.589.281,5.926.343,7.3,2.963,1.154,2.215,1.4,4.866,1.9,7.268a1.82,1.82,0,0,0,3.494,0c.593-2.309.468-5.708,2.058-7.611,1.529-1.809,4.835-2.214,6.987-2.869A1.837,1.837,0,0,0,34.414,78.612Zm-9.108,3.9a7.331,7.331,0,0,0-1.278,1.965,11.379,11.379,0,0,0-1.185-2.059,7.083,7.083,0,0,0-1.684-1.528A9.57,9.57,0,0,0,22.905,79.7a7.525,7.525,0,0,0,1.154-1.31,7.68,7.68,0,0,0,1.279,1.4A7.854,7.854,0,0,0,27.3,80.982,7.92,7.92,0,0,0,25.306,82.511Z"/>
      <path class="b" d="M97.85,175.209c.452-2.192.161-4.433.316-6.652.179-2.574.657-5.11,1.08-7.652.836-5.02,1.651-9.937,2.868-14.886,1.17-4.761,2.3-9.65,2.11-14.586-.121-3.106-1.084-6.771.259-9.748.761-1.689,2.511-.935,3.365.339.906,1.351.917,3.254,1.119,4.819.463,3.595.25,7.307.962,10.858.446,2.225,2.148,7.152,5.259,5.944,2.538-.985,4.986-2.29,7.5-3.349,3.017-1.271,6.057-2.488,9.106-3.68q8.745-3.419,17.591-6.572,3.188-1.14,6.388-2.241a15.2,15.2,0,0,1,3.673-1.187c2.127-.1,2.264,3.1.913,4.118a22.894,22.894,0,0,1-4.482,2.213c-3.509,1.55-7.067,3-10.647,4.39-.625.115-1.246.271-1.857.446a58.133,58.133,0,0,0-9.869,3.976c-1.841.921-.525,4.037,1.4,3.328q5.677-2.087,11.314-4.289a5.387,5.387,0,0,1,1.451-.008,2.7,2.7,0,0,1,2.11,3.571c-.49,1.938-4.525,2.77-6.106,3.4-2.191.868-4.4,1.7-6.573,2.609-2.108.881-1.26,4.344.968,3.511,2.173-.812,4.4-1.43,6.6-2.167,1.841-.619,6.215-2.8,7.042.125.835,2.951-2.85,4.045-4.969,4.9-2.219.893-4.486,1.661-6.711,2.54-2.128.841-1.331,4.187.968,3.511.8-.235,1.58-.533,2.359-.835.994-.332,2.072-.685,3.166-1.08,1.545-.321,3.543.475,2.976,2.417-.293,1-1.4,1.519-2.23,1.993-1.132.643-2.294,1.231-3.454,1.82-2.152,1.093-4.241,2.268-6.315,3.5-7.642,4.544-15.556,9.309-19.583,17.468l-22.379-6.781A26.894,26.894,0,0,0,97.85,175.209Z"/>
      <path class="d" d="M77.552,207.6,89.69,183.319l2.9.878,28.093,8.513q-3.526,7.618-7.054,15.237H77.376Z"/>
    </g>
    <g>
      <path class="f" d="M308.1,87.637V83.824H296.992a26.1,26.1,0,0,1,4.674,2.42l-2.624,3.607a16.981,16.981,0,0,0-4.879-3.116l2.213-2.911-7.872-.041v3.608h-1.68l3.2,1.395a33.1,33.1,0,0,1-3.526,7.708l-4.018-2.665a27.244,27.244,0,0,0,3.362-6.438H283.5V79.15h11.973V76.321h5.576V79.15l12.054-.041v8.528Zm-1.64,27.43V113.18H290.145v1.887h-4.879V103.34h4.879v4.92h5.7v-5.9h-.9c-2.3,0-3.4-.9-3.895-2.419a40.315,40.315,0,0,1-5.986,2.5l-2.419-4.469a41.5,41.5,0,0,0,8.159-2.747V87.678h4.51v5.535a29.732,29.732,0,0,0,9.061-8.528l3.526,2.706A36.416,36.416,0,0,1,295.68,97.805a1.632,1.632,0,0,0,.7.123h4.962c1.968,0,2.3-.246,2.378-3.771l.041-.656,4.51,2.131c-.123,5.823-2.132,6.724-5.412,6.724h-2.091v5.9h5.7v-4.8h4.92v11.6Zm3.526-16.852a41.905,41.905,0,0,0-3.731-7.174l3.936-2.132a56.6,56.6,0,0,1,3.936,6.764Z"/>
      <path class="f" d="M341.887,113.549a45.883,45.883,0,0,1-8.733.739c-4.757,0-11.6-1.231-11.6-7.708,0-5.043,5.9-8.693,9.676-10.948-.287-1.557-.943-2.46-2.132-2.46-2.255,0-5.043,1.886-9.553,8.939L315.441,99A57.011,57.011,0,0,0,323.56,86.08h-7.135V81.364h8.816c.573-1.6.984-3.034,1.312-4.264l5.494.9c-.369,1.107-.82,2.255-1.271,3.321h9.8v4.716H328.89c-.861,1.721-1.681,3.238-2.583,4.674a7.138,7.138,0,0,1,4.223-1.641c2.624,0,4.346,1.353,5.125,4.593,3.28-1.477,6.273-2.5,8.118-3.24l1.845,5.125a74.062,74.062,0,0,0-9.389,3.117c.082,1.065.082,2.131.082,3.2,0,1.27,0,2.5-.041,3.771l-5,.369c.041-1.516.164-3.485.205-5.33-2.05,1.395-4.92,3.281-4.92,5.659,0,2.624,4.8,2.911,6.642,2.911h.574a33.758,33.758,0,0,0,8.323-.985Z"/>
      <path class="f" d="M350.5,115.067V94.279a26.072,26.072,0,0,1-2.337,3.444l-1.229-7.257a42.329,42.329,0,0,0,6.436-14.145l4.961,1.23a46.15,46.15,0,0,1-2.951,8.693v28.823Zm17.016-9.595v9.595h-5.043V88.253a43.26,43.26,0,0,1-3.527,7.626L355.7,90.836a35.83,35.83,0,0,0,5.248-14.515l5.084.9c-.327,1.6-.737,3.362-1.229,5.043H378.09v5.125H367.512v3.978h9.758v5h-9.758v4.1h9.758v5Z"/>
      <path class="f" d="M391.456,113.755a45.806,45.806,0,0,1-7.094-.452l-1.475-5.863a46.12,46.12,0,0,0,8.9.9c2.542,0,10.455-.861,10.455-6.6,0-2.952-2.42-4.552-5.576-4.552-5.945,0-9.882,3.978-11.275,5.576L381,101.7c.409-4.838,1.311-10.7,1.845-15.744l5.33.532c-.574,3.321-1.19,6.807-1.558,9.39a17.788,17.788,0,0,1,10.536-3.691c5.987,0,10.537,3.609,10.537,9.882,0,7.585-6.354,11.6-15,11.685ZM400.517,85.3c-5.043-1.476-10.538-1.762-15.786-1.844l1.559-5.167c5.166.041,10.578.246,15.58,1.6Z"/>
      <path class="f" d="M409.864,105.6a103.681,103.681,0,0,0,7.626-18.409h-5.9l.041-5h7.011c.492-1.681.943-3.731,1.271-5.289l5.125.7c-.369,1.435-.779,3.034-1.23,4.551h4.1v5.043h-5.33a135.934,135.934,0,0,1-8,20.459Zm28.208,6.971a35.933,35.933,0,0,0-4.551-5.085c-.615,4.142-3.321,6.479-7.585,6.479-4.8,0-7.708-3.445-7.708-7.052,0-4.019,3.321-7.053,8.241-7.053a10.876,10.876,0,0,1,2.583.328c-.082-2.788-.328-6.313-.451-9.347l5.043.041c.123,3.689.246,7.5.246,11.07a29.068,29.068,0,0,1,6.478,5.248Zm-11.849-8.241c-1.968,0-3.567.983-3.567,2.419,0,1.229,1.107,2.46,3.033,2.46,2.543,0,3.035-2.132,3.117-4.347A6.946,6.946,0,0,0,426.223,104.325Zm13.571-15.007a23.036,23.036,0,0,0-7.38-1.188,12.824,12.824,0,0,0-2.665.246l-.287-5.043a28.3,28.3,0,0,1,4.059-.246,23.113,23.113,0,0,1,7.011.9Z"/>
      <path class="f" d="M459.925,104.571c-1.722,4.8-4.346,8.036-7.79,8.036a6.075,6.075,0,0,1-4.961-2.993c-2.3-3.321-3.239-11.358-3.239-20.091,0-.451,0-.9.246-8.692l5.494.2a94.572,94.572,0,0,0-.533,9.882c0,9.429,1.148,15.293,3.362,15.293,1.352,0,2.091-1.763,3.771-6.97Zm7.5,4.141c-.041-7.38-2.091-19.476-6.97-25.749l4.633-2.009c4.633,5.863,7.585,17.836,7.585,25.339Z"/>
      <path class="f" d="M310.112,164.1a93.93,93.93,0,0,0-9.143-5.576c-4.305,3.484-9.8,4.92-16.031,5.74l-1.8-5.617c4.838-.246,8.979-.9,12.341-2.788a76.309,76.309,0,0,0-7.913-2.993c1.106-2.255,2.173-4.633,3.116-7.093h-7.749v-5.289h9.635c.615-1.928,1.147-3.855,1.64-5.822l5.371.9q-.615,2.584-1.353,4.921h15.457v5.289h-4.961a28.518,28.518,0,0,1-4.018,8.691c2.952,1.436,5.863,2.994,8.528,4.47ZM307.9,138.272v-4.3H288.709v4.3h-5V128.8h11.726v-3.28h5.617v3.28H312.9v9.471Zm-11.481,7.5a40.053,40.053,0,0,1-1.926,4.387c1.681.574,3.444,1.27,5.289,2.05a21.49,21.49,0,0,0,3.321-6.437Z"/>
      <path class="f" d="M315.073,155.862a74.793,74.793,0,0,0,2.911-17.835l4.879,1.311c-.328,5.618-1.23,13.859-2.911,19.517Zm12.669,7.544c-2.255,0-3.567-.738-3.567-3.034v-24.56h5.453v21.074c0,.739.164.862.615.862h2.911c1.517,0,1.927-.534,2.132-10.373l5.084,2.337c-.492,12.668-2.091,13.694-6.272,13.694Zm7.585-27.676a60.727,60.727,0,0,0-10.988-5.084l2.624-4.8a72.276,72.276,0,0,1,11.111,4.674Zm6.766,22.018a117.054,117.054,0,0,0-4.429-18.7l4.674-1.926a126.88,126.88,0,0,1,4.716,18.163Z"/>
      <path class="f" d="M374.317,162.873c-.533.041-1.148.082-1.722.082-9.676,0-16.605-4.879-16.605-13.613,0-5.248,2.952-10.7,7.175-14.267-3.567.164-9.717.655-13.858.86l-.123-5.535c6.683-.122,20.172-.286,28.045-.819l.41,5.248-1.764.041a14.718,14.718,0,0,0-5.658.9c-4.838,2.3-8.938,7.586-8.938,13.038,0,4.716,3.158,8.241,10.291,8.364a30.709,30.709,0,0,0,3.772-.205Zm-1.558-16.811a38.9,38.9,0,0,0-3.444-7.421l2.789-.983a52.732,52.732,0,0,1,3.566,7.3Zm4.8-1.64a46.558,46.558,0,0,0-3.527-7.174l2.665-.985a44.349,44.349,0,0,1,3.609,6.971Z"/>
      <path class="f" d="M404.862,162.38a41.59,41.59,0,0,1-8.282.9c-6.806,0-13.489-2.378-13.489-8.611,0-1.475.41-7.831,12.465-7.831a28.71,28.71,0,0,1,5.371.452c-.862-1.19-1.846-2.542-2.747-3.936a117.383,117.383,0,0,1-12.546.778c-.985,0-1.969,0-2.952-.041l-.575-4.838q1.906.123,3.813.124c3.321,0,6.684-.247,9.964-.575-.656-1.065-1.313-2.255-1.928-3.361-2.788.2-5.617.409-8.4.409-.821,0-1.6,0-2.42-.041l-.7-4.756c1.065.082,2.213.123,3.361.123,2.01,0,4.059-.123,5.986-.246l-1.721-3.812,5-1.067c.493,1.272,1.107,2.747,1.8,4.387a88.535,88.535,0,0,0,9.267-1.558l.614,4.8c-2.583.533-5.289.9-7.872,1.272.574,1.024,1.148,2.173,1.764,3.2,2.624-.41,5.371-.9,7.872-1.518l.778,4.838c-2.05.452-4.264.78-6.231,1.149a52.046,52.046,0,0,0,5.371,7.093l-3.363,3.567c-1.68-1.107-4.3-2.132-9.306-2.132h-.574c-1.968,0-6.848.573-6.848,3.32,0,2.788,4.511,3.609,6.807,3.609h.41a42.384,42.384,0,0,0,9.881-1.272Z"/>
      <path class="f" d="M410.15,146.718c4.1-2.706,11.727-8.282,13.2-9.8,1.6-1.313,3.813-3.076,4.305-3.609l-4.429.287c-3.115.287-7.5.328-8.322.369l-.082-5.125,19.311-.205.082,4.428c-2.378,2.092-8.077,6.643-8.077,6.643-.984.82-2.953,2.09-3.854,2.706-.082.082-.123.123-.123.164,0,0,0,.041.082.041a.2.2,0,0,0,.123-.041,14.268,14.268,0,0,1,6.191-1.436c4.674,0,10.332,2.829,10.332,9.964,0,7.052-5.781,12.3-14.145,12.3-4.387,0-11.152-2.091-11.152-7.667,0-3.4,3.034-5.289,6.232-5.289,4.51,0,7.134,3.689,7.667,8.282a7.676,7.676,0,0,0,5.945-7.258c0-4.551-3.28-6.108-7.093-6.108-3.362,0-8.283,1.557-13.284,5.658Zm9.636,7.462c-.943,0-1.846.492-1.846,1.518,0,1.64,2.215,2.87,5.044,3.2C422.861,157.748,422.205,154.18,419.786,154.18Z"/>
      <path class="f" d="M441.679,163.406v-5.125h12.1v-5.248h-9.757v-5.166h25.091v5.166H458.9v5.248h12.546v5.125Zm24.887-25.256v-4.1H446.518v4.715h-4.757v-9.84H453.61v-3.4h5.453v3.4h12.259v9.226Zm-24.723,4.059c6.97-1.026,8.446-4.141,9.143-7.5l4.674,1.393c-1.229,5.946-4.879,9.759-11.029,11.194Zm18.983,3.69c-2.132,0-3.239-.533-3.239-2.87V135.28h4.8v5.371c0,.491.2.491.7.491h1.395c1.065,0,1.188-.45,1.393-3.238l4.551,1.8c-.737,4.755-1.722,6.191-4.51,6.191Z"/>
      <path class="f" d="M475.053,164.226V126.752H488.46v15.539h-8.651v21.935Zm8.856-33.5h-4.141v2.051h4.141Zm0,5.658h-4.141V138.6h4.141Zm11.849,25.052H482.146v-17.3h14.309v14.638c2.255-.041,2.46-.328,2.46-1.887V142.332h-8.856v-15.58h13.612v30.421c0,5.577-.7,6.848-6.97,6.848ZM491.945,148.2h-5.289v2.624h5.289Zm0,6.231h-5.289v2.829h5.289Zm7.011-23.7h-4.387v2.051h4.387Zm0,5.658h-4.387V138.6h4.387Z"/>
      <path class="f" d="M520.275,158.773c11.563-1.928,12.1-10.865,12.1-14.022,0-6.192-2.3-10.866-7.134-11.768-1.353,13.161-3.69,21.2-5.74,24.765a5.786,5.786,0,0,1-4.961,3.2c-3.239,0-7.463-3.9-7.463-12.833,0-9.185,6.233-19.886,16.278-19.886,9.471,0,14.145,7.749,14.145,16.77,0,6.15-2.173,15.908-14.474,18.778Zm-8.486-10.455c0,1.435.532,6.806,2.583,6.806,2.952,0,5.412-16.155,5.822-22.018C515.848,134.542,511.789,140.733,511.789,148.318Z"/>
      <path class="f" d="M561.972,163.365c-3.977,0-5.9-1.272-7.749-3.937a17.013,17.013,0,0,1-2.583,4.8l-3.691-3.526c2.665-2.87,3.855-6.888,4.265-11.235l4.3.862c-.247,1.393-.493,2.829-.821,4.181a7.507,7.507,0,0,0,2.338,3.035V148.6h-7.79v-1.558c-.738.369-1.558.779-2.42,1.148v7.954c0,5.985-.245,7.5-6.313,7.667l-1.722-5.453h.86c2.337,0,2.46-.369,2.46-2.173v-6.15c-.983.328-1.967.656-2.911.9l-.819-5.248c1.106-.246,2.419-.615,3.73-1.025V137.33h-3.034v-5.166h3.034v-6.643h4.715v6.643h2.706v5.166h-2.706v5.576a25.067,25.067,0,0,0,2.788-1.313v2.337h19.394V148.6h-7.38v2.419h6.109v4.469h-6.109v3.075h.492s5.821-.164,7.462-.369l-1.436,5.166ZM551.6,142.332V126.505h17.138v15.827Zm12.5-11.645h-7.832v1.887H564.1Zm0,5.412h-7.832v2.092H564.1Z"/>
      <path class="f" d="M575.624,164.267V143.479a28.851,28.851,0,0,1-2.419,3.444l-1.229-7.256a40.887,40.887,0,0,0,6.477-14.146l4.879,1.231a52.61,52.61,0,0,1-2.951,8.9v28.619Zm4.88-3.649a26.09,26.09,0,0,0,6.559-8.282L591.2,155a30,30,0,0,1-6.806,9.307Zm1.024-9.144v-5.166h3.9v-8.117h-3.2v-5.167h3.2v-7.5h4.756v7.5h3.771v-7.5h4.8v7.5h3.32v5.167h-3.32v8.117h4.1v5.166Zm12.423-13.283H590.18v8.117h3.771Zm5.7,25.994a41.626,41.626,0,0,1-6.764-9.143l4.017-2.706a38.323,38.323,0,0,0,6.725,8.077Z"/>
    </g>
    <circle class="b" cx="255.908" cy="97.868" r="10.497"/>
    <circle class="b" cx="629.339" cy="145.466" r="9.288"/>
  </g>
</svg>
