<svg xmlns="http://www.w3.org/2000/svg" xmlns:xlink="http://www.w3.org/1999/xlink" width="640" height="210" viewBox="0 0 640 210">
  <defs>
    <style>
      .a {
        fill: none;
      }

      .b {
        fill: #fff;
      }

      .c {
        fill: #fcd44a;
      }

      .d {
        fill: url(#a);
      }

      .e {
        fill: #2d2e2e;
      }

      .f {
        fill: #413d3c;
      }
    </style>
    <pattern id="a" data-name="新規パターンスウォッチ 2" width="12.5" height="12.5" patternTransform="matrix(0.404, -0.392, 0.404, 0.392, -1125.596, 905.565)" patternUnits="userSpaceOnUse" viewBox="0 0 12.5 12.5">
      <rect class="a" width="12.5" height="12.5"/>
      <rect class="b" width="12.5" height="12.5"/>
      <circle class="c" cx="6.25" cy="6.25" r="2.431"/>
    </pattern>
  </defs>
  <g>
    <rect class="a" width="640" height="210"/>
    <g>
      <path class="b" d="M424.459,166.021a2,2,0,0,1-.345-.293c-.423-.234-.839-.486-1.252-.74-1.8-1.1-3.543-2.306-5.3-3.482a35.636,35.636,0,0,1-4.246-3.066,6.478,6.478,0,0,0-2.028,2.771c-.182.919.6,1.578,1.251,2.132a45.253,45.253,0,0,0,6.636,4.229c.939.547,2.409,1.764,3.5,1.723C423.924,169.248,425.913,166.994,424.459,166.021Z"/>
      <path class="c" d="M437.649,58.579a10.737,10.737,0,0,1,1.2,2.473,13.879,13.879,0,0,1,1.382-2.946,8.322,8.322,0,0,1,2.942-2.791,9.4,9.4,0,0,1-2.937-2.08,10.275,10.275,0,0,1-1.4-1.9,8.555,8.555,0,0,1-1.6,2.109,9.027,9.027,0,0,1-3.383,1.977A9.569,9.569,0,0,1,437.649,58.579Z"/>
      <path class="b" d="M416.477,156.386c2.25,1.724,4.681,3.271,7.064,4.8,1.385.892,3.806,3.007,5.438,1.512.982-.9,1.566-3.385.176-4.173l-.026-.016a34.258,34.258,0,0,1-5.926-3.66c-1.8-1.208-4.227-2.458-5.968-4.127-1.3.5-2.695,1.686-2.678,3.139C414.571,155.016,415.637,155.742,416.477,156.386Z"/>
      <path class="c" d="M464.759,83.205a7.7,7.7,0,0,1-1.938,1.176,8.024,8.024,0,0,1,1.954,1.494,7.008,7.008,0,0,1,1.257,1.925,9.691,9.691,0,0,1,1.173-2,6.927,6.927,0,0,1,1.636-1.522,8.37,8.37,0,0,1-1.7-1.162A7.783,7.783,0,0,1,466,81.827,6.818,6.818,0,0,1,464.759,83.205Z"/>
      <path class="c" d="M615.089,84.687a6.792,6.792,0,0,1-1.24,1.378,7.652,7.652,0,0,1-1.938,1.176,8,8,0,0,1,1.954,1.5,6.978,6.978,0,0,1,1.257,1.925,9.7,9.7,0,0,1,1.173-2,6.922,6.922,0,0,1,1.636-1.521,8.416,8.416,0,0,1-1.7-1.163A7.783,7.783,0,0,1,615.089,84.687Z"/>
      <path class="d" d="M469.892,175.635a1.6,1.6,0,0,1,.065,2.493c-5.52,4.955-12.262,8.446-19.022,11.387-3.325,1.448-6.708,2.817-10.153,3.968q3.561,7.269,7.12,14.537a2.057,2.057,0,0,1,.116.3H485.9a1.619,1.619,0,0,1-.987-.823c-4.446-8.083-8.972-16.127-13.326-24.26a1.857,1.857,0,0,1,1.8-2.688C472.522,178.1,471.933,175.569,469.892,175.635Z"/>
      <path class="c" d="M511.062,119.706c2.866-.826,5.931-1.21,8.606-2.579q.213-6.753.427-13.5a39.258,39.258,0,0,1-6.8-15.507,5.16,5.16,0,0,1-3.183.908,5.39,5.39,0,0,1-4.03-8.786q-.2-.265-.4-.528a20.51,20.51,0,0,1-2.418-4.21c-.291,4.176-.852,8.411-1.13,12.6,1.063-1,3.2-.615,3.008,1.168q-1.479,13.793-2.954,27.586a1.956,1.956,0,0,1-2.431,1.655,22.351,22.351,0,0,1-.472,3.159l9.788-2.821A1.619,1.619,0,0,1,511.062,119.706Z"/>
      <path class="d" d="M510.1,122.271c-.025.008-.047.018-.073.026l-16.2,4.668a1.651,1.651,0,0,1-2.1-1.144c-5.334,1.952-11.068,2.9-15.728,6.1a1.669,1.669,0,0,1-.334,2.733c-4.415,2.325-5.947,8.285-7.083,12.737-1.37,5.366-2.069,10.887-3.537,16.227a1.655,1.655,0,0,1-.784,1.048q1.484,4.006,3.082,7.967a1.411,1.411,0,0,1-.2,1.535c.175.417.349.836.525,1.25a1.8,1.8,0,0,1,2.221.22c2.041-.066,2.63,2.466,3.5,4.91a1.556,1.556,0,0,1,1.29.884c4.353,8.133,8.88,16.177,13.325,24.26a1.8,1.8,0,0,1-1.228,2.627H523.23q-3.224-6.963-6.448-13.928a1.819,1.819,0,0,1,1.068-2.626l1.949-.59c-2.132-4.077-5.749-7.164-9.527-9.711a129.254,129.254,0,0,0-13.32-7.784c-2.175-1.114-4.832-2.217-5.825-4.635a5.36,5.36,0,0,1,1.131-5.709c-2.6-1.614-4.318-3.847-3.347-7.21a4.72,4.72,0,0,1,2.674-3.216,5.094,5.094,0,0,1-1.1-3.6,5.7,5.7,0,0,1,1.751-4.165c-2.1-.846-4.182-1.714-6.24-2.643-1.733-.782-3.816-1.553-4.976-3.139a5.845,5.845,0,0,1,1.559-8.1c2.046-1.276,4.173-.389,6.222.3,12.614,4.27,25.343,8.821,37.408,14.5a7.639,7.639,0,0,0,1.179-4.377l-13.318-14.479a1.706,1.706,0,0,1-.369-1.822A13.225,13.225,0,0,0,510.1,122.271Z"/>
      <path class="d" d="M585.155,143.439c.016,10.9.007,22.242,5.544,31.875-.006-.17-.009-.339-.009-.5,0,.165,0,.334.009.5.421.733.87,1.457,1.358,2.169a1.69,1.69,0,0,1-1.527,2.6,2.506,2.506,0,0,1-1.27,1.515c-3.527,1.9-7.465,1.121-10.722-.77a1.53,1.53,0,0,1-2.558.185,32.506,32.506,0,0,1-6.027-13.056c-3.492-14.908-1.077-30.224-1.133-45.383a10.763,10.763,0,0,1-2.441,2.841,1.881,1.881,0,0,1,.188,2.611l-2.926,3.491-20.535,24.5a1.492,1.492,0,0,1-.9.492c.987,4.73,1.812,9.491,2.353,14.3.347,3.089-.17,6.156,1.04,9.089.425,1.032.9,2.034,1.366,3.036l2.43-.736a1.8,1.8,0,0,1,2.019.821l12.645,25.291H613.91q-.111-3.051-.259-6.1c-.695-14.664-1.711-29.434-4.265-43.906-1.031-5.838-2.123-12.163-4.895-17.473-1.768-3.386-5.039-6.055-8.173-8.546a44.135,44.135,0,0,0-7.967-5.218,1.662,1.662,0,0,1-.1-2.914c-1.041-.588-2.107-1.1-3.1-1.718C585.2,129.44,585.144,136.441,585.155,143.439Z"/>
      <path class="c" d="M577.431,80.328c-.205.272-.419.547-.641.82a6.029,6.029,0,0,1,.815,2.234,2.889,2.889,0,0,1,0,1.228,5.372,5.372,0,0,1-8.436,3.835A42.147,42.147,0,0,1,564.05,101.9q-.165,6.533-.331,13.067c1.628.694,3.364,1.278,4.952,2.011-.09-1.722-.225-3.441-.418-5.156-.258-2.287,3.32-2.261,3.575,0,1.319,11.675-.006,23.308-.1,35.011-.08,10.385-.051,23.107,6.775,31.654a1.894,1.894,0,0,1,.03,2.344c3.257,1.891,7.195,2.669,10.722.77a2.506,2.506,0,0,0,1.27-1.515,1.76,1.76,0,0,1-1.56-.8,42.3,42.3,0,0,1-6.6-18.137,129.788,129.788,0,0,1-.788-18.059c-.008-6.751.045-13.5.007-20.251-.076-13.44-.512-26.921-2.543-40.226a1.945,1.945,0,0,1,1.521-2.184c-.181-1.578-.3-3.16-.47-4.732A20.839,20.839,0,0,1,577.431,80.328Z"/>
      <path class="b" d="M573.251,64.2c-1.592.156-2.06-1.529-1.436-2.622a12.041,12.041,0,0,1-2.9-2.871,1.785,1.785,0,0,1-1.967-.281c-4.9-4.244-10.018-10.517-11.173-17.04a1.857,1.857,0,0,1,.063-.842,6.068,6.068,0,0,0-3.277-2.247c-6.4,13.7-21.659,23.75-36.951,21.877a12.51,12.51,0,0,1-3.9,1.748,1.545,1.545,0,0,1-1.686,1.9c-2.933-.281-4.494,4.369-4.369,6.709a12.475,12.475,0,0,0,2.028,5.743c.282.437.749,1.279,1.342,2.06a5.728,5.728,0,0,1,1.28-.156,5.24,5.24,0,0,1,4.026,1.841,1.734,1.734,0,0,1,1.747,1.717,37.743,37.743,0,0,0,1.9,9.674c1.778,5.649,4.837,11.048,9.518,14.794a22.848,22.848,0,0,0,19.912,4.213c13.232-3.527,17.914-17.29,19.411-29.462a1.987,1.987,0,0,1,2.654-1.591,5.23,5.23,0,0,1,2.746-.812,5.292,5.292,0,0,1,1.9.344,25.339,25.339,0,0,0,1.5-2.248,12.965,12.965,0,0,0,2.028-5.742C577.776,68.6,576.184,63.947,573.251,64.2ZM536.143,79.864a53.683,53.683,0,0,0,4-9.831c.749-2.185,4.213-1.248,3.464.936a70.21,70.21,0,0,1-3.589,9.207c1.03.718,2.029,1.436,3.09,2.091,1.935,1.217.125,4.338-1.81,3.09-1.561-.968-3-2.091-4.526-3.059A1.779,1.779,0,0,1,536.143,79.864Zm-6.491-11.61a1.8,1.8,0,0,1,0-3.589C531.93,64.665,531.93,68.254,529.652,68.254Zm18.413,25.28c-1.592,1.9-3.714,3.807-6.367,3.838-2.684.032-4.775-1.81-6.335-3.838-1.374-1.779,1.123-4.338,2.528-2.528.905,1.186,2.153,2.84,3.807,2.777,1.623-.031,2.9-1.654,3.808-2.777C547,89.227,549.5,91.786,548.065,93.534Zm5.68-25.28c-2.309,0-2.278-3.589,0-3.589A1.8,1.8,0,0,1,553.745,68.254Z"/>
      <path class="c" d="M515.007,60.105c-2.272-.324-1.3-3.769.951-3.448,14,2,28.725-8.239,33.881-20.984.853-2.109,4.31-1.182,3.447.95-.227.563-.474,1.118-.731,1.669a6.109,6.109,0,0,1,3.268,2.238c.457-1.605,3.065-2.05,3.41-.1C560.291,46.419,565,52.02,569.477,55.9a1.656,1.656,0,0,1-.578,2.816,11.7,11.7,0,0,0,2.906,2.858,1.792,1.792,0,0,1,1.452-.932,5.839,5.839,0,0,1,4.76,1.929c-.166-1.332-.361-2.626-.529-3.921-.986,1.109-3.26.752-3.135-1.09.481-7.064.375-14.344-1.519-21.214-1.083-3.929-2.879-8.546-6.713-10.542a1.587,1.587,0,0,1-.656-2.29c-.473-.476-.909-.987-1.354-1.492a1.722,1.722,0,0,1-2.7-.388c-2.456-4.26-7.709-6.131-12.267-7.08a30.8,30.8,0,0,0-27.99,7.937c-4.049,3.942-6.847,9.215-9.142,14.33a49.766,49.766,0,0,0-4.334,18.532,1.859,1.859,0,0,1-2.924,1.4,46.247,46.247,0,0,0-.837,7.162c1.38-2.255,3.478-3.91,6.106-3.673a1.847,1.847,0,0,1,1.692,1.666,12.314,12.314,0,0,0,3.877-1.733C515.4,60.15,515.2,60.133,515.007,60.105Z"/>
      <path class="b" d="M568.82,122.579c-.007-1.869-.052-3.736-.149-5.6-1.588-.733-3.324-1.317-4.952-2.011q-.03,1.224-.062,2.447c-.058,2.3-3.633,2.3-3.575,0q.136-5.373.272-10.746a25.7,25.7,0,0,1-14.676,7.739,26.646,26.646,0,0,1-21.147-6.036c-.335-.285-.661-.581-.983-.883q-.164,5.162-.326,10.323c-.073,2.3-3.649,2.3-3.576,0,.007-.229.015-.457.022-.686-2.675,1.369-5.74,1.753-8.606,2.579a1.765,1.765,0,0,1-.959,2.565,13.225,13.225,0,0,1,3.6,3.112,1.718,1.718,0,0,1,2.9-.706l4.212,4.579,6.817,7.411c.109-1.1.245-2.2.392-3.3a15.063,15.063,0,0,1,.974-4.541c1.145-2.422,3.858-4.315,6.61-3.548,2.215.617,3.255,2.866,3.626,4.951.5,2.8.023,5.492-.076,8.3a40.774,40.774,0,0,0,1.458,10.889c.147.613.288,1.226.431,1.84l.739.8L543.5,150l20.535-24.5a1.513,1.513,0,0,1,2.34-.083A10.763,10.763,0,0,0,568.82,122.579Z"/>
      <path class="b" d="M463.894,173.581c-2.541-6.271-4.833-12.648-6.984-19.063A199.226,199.226,0,0,1,451.2,134.94a51.842,51.842,0,0,1-1.223-7.405c-.2-2.636.177-5.375-.477-7.968-.577-2.291-2.3-2.462-3.423-.531-1.058,1.818-1.133,4.176-1.216,6.217-.181,4.45.388,8.9-.262,13.335-.6,4.074-2.791,7.6-2.3,11.83.529,4.582,3.309,8.7,6.133,12.2,1.433,1.775-1.083,4.318-2.529,2.528-3.415-4.229-6.508-8.957-7.149-14.477-.48-4.138,1.172-7.834,2.06-11.733a1.673,1.673,0,0,1-1.382-.162c-3.528-1.99-7.07-3.958-10.652-5.848-5.292-2.793-10.668-5.484-16.021-8.16-1.764-.882-3.549-1.732-5.388-2.447-1.356-.527-3.144-1.451-4.64-1.254-1.027.135-1.688.528-1.734,1.53-.014.294.011.966.018,1.01.188,1.144,1.961,2.427,3.249,3.182,2.856,1.677,5.917,3.041,8.83,4.624,4.552,2.474,9.052,5.026,13.654,7.407a1.706,1.706,0,0,1,.029,2.986,1.428,1.428,0,0,1-1.541.814,36.172,36.172,0,0,0-3.569-.617c-1.227.008-2.2,1.223-2.664,2.286-.815,1.877-.337,3.03,1.2,4.192,1.776,1.341,3.673,2.536,5.522,3.772a29.486,29.486,0,0,0,4.874,3.033,2.116,2.116,0,0,1,.226.093,2.529,2.529,0,0,0,3.27-1.5,2.092,2.092,0,0,0-.782-2.873c-1.964-1.467-3.82-3.107-5.721-4.654-1.787-1.453.758-3.967,2.528-2.528l3.535,2.876a28.322,28.322,0,0,1,3.06,2.479c2.528,2.833.875,7.689-2.25,9.307a5.646,5.646,0,0,1-1.091.429,7.287,7.287,0,0,1-1.08,5.364,5.69,5.69,0,0,1-3.841,2.47,6.041,6.041,0,0,1-2.257,4.73c-2.641,2.214-5.24,1.222-7.879-.277-.682-.387-1.4-.775-2.12-1.172.619.884,1.222,1.785,1.874,2.657a1.863,1.863,0,0,1,2.746.364c2.007,2.953,4.973,4.574,8.079,6.157a15.624,15.624,0,0,0,4.862,1.413c1.457.226,3.4.38,4.67,1.186,1.2.76,1.96,2.811,2.662,3.966L443,188.913c2.068-.772,4.113-1.607,6.13-2.485,6.455-2.809,13.023-6.092,18.3-10.828a2.13,2.13,0,0,1,.242-.185c-.176-.414-.35-.833-.525-1.25A1.986,1.986,0,0,1,463.894,173.581Z"/>
      <path class="e" d="M511.062,119.706a17.269,17.269,0,0,0-2.961,1.117,17.269,17.269,0,0,1,2.961-1.117,1.619,1.619,0,0,0-1.983-.857l-9.788,2.821a15.65,15.65,0,0,1-1.559,4.159,15.65,15.65,0,0,0,1.559-4.159l-6.413,1.848a1.727,1.727,0,0,0-1.152,2.3,28.7,28.7,0,0,0,5.291-2.5,28.7,28.7,0,0,1-5.291,2.5,1.651,1.651,0,0,0,2.1,1.144l16.2-4.668c.026-.008.048-.018.073-.026a5.961,5.961,0,0,0-.93-.375,5.961,5.961,0,0,1,.93.375A1.765,1.765,0,0,0,511.062,119.706Z"/>
      <path class="e" d="M563.638,131.515c.968-1.155,1.967-2.309,2.934-3.495a1.85,1.85,0,0,0-.187-2.591,1.5,1.5,0,0,0-2.341.063q-10.3,12.266-20.536,24.5c-.592.687-1.154,1.373-1.716,2.06-.25-.25-.5-.531-.749-.812-.156-.593-.281-1.217-.437-1.841a41.261,41.261,0,0,1-1.467-10.892c.125-2.778.593-5.462.094-8.271-.375-2.091-1.4-4.337-3.621-4.962-2.746-.78-5.461,1.124-6.616,3.558a13.978,13.978,0,0,0-.967,4.525c-.156,1.093-.281,2.216-.406,3.309-2.279-2.466-4.525-4.931-6.8-7.4l-4.213-4.588a1.715,1.715,0,0,0-2.9.718,1.7,1.7,0,0,0,.374,1.81c4.432,4.838,8.864,9.644,13.327,14.481a7.737,7.737,0,0,1-1.187,4.369c-12.077-5.68-24.811-10.236-37.419-14.512-2.06-.686-4.182-1.56-6.211-.281a5.793,5.793,0,0,0-1.56,8.084c1.155,1.591,3.246,2.372,4.962,3.152,2.06.936,4.151,1.779,6.242,2.652a5.777,5.777,0,0,0-1.748,4.151,5.1,5.1,0,0,0,1.093,3.589,4.7,4.7,0,0,0-2.653,3.215c-1,3.37.749,5.618,3.339,7.209a5.366,5.366,0,0,0-1.124,5.712c.968,2.434,3.652,3.526,5.806,4.65a125.832,125.832,0,0,1,13.326,7.771c3.776,2.559,7.4,5.649,9.519,9.737-.656.187-1.28.374-1.935.562a1.836,1.836,0,0,0-1.062,2.652c2.154,4.619,4.276,9.27,6.429,13.92h3.933c-2.122-4.588-4.245-9.145-6.367-13.732,8.52-2.559,17.04-5.15,25.561-7.709.873-.281,1.716-.53,2.59-.811,3.713,7.427,7.428,14.824,11.142,22.252h3.963q-6.319-12.641-12.64-25.311a1.807,1.807,0,0,0-2-.811l-2.434.749c-.469-1-.936-2-1.373-3.059-1.218-2.9-.687-5.992-1.03-9.082-.562-4.806-1.374-9.55-2.372-14.293a1.468,1.468,0,0,0,.9-.5Q553.356,143.8,563.638,131.515Zm-20.161,52.494c-6.741,2.028-13.482,4.088-20.255,6.117-3.651-7.3-10.7-11.641-17.6-15.73-1.935-1.186-3.9-2.309-5.93-3.339-1.467-.718-4.837-1.81-5.337-3.527-.5-1.841,1.373-2.247,2.746-2,.937.343,1.873.655,2.716.936.717.281,1.435.562,2.184.781,2.247.655,3.028-2.622.968-3.465-2.06-.811-4.182-1.5-6.211-2.34-1.872-.749-5.243-1.748-4.4-4.37.78-2.5,4.775-.468,6.366.063,2,.655,4,1.217,5.961,1.966,2.185.811,3.028-2.59.937-3.464-2-.843-4.026-1.592-6.024-2.4-1.436-.562-4.837-1.249-5.43-2.809a2.526,2.526,0,0,1,1.248-3.215,4.376,4.376,0,0,1,1.81-.093c3.433,1.342,6.9,2.652,10.362,3.932,1.9.687,3.183-2.372,1.373-3.277a50.15,50.15,0,0,0-9.332-3.714,9.847,9.847,0,0,0-1.31-.281c-3.34-1.31-6.679-2.652-9.956-4.119a18.747,18.747,0,0,1-3.963-1.967c-1.218-.905-1.031-3.682.842-3.526a15.522,15.522,0,0,1,3.339,1.092c2.029.687,4.057,1.405,6.086,2.122,5.493,2,10.955,4.026,16.416,6.149,2.747,1.092,5.524,2.215,8.271,3.37,1.154.5,2.34,1,3.5,1.529a12.839,12.839,0,0,0,3.433,1.5c2.778.313,4.057-4.213,4.4-6.241.562-3.121.406-6.367.812-9.55.187-1.405.187-3.215,1.092-4.4s2.247-1.467,2.84,0c1.186,2.9.187,6.429.125,9.425-.031,4.432,1.03,8.8,2.091,13.077,1.092,4.494,1.81,8.988,2.559,13.545a64.029,64.029,0,0,1,.968,7.3,32.343,32.343,0,0,0,.312,5.773A28.842,28.842,0,0,0,543.477,184.009Z"/>
      <path class="e" d="M540.146,70.022a52.932,52.932,0,0,1-4.016,9.835,1.822,1.822,0,0,0,.642,2.446c1.538.97,2.974,2.087,4.513,3.058,1.951,1.231,3.748-1.862,1.8-3.087-1.047-.661-2.048-1.388-3.064-2.091a72.178,72.178,0,0,0,3.569-9.211C544.345,68.793,540.893,67.856,540.146,70.022Z"/>
      <path class="e" d="M535.37,93.54c1.555,2.012,3.647,3.867,6.342,3.834,2.634-.032,4.752-1.924,6.338-3.834,1.459-1.758-1.057-4.3-2.529-2.528-.924,1.113-2.208,2.727-3.809,2.787-1.657.062-2.913-1.622-3.814-2.787C536.493,89.194,533.98,91.741,535.37,93.54Z"/>
      <path class="e" d="M529.637,68.245a1.789,1.789,0,0,0,0-3.575A1.789,1.789,0,0,0,529.637,68.245Z"/>
      <path class="e" d="M553.754,68.245a1.789,1.789,0,0,0,0-3.575A1.789,1.789,0,0,0,553.754,68.245Z"/>
      <path class="e" d="M580.085,75.713a15.743,15.743,0,0,0,1.093-4.244,12.242,12.242,0,0,0-3.152-8.895,5.89,5.89,0,0,0-4.775-1.935,1.731,1.731,0,0,0-1.436.936c-.624,1.093-.156,2.778,1.436,2.622,2.933-.25,4.525,4.4,4.4,6.71a12.965,12.965,0,0,1-2.028,5.742,25.339,25.339,0,0,1-1.5,2.248,5.292,5.292,0,0,0-1.9-.344,5.23,5.23,0,0,0-2.746.812,1.987,1.987,0,0,0-2.654,1.591c-1.5,12.172-6.179,25.935-19.411,29.462a22.848,22.848,0,0,1-19.912-4.213c-4.681-3.746-7.74-9.145-9.518-14.794a37.743,37.743,0,0,1-1.9-9.674,1.734,1.734,0,0,0-1.747-1.717,5.24,5.24,0,0,0-4.026-1.841,5.728,5.728,0,0,0-1.28.156c-.593-.781-1.06-1.623-1.342-2.06a12.475,12.475,0,0,1-2.028-5.743c-.125-2.34,1.436-6.99,4.369-6.709a1.545,1.545,0,0,0,1.686-1.9,1.837,1.837,0,0,0-1.686-1.686c-2.622-.218-4.713,1.436-6.086,3.683a12.129,12.129,0,0,0-1.81,7.147A14.533,14.533,0,0,0,503.28,75.5a20.759,20.759,0,0,0,2.4,4.213c.125.187.281.343.406.531a5.365,5.365,0,0,0-1.217,3.37,5.474,5.474,0,0,0,5.243,5.4A4.974,4.974,0,0,0,513.3,88.1a38.76,38.76,0,0,0,6.8,15.511c-.157,4.494-.281,9.02-.437,13.514a5.081,5.081,0,0,1-.031.686c-.063,2.31,3.526,2.31,3.588,0,.094-3.433.219-6.9.313-10.33.343.312.655.593,1,.874a26.691,26.691,0,0,0,21.16,6.055,25.748,25.748,0,0,0,14.668-7.74c-.093,3.589-.187,7.147-.28,10.736-.063,2.309,3.526,2.309,3.588,0,0-.812.032-1.623.063-2.435.094-4.369.219-8.707.312-13.076a41.133,41.133,0,0,0,5.118-13.451,5.4,5.4,0,0,0,8.458-3.839,3.534,3.534,0,0,0,.062-.624,3.471,3.471,0,0,0-.062-.593,5.771,5.771,0,0,0-.843-2.247c.25-.281.437-.531.656-.812A19.931,19.931,0,0,0,580.085,75.713Zm-71.624,7.9c0-2.4,3.589-2.4,3.713,0C512.05,85.981,508.461,86.012,508.461,83.609Zm61.919.375c0-2.4,3.589-2.372,3.713,0C573.969,86.387,570.38,86.387,570.38,83.984Z"/>
      <path class="b" d="M512.174,83.6c-.129-2.385-3.719-2.408-3.719,0S512.045,85.986,512.174,83.6Z"/>
      <path class="b" d="M574.1,84c-.129-2.385-3.719-2.408-3.719,0S573.967,86.382,574.1,84Z"/>
      <path class="e" d="M576.035,34.535C574.669,30,572.326,25,567.926,22.712a1.8,1.8,0,0,0-2.461.8,7.6,7.6,0,0,0,1.986,1.5,7.6,7.6,0,0,1-1.986-1.5,1.587,1.587,0,0,0,.656,2.29c3.834,2,5.63,6.613,6.713,10.542,1.894,6.87,2,14.15,1.519,21.214-.125,1.842,2.149,2.2,3.135,1.09a38.718,38.718,0,0,1-.384-5.038,38.718,38.718,0,0,0,.384,5.038,1.784,1.784,0,0,0,.441-1.09C578.448,49.909,578.265,41.928,576.035,34.535Z"/>
      <path class="e" d="M569.477,55.9C565,52.02,560.291,46.419,559.233,40.43c-.345-1.95-2.953-1.505-3.41.1,1.088,1.259,2.027,2.762,3.047,3.782-1.02-1.02-1.959-2.523-3.047-3.782a1.877,1.877,0,0,0-.038.851c1.155,6.537,6.273,12.806,11.164,17.042a1.766,1.766,0,0,0,1.95.288,15.405,15.405,0,0,1-1.806-3.316,15.405,15.405,0,0,0,1.806,3.316A1.656,1.656,0,0,0,569.477,55.9Z"/>
      <path class="e" d="M549.839,35.673c-5.156,12.745-19.879,22.982-33.881,20.984-2.251-.321-3.223,3.124-.951,3.448.2.028.392.045.588.069a10.4,10.4,0,0,0,1.444-1.2,10.4,10.4,0,0,1-1.444,1.2c15.3,1.877,30.57-8.167,36.96-21.882a3.981,3.981,0,0,0-1.193-.058,3.981,3.981,0,0,1,1.193.058c.257-.551.5-1.106.731-1.669C554.149,34.491,550.692,33.564,549.839,35.673Z"/>
      <path class="e" d="M502.14,88.1a59.163,59.163,0,0,0-.117,6.621,59.163,59.163,0,0,1,.117-6.621,1.833,1.833,0,0,0-.567,1.168q-1.479,13.793-2.954,27.586a1.43,1.43,0,0,0,1.144,1.655c.083-1.012.114-2.031.114-3.051,0,1.02-.031,2.039-.114,3.051a1.956,1.956,0,0,0,2.431-1.655q1.48-13.792,2.954-27.586C505.339,87.487,503.2,87.106,502.14,88.1Z"/>
      <path class="e" d="M564.5,19.824c-2.475-4.293-7.169-6.712-11.775-8.066A37.426,37.426,0,0,0,536.8,10.644a34.253,34.253,0,0,0-15.583,7.069c-5.064,3.969-8.429,9.4-11.25,15.1a55.228,55.228,0,0,0-5.859,22.53,1.56,1.56,0,0,0,.652,1.4,28.343,28.343,0,0,1,1.2-4.217,28.343,28.343,0,0,0-1.2,4.217,1.859,1.859,0,0,0,2.924-1.4,49.766,49.766,0,0,1,4.334-18.532c2.295-5.115,5.093-10.388,9.142-14.33a30.8,30.8,0,0,1,27.99-7.937c4.558.949,9.811,2.82,12.267,7.08a1.722,1.722,0,0,0,2.7.388,13.536,13.536,0,0,0-1.666-1.66,13.536,13.536,0,0,1,1.666,1.66A1.663,1.663,0,0,0,564.5,19.824Z"/>
      <path class="e" d="M615.988,183.124c-.672-8.02-1.533-16.038-2.85-23.981-1.063-6.417-2.3-13.045-5.019-19-1.738-3.805-4.766-6.6-7.929-9.278a49.549,49.549,0,0,0-10.034-6.881,1.773,1.773,0,0,0-1.9.173,12.613,12.613,0,0,1,2.794,2.028,12.613,12.613,0,0,0-2.794-2.028,1.662,1.662,0,0,0,.1,2.914,44.135,44.135,0,0,1,7.967,5.218c3.134,2.491,6.4,5.16,8.173,8.546,2.772,5.31,3.864,11.635,4.895,17.473,2.554,14.472,3.57,29.242,4.265,43.906q.144,3.049.259,6.1H617.5C617.219,199.909,616.691,191.5,615.988,183.124Z"/>
      <path class="e" d="M578.508,178.489c-6.826-8.547-6.855-21.269-6.775-31.654.089-11.7,1.414-23.336.1-35.011-.255-2.261-3.833-2.287-3.575,0,.193,1.715.328,3.434.418,5.156.19.088.382.175.567.268-.185-.093-.377-.18-.567-.268.1,1.863.142,3.73.149,5.6a5.572,5.572,0,0,0,.418-1.041,5.572,5.572,0,0,1-.418,1.041c.056,15.159-2.359,30.475,1.133,45.383a32.506,32.506,0,0,0,6.027,13.056,1.53,1.53,0,0,0,2.558-.185,17.264,17.264,0,0,1-2.864-2.09,17.264,17.264,0,0,0,2.864,2.09A1.894,1.894,0,0,0,578.508,178.489Z"/>
      <path class="e" d="M590.7,175.314c-5.537-9.633-5.528-20.973-5.544-31.875-.011-7,.047-14,0-21a11.257,11.257,0,0,1-1.261-.9,11.257,11.257,0,0,0,1.261.9c-.037-6.152-.153-12.3-.465-18.45a222.691,222.691,0,0,0-2.2-22.326,1.457,1.457,0,0,0-1.927-1.234,25.966,25.966,0,0,0,1.545,6.785,25.966,25.966,0,0,1-1.545-6.785,1.945,1.945,0,0,0-1.521,2.184c2.031,13.3,2.467,26.786,2.543,40.226.038,6.75-.015,13.5-.007,20.251a129.788,129.788,0,0,0,.788,18.059,42.3,42.3,0,0,0,6.6,18.137,1.76,1.76,0,0,0,1.56.8C590.984,178.759,590.748,176.934,590.7,175.314Z"/>
      <path class="e" d="M592.057,177.483c-.488-.712-.937-1.436-1.358-2.169.049,1.62.285,3.445-.169,4.774A1.69,1.69,0,0,0,592.057,177.483Z"/>
      <path class="e" d="M451.254,53.274c-2.871-.125-6.429-.312-8.489-2.559-1.716-1.873-2.122-4.4-2.247-6.866a1.487,1.487,0,0,0,.032-.375,1.539,1.539,0,0,0-.063-.562V40.978c0-2.279-3.589-2.279-3.557,0,0,.873,0,1.778.031,2.652-.156,2.466-.313,5.493-2.279,7.3-1.9,1.748-5.149,1.779-7.615,2.06a1.806,1.806,0,0,0-.468,3.527c2.747,1,6.929,1.716,8.4,4.587,1.5,2.934,1.374,6.617,2.06,9.8.375,1.654,3.152,1.748,3.464,0,.593-3.246.843-6.741,2.154-9.8,1.529-3.526,5.181-3.838,8.582-4.275C453.47,56.551,453.6,53.367,451.254,53.274Zm-11.016,4.837a14.072,14.072,0,0,0-1.4,2.934,9,9,0,0,0-4.993-5.618,8.969,8.969,0,0,0,3.37-1.966,8.51,8.51,0,0,0,1.623-2.122,10,10,0,0,0,1.4,1.9,9.1,9.1,0,0,0,2.933,2.06A8.116,8.116,0,0,0,440.238,58.111Z"/>
      <path class="e" d="M476.721,82.236c-2.309-.062-5.15-.125-7.022-1.654-1.5-1.217-1.873-3.059-1.966-4.9V75.5a1.829,1.829,0,0,0-.032-.593c-.031-.406-.031-.843-.031-1.249a1.779,1.779,0,0,0-3.557,0c0,.625,0,1.249.031,1.9-.125,1.841-.313,3.933-1.935,5.118-1.717,1.218-4.338,1.186-6.367,1.374a1.806,1.806,0,0,0-.468,3.526c2.122.656,5.368,1.03,6.866,2.84,1.56,1.842,1.436,5.181,2,7.459.4,1.654,3.089,1.748,3.463,0,.469-2.372.718-4.993,1.842-7.147,1.373-2.59,4.619-2.621,7.178-2.9A1.8,1.8,0,0,0,476.721,82.236ZM467.2,85.794a13.03,13.03,0,0,0-1.186,2,6.949,6.949,0,0,0-1.248-1.9,7.5,7.5,0,0,0-1.935-1.5,8.288,8.288,0,0,0,1.935-1.185,5.586,5.586,0,0,0,1.217-1.374,10.955,10.955,0,0,0,1.155,1.28,8.539,8.539,0,0,0,1.685,1.155A6.8,6.8,0,0,0,467.2,85.794Z"/>
      <path class="e" d="M625.807,85.107c-2.278-.094-5.15-.125-7.022-1.654-1.5-1.217-1.873-3.058-1.966-4.9v-.187a1.829,1.829,0,0,0-.032-.593v-1.28c-.031-2.278-3.588-2.278-3.588,0,0,.656,0,1.28.031,1.9-.125,1.842-.313,3.964-1.936,5.119-1.716,1.248-4.337,1.217-6.366,1.4a1.806,1.806,0,0,0-.468,3.527c2.122.624,5.368,1.029,6.866,2.808,1.591,1.873,1.435,5.212,2,7.459a1.809,1.809,0,0,0,3.464,0c.5-2.34.718-4.962,1.873-7.115,1.342-2.591,4.588-2.653,7.147-2.9A1.8,1.8,0,0,0,625.807,85.107Zm-9.519,3.558a9.849,9.849,0,0,0-1.155,2,6.97,6.97,0,0,0-1.279-1.935,8.248,8.248,0,0,0-1.935-1.5,7.247,7.247,0,0,0,1.935-1.154A8.4,8.4,0,0,0,615.1,84.7a8.472,8.472,0,0,0,1.124,1.28,7.875,7.875,0,0,0,1.716,1.155A6.928,6.928,0,0,0,616.288,88.665Z"/>
      <path class="e" d="M476,131.921a1.713,1.713,0,0,0-2.154-.343c-4.9,2.559-6.99,8.52-8.363,13.544-1.311,4.713-2.029,9.581-3.09,14.356-.687-1.966-1.373-3.932-2.028-5.9a178.3,178.3,0,0,1-6.118-21.441,37.186,37.186,0,0,1-.749-7.209c.032-3.5.032-8.614-3.557-10.424-4-2.029-7.241,2.06-8.053,5.555-1.154,5.025-.342,10.237-.561,15.324,0,.125-.031.219-.031.343-.032,0-.032-.031-.063-.031-3.526-2-7.084-3.963-10.642-5.867-2.466-1.28-4.994-2.4-7.459-3.683-3.808-1.935-7.553-4.088-11.485-5.867-3.027-1.373-6.866-3.5-10.3-2.559a4.9,4.9,0,0,0-3.933,5.118c.157,5.305,5.462,7.24,9.551,9.363,4.151,2.153,8.27,4.463,12.39,6.71a8.131,8.131,0,0,0-.718.405,8.431,8.431,0,0,0-3.589,6.585,5.476,5.476,0,0,0,.187,1.779c-2.871,1.467-4.962,4.775-3.995,7.8a.827.827,0,0,0-.187.156c-2.622,2.684-4.869,6.086-1.873,9.425a25.942,25.942,0,0,0,7.022,4.962c.718.406,1.436.78,2.123,1.186,2.621,1.5,5.243,2.466,7.864.25a5.894,5.894,0,0,0,2.247-4.713,5.79,5.79,0,0,0,3.87-2.465,7.38,7.38,0,0,0,1.061-5.368,5.362,5.362,0,0,0,1.093-.437c3.121-1.623,4.775-6.46,2.247-9.3a22.822,22.822,0,0,0-3.058-2.465c-1.186-.968-2.341-1.935-3.527-2.9-1.779-1.436-4.307,1.092-2.528,2.527,1.9,1.561,3.745,3.184,5.711,4.651a2.11,2.11,0,0,1,.78,2.9,2.541,2.541,0,0,1-3.277,1.5.283.283,0,0,0-.218-.094,30.255,30.255,0,0,1-4.869-3.058c-1.841-1.217-3.745-2.434-5.524-3.745-1.529-1.186-2.028-2.341-1.185-4.213.436-1.061,1.435-2.279,2.652-2.279,1.124,0,2.4.5,3.558.625a1.52,1.52,0,0,0,1.561-.812,1.729,1.729,0,0,0-.032-3c-4.618-2.372-9.113-4.931-13.67-7.4-2.9-1.591-5.96-2.964-8.832-4.65-1.279-.749-3.058-2.028-3.245-3.183,0-.031-.031-.687,0-1,.031-1,.686-1.4,1.716-1.529,1.5-.187,3.277.718,4.65,1.248,1.842.718,3.621,1.561,5.4,2.466,5.336,2.653,10.7,5.368,16.01,8.146,3.589,1.9,7.115,3.869,10.642,5.867a1.824,1.824,0,0,0,1.374.156c-.874,3.9-2.529,7.584-2.061,11.735.656,5.523,3.746,10.236,7.178,14.48,1.436,1.779,3.933-.78,2.529-2.527-2.841-3.5-5.618-7.616-6.149-12.2-.5-4.245,1.717-7.771,2.31-11.828.655-4.432.062-8.895.249-13.358.094-2.029.156-4.4,1.218-6.211,1.123-1.934,2.839-1.747,3.433.531.655,2.59.28,5.337.468,7.958a54.076,54.076,0,0,0,1.217,7.428,203.468,203.468,0,0,0,5.711,19.568c2.153,6.429,4.463,12.8,6.991,19.069a1.991,1.991,0,0,0,3.246.593,1.374,1.374,0,0,0,.187-1.561c-1.061-2.621-2.091-5.274-3.058-7.958a1.7,1.7,0,0,0,.78-1.03c1.467-5.368,2.153-10.86,3.526-16.229,1.155-4.462,2.685-10.423,7.085-12.764A1.652,1.652,0,0,0,476,131.921Zm-53.336,37.388c-1.093.032-2.56-1.186-3.5-1.747a44.061,44.061,0,0,1-6.616-4.214c-.655-.561-1.435-1.217-1.248-2.122a6.4,6.4,0,0,1,2-2.777,39.747,39.747,0,0,0,4.276,3.058c1.747,1.186,3.5,2.372,5.274,3.5.406.25.843.5,1.248.718a3.034,3.034,0,0,0,.344.312C425.913,167,423.915,169.247,422.667,169.309Zm.53-14.45a35.865,35.865,0,0,0,5.93,3.652.031.031,0,0,1,.032.031c1.373.78.811,3.246-.188,4.151-1.623,1.5-4.057-.624-5.43-1.5-2.372-1.529-4.807-3.09-7.053-4.806-.843-.656-1.9-1.374-1.936-2.528,0-1.436,1.374-2.653,2.684-3.121C418.984,152.394,421.418,153.642,423.2,154.859Z"/>
      <path class="e" d="M467.671,175.415a18.622,18.622,0,0,0,1.1,2.255,18.622,18.622,0,0,1-1.1-2.255,2.13,2.13,0,0,0-.242.185c-5.275,4.736-11.843,8.019-18.3,10.828-2.017.878-4.062,1.713-6.13,2.485l-1.909-3.141c-.7-1.155-1.465-3.206-2.662-3.966-1.271-.806-3.213-.96-4.67-1.186a15.624,15.624,0,0,1-4.862-1.413c-3.106-1.583-6.072-3.2-8.079-6.157a1.863,1.863,0,0,0-2.746-.364,15.489,15.489,0,0,0,3.5,3.554,15.489,15.489,0,0,1-3.5-3.554,1.52,1.52,0,0,0-.341,2.168,21.667,21.667,0,0,0,8.434,6.959,19.217,19.217,0,0,0,5.206,2.018c1.683.33,3.337.529,4.972,1.013l3.211,5.283c-.369.121-.739.243-1.109.359a1.693,1.693,0,0,0-1.163,1.142,1.789,1.789,0,0,0-.348,2.107l7.141,14.581h3.942a2.057,2.057,0,0,0-.116-.3q-3.56-7.269-7.12-14.537c3.445-1.151,6.828-2.52,10.153-3.968,6.76-2.941,13.5-6.432,19.022-11.387a1.6,1.6,0,0,0-.065-2.493,3.4,3.4,0,0,0-1.12.248,3.4,3.4,0,0,1,1.12-.248A1.8,1.8,0,0,0,467.671,175.415Z"/>
      <path class="e" d="M488,205.689c-4.445-8.083-8.972-16.127-13.325-24.26a1.556,1.556,0,0,0-1.29-.884c.566,1.593,1.25,3.148,2.534,3.918-1.284-.77-1.968-2.325-2.534-3.918a1.857,1.857,0,0,0-1.8,2.688c4.354,8.133,8.88,16.177,13.326,24.26a1.619,1.619,0,0,0,.987.823h.872A1.8,1.8,0,0,0,488,205.689Z"/>
      <path class="e" d="M486.776,208.316H485.9A1.685,1.685,0,0,0,486.776,208.316Z"/>
      <path class="b" d="M541.493,178.846a31.17,31.17,0,0,1-.321-5.747,62.371,62.371,0,0,0-.972-7.327c-.763-4.554-1.466-9.029-2.573-13.52-1.054-4.281-2.112-8.658-2.062-13.1.033-3,1.061-6.526-.139-9.425-.608-1.468-1.942-1.166-2.84,0-.912,1.186-.909,2.989-1.093,4.414-.411,3.167-.265,6.407-.805,9.547-.347,2.01-1.63,6.554-4.418,6.23a13.769,13.769,0,0,1-3.429-1.5q-1.739-.782-3.5-1.527c-2.739-1.164-5.5-2.274-8.273-3.362q-8.154-3.2-16.409-6.147c-2.022-.724-4.046-1.441-6.078-2.136a15.34,15.34,0,0,0-3.35-1.089c-1.879-.148-2.051,2.607-.832,3.534a19.811,19.811,0,0,0,3.956,1.955c3.281,1.455,6.611,2.81,9.963,4.111a12.088,12.088,0,0,1,1.314.283,52.111,52.111,0,0,1,9.324,3.726c1.807.9.515,3.963-1.378,3.268q-5.2-1.913-10.365-3.93a4.157,4.157,0,0,0-1.8.113,2.5,2.5,0,0,0-1.245,3.2c.6,1.56,3.982,2.244,5.422,2.814,2.015.8,4.045,1.564,6.045,2.4,2.07.865,1.237,4.264-.951,3.448-1.965-.734-3.98-1.3-5.969-1.959-1.6-.529-5.565-2.546-6.357-.06-.831,2.608,2.536,3.626,4.384,4.373,2.053.83,4.151,1.54,6.21,2.353,2.09.825,1.305,4.112-.95,3.447-.743-.219-1.465-.5-2.187-.776-.857-.287-1.781-.592-2.721-.929-1.359-.267-3.228.148-2.727,1.987.471,1.731,3.869,2.8,5.33,3.539,2.026,1.029,3.984,2.153,5.936,3.313,6.893,4.1,13.932,8.439,17.593,15.752l20.261-6.14A25.719,25.719,0,0,1,541.493,178.846Z"/>
      <path class="d" d="M548.947,186.075l-2.61.791L520.8,194.6q3.174,6.856,6.349,13.713h32.915Z"/>
    </g>
    <g>
      <path class="f" d="M54.017,99.9a118.275,118.275,0,0,1-11.439,4.042L41.5,98.353c1.161-.215,2.493-.516,3.913-.9V88.334h-3.14V83.175h3.14V76.338H42.062V71.177H53.673v5.161H50.447v6.837h2.967v5.159H50.447v7.611c1.333-.473,2.537-.946,3.57-1.419Zm12.813,9.288c-2.106,0-3.182-1.075-3.182-3.311V95.859h-1.5c-.3,7.439-3.956,11.653-8.945,14.19l-3.87-4.3c5.332-1.892,7.783-5.289,8-9.89l-2.494.043V70.575H72.205V95.859H68.464V103.3c0,.473.086.645.431.645h.472c.731,0,.861-.258.861-3.956V98.568l4,2.322c-.258,7.74-1.332,8.3-4.6,8.3Zm.3-33.841h-7.31v2.537h7.31Zm0,6.536h-7.31v2.537h7.31Zm0,6.493h-7.31v2.838h7.31Z"/>
      <path class="f" d="M98.649,105.749a27.608,27.608,0,0,1-4.342,4.644l-3.527-3.44a17.783,17.783,0,0,0,7.44-9.245H96.93a22.177,22.177,0,0,1-7.7,8.9l-3.052-3.7a16.905,16.905,0,0,0,6.364-5.2H91.168a18.965,18.965,0,0,1-2.494,2.021l-1.505-2.838v4a49.082,49.082,0,0,1-10.277,4.429l-1.118-5.805c1.075-.258,2.279-.6,3.483-.989v-12H76.591V81.111h2.666V70.791h5.117v10.32h2.709v5.417H84.374V96.547A17.871,17.871,0,0,0,86.4,95.515l.387-.172a1.743,1.743,0,0,1,.387-.215,12.6,12.6,0,0,0,3.784-3.354H87.3V87.56h20.983v4.214H95.64a17.466,17.466,0,0,1-1.033,1.677H107.68c-.172,16.039-.6,16.211-7.483,16.641ZM88.8,86.055V70.92H106.69V86.055Zm13.072-11.136H93.619v1.848h8.256Zm0,5.374H93.619v1.892h8.256ZM99.51,105.018c3.181,0,3.31-.129,3.611-7.31h-.644a25.644,25.644,0,0,1-3.354,7.31Z"/>
      <path class="f" d="M136.877,107.985a65.546,65.546,0,0,0-8.644-12,36.732,36.732,0,0,1-14.92,12.212l-3.741-5.289a29.921,29.921,0,0,0,19.694-23.219l-15.781.171V74.015h22.961A50.44,50.44,0,0,1,131.373,91a72.393,72.393,0,0,1,10.019,11.7Z"/>
      <path class="f" d="M142.079,104.889a27.19,27.19,0,0,0,15.867-8.772,69.039,69.039,0,0,0-7.654-5.676l3.483-4a70.419,70.419,0,0,1,7.31,5.16,30.568,30.568,0,0,0,3.569-10.793h-10.1A40.744,40.744,0,0,1,144.53,93.451L140.1,89.28c6.708-4.558,11.05-12.942,12.6-19.177l5.805,1.2c-.473,1.462-1.032,3.011-1.634,4.515,4.085,0,12.126-.085,14.018-.085-1.118,12.125-5.075,28.637-24.553,33.969Z"/>
      <path class="f" d="M176.308,94.053a70.759,70.759,0,0,0-3.139-12.126l4.515-1.118a67.639,67.639,0,0,1,3.095,11.61Zm-.387,10.75c11.137-3.311,15.823-10.621,16.167-25.025l5.418.73c-1.247,14.233-4.472,23.908-17.716,28.724Zm7.782-12.04a66.5,66.5,0,0,0-2.494-11.954l4.687-.9a78.891,78.891,0,0,1,2.538,11.567Z"/>
      <path class="f" d="M201.247,103.513c15.265-4.042,19.436-14.061,20.253-24.338-5.934.129-21.327.344-21.327.344V73.586s25.412-.043,27.992-.043c-.43,18.231-7.009,30.185-22.531,35.173Z"/>
      <path class="f" d="M244.547,104.373c12.126-2.021,12.684-11.4,12.684-14.706,0-6.492-2.407-11.395-7.481-12.341-1.419,13.8-3.87,22.231-6.021,25.972a6.066,6.066,0,0,1-5.2,3.354c-3.4,0-7.826-4.085-7.826-13.459,0-9.632,6.536-20.854,17.07-20.854,9.934,0,14.835,8.127,14.835,17.586,0,6.45-2.278,16.684-15.178,19.694Zm-8.9-10.965c0,1.5.559,7.138,2.709,7.138,3.1,0,5.676-16.942,6.106-23.091C239.9,78.96,235.646,85.453,235.646,93.408Z"/>
      <path class="f" d="M207.392,155.327h1.548c6.407,0,6.149-1.247,6.278-8.041h-7.095c-1.591,7.4-6.45,12.126-12.727,14.835l-3.656-5.074c5.074-1.72,9.331-4.472,11.051-9.761h-8.3v-5.245h9.073l.043-4.258h5.16l-.086,4.258h11.653v5.116c0,11.654-1.591,13.459-10.707,13.76Zm10.836-14.318v-4.773H197.2v4.773h-5.418V130.99H197.5a41.961,41.961,0,0,0-4.257-6.751L197.8,121.4a54.221,54.221,0,0,1,4.3,7.138l-3.785,2.451h12.857a50.4,50.4,0,0,0,5.246-10.277l5.117,2.623a40.4,40.4,0,0,1-4.43,7.654h6.236v10.019ZM205.93,130.6a30.088,30.088,0,0,0-3.44-7.1l4.644-2.408a39.243,39.243,0,0,1,3.483,7.009Z"/>
      <path class="f" d="M240.717,154.769h2.149c7.4,0,7.912-.344,8.084-20.038h-7.869c-.43,9.46-2.967,19.608-13.286,27.09l-4.257-4.9c8.471-5.59,11.352-13.157,11.91-22.187H227.215v-5.719h10.362V121.1h5.59v7.912H256.54c0,30.357-.73,31.39-13.975,32.034Z"/>
      <path class="f" d="M287.672,160.144a48.279,48.279,0,0,1-9.158.773c-4.989,0-12.169-1.29-12.169-8.084,0-5.288,6.191-9.115,10.147-11.48-.3-1.634-.989-2.58-2.235-2.58-2.365,0-5.289,1.978-10.02,9.374l-4.3-3.268a59.666,59.666,0,0,0,8.513-13.545H260.97v-4.945h9.245c.6-1.677,1.031-3.182,1.376-4.472l5.762.946c-.387,1.161-.861,2.365-1.333,3.483H286.3v4.945H274.041c-.9,1.806-1.763,3.4-2.709,4.9a7.494,7.494,0,0,1,4.43-1.72c2.752,0,4.557,1.419,5.375,4.816,3.439-1.549,6.578-2.623,8.513-3.4l1.935,5.375a77.662,77.662,0,0,0-9.847,3.267c.086,1.119.086,2.237.086,3.355,0,1.333,0,2.623-.043,3.956l-5.246.387c.043-1.591.172-3.656.215-5.59-2.149,1.462-5.159,3.439-5.159,5.933,0,2.752,5.03,3.053,6.966,3.053h.6a35.51,35.51,0,0,0,8.73-1.031Z"/>
      <path class="f" d="M308.1,160.874v-4.3h-4.774v5.161h-4.686v-5.161l-5.332.043v-5.03h5.332V149.48h-4.516V131.162h4.516v-2.193l-5.117.043v-4.945h5.117V121.1h4.686v2.967l4.817-.043v4.945h-4.817v2.193h4.343v6.364a16.73,16.73,0,0,0,5.676-2.021,26.9,26.9,0,0,1-3.956-6.235l3.87-1.892h-4.429v-5.16h16v4.73a23.188,23.188,0,0,1-4.171,8.514,23.235,23.235,0,0,0,5.59,2.451l-2.537,5.245A30.992,30.992,0,0,1,317,139.073a24.233,24.233,0,0,1-7.7,4.042l-1.634-4.17V149.48h-4.343v2.107h5.16v4.127h5.848v-4.9h-5.16V145.7h5.16v-4h5.031v4h5.2v5.117h-5.2v4.9h6.278v5.16Zm-8.816-25.455-1.548-.043v2.967h1.548Zm0,6.622h-1.548v3.182h1.548Zm4.9-6.622h-1.635v2.924h1.635Zm0,6.622h-1.635v3.182l1.635.043Zm9.588-14.663A16.227,16.227,0,0,0,317,132.5a14.53,14.53,0,0,0,2.838-5.117Z"/>
      <path class="f" d="M332.864,141.267a43.634,43.634,0,0,0-5.461-5.805l3.483-3.569a43.958,43.958,0,0,1,5.461,5.5Zm-5.117,17.2a76.25,76.25,0,0,0,3.568-15.351l4.516,2.194a88.49,88.49,0,0,1-3.226,15.178Zm17.371-.387a25.918,25.918,0,0,0,3.741-3.439h-6.32V140.406h6.707v13.8c.646-.816,1.29-1.677,1.893-2.579-1.033-5.763-1.247-13.373-1.29-20.726h-8.213v8.428c0,7.954-.129,15.866-2.28,22.36l-4.643-3.785c2.02-5.589,2.149-13.373,2.149-19.822V127.077l-3.482,3.784a40.116,40.116,0,0,0-5.418-5.891l3.612-3.483a38.917,38.917,0,0,1,5.288,5.375v-1.118h12.729V121.1h4.9c-.043,1.419-.043,3.01-.043,4.644h1.376a28.906,28.906,0,0,0-.73-3.053l3.224-1.161a100.93,100.93,0,0,1,1.849,11.094l-3.439,1.419c-.043-.989-.129-2.064-.215-3.139h-2.108c0,4.9,0,9.976.172,14.018a49.883,49.883,0,0,0,1.548-10.191L360,136.58c-.9,6.751-2.278,11.567-4.257,15.566.3,1.633.56,2.838.818,2.838.386,0,.73-1.247,1.118-5.032l2.838,4.171c-.861,5.461-2.409,7.569-4.171,7.569-1.635,0-2.709-1.893-3.655-4.688a27.777,27.777,0,0,1-4,4.774ZM342.409,138v-4.6h6.751V138Zm4.171,6.707h-1.333v5.634h1.333Z"/>
    </g>
  </g>
</svg>
