<svg xmlns="http://www.w3.org/2000/svg" width="395" height="229" viewBox="0 0 395 229">
  <defs>
    <style>
      .a {
        fill: #fff;
      }

      .b {
        fill: #87c576;
      }

      .c {
        fill: #383838;
      }
    </style>
  </defs>
  <g>
    <rect class="a" width="395" height="229" rx="10.991"/>
    <g>
      <rect class="b" x="86.461" y="73.383" width="96.216" height="25.878" rx="6.528"/>
      <rect class="b" x="86.461" y="142.918" width="96.216" height="25.878" rx="6.528"/>
      <g>
        <path class="c" d="M107.1,159.894c-.269,1.281-.489,1.691-.71,1.691-.147,0-.416-.265-.71-.845a8.54,8.54,0,0,0,1.469-1.885l-.955-.579a7.439,7.439,0,0,1-1,1.4,8.59,8.59,0,0,1-.416-1.522h2.939V157H106.54c-.1-.217-.2-.507-.318-.773a7.437,7.437,0,0,0,.784-.121c.024.218.024.387.049.556l.832-.242a17.269,17.269,0,0,0-.416-2.15l-.735.218c.049.193.1.435.147.7-.294.049-.612.073-.931.1A17.88,17.88,0,0,0,107.5,152.7l-.808-.459a11.73,11.73,0,0,1-.686,1.377l-.392-.531a11.21,11.21,0,0,0,.907-1.885l-.907-.362a8.9,8.9,0,0,1-.587,1.474c-.123-.17-.245-.314-.343-.435l-.417.7c-.024-.579-.049-1.183-.049-1.787h-1.225c.025.7.025,1.352.049,1.981l-.759-.532c-.2.435-.441.894-.71,1.377l-.343-.483a9.766,9.766,0,0,0,.907-1.909l-.907-.362a7.67,7.67,0,0,1-.588,1.474c-.1-.145-.22-.29-.293-.387l-.564.991a15.542,15.542,0,0,1,1.225,1.57,8.48,8.48,0,0,1-.637.894h-.539l.171.869a8.071,8.071,0,0,1-1.249-1.932h.931v-1.28h-1v-2.271H97.355v2.271H96.008v1.28h1.2a14.621,14.621,0,0,1-1.592,3.672l.661,1.836a14.193,14.193,0,0,0,1.078-3.551v6.716h1.323v-7.465a9.724,9.724,0,0,0,.784,2.246l.563-1.377.024.073c.686-.048,1.764-.193,2.6-.338a4.3,4.3,0,0,1,.024.531l.662-.217.073.531H99.976v1.16h.808a5.552,5.552,0,0,1-1.494,3.479l.882,1.159a6.739,6.739,0,0,0,1.567-2.971c.368.362.76.8,1.078,1.159l.735-1.038c-.441-.411-1.078-.919-1.617-1.329.025-.145.049-.314.074-.459h1.543a12.035,12.035,0,0,0,.661,2.367,9.632,9.632,0,0,1-2.645,1.426l.833,1.063a10.893,10.893,0,0,0,2.327-1.426c.514.918,1.1,1.426,1.665,1.426.613,0,1.151-.7,1.641-2.2Zm-4.017-5.508-.71.218c.025.169.074.386.123.6-.318.049-.637.1-.98.121a18.7,18.7,0,0,0,1.518-2.536c.049.652.1,1.28.148,1.932Zm1.2-1.3a16.466,16.466,0,0,1,1.151,1.377c-.2.314-.392.579-.613.869h-.367C104.385,154.579,104.336,153.83,104.287,153.082ZM104.63,157l-.1-.628c.245,0,.539-.048.833-.072.1.217.2.483.269.7Z"/>
        <path class="c" d="M119.742,153.009v-2.222H118.4v2.222h-3.429v1.329h3.111a13.98,13.98,0,0,1-4.336,5.749l.98,1.16A13.225,13.225,0,0,0,118.4,156.1v4.615c0,.773-.123.869-1.568.893h-.587l.538,1.377c2.695-.048,2.964-.386,2.964-2.488v-6.16h1.372v-1.329Zm-6.907,1.305h1.739v-1.305h-1.935v-2.222h-1.347v2.222h-2.156v1.305h2.009a10.491,10.491,0,0,1-2.474,4.01l.784,1.474a9.694,9.694,0,0,0,1.837-3.721v6.934h1.347V155.5a11.124,11.124,0,0,0,1.568,3.044l.661-1.425A11.838,11.838,0,0,1,112.835,154.314Z"/>
        <path class="c" d="M132.8,154.821a11.111,11.111,0,0,1-7.519,5.75c.024-2.175.122-8.214.122-8.915h-1.641v10.823a13.209,13.209,0,0,0,10.091-6.16Z"/>
        <path class="c" d="M145.558,152.913c-.759,3.092-2.18,5.266-4.8,6.667a.024.024,0,0,1-.024.024h-.025a13.908,13.908,0,0,1-4.6,1.377l.98,1.426A13.166,13.166,0,0,0,144.211,159a11.161,11.161,0,0,0,2.743-5.218Zm-8.548-.87-1.1,1.135a15.679,15.679,0,0,1,3.772,2.658l1.077-1.377A16.537,16.537,0,0,0,137.01,152.043Z"/>
        <path class="c" d="M154.033,152.768a11.1,11.1,0,0,0,.686-1.426l-1.568-.29a11.481,11.481,0,0,1-5.046,5.871l1.274,1.014a15.507,15.507,0,0,0,3.894-3.889l4.556-.024a8.97,8.97,0,0,1-1.249,3.14,4.24,4.24,0,0,1-.465.677c-.221-.169-.466-.338-.711-.532a29.857,29.857,0,0,0-2.572-1.618l-.955.99c.515.314,1,.6,1.47.918.612.435,1.2.846,1.788,1.329a10.79,10.79,0,0,1-6.075,2.706l1.152,1.208a10.662,10.662,0,0,0,8.156-5.871,13.244,13.244,0,0,0,1.176-4.228C159.029,152.743,155.135,152.768,154.033,152.768Z"/>
        <path class="c" d="M172.868,155.642l-.318-.338c-.049.121-.1.266-.147.387-.76,1.787-1.985,3.672-3.6,4.421.025-.87.025-2.537.025-4.156.024-2.126.024-4.2.049-4.42h-1.568V162.31c3.38-.507,5.438-3.527,6.393-5.75Zm-8.72-4.034c.025.6.049,1.232.049,1.884a19.029,19.029,0,0,1-.195,2.875,7.432,7.432,0,0,1-2.818,5.242l1.519.846a9.343,9.343,0,0,0,2.841-6.233,30.369,30.369,0,0,0,.172-3.817v-.8Z"/>
      </g>
      <g>
        <path class="c" d="M122.485,89.449c-.269,1.28-.49,1.691-.71,1.691-.147,0-.417-.266-.71-.821a9.848,9.848,0,0,0,1.469-1.884l-.955-.6a6.741,6.741,0,0,1-1,1.4,8.056,8.056,0,0,1-.417-1.522h2.94V86.55h-1.2a7.985,7.985,0,0,0-.293-.773c.269-.024.538-.072.784-.1.024.193.024.386.048.555l.833-.266c-.1-.6-.269-1.522-.416-2.15l-.735.242a3.748,3.748,0,0,1,.122.676c-.269.049-.587.073-.906.1a21.831,21.831,0,0,0,1.543-2.585l-.833-.459a9.866,9.866,0,0,1-.661,1.377l-.392-.531a10.314,10.314,0,0,0,.906-1.885l-.906-.362a7.391,7.391,0,0,1-.588,1.473,3.322,3.322,0,0,0-.343-.41l-.416.7c-.025-.6-.025-1.208-.049-1.787h-1.2c0,.676.024,1.328.049,1.981s.073,1.3.122,1.932l-.073-.338-.735.242a3.025,3.025,0,0,1,.123.579c-.294.049-.637.1-.956.121a23.113,23.113,0,0,0,1.519-2.536l-.784-.532a11.51,11.51,0,0,1-.686,1.353l-.343-.483a11.294,11.294,0,0,0,.907-1.909l-.907-.362a8.9,8.9,0,0,1-.587,1.474,3.1,3.1,0,0,1-.294-.387l-.588.991a14.751,14.751,0,0,1,1.249,1.57,6.3,6.3,0,0,1-.661.918h-.515l.172.845a7.561,7.561,0,0,1-1.249-1.932h.93V82.612h-1V80.366h-1.323v2.246h-1.347v1.281h1.225a15.628,15.628,0,0,1-1.592,3.672l.637,1.836a14.236,14.236,0,0,0,1.077-3.551v6.716h1.323V85.125a9.931,9.931,0,0,0,.784,2.222l.563-1.377.025.073a22.945,22.945,0,0,0,2.572-.338,4.746,4.746,0,0,1,.049.555l.637-.241.073.531h-3.405v1.16h.809a5.429,5.429,0,0,1-1.5,3.478l.858,1.16a6.387,6.387,0,0,0,1.567-2.971c.392.386.784.8,1.1,1.159l.735-1.038c-.465-.411-1.077-.918-1.616-1.329a2.691,2.691,0,0,0,.049-.459h1.567a10.556,10.556,0,0,0,.637,2.367,9.138,9.138,0,0,1-2.621,1.426l.808,1.063a9.785,9.785,0,0,0,2.327-1.426c.515.918,1.1,1.426,1.666,1.426.613,0,1.151-.7,1.617-2.2Zm-2.817-6.812a13.56,13.56,0,0,1,1.152,1.4,10.41,10.41,0,0,1-.613.845h-.367C119.767,84.134,119.718,83.385,119.668,82.637Zm.343,3.913-.1-.628c.269,0,.538-.024.832-.048.1.217.2.459.27.676Z"/>
        <path class="c" d="M135.075,82.564v-2.2h-1.347v2.2H130.3v1.329h3.135a14.2,14.2,0,0,1-4.335,5.749l.979,1.16a13.267,13.267,0,0,0,3.65-5.121V90.3c0,.773-.123.845-1.568.869h-.588l.564,1.4c2.645-.049,2.939-.411,2.939-2.513v-6.16h1.372V82.564Zm-6.883,1.305h1.739V82.564H128v-2.2h-1.347v2.2h-2.155v1.305h2.033a10.358,10.358,0,0,1-2.5,4.034l.784,1.45a9.666,9.666,0,0,0,1.837-3.721v6.934H128V85.052a11.366,11.366,0,0,0,1.568,3.069l.661-1.45A11.355,11.355,0,0,1,128.192,83.869Z"/>
        <path class="c" d="M148.913,89.5V86.115h-2.6v-.7h3.135V84.376h-1.69v-.7h1.249v-.918h-1.249v-.7h1.47V81.09h-1.47v-.724h-1.249v.724h-1.665v-.724H143.6v.724h-1.4v.967h1.4v.7h-1.151v.918H143.6v.7h-1.616v1.039h3.062v.7h-2.6V89.5h-.538v.99h.538v2.078h1.25V90.488h3.967v.1c0,.7-.1.821-1.469.821l.514,1.16c2.033-.073,2.2-.363,2.2-1.981v-.1h.613V89.5Zm-4.065-7.441h1.665v.7h-1.665Zm0,2.319v-.7h1.665v.7Zm.269,5.122H143.7v-.87h1.42Zm0-1.667H143.7v-.822h1.42Zm2.547,1.667h-1.42v-.87h1.42Zm0-1.667h-1.42v-.822h1.42Zm-6.833,1.98h.832V80.752h-4.139v9.059h.906a4.809,4.809,0,0,1-1.4,1.716l.906,1.039a6.017,6.017,0,0,0,1.593-2.2l-.858-.556h1.837l-.735.58a13.009,13.009,0,0,1,1.323,2.03l1.053-.8A17.944,17.944,0,0,0,140.831,89.811Zm-.392-1.183H138.8v-1.5h1.641Zm0-2.658H138.8V84.521h1.641Zm0-2.609H138.8v-1.4h1.641Z"/>
        <path class="c" d="M157.633,81.815c0-.1-.024-.966-.024-1.063h-5.095v1.377h3.576l.025.411c-.245,2.464-1.666,6.788-5.879,8.6l.931,1.426a11.232,11.232,0,0,0,5.609-6.934,12.78,12.78,0,0,0,4.776,6.934l.98-1.329A10.845,10.845,0,0,1,157.633,81.815Z"/>
      </g>
      <path class="c" d="M251.565,54.806v6.378h5.682V95.126h6.516V54.806Z"/>
      <path class="c" d="M255.753,161.271a38.2,38.2,0,0,1,4.336-5.7c5.56-6.33,9.258-10.654,9.258-17.563,0-6.354-3.747-11.862-11.659-11.862h-.049a17.628,17.628,0,0,0-8.646,2.2v7.561a11.389,11.389,0,0,1,8.156-3.648c5.683,0,5.707,5.653,5.707,6.306,0,3.937-1.616,5.918-6.858,12.369a94.272,94.272,0,0,0-7,9.614,21.2,21.2,0,0,0-2.939,6.692h23.391v-6.16Z"/>
      <g>
        <path class="c" d="M286.737,84.424V82.467h7.446V81.356H282.206v1.111h3.306v1.812c0,3.141-.465,5.315-3.428,7.368l.93.894a7.942,7.942,0,0,0,3.649-6.619h5c0,.725.025,1.353.025,1.884-.025,3.165-.318,3.286-3.576,3.334l.514,1.208c3.821-.266,4.213-.556,4.213-5.629V84.811h-6.123v-.387Z"/>
        <path class="c" d="M295.848,80.9V92.541h1.127V87.154h8.5v3.527c0,.58-.049.725-1.666.749h-.661l.465,1.111c2.67-.024,2.988-.338,2.988-2V80.9Zm4.752,5.17h-3.625V81.984H300.6Zm4.875,0h-3.748V81.984h3.748Z"/>
      </g>
      <g>
        <path class="c" d="M207.844,80.656v4.372c0,2.633-.245,4.856-1.4,6.475l1.372.918a10.665,10.665,0,0,0,1.323-4.011h6.368v1.619c0,.749-.294.821-1.764.821h-.563l.588,1.426c2.718,0,3.184-.242,3.184-2.416v-9.2Zm7.667,6.426h-6.246c.049-.58.074-1.232.074-1.885h6.172Zm0-3.213h-6.172V81.984h6.172Z"/>
        <path class="c" d="M229.57,90.15h1.347V82.709h-2.425a7.323,7.323,0,0,0,.417-.87h2.351V80.607h-5.8v1.256l2.008-.024a9.729,9.729,0,0,1-.465.87h-1.2V90.15h1.1a5.3,5.3,0,0,1-1.935,1.183l.833,1.088a6.6,6.6,0,0,0,2.2-1.6l-.71-.676h1.984l-.686.676a11.6,11.6,0,0,0,2.082,1.6l.759-1.16A7.913,7.913,0,0,1,229.57,90.15Zm-2.45-6.33h2.45v1.039h-2.45Zm0,2.005h2.45v1.063h-2.45Zm0,3.165V87.879h2.45V88.99Zm-3.527-2.85a7.769,7.769,0,0,0,1.2-1.764v-.7h.514v-2.56H223.03v-.894h-1.469v.894h-2.205v2.56h1.3v-1.4h3.381V83.41H222.32c.122-.242.22-.459.343-.7l-1.176-.266a5.748,5.748,0,0,1-2.4,2.706l.808,1.039a6.113,6.113,0,0,0,.759-.652c.368.217.76.459,1.151.724a9.622,9.622,0,0,1-2.816,1.112l.441,1.3.587-.241v3.913h1.323v-.531h3.38V88.41l.833-.893A21.574,21.574,0,0,0,223.593,86.14Zm-2.228-1.378.269-.314H223.5a3.517,3.517,0,0,1-.809,1.088C222.246,85.27,221.805,85.028,221.365,84.762Zm2.057,5.992h-2.106V89.135h2.106Zm-2.5-2.73a9.687,9.687,0,0,0,1.788-1.087q.735.543,1.4,1.087Z"/>
      </g>
      <g>
        <path class="c" d="M286.737,153.685v-1.932h7.446v-1.111H282.206v1.111h3.306v1.788c0,3.164-.465,5.314-3.428,7.368l.93.918a7.954,7.954,0,0,0,3.649-6.644h5c0,.749.025,1.377.025,1.909-.025,3.165-.318,3.261-3.576,3.334l.514,1.183c3.821-.241,4.213-.531,4.213-5.6v-1.933h-6.123v-.387Z"/>
        <path class="c" d="M295.848,150.183v11.644h1.127v-5.412h8.5v3.552c0,.555-.049.7-1.666.724a5.424,5.424,0,0,1-.661.025l.465,1.111c2.67-.024,2.988-.338,2.988-2v-9.639Zm4.752,5.145h-3.625V151.27H300.6Zm4.875,0h-3.748V151.27h3.748Z"/>
      </g>
      <g>
        <path class="c" d="M207.942,150.376v4.372a6.16,6.16,0,0,1-.024.677c-.025,2.343-.319,4.324-1.372,5.8l1.372.918a10.666,10.666,0,0,0,1.323-4.01h6.368v1.618c0,.749-.294.822-1.764.822h-.563L213.87,162c2.719,0,3.184-.242,3.184-2.416v-9.2Zm1.494,1.329h6.173v1.884h-6.173Zm6.173,5.1h-6.246c.024-.411.049-.846.049-1.3a4.673,4.673,0,0,0,.024-.579h6.173Z"/>
        <path class="c" d="M229.668,159.87h1.322v-7.441h-2.4a7.232,7.232,0,0,0,.417-.869h2.351v-1.232h-5.805v1.256l2.009-.024c-.148.29-.3.6-.466.869h-1.2v7.441H227a5.2,5.2,0,0,1-1.959,1.184l.857,1.087a6.574,6.574,0,0,0,2.2-1.595l-.71-.676h1.984l-.686.676a11.556,11.556,0,0,0,2.082,1.595l.759-1.16A7.879,7.879,0,0,1,229.668,159.87Zm-2.449-6.329h2.449v1.038h-2.449Zm0,2h2.449v1.063h-2.449Zm0,3.164V157.6h2.449v1.111Zm-2.082-1.86c-.466-.362-.956-.676-1.446-.99a7.746,7.746,0,0,0,1.2-1.764v-.7h.514v-2.561h-2.278v-.894h-1.469v.894h-2.2V153.4h1.3V152h3.38v1.135h-1.714c.122-.242.22-.459.343-.7l-1.176-.265a5.746,5.746,0,0,1-2.4,2.705l.808,1.039a6.03,6.03,0,0,0,.759-.652c.368.217.76.459,1.127.725-.245.144-.514.289-.784.434a10.278,10.278,0,0,1-2.008.677l.441,1.3.563-.241v3.913h1.347v-.531h3.38v-3.406l.833-.894C225.479,157.092,225.308,156.971,225.137,156.85Zm-3.674-2.367.269-.314h1.861a3.506,3.506,0,0,1-.808,1.087C222.344,154.99,221.9,154.748,221.463,154.483Zm2.057,5.991h-2.106v-1.619h2.106Zm-2.5-2.73a9.666,9.666,0,0,0,1.788-1.087q.735.543,1.4,1.087Z"/>
      </g>
      <g>
        <path class="c" d="M93.706,195.977a.773.773,0,1,0,.783.773A.784.784,0,0,0,93.706,195.977Zm-2.2,2.706a.749.749,0,0,0-.784.748.772.772,0,1,0,1.544,0A.758.758,0,0,0,91.5,198.683Zm0-5.388a.773.773,0,1,0,.76.773A.779.779,0,0,0,91.5,193.3Zm-2.228,2.682a.779.779,0,0,0-.76.773.763.763,0,0,0,.76.773.783.783,0,0,0,.783-.773A.768.768,0,0,0,89.273,195.977Zm5.216-2.416-.342-.266L91.5,196.436,88.832,193.3l-.319.266,2.694,3.189-2.694,3.189.319.265,2.669-3.116,2.646,3.116.342-.265-2.718-3.189Z"/>
        <path class="c" d="M102.181,192.305v8c0,.338-.025.387-.344.362l-1.053-.048.123.58h1.2c.514,0,.588-.338.588-.7v-8.189Zm-2.156.724v6.137h.514v-6.137Zm-.563,1.909h-1.47v-1.715a6.379,6.379,0,0,0,1.445-.483l-.269-.435a8.725,8.725,0,0,1-3.307.7l.2.508c.539-.049.906-.1,1.445-.194v1.619H95.763v.507h1.714a9.642,9.642,0,0,1-1.837,3.189l.27.58a9.4,9.4,0,0,0,1.592-2.875V201.2h.49v-5a9.386,9.386,0,0,0,1.078,1.981l.293-.507a8.248,8.248,0,0,1-1.346-2.223h1.445Z"/>
        <path class="c" d="M104.36,192.715v4.3a6.767,6.767,0,0,1-.882,3.816l.417.363a6.427,6.427,0,0,0,.93-3.044h2.181V201.1h.514v-2.947H109.8v2.222c0,.29-.025.29-.245.29l-.956-.024.074.556h1c.417,0,.661-.121.661-.749v-7.731Zm2.646,4.929h-2.132V195.59h2.132Zm0-2.513h-2.132V193.2h2.132Zm2.792,2.513H107.52V195.59H109.8Zm0-2.513H107.52V193.2H109.8Z"/>
        <path class="c" d="M116.386,192.86l-1.543,1.112.074.628,1.469-1.039v6.885h.637V192.86Z"/>
        <path class="c" d="M126.38,198.224v-2.2h2.351v-.483H126.38V193.8h2.6V193.3h-4.85a7.91,7.91,0,0,0,.368-.918l-.564-.1a7.46,7.46,0,0,1-1.861,3.237l.343.483a9.313,9.313,0,0,0,1.494-2.2h1.935v1.739h-2.523v2.682h-1.2v.483h3.723V201.2h.539v-2.488h2.914v-.483Zm-.539,0h-1.984v-2.2h1.984Z"/>
        <path class="c" d="M133.948,196.508h3.16V196H133.8v-1.715h2.817v-.508H133.8v-1.449h-.514v1.449H130.47v.508h2.817V196h-3.331v.507h3.184a7.791,7.791,0,0,1-3.282,3.406l.343.484a8.16,8.16,0,0,0,3.086-3.334v4.107h.514V197.04a9.37,9.37,0,0,0,3.111,3.358l.294-.484A9.011,9.011,0,0,1,133.948,196.508Z"/>
        <path class="c" d="M144.946,193.633v-.459h-1.274v-.845h-.49v.845h-1.91v-.845h-.441v.845h-1.249v.459h1.249v1.16H139.8v.459h2.2v.991h-2.155V201.2h.465v-4.518h1.69v2.658h-.734v-2.054h-.392v2.513H143.6v-2.513h-.391v2.054h-.76v-2.658h1.739v3.672c0,.29-.049.314-.22.314l-.931-.024.1.556h.906c.221,0,.613-.024.613-.652v-4.3h-2.2v-.991h2.229v-.459h-1v-1.16Zm-1.764,1.16h-1.91v-1.16h1.91Zm-4.9-2.416-.246.435a5.945,5.945,0,0,1,1.176.821l.27-.459A5.77,5.77,0,0,0,138.284,192.377Zm.661,5.073a17.49,17.49,0,0,1-1.151,3.238l.367.434a16.562,16.562,0,0,0,1.2-3.382Zm-.931-2.464-.245.435a7.474,7.474,0,0,1,1.176.991l.294-.459A7.687,7.687,0,0,0,138.014,194.986Z"/>
        <path class="c" d="M151.975,194.576l-.416.265a8.64,8.64,0,0,1,.808,1.643l.416-.266A7.921,7.921,0,0,0,151.975,194.576Zm-1.1.531-.416.242a9.089,9.089,0,0,1,.783,1.667l.441-.29A8.324,8.324,0,0,0,150.873,195.107Zm-2.792-1.836c-.441.048-1.813.121-2.2.121l.049.628c.686-.1,2.842-.266,4.14-.314a5,5,0,0,0-2.572,4.059c0,2.439,2.082,2.874,4.041,2.971l.123-.628c-3.307-.024-3.6-1.353-3.6-2.368a4.657,4.657,0,0,1,2.964-3.962,4.342,4.342,0,0,1,.71-.048,5.253,5.253,0,0,1,.662.024v-.6C149.918,193.174,149.869,193.174,148.081,193.271Z"/>
        <path class="c" d="M160.205,191.894l-.392.242a8.65,8.65,0,0,1,.784,1.691l.441-.266A8.227,8.227,0,0,0,160.205,191.894Zm-1.053.411-.417.217a7.586,7.586,0,0,1,.784,1.715l.441-.241A7.94,7.94,0,0,0,159.152,192.305Zm-4.6,1.014v.6c.416,0,.661-.024,2.988-.048a5.325,5.325,0,0,0-1.2.749l.367.411a5.69,5.69,0,0,1,2.107-1.16v-.556C156.188,193.344,154.988,193.319,154.547,193.319Zm2.572,6.692c-.76,0-2.474,0-2.474-1.691a2.638,2.638,0,0,1,.392-1.353l-.441-.314a3.3,3.3,0,0,0-.514,1.691c0,2.247,2.179,2.247,3.037,2.247a27.968,27.968,0,0,0,2.865-.145v-.6A22.753,22.753,0,0,1,157.119,200.011Z"/>
        <path class="c" d="M167.136,198.634v-1.425h1.176v-.459h-1.176v-1.015H166.7v1.015h-.734c.1-.338.147-.556.245-1.039l-.466-.1a5.481,5.481,0,0,1-.734,2.271l.392.29a5.546,5.546,0,0,0,.441-.966h.856v1.425H165.03v.459H166.7v2.1h.441v-2.1h1.323v-.459Zm-2.278-5.943v.459h1.127a2.331,2.331,0,0,1-1.151,2.054l.343.435a3.215,3.215,0,0,0,1.274-2.489H167.9c-.025,1.836-.269,1.836-.588,1.836l-.686-.024.1.532h.686a.675.675,0,0,0,.71-.387,10.608,10.608,0,0,0,.27-2.416Zm-1.053,1.86a10.452,10.452,0,0,0,.466-1.063v-.41h-1.519c.074-.242.123-.387.2-.677l-.465-.1a4.874,4.874,0,0,1-1.348,2.464l.3.435c.147-.169.195-.218.294-.338v3.285a6.659,6.659,0,0,1-.49,2.681l.367.363a6.8,6.8,0,0,0,.564-2.44h2.155v1.594c0,.266-.025.339-.294.314l-.735-.024.123.556h.759c.539,0,.588-.363.588-.677v-5.967Zm-.784,3.745h-.856v-1.425h.856Zm0-1.884h-.856v-1.426h.856Zm-1.053-1.861a7.367,7.367,0,0,0,.588-1.038h1.2a7.787,7.787,0,0,1-.44,1.038Zm2.352,3.745h-.882v-1.425h.882Zm0-1.884h-.882v-1.426h.882Z"/>
        <path class="c" d="M173.505,195.832l-.417.193a13.774,13.774,0,0,1,.833,2.367l.49-.193A13.164,13.164,0,0,0,173.505,195.832Zm-.074-2.054a12.914,12.914,0,0,0,.319-1.4l-.49-.072a6.945,6.945,0,0,1-1.176,3.285l.417.363a5.756,5.756,0,0,0,.783-1.691h2.229c0,.555,0,4.855-.2,5.822-.1.531-.293.555-.588.555l-1-.024.1.58h1.029c.71,0,.882-.459.955-.942a60.1,60.1,0,0,0,.2-6.475Zm-1.592,3.938-.392.121a14.127,14.127,0,0,1,.392,2.247l.441-.145A12.294,12.294,0,0,0,171.839,197.716Zm-2.3.024a7.877,7.877,0,0,1-.465,2.513l.416.217a9.5,9.5,0,0,0,.465-2.657Zm2.2-2.367-.343.193c.1.29.172.435.27.7-.735.1-1.225.12-1.348.145a23.749,23.749,0,0,0,1.519-2.972l-.392-.241c-.392.966-.93,2-.979,2.1a8.884,8.884,0,0,0-.564-.749,16.484,16.484,0,0,0,.956-2.077l-.466-.169a12.054,12.054,0,0,1-.784,1.908,3.2,3.2,0,0,1-.269-.29l-.294.387a6.017,6.017,0,0,1,1.2,1.4,5.739,5.739,0,0,1-.441.7,4.679,4.679,0,0,1-.71.024l.1.507c.686-.024.882-.048,1.3-.072V201.2h.465v-4.373c.245-.048.368-.048.833-.145.074.218.1.29.221.725l.416-.217A10.558,10.558,0,0,0,171.741,195.373Z"/>
        <path class="c" d="M180.779,192.933c-2.008,0-3.649,1.643-3.649,4.276,0,1.546.514,2.754,1.347,2.754.612,0,1.126-.8,1.372-1.353a13.5,13.5,0,0,0,1-5.146c2.375.121,2.5,2.706,2.5,3.358a3.052,3.052,0,0,1-2.866,3.407l.2.555a3.808,3.808,0,0,0,2.229-1.039,4.114,4.114,0,0,0,1.029-2.947C183.939,194.721,182.959,192.933,180.779,192.933Zm-1.714,5.967c-.123.217-.319.459-.588.459-.563,0-.809-1.28-.809-2.078,0-2.1,1.054-3.551,2.621-3.793A11.469,11.469,0,0,1,179.065,198.9Z"/>
        <path class="c" d="M187.588,192.667v3.068h3.846v-3.068Zm3.356,2.633h-2.89v-.918h2.89Zm0-1.328h-2.89v-.87h2.89Zm1,2.947v-.459h-4.9v.459h1.077a4.541,4.541,0,0,1-1.984,2.343l.319.387a6.211,6.211,0,0,0,1.494-1.474h.906a4.7,4.7,0,0,1-2.3,2.392l.293.386a5.6,5.6,0,0,0,2.474-2.778h.809a4.607,4.607,0,0,1-1.862,2.706l.343.362a5.552,5.552,0,0,0,1.984-3.068h.612c-.024.459-.049,1.715-.147,2.2a.355.355,0,0,1-.392.315l-.881-.025.122.508h.809a.662.662,0,0,0,.71-.387,13.728,13.728,0,0,0,.245-3.044H188.25a6.626,6.626,0,0,0,.367-.821Zm-4.751.628a8.4,8.4,0,0,1-.931.459v-3.02h.857V194.5h-.857v-2.15h-.49v2.15h-1v.483h1v3.238c-.294.12-.465.193-1.053.41l.122.507a13.245,13.245,0,0,0,2.425-1.159Z"/>
        <path class="c" d="M194.324,195.276v.508H198.1v-.508Zm-.784,1.715V201h5.34v-4.011Zm4.825,3.527H194.03V197.45h4.335Zm-1.934-8.213h-.539a7.075,7.075,0,0,1-3.405,3.213l.27.555a9.123,9.123,0,0,0,3.428-3.261,8.824,8.824,0,0,0,3.479,3.261l.244-.555A7.58,7.58,0,0,1,196.431,192.305Z"/>
        <path class="c" d="M201.354,198.634l-.515.387a13.375,13.375,0,0,1,1.4,1.884l.588-.435A12.836,12.836,0,0,0,201.354,198.634Z"/>
        <path class="c" d="M219.013,198.634v-1.425h1.176v-.459h-1.176v-1.015h-.441v1.015h-.71c.074-.338.123-.556.22-1.039l-.44-.1a6.342,6.342,0,0,1-.735,2.271l.367.29a4.067,4.067,0,0,0,.441-.966h.857v1.425h-1.665v.459h1.665v2.1h.441v-2.1h1.323v-.459Zm-2.278-5.943v.459h1.127a2.281,2.281,0,0,1-1.151,2.054l.343.435a3.214,3.214,0,0,0,1.273-2.489h1.446c0,1.836-.27,1.836-.588,1.836l-.661-.024.1.532h.686a.661.661,0,0,0,.686-.387,9.368,9.368,0,0,0,.27-2.416Zm-1.028,1.86a10.452,10.452,0,0,0,.465-1.063v-.41h-1.543a4.483,4.483,0,0,0,.221-.677l-.466-.1a5.279,5.279,0,0,1-1.347,2.464l.269.435a4.422,4.422,0,0,1,.319-.338v3.285a6.757,6.757,0,0,1-.515,2.681l.368.363a5.891,5.891,0,0,0,.563-2.44h2.18v1.594c0,.266-.024.339-.294.314l-.759-.024.147.556h.735c.563,0,.612-.363.612-.677v-5.967ZM214.9,198.3h-.832v-1.425h.832Zm0-1.884h-.832v-1.426h.832Zm-1.053-1.861a5.58,5.58,0,0,0,.588-1.038h1.2a4.276,4.276,0,0,1-.441,1.038Zm2.376,3.745h-.906v-1.425h.906Zm0-1.884h-.906v-1.426h.906Z"/>
        <path class="c" d="M225.406,195.832l-.441.193a13.774,13.774,0,0,1,.833,2.367l.49-.193A15.276,15.276,0,0,0,225.406,195.832Zm-.073-2.054a13.116,13.116,0,0,0,.293-1.4l-.465-.072a7.255,7.255,0,0,1-1.175,3.285l.391.363a6.586,6.586,0,0,0,.809-1.691h2.2c0,.555,0,4.855-.171,5.822-.1.531-.294.555-.613.555l-1-.024.123.58h1c.71,0,.882-.459.98-.942.171-.894.171-3.866.195-6.475Zm-1.593,3.938-.416.121a19.2,19.2,0,0,1,.416,2.247l.417-.145A14.66,14.66,0,0,0,223.74,197.716Zm-2.3.024a8.66,8.66,0,0,1-.465,2.513l.392.217a9.542,9.542,0,0,0,.465-2.657Zm2.2-2.367-.367.193c.123.29.172.435.27.7-.711.1-1.225.12-1.347.145a21,21,0,0,0,1.518-2.972l-.367-.241c-.417.966-.931,2-1,2.1a8.422,8.422,0,0,0-.539-.749,15.206,15.206,0,0,0,.931-2.077l-.441-.169a12.178,12.178,0,0,1-.808,1.908c-.1-.1-.147-.169-.269-.29l-.27.387a7.062,7.062,0,0,1,1.176,1.4c-.27.483-.319.556-.416.7a5.083,5.083,0,0,1-.711.024l.074.507c.685-.024.906-.048,1.3-.072V201.2h.465v-4.373c.245-.048.368-.048.857-.145.049.218.074.29.2.725l.416-.217A12.352,12.352,0,0,0,223.642,195.373Z"/>
        <path class="c" d="M234.371,198.827v-.942h1.322v-.435h-1.322v-.628h1.1v-1.691h-4.311v1.691h2.719v.628h-2.719v1.377H230.7v.435h3.184v.967h.49v-.967h1.616v-.435Zm-.49,0h-2.254v-.942h2.254Zm-2.254-2.415v-.87h3.381v.87Zm3.674-2.32v-1.207h-2.229c.05-.242.05-.29.1-.58l-.49-.073c-.025.242-.05.338-.1.653h-1.519v.41h1.421a4.643,4.643,0,0,1-.2.8H230.7v.435h5.29v-.435Zm-.465,0h-2.058c.1-.314.123-.483.2-.8h1.862ZM229.3,192.4l-.293.387a6.61,6.61,0,0,1,1.151,1.474l.367-.387A5.751,5.751,0,0,0,229.3,192.4Zm2.94,8.093a1.8,1.8,0,0,1-1.96-1.522v-2.85h-1.42v.483h.93v2.947a6,6,0,0,1-1.028,1.208l.269.483a7.426,7.426,0,0,0,1.1-1.329,2.28,2.28,0,0,0,2.107,1.063h3.772l.1-.483Z"/>
        <path class="c" d="M241.057,195.832l-.416.193a13.774,13.774,0,0,1,.833,2.367l.465-.193A11.508,11.508,0,0,0,241.057,195.832Zm-.073-2.054a12.913,12.913,0,0,0,.318-1.4l-.49-.072a6.938,6.938,0,0,1-1.175,3.285l.416.363a5.76,5.76,0,0,0,.784-1.691h2.229c0,.555,0,4.855-.2,5.822-.1.531-.294.555-.588.555l-1.029-.024.122.58h1c.735,0,.881-.459.98-.942a60.367,60.367,0,0,0,.2-6.475Zm-1.592,3.938-.417.121a15.149,15.149,0,0,1,.417,2.247l.441-.145A15.034,15.034,0,0,0,239.392,197.716Zm-2.3.024a7.877,7.877,0,0,1-.465,2.513l.392.217a9.731,9.731,0,0,0,.49-2.657Zm2.205-2.367-.368.193c.123.29.2.435.294.7-.735.1-1.224.12-1.347.145a27.889,27.889,0,0,0,1.519-2.972L239,193.2c-.392.966-.931,2-.98,2.1a8.664,8.664,0,0,0-.563-.749,16.436,16.436,0,0,0,.955-2.077l-.465-.169a12.149,12.149,0,0,1-.784,1.908l-.294-.29-.27.387a6.72,6.72,0,0,1,1.2,1.4,5.877,5.877,0,0,1-.441.7,4.891,4.891,0,0,1-.711.024l.074.507c.686-.024.906-.048,1.323-.072V201.2h.465v-4.373c.245-.048.367-.048.833-.145.073.218.1.29.22.725l.416-.217A10.618,10.618,0,0,0,239.294,195.373Z"/>
        <path class="c" d="M249.924,197.813a8.91,8.91,0,0,1-.833,2.1l.465.145a8.729,8.729,0,0,0,.858-2.1Zm-3.821.048-.466.169a12.887,12.887,0,0,1,.711,2.078l.514-.194A11.867,11.867,0,0,0,246.1,197.861Zm2.229,2.44V197.45h3.086v-.459h-3.086v-1.352h1.935v-.508h-4.36v.508h1.91v1.352h-3.061v.459h3.061V200.3h-3.184v.459h6.883V200.3Zm-.025-8h-.416a7.683,7.683,0,0,1-3.478,2.85l.269.508a9.18,9.18,0,0,0,3.405-2.778,9.181,9.181,0,0,0,3.38,2.729l.294-.507A7.682,7.682,0,0,1,248.307,192.305Z"/>
        <path class="c" d="M259.035,191.846l-.392.265a7.37,7.37,0,0,1,.858,1.547l.392-.266A7.4,7.4,0,0,0,259.035,191.846Zm-.979.459-.392.265a7.442,7.442,0,0,1,.832,1.571l.417-.266A7.226,7.226,0,0,0,258.056,192.305Zm-.343,1.57-.441.29a6.7,6.7,0,0,1,1.175,3.672l.613-.1A7.53,7.53,0,0,0,257.713,193.875Zm-2.205.556h-.881c.024-.266.195-1.5.22-1.788l-.613-.048c-.048.6-.073.99-.2,1.836h-1.421v.555l1.347-.024a28.171,28.171,0,0,1-1.42,5.556l.538.218a34.589,34.589,0,0,0,1.446-5.774h.832c1-.024,1.274.363,1.274,1.836a11.061,11.061,0,0,1-.294,2.609c-.245.773-.686.773-.906.773a4.1,4.1,0,0,1-.955-.121v.58a4.957,4.957,0,0,0,1.053.121,1.175,1.175,0,0,0,1.175-.725,9.141,9.141,0,0,0,.466-3.189C257.174,195.059,256.757,194.431,255.508,194.431Z"/>
        <path class="c" d="M266.849,199.166c-.074,1.352-.147,1.352-.515,1.352h-1.175c-.221,0-.245-.024-.245-.265v-2.1h2.2v-.483h-2.2v-1.4h1.1v-.459h-4.531v.459h1.053v1.4h-2.156v.483h2.131a2.949,2.949,0,0,1-2.351,2.512l.245.532a4.527,4.527,0,0,0,1.837-1.184,3.258,3.258,0,0,0,.784-1.86h1.4v2.2c0,.459.049.653.514.653h1.494c.686,0,.833-.266.931-1.643Zm-2.425-1.5h-1.4v-1.4h1.4Zm1.518-2.73a7.844,7.844,0,0,0,1.274-1.546l-.441-.242a7.547,7.547,0,0,1-1.2,1.474,7.563,7.563,0,0,1-.588-.652,9.156,9.156,0,0,0,1.151-1.353l-.416-.266a8.322,8.322,0,0,1-1.053,1.256,9.491,9.491,0,0,1-.686-1.063H261v.435h2.3a6.219,6.219,0,0,1-1.151,1.546,6.1,6.1,0,0,0-1.2-1.111l-.319.338a13.72,13.72,0,0,1,1.176,1.087,6.3,6.3,0,0,1-1.69,1.087l.245.508a8.57,8.57,0,0,0,3.429-3.31,8.737,8.737,0,0,0,3.38,3.358l.221-.556A7.037,7.037,0,0,1,265.942,194.938Z"/>
        <path class="c" d="M271.821,200.349V197.74h2.694v-.507h-2.694v-2.367h3.037v-.508h-3.037v-2.029h-.539v2.029h-1.715a9.673,9.673,0,0,0,.466-1.618l-.515-.145a9.741,9.741,0,0,1-1.543,3.841l.368.41a7.336,7.336,0,0,0,1.053-1.98h1.886v2.367h-2.743v.507h2.743v2.609h-3.307v.508h7.152v-.508Z"/>
        <path class="c" d="M282.059,196.846c-.245,2.465-1.176,3.358-2.719,3.358-1.69,0-1.714-1.328-1.714-2.681,0-1.208.049-3.237.1-4.856h-.662c0,.652-.073,3.841-.073,4.566,0,1.981.147,3.527,2.376,3.527,2.033,0,2.988-1.329,3.233-3.769Z"/>
        <path class="c" d="M290.387,194.262v-.508h-2.621v-1.111h-.588v1.111h-3.159v.508H287.2v1.473h-3.087v.483H287.2v1.426a2.916,2.916,0,0,0-.858-.121,1.879,1.879,0,0,0-2.082,1.739,1.636,1.636,0,0,0,1.837,1.57c1.641,0,1.666-1.28,1.666-2.077v-.363a7.4,7.4,0,0,1,2.082,1.812l.367-.483a7.013,7.013,0,0,0-2.449-1.908v-1.595h2.474v-.483h-2.474v-1.473Zm-3.184,4.662c0,.556-.025,1.377-1.152,1.377-1,0-1.224-.628-1.224-1.039,0-.894.734-1.256,1.518-1.256a2.674,2.674,0,0,1,.858.145Z"/>
        <path class="c" d="M298.4,194.31v-.532H296.29V192.6h-.564v1.183h-3.968v.532h3.968v1.208a1.173,1.173,0,0,0-.955-.411c-.882,0-1.665.628-1.665,1.981,0,1.256.71,1.884,1.518,1.884a1.379,1.379,0,0,0,1.249-.748c-.073.555-.294,1.98-2.816,2.125l.147.532c3.061-.193,3.233-2.2,3.233-3.189a6.4,6.4,0,0,0-.147-1.377v-2Zm-2.621,2.754c0,.6-.294,1.425-1.127,1.425-.612,0-.979-.628-.979-1.473,0-1.112.686-1.4,1.1-1.4.465,0,.882.339,1,1.136Z"/>
        <path class="c" d="M300.894,198.272a1.317,1.317,0,1,0,1.323,1.3A1.329,1.329,0,0,0,300.894,198.272Zm0,2.222a.908.908,0,0,1-.93-.918.918.918,0,0,1,.93-.893.9.9,0,0,1,.907.893A.919.919,0,0,1,300.894,200.494Z"/>
      </g>
      <g>
        <path class="c" d="M95.763,32.17l-1.617,1.571a23.239,23.239,0,0,1,2.278,2.464l1.592-1.571A27.127,27.127,0,0,0,95.763,32.17Zm5.829,4.276-1.077.218V26.59h-2.3v3.334c-.661-.774-1.519-1.667-2.082-2.223l-1.616,1.546a27.689,27.689,0,0,1,2.229,2.488l1.469-1.425V37.1l-3.845.749v-.024a10.975,10.975,0,0,1-2.2-2.85h1.959v-2.3h-2.2V31.494l1.421.628a39.481,39.481,0,0,0,1.176-4.059L92.8,27.484a33.023,33.023,0,0,1-.882,3.623V26.59H89.836v4.324c-.221-1.135-.588-2.585-.833-3.43l-1.666.676c.319.942.76,2.682,1.054,3.914l1.445-.484v1.088H87.509v2.3h2.057a13.11,13.11,0,0,1-2.5,4.71l1.372,2.658a23.6,23.6,0,0,0,1.494-5.025l-.1,4.566V44.9h2.081V37.074a17.115,17.115,0,0,0,1.176,3.093l.882-1.619.318,1.884,3.919-.749V44.9h2.3V39.224l1.518-.29Z"/>
        <path class="c" d="M115.7,38.983l-2.351-.725a23.2,23.2,0,0,1-1.028,3.914h-.98V38.016h5.094V35.722h-5.094V33.934h3.184V32.678a19.861,19.861,0,0,0,2.327,1.256l1.1-2.585a14.429,14.429,0,0,1-6.711-4.663h-2.2a13.691,13.691,0,0,1-6.539,4.663l1.077,2.609a17.5,17.5,0,0,0,2.4-1.256v1.232h2.963v1.788h-5.021v2.294h5.021v4.156h-.857a33.546,33.546,0,0,0-1.127-3.866l-2.278.725a24.118,24.118,0,0,1,1.152,3.141h-2.572v2.319h13.863V42.172H114.6A30.394,30.394,0,0,0,115.7,38.983Zm-8.131-7.393a15.091,15.091,0,0,0,2.572-2.56,16.431,16.431,0,0,0,2.767,2.56Z"/>
        <path class="c" d="M131.3,26.082a2.431,2.431,0,0,0-2.351,2.465h-9.529v2.681s7.006-.1,9.724-.145c-.392,4.614-2.3,9.132-9.234,10.968l1.984,2.343c6.222-1.981,9.308-6.378,10.092-13.021a2.6,2.6,0,0,0,1.714-2.609A2.485,2.485,0,0,0,131.3,26.082Zm0,3.962c-.588,0-1-.531-1-1.28,0-.725.417-1.28,1.029-1.28a1.151,1.151,0,0,1,1.029,1.28A1.138,1.138,0,0,1,131.3,30.044Z"/>
        <path class="c" d="M136.471,27.773v2.489l10.116-.024V27.773ZM135.124,32.6v2.561c.416,0,6.907-.1,9.748-.145-.392,3.527-2.645,6.474-8.646,7.1l1.763,2.537c6.589-1.256,9.8-5.315,9.9-12.055Z"/>
        <path class="c" d="M161.821,29.609c-1.1,6.571-3.772,10.606-10.85,11.983l1.641,2.561c9.013-2.247,10.8-8.77,11.683-13.094Zm-9.479-1.183-1.812,2.029a18.935,18.935,0,0,1,4.825,3.745l1.837-2.344A18.913,18.913,0,0,0,152.342,28.426Z"/>
      </g>
    </g>
  </g>
</svg>
