<svg xmlns="http://www.w3.org/2000/svg" width="395" height="229" viewBox="0 0 395 229">
  <defs>
    <style>
      .a {
        fill: #fff;
      }

      .b {
        fill: #8cd278;
      }

      .c {
        fill: #383838;
      }

      .d {
        fill: #5fd273;
      }

      .e {
        fill: #323232;
      }

      .f {
        fill: #77dada;
      }
    </style>
  </defs>
  <g>
    <rect class="a" width="395" height="229" rx="10.991"/>
    <g>
      <path class="b" d="M153,134.239s-.4.245,3.607-4.5a52.3,52.3,0,0,0,5.891-8.735l2.437.638a3.414,3.414,0,0,0,4.05-1.86l1.543-3.6,1.543-3.6a3.335,3.335,0,0,0-1.472-4.16l-2.162-1.278a51.75,51.75,0,0,0,2.242-10.253c.656-6.144.757-5.689.757-5.689a3.123,3.123,0,0,0-1.961-3.246l-1.989-.829-10.1,23.581-10.1,23.583,1.989.829A3.2,3.2,0,0,0,153,134.239Z"/>
      <g>
        <path class="c" d="M100.705,71.351l-.145-1.858a2.2,2.2,0,0,0-1.262-1.6l-2.842-1.146a1.485,1.485,0,0,1-.67-1.381V64.93a1.809,1.809,0,0,1,.1-.605,5.805,5.805,0,0,0,1.882-3.919c0-2.854-1.85-4.69-4.134-4.69S89.5,57.552,89.5,60.406a5.8,5.8,0,0,0,1.883,3.919,1.861,1.861,0,0,1,.1.605v.434a1.486,1.486,0,0,1-.671,1.381l-2.843,1.146a2.2,2.2,0,0,0-1.26,1.6l-.146,1.858h14.138Z"/>
        <path class="c" d="M81.523,50.533v28.32h24.226V50.533Zm21.534,23.01H84.215V53.188h18.842Z"/>
      </g>
      <g>
        <path class="c" d="M112.8,113.3l-.131-1.669a1.975,1.975,0,0,0-1.134-1.44l-2.554-1.03a1.335,1.335,0,0,1-.6-1.241v-.39a1.623,1.623,0,0,1,.092-.544,5.219,5.219,0,0,0,1.691-3.522c0-2.565-1.663-4.214-3.715-4.214s-3.715,1.649-3.715,4.214a5.218,5.218,0,0,0,1.692,3.522,1.649,1.649,0,0,1,.092.544v.39a1.335,1.335,0,0,1-.6,1.241l-2.555,1.03a1.975,1.975,0,0,0-1.132,1.44L100.1,113.3H112.8Z"/>
        <path class="c" d="M95.562,94.588v25.45h21.772V94.588Zm19.353,20.678H97.981V96.974h16.933Z"/>
      </g>
      <g>
        <path class="c" d="M146.2,83.2l-.133-1.7a2.024,2.024,0,0,0-1.157-1.469l-2.6-1.05a1.361,1.361,0,0,1-.615-1.266v-.4a1.668,1.668,0,0,1,.094-.555,5.318,5.318,0,0,0,1.726-3.592c0-2.616-1.7-4.3-3.79-4.3s-3.789,1.682-3.789,4.3a5.318,5.318,0,0,0,1.726,3.592,1.693,1.693,0,0,1,.093.555v.4a1.361,1.361,0,0,1-.615,1.266l-2.6,1.05a2.018,2.018,0,0,0-1.156,1.469l-.134,1.7H146.2Z"/>
        <path class="c" d="M128.612,64.113V90.071h22.206V64.113ZM148.351,85.2H131.079V66.546h17.272Z"/>
      </g>
      <g>
        <path class="c" d="M132.522,137.817l-.08-1.028a1.22,1.22,0,0,0-.7-.886l-1.572-.634a.823.823,0,0,1-.371-.764v-.24a.983.983,0,0,1,.057-.335,3.209,3.209,0,0,0,1.041-2.167,2.305,2.305,0,1,0-4.574,0,3.208,3.208,0,0,0,1.042,2.167,1.033,1.033,0,0,1,.056.335v.24a.823.823,0,0,1-.371.764l-1.572.634a1.217,1.217,0,0,0-.7.886l-.081,1.028h7.821Z"/>
        <path class="c" d="M121.912,126.3v15.665h13.4V126.3Zm11.911,12.727H123.4V127.77h10.422Z"/>
      </g>
    </g>
    <path class="b" d="M96.953,179.166a6.668,6.668,0,0,0,6.679,6.031h29.946a6.67,6.67,0,0,0,6.68-6.031l3.316-41.743H93.636Zm32.778-32.509a1.972,1.972,0,0,1,3.936.234l-1.874,30.554a1.972,1.972,0,0,1-3.936-.235Zm-13.1.117a1.972,1.972,0,0,1,3.943,0v30.553a1.972,1.972,0,0,1-3.943,0Zm-11.242-1.941a1.962,1.962,0,0,1,2.087,1.824l1.877,30.553a1.972,1.972,0,0,1-3.936.234l-1.877-30.553A1.954,1.954,0,0,1,105.391,144.833Z"/>
    <g>
      <g>
        <g>
          <path class="a" d="M238.155,112.65a1.069,1.069,0,0,0,.6.771c-.244-.61-.5-1.24-.7-1.869A5.242,5.242,0,0,0,238.155,112.65Z"/>
          <path class="a" d="M231.163,110.959a24.433,24.433,0,0,1-.115-4.733c-.79-.176-1.5-.1-1.819.819-.457,1.345-.2,3.1-.173,4.516.012.614-.2,1.685.4,2.044.489.292,1.814.3,1.844-.461a1.1,1.1,0,0,1,.047-.279A15.524,15.524,0,0,1,231.163,110.959Z"/>
          <path class="a" d="M236.108,108.971a22.646,22.646,0,0,1,.213-3.476c-.889-.62-2.565-.935-3.009.27-.475,1.287-.15,3.063-.094,4.414.036.9-.23,2.968.765,3.488.607.317,2.12.031,2.1-.819A18.154,18.154,0,0,1,236.108,108.971Z"/>
          <path class="a" d="M232.826,138.234a20.078,20.078,0,0,0,8.885.015,17.094,17.094,0,0,0,7.61-3.282c.036-.031.073-.058.11-.084a.99.99,0,0,1-.4-.556l-.667-2.2a19.846,19.846,0,0,1-7.754,3.128,23.063,23.063,0,0,1-8.442.31Z"/>
          <path class="d" d="M241.405,85.474l.453-4.248c.141-1.317-1.95-1.308-2.09,0l-.453,4.248C239.174,86.792,241.265,86.783,241.405,85.474Z"/>
          <path class="d" d="M234.7,87.112c.6,1.187,2.406.144,1.805-1.04l-2.493-4.919c-.6-1.186-2.4-.143-1.8,1.041Z"/>
          <path class="d" d="M227.139,88.6l3.853,2.012c1.188.621,2.246-1.158,1.055-1.78l-3.853-2.012C227.006,86.2,225.948,87.979,227.139,88.6Z"/>
          <path class="e" d="M249.913,130.044a1.062,1.062,0,0,0-1.747-.455c-.016.016-.033.03-.049.045q-.187-1-.373-1.995a.888.888,0,0,0-.35-.584,27.223,27.223,0,0,0,3.191-13.147,1,1,0,0,0-1.3-.962,24.252,24.252,0,0,1,.279,3.436,24.252,24.252,0,0,0-.279-3.436.977.977,0,0,0-.788.962,28.936,28.936,0,0,1-.9,7.031,32.563,32.563,0,0,1-2.771,6.565,1.082,1.082,0,0,0,1.067,1.554q.186.993.371,1.986a19.549,19.549,0,0,1-6.21,2.22,22.022,22.022,0,0,1-6.227.439,1.049,1.049,0,0,0-.015-.411q-.282-1.246-.565-2.492c-.108-.477-.2-.96-.325-1.434a2.061,2.061,0,0,0-.912-1.176c-3.212-2.625-3.8-7.183-2.978-11a1.1,1.1,0,0,0-1.278-1.276,18.828,18.828,0,0,0-.135,3.975,18.828,18.828,0,0,1,.135-3.975.872.872,0,0,0-.737.728c-1.041,4.864-.071,10.058,3.893,13.293q.389,1.71.776,3.42c-.222-.054-.442-.112-.661-.178a1.048,1.048,0,0,0-1.285,1.268l.99,4a7.088,7.088,0,0,0,.651-.832,7.088,7.088,0,0,1-.651.832c.061.248.123.5.184.744a1.155,1.155,0,0,0,.057.169.961.961,0,0,0,.7.7,22.027,22.027,0,0,0,10.6.176,19.106,19.106,0,0,0,8.533-3.811.924.924,0,0,0-.181-1.54.906.906,0,0,0,.44-1.042,4.3,4.3,0,0,0-1.287-.352,4.3,4.3,0,0,1,1.287.352c0-.022-.007-.042-.014-.064Zm-.592,4.923a17.094,17.094,0,0,1-7.61,3.282,20.078,20.078,0,0,1-8.885-.015l-.66-2.672a23.063,23.063,0,0,0,8.442-.31,19.846,19.846,0,0,0,7.754-3.128l.667,2.2a.99.99,0,0,0,.4.556C249.394,134.909,249.357,134.936,249.321,134.967Z"/>
          <path class="e" d="M249.967,90.789a3,3,0,0,0-2.016-2.4,3.242,3.242,0,0,0-3.432,1.213,7.567,7.567,0,0,0-1.046,3.949c-.109,1.664-.1,3.338-.187,5-.084,1.539-.191,3.076-.312,4.612a2.724,2.724,0,0,0-.917-.583,4.827,4.827,0,0,0-4.078.372,3.258,3.258,0,0,0-.8.657c-1.7-.969-4.115-1.108-5.364.57-.023.03-.041.063-.062.094-1.7-.43-3.516-.1-4.321,1.644-.858,1.859-.51,4.307-.452,6.311a4.175,4.175,0,0,0,.422,2.229,2.561,2.561,0,0,0,.457.532c.062-.507.123-1.007.173-1.5-.05.489-.111.989-.173,1.5a3.364,3.364,0,0,0,1.634.774,3.642,3.642,0,0,0,2.931-.672,2.977,2.977,0,0,0,1.464.691,4.144,4.144,0,0,0,3.308-.866,3.061,3.061,0,0,0,.476.319,3.354,3.354,0,0,0,1.818.362c0,.022.01.044.014.066.1.524.2,1.139-.247,1.522a6.954,6.954,0,0,1-.981.5,7.533,7.533,0,0,0-1.051.754,6.348,6.348,0,0,0-2,3.267,9.242,9.242,0,0,0,.36,5.411c.477,1.226,2.5.693,2.015-.548-.062-.159-.116-.321-.166-.485a8.177,8.177,0,0,1-.356-2.484,5.125,5.125,0,0,1,.628-2.528,5.664,5.664,0,0,1,2.5-2.051c2.34-1.294,1.315-4.225.611-6.172a13.093,13.093,0,0,1-1.009-3.4c-.049-.745.379-.968.976-1.1,1.331.953,2.1,2.946,2.772,4.313a37.114,37.114,0,0,0,2.67,5.19,1.105,1.105,0,0,0,.142.166c.82.8,2.387-.176,1.662-1.206-1.65-2.349-2.493-5.186-3.972-7.639a7.055,7.055,0,0,0-2.452-2.759c-1.014-.519-2.675.216-3.361,1.1.022-.538.057-1.075.129-1.6a1.633,1.633,0,0,1,1.516-1.527c1.764-.319,2.082.884,2.66,2.192a1.023,1.023,0,0,0,.188.29,1.094,1.094,0,0,0,2.045-.418q.243-2.574.421-5.155c.106-1.49.2-2.98.258-4.473a40.943,40.943,0,0,1,.2-4.262c.117-.812.312-2.118,1.344-2.215.88-.082.975.893,1.023,1.563a18.413,18.413,0,0,1-.088,2.289c-.09,1.711-.035,3.442-.062,5.156-.058,3.754-.137,7.508-.165,11.263a1.016,1.016,0,0,0,1.359.952c-.181-1.079-.383-2.158-.551-3.237.168,1.079.37,2.158.551,3.237a.954.954,0,0,0,.731-.952c.029-3.863.112-7.725.17-11.588.026-1.7-.038-3.423.081-5.12A10.766,10.766,0,0,0,249.967,90.789ZM231.3,113.144c-.03.762-1.355.753-1.844.461-.6-.359-.39-1.43-.4-2.044-.027-1.412-.284-3.171.173-4.516.314-.923,1.029-1,1.819-.819a24.433,24.433,0,0,0,.115,4.733,15.524,15.524,0,0,0,.186,1.906A1.1,1.1,0,0,0,231.3,113.144Zm4.806-4.173a18.154,18.154,0,0,0-.025,3.877c.02.85-1.493,1.136-2.1.819-1-.52-.729-2.587-.765-3.488-.056-1.351-.381-3.127.094-4.414.444-1.2,2.12-.89,3.009-.27A22.646,22.646,0,0,0,236.108,108.971Zm2.652,4.45a1.069,1.069,0,0,1-.6-.771,5.242,5.242,0,0,1-.1-1.1C238.26,112.181,238.516,112.811,238.76,113.421Z"/>
          <path class="a" d="M249.068,111.579a1.016,1.016,0,0,1-1.359-.952c.028-3.755.107-7.509.165-11.263.027-1.714-.028-3.445.062-5.156a18.413,18.413,0,0,0,.088-2.289c-.048-.67-.143-1.645-1.023-1.563-1.032.1-1.227,1.4-1.344,2.215a40.943,40.943,0,0,0-.2,4.262c-.06,1.493-.152,2.983-.258,4.473q-.181,2.58-.421,5.155a1.094,1.094,0,0,1-2.045.418,1.023,1.023,0,0,1-.188-.29c-.578-1.308-.9-2.511-2.66-2.192a1.633,1.633,0,0,0-1.516,1.527c-.072.53-.107,1.067-.129,1.6.686-.888,2.347-1.623,3.361-1.1a7.055,7.055,0,0,1,2.452,2.759c1.479,2.453,2.322,5.29,3.972,7.639.725,1.03-.842,2-1.662,1.206a1.105,1.105,0,0,1-.142-.166,37.114,37.114,0,0,1-2.67-5.19c-.669-1.367-1.441-3.36-2.772-4.313-.6.129-1.025.352-.976,1.1a13.093,13.093,0,0,0,1.009,3.4c.7,1.947,1.729,4.878-.611,6.172a5.664,5.664,0,0,0-2.5,2.051,5.125,5.125,0,0,0-.628,2.528,8.177,8.177,0,0,0,.356,2.484c.05.164.1.326.166.485.483,1.241-1.538,1.774-2.015.548a9.242,9.242,0,0,1-.36-5.411,6.348,6.348,0,0,1,2-3.267,7.533,7.533,0,0,1,1.051-.754,6.954,6.954,0,0,0,.981-.5c.443-.383.346-1,.247-1.522,0-.022-.009-.044-.014-.066a3.354,3.354,0,0,1-1.818-.362,3.061,3.061,0,0,1-.476-.319,4.144,4.144,0,0,1-3.308.866,2.977,2.977,0,0,1-1.464-.691,3.642,3.642,0,0,1-2.931.672,3.364,3.364,0,0,1-1.634-.774c-.037.3-.075.611-.11.919a1.1,1.1,0,0,1,1.278,1.276c-.818,3.82-.234,8.378,2.978,11a2.061,2.061,0,0,1,.912,1.176c.123.474.217.957.325,1.434q.282,1.246.565,2.492a1.049,1.049,0,0,1,.015.411,22.022,22.022,0,0,0,6.227-.439,19.549,19.549,0,0,0,6.21-2.22q-.184-.993-.371-1.986a1.082,1.082,0,0,1-1.067-1.554,32.563,32.563,0,0,0,2.771-6.565,28.936,28.936,0,0,0,.9-7.031.977.977,0,0,1,.788-.962C249.218,112.49,249.145,112.035,249.068,111.579Z"/>
          <path class="e" d="M256.619,181.273q-1.167,1.3-2.459,2.517,1.294-1.219,2.459-2.517a.905.905,0,0,0-1.385.033c-2.119,2.442-5.546,2.779-8.582,2.189a11.019,11.019,0,0,1-3.276-1.083,8.733,8.733,0,0,1-2.82-2.9c-2.033-3.1-3.027-6.792-3.858-10.352-.954-4.09-1.694-8.229-2.54-12.34q-1.713-8.316-3.675-16.578a.9.9,0,0,0-.562-.672,1.714,1.714,0,0,0,.2,1.963,1.714,1.714,0,0,1-.2-1.963,1.082,1.082,0,0,0-1.453,1.22q1.905,7.968,3.553,15.992c.932,4.5,1.724,9.043,2.8,13.515.887,3.681,2,7.551,4.225,10.691a10.564,10.564,0,0,0,7.048,4.5c3.731.725,8,.292,10.615-2.719A1.059,1.059,0,0,0,256.619,181.273Z"/>
        </g>
        <g>
          <path class="b" d="M279.641,126.5a12.378,12.378,0,0,1,.2-3.585c.031-.2.059-.405.088-.609a6.437,6.437,0,0,1-2.017-3.621,5.228,5.228,0,0,1,.413-2.264c-.788.453-1.6.891-2.335,1.4a1.034,1.034,0,0,1-.144,1.932,19.834,19.834,0,0,0-3.389,1.346c-1.369.638-2.71,1.332-4.034,2.057a9,9,0,0,0-3.438,2.835c-1.745,2.6-2.453,5.9-3.464,8.819-.806,2.326-1.63,4.649-2.491,6.959-1.2.345-1.84,2.815-3.078,4.489.06.2.124.4.185.6a1.32,1.32,0,0,1-.244-.05q-.4,1.567-.843,3.11a1.048,1.048,0,0,1-.257-.417c-1.428-4.215-2.468-8.58-3.564-12.889a1.074,1.074,0,0,1,1.675-1.089,3.866,3.866,0,0,0-1.849-1.683.906.906,0,0,1-.44,1.042.924.924,0,0,1,.181,1.54,19.106,19.106,0,0,1-8.533,3.811,22.027,22.027,0,0,1-10.595-.176.961.961,0,0,1-.7-.7,1.155,1.155,0,0,1-.057-.169c-.061-.248-.123-.5-.184-.744a5.752,5.752,0,0,0-.807,1.122.9.9,0,0,1,.562.672q1.974,8.259,3.675,16.578c.846,4.111,1.586,8.25,2.54,12.34.831,3.56,1.825,7.253,3.858,10.352a8.733,8.733,0,0,0,2.82,2.9,11.019,11.019,0,0,0,3.276,1.083c3.036.59,6.463.253,8.582-2.189a.905.905,0,0,1,1.385-.033c7.514-8.338,11.414-18.9,18.232-28.611.209-.412.627-1.236-.209-1.649-2.509-2.044-4.962-4.649-7.595-6.586l.345-9.589c.068-1.883.132-3.832,2.208-4.577a8.113,8.113,0,0,1,2.418-.328c.74-.032,1.65-.074,2.014-.806.593-1.192,2.4-.146,1.805,1.04-.711,1.43-2.343,1.764-3.819,1.828-.74.031-1.852-.063-2.288.652-.46.757-.246,2.15-.277,3l-.267,7.42a2.566,2.566,0,0,1,1.756-.54,1.682,1.682,0,0,1,.93.5l2.149-1.568c.23-.747.583-1.476.844-2.2a.987.987,0,0,1-.59-1.177,31.5,31.5,0,0,1,4.823-10.037,1.019,1.019,0,0,1,.906-.467,1.1,1.1,0,0,1,.127-.409A.805.805,0,0,1,279.641,126.5Zm-2.885-2.491-3.585,5.037c-.768,1.078-2.579.047-1.805-1.041l3.585-5.036C275.719,121.889,277.531,122.92,276.756,124.008Z"/>
          <path class="a" d="M310.688,110.6a.948.948,0,0,1-1.5-.57l-.346-1.8c-3.333,1.569-6.715,3.038-10.006,4.692a70.672,70.672,0,0,0-9.3,5.632c.914,1.235,1.461,2.959,2.445,3.806a1.113,1.113,0,0,1,.155.162,3.2,3.2,0,0,0-.65-1.2,3.2,3.2,0,0,1,.65,1.2.836.836,0,0,1,.181.437,2.708,2.708,0,0,0,.161.3c.106-.113.211-.226.319-.336,3.414-3.477,7.815-6.11,12-8.583,1.985-1.174,4-2.316,6.035-3.4A2.839,2.839,0,0,1,310.688,110.6Z"/>
          <path class="a" d="M286.366,131.908a56.044,56.044,0,0,1,6.11-8.646,2.708,2.708,0,0,1-.161-.3,1.107,1.107,0,0,1-1.814.859,4.238,4.238,0,0,1-.568-.61c-1.5,1.96-2.726,4.116-4.238,6.067a1.038,1.038,0,0,1,.231.423A14.146,14.146,0,0,1,286.366,131.908Z"/>
          <path class="a" d="M310.105,175.847l-.256-.391q-7.079-10.81-14.158-21.622l-8.167-12.474-2.475-3.779c-.215-.329-.517-1.059-.836-1-.187.033-.491.358-.639.466l-1.356.99-4.439,3.24-4.766,3.479a4.8,4.8,0,0,1,.945,1.919c.148,1.339-1.234,1.966-2.182,2.6l-4.631,3.086-7.385,4.921a1.007,1.007,0,0,1-.456.172c-1.008.29-1.638-.369-2.143-1.127l-4.593,3.352-3.921,2.862a10.4,10.4,0,0,0-1,.733c-.269.253-.276.073-.152.4a5.816,5.816,0,0,0,.649.972l1.534,2.3,4.369,6.553,6.219,9.328a1.07,1.07,0,0,1,.139.291,3.444,3.444,0,0,1,1.344-.915,14.921,14.921,0,0,1,4.264-.6l5.125-.4c2.724-.21,6.151-.954,8.507.833a8.787,8.787,0,0,1,2.241,3c.59,1.089,1.371,2.584,2.8,2.649a1.121,1.121,0,0,1,.381.084l.019-.008,2.665-.83c0-.037,0-.075,0-.112a1.074,1.074,0,0,1,.767-.994l2.3-.776q11.206-3.784,22.412-7.575l-1.345-1.581A1.092,1.092,0,0,1,310.105,175.847Z"/>
          <path class="a" d="M281.137,187.756c-.867-1.1-1.306-2.48-2.207-3.554-1.071-1.278-2.7-1.3-4.252-1.211-1.8.1-3.594.273-5.389.411s-3.618.223-5.414.42c-1.251.137-2.99.764-1.817,2.254.905,1.15,2.722,1.035,4.035,1.04a9.092,9.092,0,0,1,4.45.856,1.238,1.238,0,0,1,.177.118l1.243-.621c1.2-.6,2.256,1.18,1.055,1.78l-6.865,3.428c-1.2.6-2.255-1.181-1.055-1.78l3.187-1.591a32.136,32.136,0,0,0-4.384-.277.942.942,0,0,1-.332,1.408,2.181,2.181,0,0,0,.331,4.073c.753.23,1.509.291,1.962,1.021.5.811.1,1.478-.2,2.26-.373.991.635,1.732.919,2.622a4.009,4.009,0,0,1,.045,1.883c-.073.432-.289.867-.341,1.3a4.136,4.136,0,0,0,.441,1.778,3.985,3.985,0,0,0,1.581,2.2,6.224,6.224,0,0,0,2.841.734c4.668.261,9.257-1.487,13.662-2.769a1.008,1.008,0,0,1,1.288,1.082,7.413,7.413,0,0,1,2.117-.886c-2.012-5.1-3.817-10.522-3.908-16.019A4.793,4.793,0,0,1,281.137,187.756Z"/>
          <path class="b" d="M338.95,182.817c-.539-5.953-1.174-11.9-1.951-17.825-1.192-9.1-2.765-18.138-4.47-27.154-.227-1.2-.462-2.4-.686-3.606a22.933,22.933,0,0,0-.845-3.85,12.822,12.822,0,0,0-3.679-4.842,35.659,35.659,0,0,0-10.877-6.3A1.087,1.087,0,0,1,315.76,118a.852.852,0,0,1-.6-.518q-1.187-2.614-2.372-5.23-.91.478-1.813.968a119.06,119.06,0,0,0-11.992,7.3,31.392,31.392,0,0,0-5.1,4.272,60.783,60.783,0,0,0-5.985,8.583,1.042,1.042,0,0,1-1.481.3.881.881,0,0,1-.215.366c-.164.323-.316.651-.45.982a2.84,2.84,0,0,1,.388.441c1.269,1.765,2.415,3.633,3.589,5.468a19.356,19.356,0,0,1,4-4.227c1.421-1.047,3.033-1.812,4.527-2.75a27.843,27.843,0,0,0,3.286-2.327c1.1-.941,1.623-2,.36-3.059-1.9-1.595-4.679-2.084-4.931-4.985-.115-1.323,1.976-1.312,2.09,0,.115,1.33,1.9,1.964,2.9,2.538a5.772,5.772,0,0,1,2.568,2.495c1.231,2.812-1.809,4.8-3.8,6.18-1.67,1.158-3.485,2.061-5.187,3.163a17.178,17.178,0,0,0-4.475,4.646,1.221,1.221,0,0,1-.147.169l8.261,12.616,12.717,19.421a.877.877,0,0,1-.034,1.084l1.345,1.581,4.032-1.362c1.277-.432,1.821,1.56.556,1.988l-8.375,2.831q-9.807,3.317-19.616,6.628a28.932,28.932,0,0,0,2.014,9.348c1.154,3.32,2.571,6.54,4.012,9.746a1.126,1.126,0,0,1,.08.256c4.132-.988,8.254-2.015,12.351-3.133,6.548-1.787,13.012-3.844,19.437-6.02,2.723-.922,5.992-1.576,8.2-3.526,2.29-2.022,2.906-4.964,2.851-7.886a1.043,1.043,0,0,1,1.681-.8,8.146,8.146,0,0,0,.165-1.864A1.135,1.135,0,0,1,338.95,182.817Zm-34.364-56.889c-.75,1.095-2.56.062-1.805-1.04l5.287-7.725c.75-1.095,2.559-.062,1.805,1.04Zm9.655,47.285q-.33-1.746-.661-3.491-2.335-12.333-4.672-24.666c-.246-1.3,1.769-1.85,2.016-.548l.661,3.492q2.336,12.333,4.672,24.665C316.5,173.964,314.488,174.515,314.241,173.213Zm-1.027-43.744a15.926,15.926,0,0,0-3.025,9.307c-.05,1.324-2.14,1.326-2.09,0a18.008,18.008,0,0,1,3.482-10.566,13.345,13.345,0,0,1,8.374-4.923c1.318-.216,1.879,1.771.556,1.988A11.482,11.482,0,0,0,313.214,129.469Zm12.606,46.522a16.606,16.606,0,0,0-7.53-1.889,1.031,1.031,0,0,1,0-2.062,18.955,18.955,0,0,1,8.584,2.171C328.065,174.833,327.008,176.612,325.82,175.991Z"/>
          <path class="d" d="M284.374,133.347a11.962,11.962,0,0,0-.463-3.1.932.932,0,0,1,.109-.8,1.061,1.061,0,0,1-.154-.153.965.965,0,0,1-.964-.034,3.739,3.739,0,0,0-1.845-.5,1.036,1.036,0,0,1-.155.345,29.922,29.922,0,0,0-4.612,9.544.98.98,0,0,1-1.425.629c-.261.721-.614,1.45-.844,2.2l5.12-3.737,3.4-2.484c1.03-.752,2.235-1.128,3.213-.23.134-.331.286-.659.45-.982A1.074,1.074,0,0,1,284.374,133.347Z"/>
          <path class="f" d="M310.688,110.6a2.839,2.839,0,0,0,.138.339c.333-.177.669-.348,1-.522-.214-.32-.415-.644-.632-.964l0,.029A1.031,1.031,0,0,1,310.688,110.6Z"/>
          <path class="a" d="M312.66,88.839a5.506,5.506,0,0,0-.06-3.4c-.443-1.13-1.939-2.589-3.161-1.6a1.12,1.12,0,0,1-1.817-.929,3.968,3.968,0,0,1-.571-.453.869.869,0,0,1-1.112.034c-3.333-2.289-4.857-5.813-5.447-9.684a1.064,1.064,0,0,1,.383-1,6.84,6.84,0,0,0-.9-.667.945.945,0,0,1-1.426-.325c-.09-.171-.187-.335-.285-.5a21.134,21.134,0,0,0-5.678-1.031,1.03,1.03,0,0,1-1.3,1.043,13.867,13.867,0,0,0-11.111,1.814.919.919,0,0,1-1.316-.259,3.136,3.136,0,0,1-2.2,1.005,8.034,8.034,0,0,0,.459.961,1.058,1.058,0,0,1-1.029,1.545c.031.424.067.849.1,1.273a.823.823,0,0,1,.769.741,90.426,90.426,0,0,1,.738,11.634c.116,3.374.075,6.921,1.023,10.194a13.6,13.6,0,0,0,7.3,8.82c3.064,1.334,6.732.819,9.768-.322s5.973-3.224,7.284-6.251c.527-1.217,2.327-.166,1.805,1.041-1.626,3.753-5.5,6.229-9.3,7.468a14.88,14.88,0,0,1-10.61-.156c-.205-.092-.405-.193-.6-.3v1.338a.984.984,0,0,1,1.076.994c0,.781-.04,1.561-.042,2.342,0,.031,0,.062,0,.092.912.816,1.816,1.643,2.732,2.448a1.113,1.113,0,0,1,.153.165,70.788,70.788,0,0,1,9.5-5.772c3.176-1.6,6.437-3.02,9.656-4.528a4.606,4.606,0,0,1-.043-.575.932.932,0,0,1-.9-.988q.136-4.617.272-9.232a.967.967,0,0,1,.5-.852,1.019,1.019,0,0,1,.583-1.859C310.361,93.246,312.068,91.031,312.66,88.839Zm-25.73,3.645a1.078,1.078,0,0,1,.739-.3l.486.01a1.11,1.11,0,0,1,.739.3,1.02,1.02,0,0,1,0,1.457,1.071,1.071,0,0,1-.739.3l-.486-.01a1.107,1.107,0,0,1-.739-.3,1.021,1.021,0,0,1,0-1.458Zm-3.4-7.74a1.031,1.031,0,0,1,0-2.062A1.031,1.031,0,0,1,283.526,84.744Zm9.664,15.743c-2.014,1.539-5.842,1.842-7.708-.128-.918-.969.558-2.429,1.478-1.458,1.018,1.075,3.616,1,4.752.128C292.763,98.226,294.252,99.676,293.19,100.487Zm2.5-15.32a1.031,1.031,0,0,1,0-2.061A1.031,1.031,0,0,1,295.687,85.167Z"/>
          <path class="b" d="M277.657,64.959a8.28,8.28,0,0,0-1,7.926,3.136,3.136,0,0,0,2.2-1.005,1.044,1.044,0,0,1,.261-1.521,15.972,15.972,0,0,1,12.722-2.021.935.935,0,0,1,.74.944,21.134,21.134,0,0,1,5.678,1.031c-1.751-2.878-4.85-4.371-8.14-5.02a22.671,22.671,0,0,0-5.063-.384c-1.57.046-3.832.2-4.678,1.737-.644,1.167-2.448.125-1.805-1.041,1.081-1.957,3.474-2.539,5.563-2.709a24.214,24.214,0,0,1,6,.311c4.164.71,8.2,2.743,10.207,6.562a1.02,1.02,0,0,1-.378,1.366,6.84,6.84,0,0,1,.9.667c.552-.46,1.5-.421,1.633.455.5,3.285,1.617,6.482,4.485,8.452a1.093,1.093,0,0,1,.058,1.746,3.968,3.968,0,0,0,.571.453.9.9,0,0,1,.34-.529,3.718,3.718,0,0,1,4.371-.316c.16-.229.336-.457.473-.7-.673.659-2.1.106-1.754-.98a24.575,24.575,0,0,0,1.555-8.931,6.668,6.668,0,0,0-1.224-3.723,5.719,5.719,0,0,0-3.631-1.911,1.1,1.1,0,0,1-1.731-1.072c.86-4.266-4.138-6.112-7.526-6.635a27.266,27.266,0,0,0-8.97.268,25.753,25.753,0,0,0-9.156,3.167.963.963,0,0,1-1.441-.48,13,13,0,0,0-2.463,2.43C277.288,63.293,278.266,64.109,277.657,64.959Z"/>
          <path class="a" d="M287.787,189.075l-1.39.433c.058,5.513,1.953,10.95,3.985,16.052l2.388-.725c-1.065-2.429-2.083-4.879-2.954-7.383A34.437,34.437,0,0,1,287.787,189.075Z"/>
          <path class="a" d="M286.37,117.963,283,114.994a6.9,6.9,0,0,1-.914-.8.727.727,0,0,1-.24-.129c-.18.408-.428.8-.631,1.192-.494.948-1.3,2.174-1.219,3.29a2.6,2.6,0,0,0,.543,1.309,4.075,4.075,0,0,1,.257-.477C282.132,117.255,284.326,117.269,286.37,117.963Z"/>
          <path class="d" d="M284.264,127.737c1.374-1.857,2.539-3.862,3.955-5.689a1.091,1.091,0,0,1,.737-.424c-.126-.235-.249-.468-.374-.7a.965.965,0,0,1-.877-.077c-1.722-1-4.689-2.4-5.475.4-.047.165-.085.333-.119.5a1.1,1.1,0,0,1-.171,1.1c-.033.253-.065.5-.1.75a8.613,8.613,0,0,0-.183,2.35,1.062,1.062,0,0,1-.172.761,5.921,5.921,0,0,1,2.472.765A1.069,1.069,0,0,1,284.264,127.737Z"/>
          <path class="e" d="M314.881,88.369a6.619,6.619,0,0,0-1-4.89c-1.434-1.966-3.93-2.714-5.919-1.1-1.04.844.446,2.3,1.477,1.458,1.222-.991,2.718.468,3.161,1.6a5.506,5.506,0,0,1,.06,3.4c-.592,2.192-2.3,4.407-4.807,4.271a1.019,1.019,0,0,0-.583,1.859.967.967,0,0,0-.5.852q-.137,4.615-.272,9.232c-.039,1.326,2.051,1.325,2.09,0q.137-4.617.272-9.232a.929.929,0,0,0-.222-.662C312.04,94.878,314.415,91.551,314.881,88.369Z"/>
          <path class="e" d="M308.068,117.163l-5.287,7.725c-.755,1.1,1.055,2.135,1.805,1.04l5.287-7.725C310.627,117.1,308.818,116.068,308.068,117.163Z"/>
          <path class="e" d="M295.687,83.106a1.031,1.031,0,0,0,0,2.061A1.031,1.031,0,0,0,295.687,83.106Z"/>
          <path class="e" d="M283.526,84.744a1.031,1.031,0,0,0,0-2.062A1.031,1.031,0,0,0,283.526,84.744Z"/>
          <path class="e" d="M288.155,94.253a1.071,1.071,0,0,0,.739-.3,1.02,1.02,0,0,0,0-1.457,1.11,1.11,0,0,0-.739-.3l-.486-.01a1.078,1.078,0,0,0-.739.3,1.021,1.021,0,0,0,0,1.458,1.107,1.107,0,0,0,.739.3Z"/>
          <path class="e" d="M257.329,146.182c1.5-3.75,2.873-7.557,4.195-11.372,1.011-2.919,1.719-6.217,3.464-8.819a9,9,0,0,1,3.439-2.835c1.323-.725,2.664-1.419,4.033-2.057a19.834,19.834,0,0,1,3.389-1.346,1.032,1.032,0,0,0-.555-1.988,19.559,19.559,0,0,0-2.953,1.13c-1.308.575-2.588,1.212-3.85,1.879a15.651,15.651,0,0,0-4.146,2.721c-2.111,2.192-2.952,5.2-3.891,8q-1.645,4.9-3.45,9.737c-.55,1.474-1.105,2.946-1.691,4.4C254.818,146.868,256.838,147.4,257.329,146.182Z"/>
          <path class="e" d="M337.126,151.729c-.777-4.716-1.634-9.419-2.52-14.116q-.309-1.633-.621-3.266a31.634,31.634,0,0,0-.908-4.337,13.653,13.653,0,0,0-3.424-5.124A36.313,36.313,0,0,0,317,117.257a1.042,1.042,0,0,0-.033-.818l-2.781-6.131a1.069,1.069,0,0,0-1.43-.37c-2.7,1.374-5.357,2.862-7.966,4.405-4.181,2.473-8.582,5.106-12,8.583-2.561,2.609-4.483,5.9-6.429,8.982a14.146,14.146,0,0,0-.44-2.208,1.038,1.038,0,0,0-.231-.423c1.512-1.951,2.737-4.107,4.238-6.067a4.238,4.238,0,0,0,.568.61c1.01.868,2.494-.584,1.478-1.458-.984-.847-1.531-2.571-2.445-3.806a70.672,70.672,0,0,1,9.3-5.632c3.291-1.654,6.673-3.123,10.006-4.692l.346,1.8c.25,1.3,2.265.75,2.015-.548q-.291-1.518-.583-3.036a1.062,1.062,0,0,0-1.535-.616c-3.749,1.809-7.585,3.441-11.3,5.31a70.788,70.788,0,0,0-9.5,5.772,1.113,1.113,0,0,0-.153-.165c-.916-.805-1.82-1.632-2.732-2.448,0-.03,0-.061,0-.092,0-.781.041-1.561.042-2.342a1.046,1.046,0,0,0-2.09,0c0,.218,0,.436-.009.654-.131-.109-.261-.219-.393-.326a1.771,1.771,0,0,0-2.185-.333c-.61.427-.882,1.435-1.212,2.067-.749,1.436-1.759,3.077-1.638,4.753a6.437,6.437,0,0,0,2.017,3.621c-.029.2-.057.407-.088.609a12.413,12.413,0,0,0-.2,3.585.806.806,0,0,0,.491.682,1.1,1.1,0,0,0-.127.409,1.019,1.019,0,0,0-.906.467,31.5,31.5,0,0,0-4.823,10.037c-.317,1.289,1.7,1.839,2.015.548A29.922,29.922,0,0,1,280.9,129.1a1.036,1.036,0,0,0,.155-.345,3.739,3.739,0,0,1,1.845.5.965.965,0,0,0,.964.034,1.061,1.061,0,0,0,.154.153.932.932,0,0,0-.109.8,11.962,11.962,0,0,1,.463,3.1,1.062,1.062,0,0,0,2.048.322,1.042,1.042,0,0,0,1.481-.3,60.783,60.783,0,0,1,5.985-8.583,31.392,31.392,0,0,1,5.1-4.272,119.06,119.06,0,0,1,11.992-7.3q.9-.49,1.813-.968,1.186,2.615,2.372,5.23a.852.852,0,0,0,.6.518,1.087,1.087,0,0,0,.682,1.247,35.659,35.659,0,0,1,10.877,6.3A12.822,12.822,0,0,1,331,130.382a22.933,22.933,0,0,1,.845,3.85c.224,1.2.459,2.4.686,3.606,1.7,9.016,3.278,18.056,4.47,27.154.777,5.927,1.412,11.872,1.951,17.825.119,1.31,2.21,1.323,2.09,0C340.1,172.411,338.827,162.041,337.126,151.729Zm-57.135-33.186c-.079-1.116.725-2.342,1.219-3.29.2-.387.451-.784.631-1.192a.727.727,0,0,0,.24.129,6.9,6.9,0,0,0,.914.8l3.375,2.969c-2.044-.694-4.238-.708-5.579,1.412a4.075,4.075,0,0,0-.257.477A2.6,2.6,0,0,1,279.991,118.543Zm1.493,8.169a1.062,1.062,0,0,0,.172-.761,8.613,8.613,0,0,1,.183-2.35c.036-.245.068-.5.1-.75a1.1,1.1,0,0,0,.171-1.1c.034-.17.072-.338.119-.5.786-2.8,3.753-1.394,5.475-.4a.965.965,0,0,0,.877.077c.125.228.248.461.374.7a1.091,1.091,0,0,0-.737.424c-1.416,1.827-2.581,3.832-3.955,5.689a1.069,1.069,0,0,0-.308-.26A5.921,5.921,0,0,0,281.484,126.712Z"/>
          <path class="e" d="M319.955,123.287a13.345,13.345,0,0,0-8.374,4.923,18.008,18.008,0,0,0-3.482,10.566c-.05,1.326,2.04,1.324,2.09,0a15.926,15.926,0,0,1,3.025-9.307,11.482,11.482,0,0,1,7.3-4.194C321.834,125.058,321.273,123.071,319.955,123.287Z"/>
          <path class="e" d="M310.924,144.508c-.247-1.3-2.262-.75-2.016.548q2.337,12.333,4.672,24.666.332,1.744.661,3.491c.247,1.3,2.262.751,2.016-.548Q313.92,160.332,311.585,148Z"/>
          <path class="e" d="M338.762,186.341c.055,2.922-.561,5.864-2.851,7.886-2.207,1.95-5.476,2.6-8.2,3.526-6.425,2.176-12.889,4.233-19.437,6.02-4.1,1.118-8.219,2.145-12.351,3.133a1.126,1.126,0,0,0-.08-.256c-1.441-3.206-2.858-6.426-4.012-9.746a28.932,28.932,0,0,1-2.014-9.348q9.809-3.312,19.616-6.628l8.375-2.831c1.265-.428.721-2.42-.556-1.988q-13.221,4.471-26.444,8.937l-2.3.776a1.074,1.074,0,0,0-.767.994c0,.037,0,.075,0,.112l-2.665.83-.019.008a1.121,1.121,0,0,0-.381-.084c-1.424-.065-2.205-1.56-2.8-2.649a8.787,8.787,0,0,0-2.241-3c-2.356-1.787-5.783-1.043-8.507-.833l-5.125.4a14.921,14.921,0,0,0-4.264.6,3.444,3.444,0,0,0-1.344.915,1.07,1.07,0,0,0-.139-.291l-6.219-9.328-4.369-6.553-1.534-2.3a5.816,5.816,0,0,1-.649-.972c-.124-.324-.117-.144.152-.4a10.4,10.4,0,0,1,1-.733l3.921-2.862,4.593-3.352c.5.758,1.135,1.417,2.143,1.127a1.007,1.007,0,0,0,.456-.172l7.385-4.921,4.631-3.086c.948-.632,2.33-1.259,2.182-2.6a4.8,4.8,0,0,0-.945-1.919l4.766-3.479,4.439-3.24,1.356-.99c.148-.108.452-.433.639-.466.319-.057.621.673.836,1l2.475,3.779,8.167,12.474q7.08,10.81,14.158,21.622l.256.391c.727,1.11,2.537.078,1.805-1.041l-12.717-19.421-8.261-12.616a1.221,1.221,0,0,0,.147-.169,17.178,17.178,0,0,1,4.475-4.646c1.7-1.1,3.517-2,5.187-3.163,1.986-1.377,5.026-3.368,3.8-6.18a5.772,5.772,0,0,0-2.568-2.495c-1-.574-2.782-1.208-2.9-2.538-.114-1.312-2.205-1.323-2.09,0,.252,2.9,3.03,3.39,4.931,4.985,1.263,1.06.741,2.118-.36,3.059a27.843,27.843,0,0,1-3.286,2.327c-1.494.938-3.106,1.7-4.527,2.75a19.356,19.356,0,0,0-4,4.227c-1.174-1.835-2.32-3.7-3.589-5.468-1.033-1.437-2.43-1.066-3.6-.211l-3.4,2.484-7.269,5.305a1.682,1.682,0,0,0-.93-.5,2.567,2.567,0,0,0-1.756.54l.267-7.42c.031-.855-.183-2.248.278-3,.435-.715,1.547-.621,2.287-.652,1.476-.064,3.108-.4,3.819-1.828.59-1.186-1.211-2.232-1.805-1.04-.364.732-1.274.774-2.014.806a8.113,8.113,0,0,0-2.418.328c-2.076.745-2.14,2.694-2.208,4.577q-.175,4.857-.35,9.714l-8.713,5.806c-.97.647-2.764,1.436-2.8,2.768a2.724,2.724,0,0,0,.47,1.4c-3.235,2.336-6.455,4.692-9.617,7.113-1.475,1.129-1.064,2.523-.2,3.81l3.471,5.206,8.25,12.374.556.834a1.044,1.044,0,0,0,1.3.384,3.467,3.467,0,0,0,.911,3.388,4.2,4.2,0,0,0,1.717,1.1,4.243,4.243,0,0,0,.955,7.768,3.73,3.73,0,0,1,.61.124c-.1-.017-.236.571-.162.255a6.764,6.764,0,0,0-.333,1.1,3.341,3.341,0,0,0,.309,1.558c.208.494.659.979.811,1.477a3.234,3.234,0,0,1-.211,1.741,3.728,3.728,0,0,0-.073,1.791c.5,2.566,1.944,4.737,4.562,5.473,2.671.752,5.648.295,8.312-.248,2.785-.567,5.475-1.452,8.2-2.245a1.032,1.032,0,0,0-.556-1.988c-4.405,1.282-8.994,3.03-13.662,2.769a6.224,6.224,0,0,1-2.841-.734,3.985,3.985,0,0,1-1.581-2.2,4.136,4.136,0,0,1-.441-1.778c.052-.428.268-.863.341-1.3a4.009,4.009,0,0,0-.045-1.883c-.284-.89-1.292-1.631-.919-2.622.3-.782.7-1.449.2-2.26-.453-.73-1.209-.791-1.962-1.021a2.181,2.181,0,0,1-.331-4.073.942.942,0,0,0,.332-1.408,32.136,32.136,0,0,1,4.384.277L265.1,190.9c-1.2.6-.144,2.378,1.055,1.78l6.865-3.428c1.2-.6.144-2.379-1.055-1.78l-1.243.621a1.238,1.238,0,0,0-.177-.118,9.092,9.092,0,0,0-4.45-.856c-1.313-.005-3.13.11-4.035-1.04-1.173-1.49.566-2.117,1.817-2.254,1.8-.2,3.612-.281,5.414-.42s3.591-.31,5.389-.411c1.551-.087,3.181-.067,4.252,1.211.9,1.074,1.34,2.451,2.207,3.554a4.793,4.793,0,0,0,3.172,1.954c.1,5.991,2.234,11.889,4.455,17.387a1.068,1.068,0,0,0,1.285.72l3.563-1.081q.213.477.427.954a.825.825,0,0,0,.874.532,1.025,1.025,0,0,0,1.255.747c7.5-1.788,14.95-3.734,22.305-6.026,3.5-1.091,6.984-2.247,10.456-3.427,2.885-.98,6.025-1.736,8.377-3.758,2.748-2.363,3.611-5.95,3.546-9.417A1.046,1.046,0,0,0,338.762,186.341ZM258.838,155.09l-.721-1.181c-.063-.1-.208-.447-.341-.639.224-.146.486-.384.6-.463l1.535-1.022q4.3-2.867,8.6-5.732l1.511-1.008c.067-.044.307-.164.494-.281a9.812,9.812,0,0,0,.556.831,10.426,10.426,0,0,0,.636,1.042.662.662,0,0,1,.041.076c-.566.33-1.672,1.2-1.821,1.3l-4.189,2.791-6.757,4.5C258.936,155.232,258.879,155.157,258.838,155.09Zm31.544,50.47c-2.032-5.1-3.927-10.539-3.985-16.052l1.39-.433a34.437,34.437,0,0,0,2.029,8.377c.871,2.5,1.889,4.954,2.954,7.383Z"/>
          <path class="e" d="M306.993,80.709c-2.868-1.97-3.985-5.167-4.485-8.452-.2-1.307-2.214-.752-2.016.548.59,3.871,2.114,7.395,5.447,9.684C307.045,83.248,308.091,81.462,306.993,80.709Z"/>
          <path class="e" d="M318.29,174.1a16.606,16.606,0,0,1,7.53,1.889c1.188.621,2.245-1.158,1.054-1.78a18.955,18.955,0,0,0-8.584-2.171A1.031,1.031,0,0,0,318.29,174.1Z"/>
          <path class="e" d="M274.952,122.968,271.366,128c-.774,1.088,1.037,2.119,1.805,1.041l3.585-5.037C277.531,122.92,275.719,121.889,274.952,122.968Z"/>
          <path class="e" d="M280.384,66.646c.846-1.533,3.108-1.691,4.678-1.737a22.671,22.671,0,0,1,5.063.384c3.475.686,6.739,2.31,8.425,5.517.619,1.178,2.423.137,1.8-1.041-2.007-3.819-6.043-5.852-10.207-6.562a24.214,24.214,0,0,0-6-.311c-2.089.17-4.482.752-5.563,2.709C277.936,66.771,279.74,67.813,280.384,66.646Z"/>
          <path class="e" d="M291.847,68.338a15.972,15.972,0,0,0-12.722,2.021c-1.118.728-.072,2.514,1.055,1.78a13.867,13.867,0,0,1,11.111-1.814A1.032,1.032,0,0,0,291.847,68.338Z"/>
          <path class="e" d="M280.369,61.545a25.753,25.753,0,0,1,9.156-3.167,27.266,27.266,0,0,1,8.97-.268c3.388.523,8.386,2.369,7.526,6.635a1.1,1.1,0,0,0,1.731,1.072,5.719,5.719,0,0,1,3.631,1.911,6.668,6.668,0,0,1,1.224,3.723,24.575,24.575,0,0,1-1.555,8.931c-.409,1.267,1.608,1.809,2.016.548,1.059-3.276,1.987-6.854,1.548-10.316a7.516,7.516,0,0,0-6.443-6.807c-.053-2.911-2.061-5.211-4.855-6.452-4.543-2.019-9.914-1.821-14.7-.9a26.968,26.968,0,0,0-9.3,3.309C278.185,60.479,279.232,62.264,280.369,61.545Z"/>
          <path class="e" d="M277.119,73.846a8.25,8.25,0,0,1,.538-8.887c.778-1.085-1.034-2.116-1.805-1.04a10.279,10.279,0,0,0-.538,10.968A1.043,1.043,0,0,0,277.119,73.846Z"/>
          <path class="a" d="M265.745,150.807l4.189-2.791c.149-.1,1.255-.973,1.821-1.3a.662.662,0,0,0-.041-.076,10.426,10.426,0,0,1-.636-1.042,9.812,9.812,0,0,1-.556-.831c-.187.117-.427.237-.494.281l-1.511,1.008q-4.3,2.865-8.6,5.732l-1.535,1.022c-.118.079-.38.317-.6.463.133.192.278.537.341.639l.721,1.181c.041.067.1.142.15.22Z"/>
          <path class="e" d="M285.482,100.359c1.866,1.97,5.694,1.667,7.708.128,1.062-.811-.427-2.261-1.478-1.458-1.136.868-3.734.947-4.752-.128C286.04,97.93,284.564,99.39,285.482,100.359Z"/>
          <path class="e" d="M284.97,109.833a14.88,14.88,0,0,0,10.61.156c3.8-1.239,7.676-3.715,9.3-7.468.522-1.207-1.278-2.258-1.805-1.041-1.311,3.027-4.238,5.107-7.284,6.251s-6.7,1.656-9.768.322a13.6,13.6,0,0,1-7.3-8.82c-.948-3.273-.907-6.82-1.023-10.194a90.426,90.426,0,0,0-.738-11.634c-.216-1.306-2.23-.751-2.015.548a89.174,89.174,0,0,1,.673,11.38c.129,3.656.116,7.513,1.267,11.028A15.584,15.584,0,0,0,284.97,109.833Z"/>
        </g>
        <path class="e" d="M256.812,148.956c-.3-.893-.585-1.793-.857-2.7a5.379,5.379,0,0,1-.541.632,5.379,5.379,0,0,0,.541-.632c-1.012-3.365-1.844-6.8-2.707-10.191a.961.961,0,0,0-.341-.541,3.52,3.52,0,0,1,.417,1.676,3.52,3.52,0,0,0-.417-1.676,1.074,1.074,0,0,0-1.675,1.089c1.1,4.309,2.136,8.674,3.564,12.889C255.221,150.756,257.24,150.219,256.812,148.956Z"/>
      </g>
      <g>
        <path class="c" d="M195.53,26.643h-6.245a8.742,8.742,0,0,0-1.174.078V25.79a8.384,8.384,0,0,0,1.174.078h15.074a8.2,8.2,0,0,0,1.174-.078v.931a8.351,8.351,0,0,0-1.174-.078h-6.323V29.4h2.114a10.714,10.714,0,0,0,1.468-.058,7.475,7.475,0,0,0-.1,1.453v6.125a7.493,7.493,0,0,0,.1,1.454,11.164,11.164,0,0,0-1.155-.058h-6.969a11.157,11.157,0,0,0-1.468.058,7.374,7.374,0,0,0,.1-1.454V30.791a7.723,7.723,0,0,0-.1-1.453,13.683,13.683,0,0,0,1.468.058h2.036Zm6.91,4.264a6.193,6.193,0,0,0-.1-1.162h2.78a7.624,7.624,0,0,0-.1,1.162v8.9a7.475,7.475,0,0,0,.1,1.453,11.453,11.453,0,0,0-1.155-.057H189.99a11.351,11.351,0,0,0-1.468.057,7.369,7.369,0,0,0,.1-1.453v-8.9a6.255,6.255,0,0,0-.1-1.162h2.78a7.5,7.5,0,0,0-.1,1.162v9.517H202.44Zm-8.006-.736v3.2h1.213v-3.2Zm0,3.973v3.392h1.213V34.144Zm4.776-3.973h-1.292v3.2h1.292Zm-1.292,7.365h1.292V34.144h-1.292Z"/>
        <path class="c" d="M212.017,40.657a7.506,7.506,0,0,0,.1,1.163h-2.6l.02-.194a6.087,6.087,0,0,0,.078-.969v-7.85c-.1.116-.1.116-.314.368A14.525,14.525,0,0,1,208,34.532l-.392.5-.548-.465.352-.407a31.826,31.826,0,0,0,3.563-9.032l.137-.931,2.937.892-.47.891a33.521,33.521,0,0,1-1.566,3.256Zm1.977-11.668c-.235.135-.294.174-.646.368l-.47.329-.47-.62.49-.29a13.173,13.173,0,0,0,2.936-3.9l.313-.737,2.682.678-.665.679c-.059.077-.079.1-.118.155h1.86c1.233,0,2.388-.019,2.9-.058v.581a16.778,16.778,0,0,1-2.819,1.939h3.152a10.533,10.533,0,0,0,1.468-.059,6.363,6.363,0,0,0-.1,1.26v1.376a6.532,6.532,0,0,0,.1,1.241,11.16,11.16,0,0,0-1.155-.059h-2.878a13.183,13.183,0,0,1-1.507.989,7.3,7.3,0,0,1,1.077,1.706c.156.174.235.271.333.387l.117-.116a18.059,18.059,0,0,0,1.9-2.248l.411-.62,2.016,1.686-.861.388A18.839,18.839,0,0,1,221,35.462a11.61,11.61,0,0,0,3.739,2.21l.861.252-1.311,2.6-.646-.62a12.942,12.942,0,0,1-2.662-3.043,8.368,8.368,0,0,1,.195,1.763,6.886,6.886,0,0,1-.1,1.221c-.176,1.338-.724,1.958-1.7,1.958a7.809,7.809,0,0,1-2.7-.62l-.724-.194-.118-.756a10.92,10.92,0,0,0,1.9.174c.626,0,.861-.135,1-.562a6.82,6.82,0,0,0,.235-1.628,29.253,29.253,0,0,1-5.637,2.094l-.568.194-.333-.7.587-.155a20.654,20.654,0,0,0,5.8-3.741c-.04-.175-.04-.194-.079-.349a23.191,23.191,0,0,1-5.383,2.132l-.49.214-.332-.679.567-.174a16.5,16.5,0,0,0,4.972-3.392.937.937,0,0,1-.1-.194,21.92,21.92,0,0,1-4.17,1.589l-.509.175L213,34.571l.529-.175a10.471,10.471,0,0,0,3.739-2.52H215.09a11.655,11.655,0,0,0-1.194.059,6.526,6.526,0,0,0,.1-1.241Zm4.7-.872a6.915,6.915,0,0,0,.979-1.687h-2.33a17.416,17.416,0,0,1-2.016,1.687Zm-.646.775h-1.8V31.1h1.8Zm4.17,2.209V28.892h-1.938V31.1Z"/>
        <path class="c" d="M228.68,40.773c0-.194-.02-.291-.059-.7a45.344,45.344,0,0,1-.176-4.554c0-2.288.078-3.838.352-7.753.039-.407.059-.776.059-.931a.63.63,0,0,0,.019-.155v-.058a5.561,5.561,0,0,0,.04-.659l2.564.369a2.22,2.22,0,0,0-.176.891c-.255,2.694-.392,5.543-.392,7.656a43.718,43.718,0,0,0,.274,5.582Zm9.729-13.9a4.243,4.243,0,0,0-.1-.969h2.682a5.4,5.4,0,0,0-.1.969v2.6h2.428a6.085,6.085,0,0,0,.978-.1v.969a4.432,4.432,0,0,0-.978-.1H240.9v5.835a28.425,28.425,0,0,1,3.054,1.415,3.312,3.312,0,0,0,.724.329L243.4,40.056l-.176-.214-.216-.213-.176-.174a16.039,16.039,0,0,0-1.938-1.609c-.039,2.287-1.39,3.373-4.169,3.373-2.428,0-3.955-1.124-3.955-2.927,0-1.822,1.527-3.023,3.876-3.023a10.425,10.425,0,0,1,1.762.155V30.248h-4.366a4.432,4.432,0,0,0-.978.1v-.969l.156.02.157.019a4.2,4.2,0,0,0,.665.058h4.366Zm0,9.691a7,7,0,0,0-2.31-.445c-1.507,0-2.545.871-2.545,2.131,0,1.241,1.136,2.151,2.662,2.151,1.449,0,2.193-.852,2.193-2.519Z"/>
        <path class="c" d="M250.471,35.521a21.471,21.471,0,0,0-1.663-2.191,15.452,15.452,0,0,1-1.429,1.9l-.372.562-.627-.466.372-.484a23.023,23.023,0,0,0,2.017-8.7h-1a8.73,8.73,0,0,0-1.174.077v-.93a8.529,8.529,0,0,0,1.174.077h5.756a8.344,8.344,0,0,0,1.174-.077v.93a8.344,8.344,0,0,0-1.174-.077h-2.252l-.039.194a14.467,14.467,0,0,1-.548,2.771h1.135c1,0,1.43,0,2.389-.058v.582c-.47,5.29-2.545,9.012-6.558,11.842l-.49.445-.528-.62.528-.368a15.427,15.427,0,0,0,3.231-5.214Zm-.019-5.641a15.294,15.294,0,0,1-1.174,2.656c.939.387,1.056.426,1.9.814a22.022,22.022,0,0,0,.607-3.47Zm9.847,4.652a10.074,10.074,0,0,0,.567,1.686,11.113,11.113,0,0,0,1.116-1.2l.49-.66,1.879,1.667-.685.485c-.8.678-1.253,1.027-1.86,1.454.568.872,1.077,1.415,1.292,1.415s.391-.7.49-1.822v-.737l.88.252-.058.679c.019.368.019.7.019.852a6.878,6.878,0,0,1-.235,2.326,1.387,1.387,0,0,1-1.272,1.008c-.959,0-2.134-.969-3.23-2.675a24.478,24.478,0,0,1-5.129,2.035l-.666.291-.371-.794.724-.214a20.758,20.758,0,0,0,4.679-2.694,13.063,13.063,0,0,1-1.058-3l-2.623.388-.861.174-.176-.911.959-.058,2.545-.369-.078-.368a18.054,18.054,0,0,1-.235-1.822l-1.664.194-.862.174-.137-.891.881-.039,1.7-.213-.039-.562c-.039-.523-.039-.523-.078-1.163l-.02-.31-1.625.174-.842.117-.137-.872.882-.02,1.683-.174c-.039-.446-.1-2.113-.1-3.1l-.1-.892h2.643l-.078.892c0,1.2.019,1.8.059,2.849l1.977-.214-.157-.542c-.333-.775-.45-1.008-.842-1.8l-.215-.407-.294-.368.627-.465.294.29.117.078a5.919,5.919,0,0,0,.509.349c.822.543,1.076.737,1.429,1.008l.548.291-1.9,1.55,1.292-.135.9-.136.058.852-.9.059-3.406.368c.058,1.2.1,1.512.137,1.977l3-.368.881-.155.1.872-.881.058-3.015.368.02.175c.1.794.137,1.1.293,1.977l3.426-.485.9-.155.1.872-.9.039Z"/>
        <path class="c" d="M282.58,33.757a3.82,3.82,0,0,0-.235.581,10.47,10.47,0,0,1-2.29,4.594,6.7,6.7,0,0,1-5.168,2.151,6.618,6.618,0,0,1-3.935-1.047c-1.1-.852-1.507-1.918-1.507-3.973,0-.872,0-.872.137-6.629l.039-1.472c.019-.621.039-.989.039-1.086V26.7a5.163,5.163,0,0,0-.1-.969h2.858a87.934,87.934,0,0,0-.313,9.845c0,1.783.117,2.327.626,3a3.308,3.308,0,0,0,2.76,1.143c2.35,0,4.288-1.434,5.5-4.07a6.437,6.437,0,0,0,.685-2.287Z"/>
        <path class="c" d="M294.134,26.178a4.3,4.3,0,0,0-.1-.969h2.78a5.4,5.4,0,0,0-.1.969v1.8H301.2a5.58,5.58,0,0,0,.978-.1v.969a4.432,4.432,0,0,0-.978-.1h-4.483v2.636h4.639a5.591,5.591,0,0,0,.979-.1v.969a4.435,4.435,0,0,0-.979-.1h-4.639V35.6a22.91,22.91,0,0,1,5.012,2.035,2.516,2.516,0,0,0,.685.291l-1.469,2.326a21.4,21.4,0,0,0-4.228-3.024v.407c0,2.384-1.508,3.528-4.64,3.528-2.8,0-4.443-1.144-4.443-3.082,0-1.88,1.762-3.062,4.561-3.062.509,0,1.233.038,1.938.1V32.167h-5.481a4.793,4.793,0,0,0-.979.1V31.3a5.992,5.992,0,0,0,.979.1h5.481V28.756h-5.305a3.682,3.682,0,0,0-.979.116v-.988a5.249,5.249,0,0,0,.979.1h5.305Zm0,10.021a9.234,9.234,0,0,0-2.545-.388c-1.918,0-3.132.872-3.132,2.268,0,1.376,1.214,2.268,3.113,2.268a2.557,2.557,0,0,0,2.075-.853,2.962,2.962,0,0,0,.489-1.938Z"/>
        <path class="c" d="M309.133,26.721a4.3,4.3,0,0,0-.1-.969h2.623l-.019.155-.02.155a4.123,4.123,0,0,0-.059.659V29.9h5.423v-.737c.02-1.376.02-1.376.02-1.861a6.091,6.091,0,0,0-.1-1.55h2.584a4.054,4.054,0,0,0-.1.853v2.267c0,.136,0,.155-.02,1.028h2.623a4.752,4.752,0,0,0,.979-.117v.989a4.381,4.381,0,0,0-.979-.1h-2.623l-.019.892c0,.407-.02.833-.02.833l-.059,1.047a2.074,2.074,0,0,1-2.29,2.248,7.026,7.026,0,0,1-2.623-.6c-.333-.116-.333-.116-.8-.252l.274-.775a3.374,3.374,0,0,0,1.821.445c.743,0,.979-.116,1.135-.562a7.842,7.842,0,0,0,.176-2.461c.02-.31.02-.407.02-.814H311.56V36.3c0,.988.2,1.511.646,1.841.529.368,1.116.446,3.426.446,1.136,0,1.136,0,3.191-.1a6.265,6.265,0,0,0,1.488-.174v2.481h-1.077l-.764.018c-.528.02-2.231.039-3.269.039-3.171,0-4.169-.193-5.011-.949-.744-.679-1.057-1.744-1.057-3.605V30.675h-2.565a4.373,4.373,0,0,0-.978.1v-.989a4.735,4.735,0,0,0,.978.117h2.565Z"/>
        <path class="c" d="M325.581,39.494a138.367,138.367,0,0,0,6.2-13.858c.059-.155.118-.33.176-.5A.55.55,0,0,0,332,25l2.546,1.027a4.806,4.806,0,0,0-.568,1.105c-.8,1.9-2.095,4.632-2.8,5.912a3.838,3.838,0,0,1,2.9-1.26,2.624,2.624,0,0,1,2.819,2.849l-.1,3.353c-.019.93.431,1.434,1.312,1.434a2.986,2.986,0,0,0,2.447-1.609,9.745,9.745,0,0,0,1.292-3.236,4,4,0,0,0,.079-.64l.88.291a2.828,2.828,0,0,0-.313.911c-.881,3.915-2.76,6.047-5.285,6.047a2.694,2.694,0,0,1-2.937-3l.1-3.625c.04-1.221-.352-1.841-1.155-1.841a2.972,2.972,0,0,0-2.368,1.647,54.563,54.563,0,0,0-2.878,5.951,7.04,7.04,0,0,0-.255.659l-2.31-1.221Z"/>
      </g>
    </g>
  </g>
</svg>
