<svg xmlns="http://www.w3.org/2000/svg" width="92.818" height="90.998" viewBox="0 0 92.818 90.998">
  <defs>
    <style>
      .a {
        fill: none;
      }

      .b {
        fill: #8cd278;
      }
    </style>
  </defs>
  <g>
    <rect class="a" width="92.818" height="90.998"/>
    <g>
      <g>
        <path class="b" d="M19.453,38.238c0-12.364,2.8-25.778,14.989-25.778,12.247,0,15.1,13.356,15.1,25.719,0,12.306-2.916,25.778-15.1,25.778S19.453,50.544,19.453,38.238Zm22.279-.117c0-8.923-1.4-17.9-7.29-17.9S27.21,29.256,27.21,38.179c0,8.982,1.341,17.905,7.232,17.905S41.732,47.1,41.732,38.121Z"/>
        <path class="b" d="M65.294,63.024V21.266H58.412V13.393H73.226V63.024Z"/>
      </g>
      <g>
        <rect class="b" x="8.866" y="79.017" width="77.117" height="4.428"/>
        <circle class="b" cx="85.983" cy="81.231" r="5.563"/>
        <circle class="b" cx="6.696" cy="81.231" r="5.563"/>
      </g>
    </g>
  </g>
</svg>
