<svg xmlns="http://www.w3.org/2000/svg" width="92.818" height="90.998" viewBox="0 0 92.818 90.998">
  <defs>
    <style>
      .a {
        fill: none;
      }

      .b {
        fill: #8cd278;
      }
    </style>
  </defs>
  <g>
    <rect class="a" width="92.818" height="90.998"/>
    <g>
      <g>
        <rect class="b" x="8.944" y="79.214" width="77.117" height="4.428"/>
        <circle class="b" cx="86.061" cy="81.428" r="5.563"/>
        <circle class="b" cx="6.774" cy="81.428" r="5.563"/>
      </g>
      <g>
        <path class="b" d="M16.987,37.72c0-12.088,2.738-25.2,14.654-25.2,11.974,0,14.768,13.057,14.768,25.146,0,12.03-2.85,25.2-14.768,25.2S16.987,49.751,16.987,37.72ZM38.769,37.6c0-8.723-1.369-17.5-7.128-17.5s-7.07,8.838-7.07,17.562c0,8.78,1.312,17.505,7.07,17.505S38.769,46.386,38.769,37.6Z"/>
        <path class="b" d="M49.484,61.9c.913-4.789,5.588-11.86,11.8-19.614S69.441,32.132,69.441,27.4c0-.8-.057-7.583-6.785-7.583-2.68,0-6.158.855-9.693,4.39V15.083A20.844,20.844,0,0,1,63.226,12.46h.057c9.408,0,13.856,6.615,13.856,14.255,0,8.324-4.391,13.513-11,21.154A44.5,44.5,0,0,0,61,54.711l16.25-.228V61.9Z"/>
      </g>
    </g>
  </g>
</svg>
