<svg xmlns="http://www.w3.org/2000/svg" width="92.818" height="90.998" viewBox="0 0 92.818 90.998">
  <defs>
    <style>
      .a {
        fill: none;
      }

      .b {
        fill: #8cd278;
      }
    </style>
  </defs>
  <g>
    <rect class="a" width="92.818" height="90.998"/>
    <g>
      <g>
        <rect class="b" x="8.997" y="78.172" width="77.117" height="4.428"/>
        <circle class="b" cx="86.114" cy="80.386" r="5.563"/>
        <circle class="b" cx="6.827" cy="80.386" r="5.563"/>
      </g>
      <g>
        <path class="b" d="M15.8,37.776c0-12.088,2.737-25.2,14.654-25.2,11.974,0,14.768,13.057,14.768,25.145,0,12.031-2.851,25.2-14.768,25.2S15.8,49.807,15.8,37.776Zm21.781-.114c0-8.724-1.368-17.5-7.127-17.5S23.385,29,23.385,37.719c0,8.781,1.311,17.5,7.07,17.5S37.582,46.443,37.582,37.662Z"/>
        <path class="b" d="M49.61,51a16.3,16.3,0,0,0,10.434,4.22c8.5,0,8.553-7.7,8.553-8.439,0-3.934-2.452-7.641-7.241-7.641h-.115a30.288,30.288,0,0,0-3.762.285V31.96a21.636,21.636,0,0,0,2.622.171c.456,0,.8-.057.97-.057C64.833,32.017,67,28.539,67,25.346c0-1.2-.284-5.7-6.785-5.7a14.861,14.861,0,0,0-9.18,3.535V14.855A20.75,20.75,0,0,1,60.9,12.46c10.719,0,13.341,7.184,13.341,12.487,0,4.333-1.71,8.553-4.5,10.377,4.277,1.881,6.5,6.786,6.5,11.86,0,6.785-3.934,15.566-16.364,15.566A18.065,18.065,0,0,1,49.61,59.785Z"/>
      </g>
    </g>
  </g>
</svg>
