<svg xmlns="http://www.w3.org/2000/svg" xmlns:xlink="http://www.w3.org/1999/xlink" width="352.107" height="251" viewBox="0 0 352.107 251">
  <defs>
    <style>
      .a {
        fill: none;
      }

      .b {
        fill: #fff;
      }

      .c {
        fill: #4cb35c;
      }

      .d {
        fill: #00b5d1;
      }

      .e {
        fill: #ebeaea;
      }

      .f {
        fill: url(#a);
      }

      .g {
        fill: url(#b);
      }

      .h {
        fill: #69bb6f;
      }

      .i {
        fill: #323333;
      }

      .j {
        fill: #363737;
      }

      .k {
        fill: #e9e9e9;
      }

      .l {
        fill: #343535;
      }
    </style>
    <pattern id="a" data-name="新規パターン1 5" width="12.5" height="12.5" patternTransform="matrix(0.258, -0.25, 0.258, 0.25, 109.28, 371.827)" patternUnits="userSpaceOnUse" viewBox="0 0 12.5 12.5">
      <rect class="a" width="12.5" height="12.5"/>
      <rect class="b" width="12.5" height="12.5"/>
      <circle class="c" cx="6.25" cy="6.25" r="2.431"/>
    </pattern>
    <pattern id="b" data-name="新規パターン1 5" width="12.5" height="12.5" patternTransform="matrix(0.258, -0.25, 0.258, 0.25, 107.734, 371.077)" patternUnits="userSpaceOnUse" viewBox="0 0 12.5 12.5">
      <rect class="a" width="12.5" height="12.5"/>
      <rect class="b" width="12.5" height="12.5"/>
      <circle class="c" cx="6.25" cy="6.25" r="2.431"/>
    </pattern>
  </defs>
  <g>
    <rect class="a" x="0.107" width="352" height="251"/>
    <g>
      <path class="d" d="M70.636,126.405a.093.093,0,0,1,.036-.018v0Z"/>
      <path class="b" d="M67.822,44.7A12.906,12.906,0,0,1,65.6,43.442q.051,1.11.1,2.22c0,.033,0,.065,0,.1,1.182.473,2.371.928,3.545,1.412,1.073.443,2.114.947,3.176,1.411s1.742-.03,2.632-.525c2.2-1.223,4.38-2.477,6.575-3.706q-.016-.644-.035-1.287A13.324,13.324,0,0,1,67.822,44.7Z"/>
      <path class="b" d="M87.464,24.386A1.077,1.077,0,0,1,86.2,23.88c-.506.253-1.043.537-1.548.79a4.9,4.9,0,0,1-9.669.6H74.73a.866.866,0,0,1,.063.41,7.641,7.641,0,0,1-.663,2.907,10.674,10.674,0,0,0-.853,1.359c-.032-.316,1.137.41,1.264.474,1.3.726.126,2.685-1.169,1.99-1.138-.632-2.654-1.232-2.433-2.78a6.009,6.009,0,0,1,.948-1.706,5.07,5.07,0,0,0,.6-2.244.873.873,0,0,1,.095-.41H72.3a4.877,4.877,0,0,1-9.637-.6c-1.011-.663-1.99-1.327-3-2.022-.032.032-.064.032-.095.063a3.19,3.19,0,0,0-1.77,3.571,4.469,4.469,0,0,0,3.255,3.286.974.974,0,0,1,.537.284,1.249,1.249,0,0,1,.822,1.011c.316,2.907.789,6.035,2.369,8.531,2.528,3.886,8.216,5.087,12.386,3.6,4.93-1.738,7.047-6.983,7.268-11.88.063-1.454,2.306-1.485,2.306-.063,1.58-.348,2.433-2.275,2.654-3.76C89.612,25.745,89.328,23.88,87.464,24.386ZM77.321,36.961a6.275,6.275,0,0,1-7.2-.158c-1.2-.853-.031-2.875,1.169-1.991a4.03,4.03,0,0,0,4.866.158C77.384,34.117,78.554,36.108,77.321,36.961Z"/>
      <path class="b" d="M27.281,86.1a1.306,1.306,0,0,0,2.611,0A1.306,1.306,0,0,0,27.281,86.1Z"/>
      <path class="b" d="M64.592,86.043c-1.772-1.056-3.126-2.873-5.114-3.548-2.105-.714-3.852.1-5.641,1.042q.511,1.456,1.014,2.918l2.892-2.087a1.162,1.162,0,0,1,1.577.413,1.185,1.185,0,0,1-.413,1.577l-3.28,2.366c.2.582.4,1.164.594,1.747l3.31-2.89c1.113-.973,2.749.652,1.63,1.629l-4.152,3.626q.3.9.591,1.8l4.305-3.952c1.091-1,2.724.624,1.63,1.629l-4.77,4.379a1.2,1.2,0,0,1-.415.254c.1.33.208.66.313.99,1.152.321,2.573-1.275,3.423-1.9,1.536-1.133,3.076-2.267,4.518-3.52,1.116-.968,2.752.656,1.63,1.63-1,.87-2.046,1.688-3.106,2.487.63.207,1.261.418,1.895.615a.9.9,0,0,1,.915.272,20.611,20.611,0,0,0,2.107.488,10.473,10.473,0,0,0,5.615-.651.948.948,0,0,1,.917.08,12.255,12.255,0,0,0,.805-7.181C72.919,90.275,68.337,88.274,64.592,86.043Z"/>
      <path class="b" d="M55.839,234.864a15.026,15.026,0,0,1-1.3,1.685,16.077,16.077,0,0,1,2.79.393,22.381,22.381,0,0,1,4.582,1.869c1.847.881,3.09.059,4.3-1.352a11.119,11.119,0,0,1,1.9-1.834v-1.411a1.1,1.1,0,0,1,1.255-1.109q.009-.141.024-.285l-13.919.543A1.021,1.021,0,0,1,55.839,234.864Z"/>
      <path class="b" d="M21.324,106.174a1.226,1.226,0,0,1-1.3-.76c-.245-.607-.5-1.218-.75-1.831a1.192,1.192,0,0,1-.348.045l-5.83-.07a2.416,2.416,0,0,0,.65.832,4.658,4.658,0,0,0,1.847.563c1.358.252,2.724.361,4.062.721a1.133,1.133,0,0,1,.588,1.792c.326.135.651.266.982.369l-.015-.025a1.083,1.083,0,0,1,.241-1.4C21.407,106.332,21.365,106.253,21.324,106.174Z"/>
      <path class="b" d="M37.038,103.52v0c.547,1.382-1.682,1.976-2.222.613-.688-1.739-1.355-3.486-2.04-5.226-.178-.453-1.222-3.646-2.078-2.448.11.245.214.488.311.722a30.514,30.514,0,0,1,1.452,4.4,1.153,1.153,0,0,1-2.222.612c-.229-.926-.511-1.841-.822-2.742-.416-1.2-1.073-3.675-2.345-4.247-1.165-.524-.518.828-.3,1.33.345.782.673,1.57.975,2.369q.555,1.467,1.039,2.96c.461,1.422-1.741,2-2.222.613q-.555-1.606-1.169-3.191c-.319-.83-.645-1.659-1.009-2.47-.319-.71-.676-1.8-1.448-2.134-.751-.322-.771.063-.609.546q.306.674.6,1.354.494,1.12.945,2.258c.435,1.094.853,2.2,1.246,3.307.5,1.405-1.722,1.994-2.223.612-.524-1.445-1.067-2.891-1.657-4.316-.128-.3-.255-.607-.389-.908-.224-.5-.5-1.029-.7-1.571-.051-.109-.1-.219-.154-.328-.2-.424-.69-1.665-1.29-.915-.392.491.7,2.608.89,3.142q1.259,3.494,2.654,6.936a.982.982,0,0,1-.922,1.373c.041.079.083.158.126.235a1.1,1.1,0,0,1,1.749.238c1.623,2.891,6.292.591,8.707.409,2.374-.179,7.394,1.218,8.556-1.863a1.25,1.25,0,0,1,1.906-.54c.095-.214.184-.43.26-.653l-4.709-.05A1.061,1.061,0,0,1,37.038,103.52Z"/>
      <path class="e" d="M64.683,98.888c-.316-.095-.632-.19-.98-.285a1.018,1.018,0,0,1-.6-.474c-.253.19-.474.348-.727.538a6.394,6.394,0,0,1-2.939,1.674h-.031a1.166,1.166,0,0,1-2.275.348c-.253-.727-.474-1.485-.727-2.212-2.717-8.373-5.529-16.809-8.626-25.055A1.558,1.558,0,0,0,46.1,72.253c-.759,0-1.486-.032-2.244-.032-2.78-.031-5.593-.063-8.405-.126L12.927,71.81c-2.749-.063-5.467-.094-8.184-.126-.632,0-1.3-.063-1.959-.031a.846.846,0,0,0-.284,0c-.474.221.063,1.326.189,1.737,2.686,9.384,6.1,18.547,8.974,27.836l6.7.095a47.05,47.05,0,0,1-1.832-5.245c-.632-2.338,1.232-4.645,3.76-3.634a2.529,2.529,0,0,1,.569.348,2.9,2.9,0,0,1,1.516-.506,3.454,3.454,0,0,1,2.56,1.043,2.446,2.446,0,0,1,1.421-.537,3.514,3.514,0,0,1,3.192,1.643,2.963,2.963,0,0,1,4.139.948,18.472,18.472,0,0,1,1.548,3.538c.537,1.359,1.043,2.686,1.58,4.044a1.12,1.12,0,0,1,1.106-1.327c.885.032,1.769.032,2.622.032l18.485.19a1.181,1.181,0,0,1,1.011,1.674,2.324,2.324,0,0,0,.379-.221,1.211,1.211,0,0,1,.379-1.485ZM32.169,86.471a3.6,3.6,0,1,1,0-.759,1.4,1.4,0,0,1,.032.38A1.286,1.286,0,0,1,32.169,86.471Z"/>
      <path class="f" d="M90.24,106.06q-6.06-1.02-12.123-2.013a.937.937,0,0,1-.817-1.14,2.976,2.976,0,0,1-1.448-.637.244.244,0,0,1-.042-.061,1.089,1.089,0,0,1-.8-1.672c.138-.212.274-.437.408-.67a14.458,14.458,0,0,1-7.978-.159l-5.476,4.1a.91.91,0,0,1-1.005.124,9.391,9.391,0,0,1-1.186-.029,1.068,1.068,0,0,1-.758.272l-2.636-.028-12.72-.134c.053,1.3.054,2.581.083,3.86a1.232,1.232,0,0,1,2.13.7c.331,3.67.1,7.452.074,11.131q-.03,4.253-.087,8.5l.085.016c.184.028.981.091,1.38.113,1.447.082,2.9.087,4.347.075,5.319-.046,10.963-.012,16.134-1.378.7-.186,1.418-.32,2.129-.477.187-.041.371-.092.558-.134a1.212,1.212,0,0,0,.181-.054.236.236,0,0,1,.006-.062,4.541,4.541,0,0,0,.07-.5c.066-.742.036-1.5.038-2.244.01-5.02-.227-10.037-.3-15.056a1.153,1.153,0,0,1,2.3,0c.075,4.9.307,9.8.3,14.7a22.843,22.843,0,0,1-.053,2.808q.466.006.928.022a1.218,1.218,0,0,1,1.93-.5c.047.041-.039-.008.177.12.127.075.257.144.39.21a7.764,7.764,0,0,0,.862.331,25.149,25.149,0,0,0,2.759.712,129.191,129.191,0,0,0,19.592,2.174c-.1-6.8-.23-13.605-.234-20.407a1.046,1.046,0,0,1,.469-.916c-.584-.119-1.168-.235-1.752-.339C95.522,106.95,92.881,106.505,90.24,106.06Z"/>
      <path class="g" d="M111.7,99.614c-.253-4.455-.822-8.909-1.327-13.364-.474-4.2-1.011-8.373-1.738-12.544-.379-2.18-.79-4.328-1.264-6.477a36.531,36.531,0,0,0-1.39-5.908,21.292,21.292,0,0,0-2.212-3.886,9.592,9.592,0,0,0-2.78-3.065c-3.129-1.864-7.268-1.548-10.775-2.022a1.283,1.283,0,0,1-.885-1.959c-.253-.063-.537-.127-.79-.19a1.336,1.336,0,0,1-.189.79,21.284,21.284,0,0,1-4.614,4.455c-1.105.885-2.211,1.769-3.349,2.623a1.181,1.181,0,0,1-1.58-.411c-1.453-2.212-2.875-4.424-4.328-6.635-.032-.032-.032-.063-.064-.095a4.081,4.081,0,0,1-2.053.095c-1.8,2.591-3.571,5.181-5.372,7.8a1.152,1.152,0,0,1-1.8.221,87.187,87.187,0,0,1-6.92-7.172,1.186,1.186,0,0,1-.284-1.106c.19-.506.411-1.011.6-1.517-1.232.38-2.685.443-3.981.79a1.2,1.2,0,0,1-.411,2.275,29.869,29.869,0,0,0-7.836,1.264A7.655,7.655,0,0,0,43.228,55.6a16.689,16.689,0,0,0-1.927,3C39.373,61.984,37.636,65.46,36.024,69c-.506,1.075-1.864.538-2.085-.41-.285.41-.537.79-.79,1.169,1.611.031,3.223.063,4.834.063,2.5.063,4.992.1,7.489.126.347,0,.726-.031,1.1,0,2.5.158,3.192,2.181,3.887,4.2.885,2.37,1.738,4.8,2.591,7.2a9.071,9.071,0,0,1,5.4-1.39c2.307.253,3.95,1.485,5.687,2.907a24.358,24.358,0,0,0,6.541,3.57,18.827,18.827,0,0,0,5.972,1.485.953.953,0,0,1,1.106-.979L97.1,89.03a.4.4,0,0,0,.19.032c1.263.347,1.232,2.432-.19,2.274-5.845-.631-11.722-1.263-17.568-1.895,1.106,4.012-.411,8.973-2.528,12.259a1.09,1.09,0,0,1-1.2.5.1.1,0,0,1,.031.063,3.1,3.1,0,0,0,1.454.632,1.276,1.276,0,0,1,1.453-1.074c4.266.7,8.563,1.422,12.86,2.149,2.433.41,4.835.821,7.268,1.232a44.841,44.841,0,0,0,7.046,1.137,5.991,5.991,0,0,0,4.486-1.327C111.794,103.627,111.825,101.447,111.7,99.614ZM72.708,83.469c0-9.226-.158-18.483-.158-27.74a1.154,1.154,0,0,1,2.307,0c0,9.257.158,18.514.158,27.74A1.154,1.154,0,0,1,72.708,83.469Zm14.219,18.262c-.853,1.2-2.844.063-1.991-1.169A9.344,9.344,0,0,0,86.3,92.727a1.166,1.166,0,0,1,2.243-.632A11.692,11.692,0,0,1,86.927,101.731Zm18.926-33.9c-1.39,2.181-2.78,4.361-4.139,6.541a1.126,1.126,0,0,1-1.516.41c-.19,3.318-.443,6.6-.727,9.89a1.243,1.243,0,0,1-1.928.916,1.007,1.007,0,0,1-.379-.916c.537-6.193.917-12.386,1.075-18.61.063-1.485,2.369-1.485,2.306,0-.032,2.054-.126,4.139-.221,6.193,1.169-1.864,2.338-3.728,3.539-5.593C104.653,65.4,106.643,66.566,105.853,67.829Z"/>
      <path class="b" d="M82.314,13.454a19.434,19.434,0,0,1-5.024,4.329,1.049,1.049,0,0,1-1.643-.664A12.217,12.217,0,0,1,72.8,16.8a7.763,7.763,0,0,1-.885.474,1.155,1.155,0,0,1-1.674-.758c-1.138.1-2.686.7-3.982.6-.252.158-.5.284-.758.442a1.233,1.233,0,0,1-.727.127,12.41,12.41,0,0,1-2.622,3.886c.6.411,1.232.821,1.832,1.232a1.154,1.154,0,0,1,.443.537,1.111,1.111,0,0,1,.5.885,2.608,2.608,0,0,0,5.214,0,1.091,1.091,0,0,1,.569-.948,1.068,1.068,0,0,1,.789-.316h3.539a1.166,1.166,0,0,1,.664.19,1.164,1.164,0,0,1,1.453,1.074,2.608,2.608,0,0,0,5.214,0,.82.82,0,0,1,.126-.474.964.964,0,0,1,.569-.885c.569-.284,1.169-.568,1.738-.853C83.2,19.362,82.788,16.424,82.314,13.454ZM68.253,24.7a1.154,1.154,0,0,1,0-2.307A1.154,1.154,0,0,1,68.253,24.7Zm10.869-.063a1.154,1.154,0,0,1,0-2.307A1.154,1.154,0,0,1,79.122,24.639Z"/>
      <path class="h" d="M85.168,8.481a4.265,4.265,0,0,1,.133.457,4.265,4.265,0,0,0-.133-.457,3.716,3.716,0,0,0-.914-.426,1.18,1.18,0,0,1-.564-1.848c-.144-.151-.294-.3-.447-.441-.378.957-1.96,1.19-2.158-.03-.462-2.855-3.559-3.46-6.037-3.432A20.581,20.581,0,0,0,65.9,4.886a9.417,9.417,0,0,0-5,6.494c-.74,3.187-.141,6.5.541,9.639.006.028.009.055.014.082l.693.467a11.631,11.631,0,0,0,2.617-3.9,1.145,1.145,0,0,1-.428-2.116,35.634,35.634,0,0,0,8.7-6.4,1.153,1.153,0,0,1,1.63,1.629,37.744,37.744,0,0,1-8.413,6.348c1.294.07,2.859-.525,3.984-.6a1,1,0,0,1,.526-1.231,28.678,28.678,0,0,0,6.1-4.695c1.078-1.019,2.71.609,1.63,1.629a34.26,34.26,0,0,1-5.7,4.569,12.649,12.649,0,0,0,2.85.32,1.13,1.13,0,0,1,.473-1.317,16.083,16.083,0,0,0,4.54-3.972c.852-1.2,2.85-.048,1.989,1.163-.112.158-.227.311-.344.461.5,2.968.894,5.9,2.508,8.556l1.317-.658c.387-2.558,1.2-5.084,1.138-7.672C87.219,11.725,86.824,9.54,85.168,8.481Z"/>
      <path class="d" d="M60.422,103.327c-.131.074-.264.144-.4.212a1.084,1.084,0,0,1-.252.362,9.391,9.391,0,0,0,1.186.029A1.206,1.206,0,0,1,60.422,103.327Z"/>
      <path class="h" d="M84.549,129.976a59.913,59.913,0,0,1-6.3-1.12,9.3,9.3,0,0,1-3.985-1.689.969.969,0,0,1-.3-1.129q-.462-.016-.928-.022a2.814,2.814,0,0,1-2.2,2.7,49.411,49.411,0,0,1-5.663,1.215c-2.366.309-4.754.465-7.136.588-2.7.14-5.411.225-8.117.2-1.108-.01-2.334.035-3.507-.078.444,6.1.9,12.185,1.656,18.252,2.176,17.511,3.6,35.123,4.976,52.712Q54.2,216.332,55.2,231.069l14.549-.567c-.039-.849.036-1.75.015-2.546q-.1-3.726-.2-7.451-.3-11.207-.592-22.414l-.684-25.913q-.285-10.754-.568-21.507l-.236-8.906a1.16,1.16,0,0,1,.846-1.111l3.895-.734c-3.737-.343-7.479-.634-11.224-.834-1.478-.078-1.482-2.383,0-2.3,3.372.179,6.743.434,10.109.732l-.291-4.432c-.1-1.483,2.208-1.472,2.3,0q.153,2.322.305,4.645,3.339.315,6.67.673c1.462.155,1.473,2.461,0,2.3q-1.651-.176-3.305-.342c0,.027,0,.053,0,.081,0,.054,0,.107,0,.16.127,3.7-.108,7.455-.161,11.158l-.33,22.8q-.192,13.235-.383,26.468-.157,10.893-.316,21.785l-.117,8.08,13.047,1.248a1.348,1.348,0,0,1,.869-.548q.213-4.861.477-9.722c.829-15.648,1.778-31.334,3.648-46.9,1.019-8.477,2.61-16.847,3.367-25.361q.576-6.477.886-12.973c.087-1.756.009-3.594.223-5.348v-.015l-.175-.012C93.394,130.965,88.958,130.575,84.549,129.976Z"/>
      <path class="f" d="M76.491,49.894l3.6,5.518q1.068-.828,2.112-1.686a27.839,27.839,0,0,0,3.944-3.633L84.226,45.55C81.638,46.979,79.078,48.462,76.491,49.894Z"/>
      <path class="f" d="M62.12,46.729q-.855,2.063-1.709,4.126a77.155,77.155,0,0,0,5.41,5.609l4.364-6.348c-.566-.272-1.131-.55-1.7-.784C66.367,48.462,64.205,47.675,62.12,46.729Z"/>
      <path class="h" d="M97.466,243.276a19.837,19.837,0,0,1-7.45-6.18,1.129,1.129,0,0,1-.126-.039,4.571,4.571,0,0,0-4.254.462c-1.179.852-1.778,2.1-3.292,2.5-2.7.713-4.861-.9-6.356-2.932-.129,1.1-.331,2.191-.532,3.239-.369,1.921-1.994,5.026.66,5.949,2,.695,4.229.287,6.232,1.07a13.872,13.872,0,0,0,3.777,1.114,73.416,73.416,0,0,0,9.084.139,15.7,15.7,0,0,0,3.3-.186c.971-.31,2.287-1.579,2.016-2.7C100.224,244.455,98.475,243.8,97.466,243.276Z"/>
      <path class="b" d="M76.094,234.073c.011.155.014.312.019.469a1.087,1.087,0,0,1,1.269.5,5.363,5.363,0,0,0,2.914,2.719c1.6.43,2.29-.524,3.316-1.523a6.622,6.622,0,0,1,4.865-1.8l-12.846-1.229A1.13,1.13,0,0,1,76.094,234.073Z"/>
      <path class="h" d="M68.111,241.74v-3.009a11.978,11.978,0,0,1-1.416,1.523,5.007,5.007,0,0,1-4.244,1.181c-1.694-.346-3.121-1.507-4.773-2.014a14.222,14.222,0,0,0-5.557-.518c-1.273,1.1-2.615,2.142-3.862,3.245-.766.678-2.056,1.767-1.6,2.935.352.9,1.531,1.433,2.36,1.76a20.558,20.558,0,0,0,7.733,1,27.793,27.793,0,0,0,9.026-1.33c1.084-.382,2.51-.795,2.573-2.118a19.678,19.678,0,0,0-.086-2.069A1.13,1.13,0,0,1,68.111,241.74Z"/>
      <path class="i" d="M76.163,34.957a4.026,4.026,0,0,1-4.89-.146c-1.2-.871-2.354,1.127-1.163,1.99a6.242,6.242,0,0,0,7.217.146C78.542,36.113,77.391,34.115,76.163,34.957Z"/>
      <path class="i" d="M68.264,22.383a1.153,1.153,0,0,0,0,2.3A1.153,1.153,0,0,0,68.264,22.383Z"/>
      <path class="i" d="M79.124,22.321a1.153,1.153,0,0,0,0,2.3A1.153,1.153,0,0,0,79.124,22.321Z"/>
      <path class="i" d="M88.475,21.985a.612.612,0,0,0-.095-.316c.411-3.223,1.485-6.319,1.043-9.637-.379-2.875-1.643-5.276-4.55-6.193a.973.973,0,0,0-1.169.38,6.211,6.211,0,0,1,1.453,2.274c1.675,1.043,2.054,3.223,2.117,5.182.064,2.591-.758,5.119-1.137,7.678l-1.327.663c-.569.285-1.169.569-1.738.853a.964.964,0,0,0-.569.885.82.82,0,0,0-.126.474,2.608,2.608,0,0,1-5.214,0,1.164,1.164,0,0,0-1.453-1.074,1.166,1.166,0,0,0-.664-.19H71.507a1.068,1.068,0,0,0-.789.316,1.091,1.091,0,0,0-.569.948,2.608,2.608,0,0,1-5.214,0,1.111,1.111,0,0,0-.5-.885,1.154,1.154,0,0,0-.443-.537c-.6-.411-1.232-.821-1.832-1.232-.221-.158-.474-.316-.7-.474v-.1c-.7-3.128-1.3-6.445-.537-9.636a9.288,9.288,0,0,1,4.992-6.477A20.271,20.271,0,0,1,75.046,2.3c2.465-.032,5.561.568,6.035,3.444.19,1.2,1.77.979,2.149.031a.933.933,0,0,0,.063-.663c-.505-3.286-3.57-4.708-6.6-5.024-3.886-.442-7.9.822-11.343,2.5a11.821,11.821,0,0,0-6.477,7.425c-.98,3.412-.6,6.951.095,10.363-.032.063-.095.095-.127.158a5.42,5.42,0,0,0-3.349,5.751A6.68,6.68,0,0,0,60.2,31.716a22.727,22.727,0,0,0,2.243,8.247,10.994,10.994,0,0,0,.79,1.169.681.681,0,0,0-.032.252c.064,1.138.095,2.243.158,3.381.79.347,1.549.663,2.339.979V45.65c-.032-.727-.064-1.454-.095-2.212A11.828,11.828,0,0,0,67.811,44.7a13.282,13.282,0,0,0,13.776-1.643c.032.442.032.853.032,1.3.758-.411,1.516-.853,2.274-1.264-.031-.758-.031-1.548-.063-2.306v-.126c.063-.095.127-.158.19-.253a17.584,17.584,0,0,0,2.5-7.014C92.33,33.2,93.562,22.427,88.475,21.985Zm.916,5.308c-.221,1.485-1.074,3.412-2.654,3.76,0-1.422-2.243-1.391-2.306.063-.221,4.9-2.338,10.142-7.268,11.88-4.17,1.485-9.858.284-12.386-3.6-1.58-2.5-2.053-5.624-2.369-8.531a1.249,1.249,0,0,0-.822-1.011.974.974,0,0,0-.537-.284,4.469,4.469,0,0,1-3.255-3.286,3.19,3.19,0,0,1,1.77-3.571c.031-.031.063-.031.095-.063,1.011.7,1.99,1.359,3,2.022a4.877,4.877,0,0,0,9.637.6h.285a.873.873,0,0,0-.095.41,5.07,5.07,0,0,1-.6,2.244,6.009,6.009,0,0,0-.948,1.706c-.221,1.548,1.3,2.148,2.433,2.78,1.3.7,2.464-1.264,1.169-1.99-.127-.064-1.3-.79-1.264-.474a10.674,10.674,0,0,1,.853-1.359,7.641,7.641,0,0,0,.663-2.907.866.866,0,0,0-.063-.41h.253a4.9,4.9,0,0,0,9.669-.6c.5-.253,1.042-.537,1.548-.79a1.077,1.077,0,0,0,1.264.506C89.328,23.88,89.612,25.745,89.391,27.293Z"/>
      <path class="j" d="M102.82,245.427c-.632-3.191-4.676-4.2-6.983-5.814a12.728,12.728,0,0,1-4.645-5.213,1.481,1.481,0,0,0,.443-.916c.411-10.363,1.011-20.7,1.738-31.027.568-8.215,1.232-16.429,2.117-24.613.916-8.025,2.464-15.955,3.317-23.98.537-5.15.917-10.332,1.2-15.482.095-1.706.158-3.381.221-5.087.032-.474.032-.948.063-1.453,0-.063.032-.285.032-.411-.79-.063-1.548-.095-2.307-.158v.032c-.221,1.737-.158,3.57-.221,5.339-.221,4.329-.505,8.657-.885,12.954-.758,8.531-2.369,16.9-3.38,25.371-1.865,15.577-2.813,31.248-3.634,46.888-.19,3.254-.348,6.508-.506,9.731a1.3,1.3,0,0,0-.853.569c-4.36-.443-8.689-.853-13.049-1.264.031-2.686.094-5.371.126-8.088.095-7.267.19-14.5.316-21.77.126-8.815.253-17.661.379-26.476.095-7.583.221-15.2.316-22.812.063-3.7.285-7.425.158-11.153a.339.339,0,0,1,.032-.158c0-.032-.032-.032-.032-.064,1.106.095,2.212.222,3.318.348,1.485.126,1.453-2.18,0-2.307-2.212-.252-4.455-.474-6.667-.7-.095-1.548-.221-3.1-.316-4.644-.095-1.454-2.4-1.485-2.307,0s.19,2.97.316,4.455c-3.381-.316-6.761-.569-10.111-.759-1.485-.063-1.485,2.244,0,2.307,3.729.221,7.489.506,11.217.853-1.3.221-2.591.474-3.886.727a1.112,1.112,0,0,0-.853,1.106c.063,2.97.158,5.94.221,8.91q.284,10.758.569,21.516c.221,8.625.474,17.251.7,25.908.189,7.457.379,14.945.6,22.4.063,2.5.126,4.961.19,7.457.031.79-.064,1.706-.032,2.559l-14.534.569q-1-14.74-2.149-29.479c-1.39-17.6-2.812-35.2-4.992-52.7-.727-6.066-1.2-12.164-1.644-18.262a9.936,9.936,0,0,1-1.737-.316,2.341,2.341,0,0,1-.632-.316c.41,5.371.663,10.806,1.358,16.145,1.106,8.278,1.928,16.588,2.718,24.9,1.58,16.713,2.907,33.459,4.076,50.173.284,3.7.537,7.362.758,11.027a1.228,1.228,0,0,0,1.137,1.169,1.168,1.168,0,0,0-.252.284c-2.054,3.128-5.561,4.929-8.089,7.646-2.085,2.275-1.833,5.119.79,6.825,2.559,1.643,5.814,1.9,8.752,1.959A32.508,32.508,0,0,0,65.915,248.9c1.58-.5,3.6-1.2,4.36-2.78.759-1.548,0-3.128.253-4.739a1.12,1.12,0,0,0-.126-.79v-3.7a1.277,1.277,0,0,0,0-1.927v-.758a1.066,1.066,0,0,0-1.043-1.106,1.117,1.117,0,0,0-1.264,1.106v1.421a10.2,10.2,0,0,0-1.864,1.833c-1.233,1.39-2.465,2.212-4.329,1.358a23.322,23.322,0,0,0-4.582-1.9,20.184,20.184,0,0,0-2.78-.379,13.164,13.164,0,0,0,1.3-1.675,1.018,1.018,0,0,0-.379-1.517c4.645-.189,9.29-.347,13.935-.537.537-.031,1.074-.031,1.611-.063a1.18,1.18,0,0,0,1.169-1.137c-.1-2.97-.158-5.94-.253-8.91q-.284-10.758-.568-21.517c-.222-8.625-.443-17.282-.664-25.908-.19-7.488-.411-14.944-.6-22.432-.064-2.465-.127-4.961-.19-7.425-.032-.853.063-1.833,0-2.718,1.517-.315,3.065-.6,4.582-.884-.032,2.591-.064,5.15-.127,7.741q-.142,10.9-.316,21.769-.189,13.269-.379,26.477c-.095,7.614-.221,15.2-.316,22.812-.063,3.7-.284,7.456-.158,11.153v.158a1.133,1.133,0,0,0,1.138,1.137,1.041,1.041,0,0,0-.537,1.011,22.5,22.5,0,0,1-.664,6.161c-.442,2.149-1.454,4.3-.158,6.383,1.517,2.5,4.74,2.053,7.172,2.5,1.391.253,2.528,1.012,3.887,1.328,3.412.79,7.236.5,10.68.473a20.049,20.049,0,0,0,4.36-.284C101.145,250.135,103.262,247.639,102.82,245.427Zm-45.152-6c1.675.5,3.1,1.674,4.771,2.022a5.03,5.03,0,0,0,4.266-1.2,10.737,10.737,0,0,0,1.39-1.516v3a1.124,1.124,0,0,0,.158.6,15.012,15.012,0,0,1,.095,2.053c-.063,1.327-1.485,1.738-2.56,2.149a28.353,28.353,0,0,1-9.036,1.327,21.427,21.427,0,0,1-7.742-1.011c-.821-.348-1.99-.853-2.338-1.77-.474-1.169.822-2.243,1.58-2.938,1.264-1.106,2.591-2.148,3.855-3.223A13.756,13.756,0,0,1,57.668,239.424Zm30.807-4.992a6.635,6.635,0,0,0-4.866,1.8c-1.011,1.011-1.706,1.959-3.317,1.516a5.209,5.209,0,0,1-2.908-2.717,1.132,1.132,0,0,0-1.263-.506,2.209,2.209,0,0,0-.032-.442,1.172,1.172,0,0,0-.474-.884C79.912,233.61,84.21,234.021,88.475,234.432Zm10.048,14a15.73,15.73,0,0,1-3.318.158,72.138,72.138,0,0,1-9.068-.126,14.15,14.15,0,0,1-3.792-1.106c-1.99-.79-4.234-.379-6.224-1.074-2.655-.916-1.043-4.044-.664-5.94.19-1.074.411-2.148.537-3.254,1.485,2.022,3.666,3.633,6.351,2.938,1.517-.411,2.117-1.643,3.286-2.5a4.564,4.564,0,0,1,4.266-.474c.032.032.063.032.126.032a19.711,19.711,0,0,0,7.457,6.192c.98.506,2.749,1.169,3.033,2.433C100.8,246.849,99.471,248.112,98.523,248.428Z"/>
      <path class="i" d="M54.594,50.054a5.239,5.239,0,0,0-2.71,1.517,5.239,5.239,0,0,1,2.71-1.517,1.128,1.128,0,0,0-.412-.042,31.29,31.29,0,0,0-8.424,1.355,11,11,0,0,0-3.567,2,12.305,12.305,0,0,0-2.3,3.078,121.607,121.607,0,0,0-5.875,11.374,1.178,1.178,0,0,0-.088.769,10.44,10.44,0,0,0,.666-1.119,10.44,10.44,0,0,1-.666,1.119c.216.938,1.581,1.469,2.078.394,1.63-3.518,3.362-7.007,5.289-10.372A18.943,18.943,0,0,1,43.215,55.6a7.466,7.466,0,0,1,3.156-2.008,28.837,28.837,0,0,1,7.811-1.273A1.187,1.187,0,0,0,54.594,50.054Z"/>
      <path class="i" d="M42.368,104.653a18.514,18.514,0,0,1-1.086,1.995,18.514,18.514,0,0,0,1.086-1.995,1.25,1.25,0,0,0-1.906.54c-1.162,3.081-6.182,1.684-8.556,1.863-2.415.182-7.084,2.482-8.707-.409a1.1,1.1,0,0,0-1.749-.238,3.456,3.456,0,0,0,.935,1.161,3.456,3.456,0,0,1-.935-1.161,1.083,1.083,0,0,0-.241,1.4l.015.025a3.872,3.872,0,0,0,1.161.2,3.872,3.872,0,0,1-1.161-.2,5.244,5.244,0,0,0,4.185,2.476c2.368.25,4.581-.89,6.92-.973,2.187-.079,4.4.435,6.55-.193a5.505,5.505,0,0,0,3.805-3.339A.932.932,0,0,0,42.368,104.653Z"/>
      <path class="i" d="M59.771,103.9a1.084,1.084,0,0,0,.252-.362c-.252.125-.508.241-.765.344C59.429,103.883,59.6,103.891,59.771,103.9Z"/>
      <path class="i" d="M97.291,89.062a.4.4,0,0,1-.19-.032L77.764,86.945a.953.953,0,0,0-1.106.979,18.827,18.827,0,0,1-5.972-1.485,24.358,24.358,0,0,1-6.541-3.57c-1.737-1.422-3.38-2.654-5.687-2.907a9.071,9.071,0,0,0-5.4,1.39c-.853-2.4-1.706-4.834-2.591-7.2-.7-2.021-1.39-4.044-3.887-4.2-.379-.031-.758,0-1.1,0-2.5-.031-4.993-.063-7.489-.126-1.611,0-3.223-.032-4.834-.063-6.193-.063-12.355-.158-18.516-.253-3.033-.032-6.1-.063-9.132-.126-1.516,0-3.791-.411-4.9.821C-.723,71.716.477,74.18.983,75.823,1.71,78.13,2.436,80.436,3.2,82.711,4.933,88.082,6.734,93.39,8.471,98.73c.348,1.137.7,2.243,1.043,3.349a1.109,1.109,0,0,0,.127.284,1.11,1.11,0,0,0,1.106,1.169h.063a4.248,4.248,0,0,0,1.3,2.5c1.77,1.58,4.771,1.3,6.952,1.864a1.017,1.017,0,0,0,1.2-.442,1.134,1.134,0,0,0-.6-1.769c-1.327-.379-2.718-.474-4.076-.727a4.6,4.6,0,0,1-1.833-.569,2.312,2.312,0,0,1-.663-.821c1.959.031,3.886.031,5.845.063a1.172,1.172,0,0,0,.348-.032c.252.6.505,1.2.758,1.833a1.257,1.257,0,0,0,1.295.758.987.987,0,0,0,.917-1.39q-1.376-3.459-2.654-6.919c-.19-.537-1.3-2.654-.885-3.16.6-.758,1.074.506,1.3.916.032.127.095.221.127.348.221.537.5,1.043.727,1.548.126.316.252.6.379.916.6,1.422,1.137,2.876,1.674,4.329.474,1.359,2.718.79,2.212-.632-.411-1.106-.821-2.212-1.264-3.286-.284-.758-.6-1.516-.916-2.275-.221-.442-.411-.916-.6-1.358-.158-.474-.158-.853.6-.538s1.137,1.422,1.453,2.149c.348.79.7,1.611,1.012,2.464.41,1.043.789,2.117,1.169,3.192.473,1.39,2.685.789,2.211-.632q-.474-1.47-1.042-2.939c-.285-.821-.632-1.611-.98-2.369-.221-.506-.853-1.865.316-1.327,1.264.568,1.927,3.033,2.338,4.233a25.18,25.18,0,0,1,.822,2.749c.347,1.422,2.591.822,2.212-.632A27.547,27.547,0,0,0,31,97.182c-.095-.222-.189-.474-.316-.727.885-1.2,1.928,1.99,2.086,2.464.7,1.738,1.358,3.476,2.053,5.214.538,1.358,2.749.758,2.212-.6a1.04,1.04,0,0,0,.885.411c1.58.032,3.128.032,4.708.063h1.043c4.234.063,8.467.095,12.7.127.884.031,1.769.031,2.654.031a1.153,1.153,0,0,0,.758-.253,3.128,3.128,0,0,0-.537-.031,8.487,8.487,0,0,0,.79-.348,1.181,1.181,0,0,0-1.011-1.674l-18.485-.19c-.853,0-1.737,0-2.622-.032a1.12,1.12,0,0,0-1.106,1.327c-.537-1.358-1.043-2.685-1.58-4.044a18.472,18.472,0,0,0-1.548-3.538,2.963,2.963,0,0,0-4.139-.948,3.514,3.514,0,0,0-3.192-1.643,2.446,2.446,0,0,0-1.421.537,3.454,3.454,0,0,0-2.56-1.043,2.9,2.9,0,0,0-1.516.506,2.529,2.529,0,0,0-.569-.348c-2.528-1.011-4.392,1.3-3.76,3.634a47.05,47.05,0,0,0,1.832,5.245l-6.7-.095C8.788,91.937,5.375,82.774,2.689,73.39c-.126-.411-.663-1.516-.189-1.737a.846.846,0,0,1,.284,0c.664-.032,1.327.031,1.959.031,2.717.032,5.435.063,8.184.126l22.528.285c2.812.063,5.625.095,8.405.126.758,0,1.485.032,2.244.032a1.558,1.558,0,0,1,1.674,1.169c3.1,8.246,5.909,16.682,8.626,25.055.253.727.474,1.485.727,2.212a1.166,1.166,0,0,0,2.275-.348h.031a6.394,6.394,0,0,0,2.939-1.674c.253-.19.474-.348.727-.538a1.018,1.018,0,0,0,.6.474c.348.095.664.19.98.285L60.8,101.826a1.211,1.211,0,0,0-.379,1.485,1.342,1.342,0,0,0,.537.632,1.011,1.011,0,0,0,1.011-.126c1.833-1.391,3.634-2.749,5.467-4.108a14.593,14.593,0,0,0,7.993.158,7.7,7.7,0,0,0-.41.664,1.155,1.155,0,0,0,1.99,1.169c2.117-3.286,3.634-8.247,2.528-12.259,5.846.632,11.723,1.264,17.568,1.895C98.523,91.494,98.554,89.409,97.291,89.062ZM76.563,97.434a.914.914,0,0,0-.916-.063A10.249,10.249,0,0,1,70.054,98c-.727-.126-1.422-.284-2.117-.474a.9.9,0,0,0-.916-.284c-.632-.19-1.264-.411-1.9-.6,1.074-.821,2.117-1.642,3.1-2.5,1.138-.979-.505-2.59-1.611-1.643-1.454,1.264-3,2.4-4.518,3.539-.854.632-2.275,2.212-3.445,1.9-.094-.348-.189-.664-.284-.98a2.935,2.935,0,0,0,.411-.252c1.58-1.485,3.16-2.939,4.771-4.392,1.074-1.011-.537-2.622-1.643-1.643-1.422,1.327-2.875,2.654-4.3,3.949-.19-.6-.411-1.2-.6-1.8l4.17-3.6c1.106-.98-.537-2.623-1.643-1.643S57.32,89.5,56.215,90.483c-.19-.6-.38-1.169-.6-1.769,1.106-.79,2.212-1.58,3.286-2.37a1.135,1.135,0,0,0,.411-1.548,1.183,1.183,0,0,0-1.58-.442c-.948.7-1.927,1.39-2.875,2.085-.348-.948-.664-1.927-1.011-2.907,1.769-.947,3.539-1.737,5.624-1.042,1.991.7,3.349,2.5,5.119,3.538,3.76,2.244,8.341,4.234,12.8,4.234A12.126,12.126,0,0,1,76.563,97.434Z"/>
      <path class="i" d="M112.968,88.994c-.472-4.489-1.006-8.974-1.709-13.434a122.365,122.365,0,0,0-2.853-14.2,17.292,17.292,0,0,0-2.24-4.459,15.285,15.285,0,0,0-3.38-4.094c-3.461-2.593-8.487-2.223-12.56-2.745a.907.907,0,0,0-.885.327,5.706,5.706,0,0,1,2.182.725,5.706,5.706,0,0,0-2.182-.725,1.288,1.288,0,0,0,.885,1.978c3.489.447,7.627.15,10.757,2a9.664,9.664,0,0,1,2.777,3.066,21.475,21.475,0,0,1,2.2,3.882,35.857,35.857,0,0,1,1.416,5.9q.687,3.231,1.248,6.487c.719,4.167,1.27,8.359,1.739,12.562.494,4.431,1.064,8.893,1.339,13.344.114,1.846.072,4.017-1.319,5.417a5.881,5.881,0,0,1-4.456,1.316,48.186,48.186,0,0,1-7.075-1.126c-2.415-.433-4.835-.842-7.254-1.25q-6.433-1.088-12.873-2.14a1.249,1.249,0,0,0-1.43,1.082,31.1,31.1,0,0,1,3.391.285,31.1,31.1,0,0,0-3.391-.285.937.937,0,0,0,.817,1.14q6.064.993,12.123,2.013c2.641.445,5.282.89,7.918,1.362.584.1,1.168.22,1.752.339a1.046,1.046,0,0,0-.469.916c0,6.8.137,13.6.234,20.407a129.191,129.191,0,0,1-19.592-2.174,25.149,25.149,0,0,1-2.759-.712,7.764,7.764,0,0,1-.862-.331c-.133-.066-.263-.135-.39-.21-.216-.128-.13-.079-.177-.12a1.218,1.218,0,0,0-1.93.5c.841.03,1.682.087,2.578.2-.9-.112-1.737-.169-2.578-.2a.969.969,0,0,0,.3,1.129,9.3,9.3,0,0,0,3.985,1.689,59.913,59.913,0,0,0,6.3,1.12c4.409.6,8.845.989,13.284,1.289l.175.012q1.155.078,2.312.143c.174.009.349.021.524.03A1.165,1.165,0,0,0,102,130.3c-.1-7.2-.247-14.414-.252-21.62a1.136,1.136,0,0,0-.147-.58,27.01,27.01,0,0,0,4.334.548c3.846.108,7.263-1.74,7.938-5.783a24.436,24.436,0,0,0-.157-6.453C113.47,93.937,113.227,91.465,112.968,88.994Z"/>
      <path class="i" d="M103.853,66.66l-3.536,5.609q.152-3.107.239-6.214a1.153,1.153,0,0,0-2.3,0c-.166,6.215-.555,12.431-1.072,18.626a.953.953,0,0,0,.368.894c.11-.751.252-1.493.429-2.2-.177.709-.319,1.451-.429,2.2a1.243,1.243,0,0,0,1.936-.894q.414-4.944.7-9.9a1.126,1.126,0,0,0,1.522-.395l4.137-6.562C106.636,66.565,104.643,65.408,103.853,66.66Z"/>
      <path class="i" d="M72.536,55.734c0,9.248.168,18.495.171,27.743a1.153,1.153,0,0,0,2.3,0c0-9.248-.168-18.5-.17-27.743A1.153,1.153,0,0,0,72.536,55.734Z"/>
      <path class="i" d="M86.309,92.716a9.374,9.374,0,0,1-1.38,7.843c-.842,1.225,1.155,2.379,1.99,1.163A11.638,11.638,0,0,0,88.532,92.1,1.154,1.154,0,0,0,86.309,92.716Z"/>
      <path class="i" d="M32.169,85.712a3.605,3.605,0,1,0,0,.759,1.286,1.286,0,0,0,.032-.379A1.4,1.4,0,0,0,32.169,85.712Zm-4.9.38a1.312,1.312,0,0,1,2.622,0A1.312,1.312,0,0,1,27.272,86.092Z"/>
      <path class="i" d="M73.087,123.216c0-4.9-.221-9.794-.316-14.723a1.138,1.138,0,0,0-2.275,0c.064,5.023.285,10.047.285,15.071,0,.726.031,1.485-.032,2.243-.031.19-.031.316-.063.5,0,.032-.032.032,0,.064-.032,0-.032.031-.063.031a.239.239,0,0,0-.127.032c-.189.031-.379.1-.568.126-.695.158-1.422.285-2.117.474-5.182,1.359-10.838,1.327-16.146,1.39-1.454,0-2.907,0-4.329-.094-.411-.032-1.2-.095-1.39-.095a.117.117,0,0,0-.095-.032c.031-2.843.063-5.655.095-8.5.031-3.7.252-7.457-.064-11.122a1.249,1.249,0,0,0-2.148-.726,1.037,1.037,0,0,0-.158.726c.347,4.045.095,8.247.063,12.323-.032,2.18-.063,4.36-.063,6.508-.032.948-.19,1.991.474,2.591a2.341,2.341,0,0,0,.632.316,9.936,9.936,0,0,0,1.737.316,32.888,32.888,0,0,0,3.508.063c2.717.032,5.4-.031,8.12-.189,2.37-.127,4.771-.285,7.141-.569a50.185,50.185,0,0,0,5.656-1.232,2.8,2.8,0,0,0,2.18-2.686A20.794,20.794,0,0,0,73.087,123.216Z"/>
      <path class="j" d="M87.338,47.04c-.506-1.232-1.043-2.465-1.549-3.7a1.2,1.2,0,0,0-1.579-.411,3.116,3.116,0,0,0-.317.158c-.758.411-1.516.853-2.274,1.264-2.181,1.232-4.361,2.5-6.573,3.7-.884.5-1.58.979-2.622.537-1.074-.474-2.117-.979-3.191-1.422-1.17-.474-2.339-.948-3.539-1.422-.79-.316-1.549-.632-2.339-.979-.41-.19-.853-.379-1.263-.569a1.149,1.149,0,0,0-1.675.664c-.6,1.485-1.2,2.938-1.833,4.391-.189.506-.41,1.011-.6,1.517a1.186,1.186,0,0,0,.284,1.106,87.187,87.187,0,0,0,6.92,7.172,1.152,1.152,0,0,0,1.8-.221c1.8-2.623,3.571-5.213,5.372-7.8a4.081,4.081,0,0,0,2.053-.095c.032.032.032.063.064.095,1.453,2.211,2.875,4.423,4.328,6.635a1.181,1.181,0,0,0,1.58.411c1.138-.854,2.244-1.738,3.349-2.623a21.284,21.284,0,0,0,4.614-4.455,1.336,1.336,0,0,0,.189-.79A10.78,10.78,0,0,0,87.338,47.04ZM65.82,56.455c-1.864-1.8-3.728-3.633-5.4-5.592.569-1.39,1.138-2.749,1.706-4.139,2.086.948,4.234,1.737,6.351,2.622.569.221,1.138.506,1.706.758Zm16.4-2.717c-.695.569-1.422,1.137-2.117,1.674-1.2-1.832-2.4-3.664-3.6-5.529,2.591-1.422,5.15-2.906,7.741-4.328l1.9,4.549A28.411,28.411,0,0,1,82.219,53.738Z"/>
      <path class="i" d="M80.657,11.834a16.083,16.083,0,0,1-4.54,3.972,1.13,1.13,0,0,0-.473,1.317,4.344,4.344,0,0,0,1.591-.35,4.344,4.344,0,0,1-1.591.35,1.064,1.064,0,0,0,1.636.672A19.929,19.929,0,0,0,82.3,13.458c-.072-.431-.147-.862-.228-1.294-.23.23-.23.691-.691.922.461-.231.461-.692.691-.922.081.432.156.863.228,1.294.117-.15.232-.3.344-.461C83.507,11.786,81.509,10.634,80.657,11.834Z"/>
      <path class="i" d="M70.243,16.531a1.178,1.178,0,0,0,1.689.759q.436-.229.862-.487a11.462,11.462,0,0,0-2.012-.26A2.576,2.576,0,0,0,70.243,16.531Z"/>
      <path class="i" d="M76.868,10.605a28.678,28.678,0,0,1-6.1,4.7,1,1,0,0,0-.526,1.231,2.576,2.576,0,0,1,.539.012,11.462,11.462,0,0,1,2.012.26,34.26,34.26,0,0,0,5.7-4.569C79.578,11.214,77.946,9.586,76.868,10.605Z"/>
      <path class="i" d="M64.773,17.673a1.134,1.134,0,0,0,.735-.126c.253-.133.5-.275.751-.413a2.48,2.48,0,0,1-1.124-.307Q64.961,17.252,64.773,17.673Z"/>
      <path class="i" d="M73.042,9.157a35.634,35.634,0,0,1-8.7,6.4,1.145,1.145,0,0,0,.428,2.116q.189-.421.362-.846a1.926,1.926,0,0,1-.576-.515,1.926,1.926,0,0,0,.576.515l.116-.284-.116.284a2.48,2.48,0,0,0,1.124.307,37.744,37.744,0,0,0,8.413-6.348A1.153,1.153,0,0,0,73.042,9.157Z"/>
      <path class="k" d="M347.63,84.522c-1.825-.032-3.654,0-5.479,0H330.5a1.048,1.048,0,0,1-.921-.477h-3.475V95.5h3.415a1.154,1.154,0,0,1,.981-1.723h19.122v-5.7C349.623,86.458,349.812,84.559,347.63,84.522Z"/>
      <path class="b" d="M330.5,96.078a1.045,1.045,0,0,1-.981-.582h-3.415v72.561a1.156,1.156,0,0,1-1.153,1.153c-.1,0-.194,0-.292,0-2.255.062-4.521,0-6.777,0H201.07v3.172a1.046,1.046,0,0,1,.544.961v7.722c.373.009.748.034,1.1.034H349.541c-.016-.881.082-1.81.082-2.641V96.078H330.5Z"/>
      <path class="l" d="M351.927,89.629v-1.06c0-.782.033-1.573,0-2.356a4.07,4.07,0,0,0-3.073-3.889,20.767,20.767,0,0,0-4.643-.107H330.5a1.163,1.163,0,0,0-.921,1.828h0a1.048,1.048,0,0,0,.921.477h11.65c1.825,0,3.654-.032,5.479,0,2.182.037,1.993,1.936,1.993,3.548v5.7H330.5a1.154,1.154,0,0,0-.981,1.723h0a1.045,1.045,0,0,0,.981.582h19.122v82.38c0,.831-.1,1.76-.082,2.641H202.719c-.357,0-.732-.025-1.1-.034v-7.722a1.046,1.046,0,0,0-.544-.961v0a1.157,1.157,0,0,0-1.761.961v8.908a1.17,1.17,0,0,0,1.152,1.153H332.368c6.042,0,12.123.2,18.162,0,.081,0,.163,0,.245,0a1.169,1.169,0,0,0,1.152-1.153V101c0-3.725.164-7.492,0-11.214C351.925,89.735,351.927,89.681,351.927,89.629Z"/>
      <path class="b" d="M187.508,107.523c.03-.012.034-.015,0,0Z"/>
      <path class="b" d="M179.114,101.063l0-.03,0-.007A.269.269,0,0,1,179.114,101.063Z"/>
      <path class="b" d="M227.068,101.1l0-.017,0-.023c-.014-.078-.026-.156-.041-.234a6.986,6.986,0,0,0-.239-.906c-.041-.122-.087-.242-.133-.363l-.006-.016-.009-.02c-.033-.069-.064-.139-.1-.208a6.959,6.959,0,0,0-.455-.8c-.069-.106-.144-.208-.218-.312l-.011-.015-.012-.015c-.049-.058-.1-.118-.146-.175a7.117,7.117,0,0,0-.637-.651c-.094-.085-.192-.165-.288-.247l-.017-.014-.014-.01-.185-.133a7.32,7.32,0,0,0-.785-.472c-.113-.058-.23-.111-.345-.167L223.4,96.3l-.013-.005c-.072-.027-.143-.056-.216-.082a6.98,6.98,0,0,0-.9-.259c-.089-.02-.179-.035-.269-.051a.947.947,0,0,1-.4.063,5.972,5.972,0,0,0-2.627,11.554,6.423,6.423,0,0,0,4.042.018,1.014,1.014,0,0,1,.413-.035c.134-.063.268-.126.4-.195a8.791,8.791,0,0,0,.875-.549l.032-.025c.024-.018.047-.037.07-.056.062-.05.122-.1.181-.154q.179-.156.346-.325c.121-.121.238-.247.35-.376l.107-.13c-.007.008.081-.1.1-.125a7.18,7.18,0,0,0,.508-.806q.095-.175.18-.357c.019-.041.038-.084.056-.126s.049-.119.058-.143a7.217,7.217,0,0,0,.279-.931c.03-.134.056-.268.079-.4.007-.047.036-.323.009-.053.008-.083.018-.165.025-.249a7.344,7.344,0,0,0,.013-.995C227.094,101.367,227.08,101.234,227.068,101.1Z"/>
      <path class="b" d="M323.81,69.441c-1.991.031-3.95,0-5.941,0H152.3v97.408c.7-.031,1.422-.063,2.149-.031.884.031,1.769.063,2.654.063.379.032.758.032,1.137.032H323.778c-.127-3.95.032-7.931.032-11.88ZM207.406,95a15.362,15.362,0,0,1,14.187-8.342.986.986,0,0,1,.537.158,14.312,14.312,0,0,1,4.456,1.011,15.1,15.1,0,0,1,9.6,14.092,16.278,16.278,0,0,1-.537,3.886,15.236,15.236,0,0,1-7.647,9.542,1.4,1.4,0,0,1-.474.347,15.785,15.785,0,0,1-9.858,1.106A15.3,15.3,0,0,1,207.406,95Zm-37.158,4.2a14.943,14.943,0,0,1,5.214-8.942,15.348,15.348,0,0,1,9.763-3.507,1.314,1.314,0,0,1,.506-.095,15.478,15.478,0,0,1,14.692,14.976v.411a15.653,15.653,0,0,1-6.477,12.322.925.925,0,0,1-.411.158c-.316.19-.632.411-.948.569a15.2,15.2,0,0,1-12.07,1.232,15.387,15.387,0,0,1-8.278-6.508A15.227,15.227,0,0,1,170.248,99.2Zm67.4,47.551H169.269a1.154,1.154,0,0,1,0-2.307h68.375A1.154,1.154,0,0,1,237.644,146.755Zm0-6.951H169.269a1.154,1.154,0,0,1,0-2.307h68.375A1.154,1.154,0,0,1,237.644,139.8Zm0-6.983H169.269a1.154,1.154,0,0,1,0-2.306h68.375A1.154,1.154,0,0,1,237.644,132.821Zm32.956,15.45a1.133,1.133,0,0,1-1.137,1.138h-5.5a1,1,0,0,1-.822-.348,1.035,1.035,0,0,1-.347-.79v-8.562a1.187,1.187,0,0,1,1.169-1.169h5.5a1.159,1.159,0,0,1,1.137,1.169Zm10.016,0a1.16,1.16,0,0,1-1.169,1.138h-5.5a1.047,1.047,0,0,1-.821-.348,1.016,1.016,0,0,1-.316-.79V135.412a1.175,1.175,0,0,1,1.137-1.137h5.5a1.181,1.181,0,0,1,1.169,1.137Zm9.985,0a1.154,1.154,0,0,1-1.138,1.138h-5.5a.962.962,0,0,1-.822-.348.938.938,0,0,1-.347-.79V135.412a1.181,1.181,0,0,1,1.169-1.137h5.5a1.175,1.175,0,0,1,1.138,1.137Zm9.89,0a1.052,1.052,0,0,1-1.043,1.043h-5.5a1.052,1.052,0,0,1-1.042-1.043V129a1.052,1.052,0,0,1,1.042-1.043h5.5A1.052,1.052,0,0,1,300.491,129Zm.411-28.214c-1.58,1.421-3.16,2.812-4.74,4.2-2.275,1.99-4.518,3.981-6.762,5.971-.948.853-1.927,2.149-3.254,2.149-4.455.126-8.911.031-13.4.031-1.485,1.359-2.97,2.812-4.582,4.045-.79.6-1.832.41-2.78.41h-3.444a1.154,1.154,0,0,1,0-2.306h4.9c1.169-1.011,2.338-2.054,3.507-3.1.79-.726,1.359-1.358,2.5-1.358h13.239l13.176-11.659C300.364,117.466,302.008,119.077,300.9,120.057Zm3.159-9.321a1.073,1.073,0,0,1-1.042,1.043h-.064c-.568.031-1.1,0-1.674,0H260.868a1.051,1.051,0,0,1-1.042-1.043V110.7c-.032-1.011,0-2.022,0-3V85.934a1.051,1.051,0,0,1,1.042-1.043h42.151a1.052,1.052,0,0,1,1.042,1.043Z"/>
      <path class="b" d="M179.113,102.746l0,.011C179.107,102.7,179.084,102.573,179.113,102.746Z"/>
      <path class="b" d="M179.114,101.063a.429.429,0,0,0-.008.066Z"/>
      <path class="b" d="M184.381,95.863l.007,0-.022.005Z"/>
      <path class="b" d="M184.29,95.875c.027,0,.056-.007.076-.011l-.018,0C184.272,95.873,184.269,95.876,184.29,95.875Z"/>
      <path class="b" d="M185.728,95.962a1.507,1.507,0,0,1-.483-.135,8.064,8.064,0,0,0-.864.036.364.364,0,0,1-.091.012l-.058.009c-.1.017-.206.037-.308.059q-.285.061-.564.146c-.185.056-.365.122-.546.19l-.013.005-.091.041c-.092.042-.184.087-.274.133a11,11,0,0,0-1,.62h0l-.088.071c-.058.048-.115.1-.172.147q-.2.174-.383.363c-.123.126-.242.257-.356.391-.04.047-.078.1-.117.144-.013.018-.042.055-.069.093a7.284,7.284,0,0,0-.553.906c-.046.091-.091.182-.133.275-.011.024-.023.046-.033.065a2.847,2.847,0,0,0-.168.474,7.13,7.13,0,0,0-.247,1.021v0a.372.372,0,0,1-.013.1l0,.016c-.01.092-.018.185-.025.278-.011.174-.017.349-.016.524q0,.3.029.6c0,.018.023.176.026.223,0,.03.009.06.015.09a7.024,7.024,0,0,0,.257,1.018c.032.1.067.194.1.289.007.019.014.04.022.061l.005.011c.073.148.138.3.215.446a8.118,8.118,0,0,0,.563.9l.013.019.056.07c.048.058.1.116.146.173.116.132.236.261.362.385s.255.243.389.357c.055.047.111.093.167.138l.068.051a7.738,7.738,0,0,0,.9.557q.135.07.273.135l.135.059.148.058c.072.026.145.052.218.076a7.09,7.09,0,0,0,1.056.264l.114.018h0c.092.009.185.019.277.026.175.013.349.018.524.019s.368-.007.552-.021c.083-.007.165-.015.247-.024l.042,0,.025-.006c.318-.07.634-.125.946-.221.169-.052.334-.111.5-.174l.038-.015c.08-.036.159-.072.238-.11.138-.067.273-.14.406-.216a1.381,1.381,0,0,1,.357-.354,5.971,5.971,0,0,0-2.771-10.885Z"/>
      <path class="l" d="M326.116,62.4V60.752c0-.916.032-1.832-.032-2.749a4.413,4.413,0,0,0-4.139-4.044.628.628,0,0,0-.221-.031H155.65a14.389,14.389,0,0,0-2.022.063c-4.708.853-3.634,6.888-3.634,10.331v92.354c0,1.011-.031,2.053-.031,3.1-.032.979-.032,1.99-.032,3,0,1.706,0,3.412.063,5.118v.158a1.188,1.188,0,0,0,1.17,1.169H317.869c2.275,0,4.55.063,6.794,0h.284a1.047,1.047,0,0,0,.822-.348,1.107,1.107,0,0,0,.347-.821v-92.8C326.116,70.989,326.274,66.66,326.116,62.4Zm-2.306,92.638c0,3.949-.159,7.93-.032,11.88H158.241c-.379,0-.758,0-1.137-.032-.885,0-1.77-.032-2.654-.063-.727-.032-1.454,0-2.149.031V69.441H317.869c1.991,0,3.95.031,5.941,0Zm0-92.985v5.086H158.241c-1.927,0-3.981-.189-5.94-.063V58.73a2.239,2.239,0,0,1,2.149-2.5H313.983c2.464,0,4.929.063,7.393,0h.348C324.505,56.36,323.81,60.183,323.81,62.048Z"/>
      <path class="k" d="M321.724,56.234h-.348c-2.464.063-4.929,0-7.393,0H154.45a2.239,2.239,0,0,0-2.149,2.5v8.341c1.959-.126,4.013.063,5.94.063H323.81V62.048C323.81,60.183,324.505,56.36,321.724,56.234ZM164.181,62.363a3.873,3.873,0,0,1-3.981,3.476,3.856,3.856,0,0,1,.158-7.709,3.867,3.867,0,0,1,3.823,3.475,2.26,2.26,0,0,1,0,.758Zm8.911,0a3.864,3.864,0,1,1-3.855-4.233,3.923,3.923,0,0,1,3.855,3.475,2.332,2.332,0,0,1,0,.758Zm8.879,0a3.854,3.854,0,1,1,0-.758,1.623,1.623,0,0,1,.063.379A1.606,1.606,0,0,1,181.971,62.363Z"/>
      <path class="h" d="M158.79,61.983a1.564,1.564,0,0,0,3.126,0A1.564,1.564,0,0,0,158.79,61.983Z"/>
      <path class="l" d="M164.181,61.605a3.867,3.867,0,0,0-3.823-3.475,3.856,3.856,0,0,0-.158,7.709,3.873,3.873,0,0,0,3.981-3.476,2.26,2.26,0,0,0,0-.758Zm-5.4.379c0-2.022,3.034-1.99,3.128,0C161.812,63.975,158.778,64.007,158.778,61.984Z"/>
      <path class="k" d="M167.689,61.983a1.564,1.564,0,0,0,3.126,0A1.564,1.564,0,0,0,167.689,61.983Z"/>
      <path class="l" d="M173.092,61.605a3.864,3.864,0,1,0-3.981,4.234,3.874,3.874,0,0,0,3.981-3.476,2.332,2.332,0,0,0,0-.758Zm-5.4.379c0-2.022,3.033-1.99,3.128,0C170.722,63.975,167.689,64.007,167.689,61.984Z"/>
      <path class="k" d="M176.589,61.983a1.564,1.564,0,0,0,3.126,0A1.564,1.564,0,0,0,176.589,61.983Z"/>
      <path class="l" d="M181.971,61.605a3.858,3.858,0,1,0,0,.758,1.606,1.606,0,0,0,.063-.379A1.623,1.623,0,0,0,181.971,61.605Zm-5.372.379c0-2.022,3-1.99,3.128,0C179.6,63.975,176.6,64.007,176.6,61.984Z"/>
      <path class="h" d="M294.986,131.372v15.861h3.426V130.039h-3.426Z"/>
      <path class="l" d="M299.448,127.955h-5.5A1.052,1.052,0,0,0,292.908,129v19.273a1.052,1.052,0,0,0,1.042,1.043h5.5a1.052,1.052,0,0,0,1.043-1.043V129A1.052,1.052,0,0,0,299.448,127.955ZM298.4,147.229h-3.412V130.041H298.4Z"/>
      <path class="b" d="M285.106,147.118H288.3V136.577h-3.195Z"/>
      <path class="l" d="M289.463,134.275h-5.5a1.181,1.181,0,0,0-1.169,1.137v12.859a.938.938,0,0,0,.347.79.962.962,0,0,0,.822.348h5.5a1.154,1.154,0,0,0,1.138-1.138V135.412A1.175,1.175,0,0,0,289.463,134.275ZM288.294,147.1H285.1V136.581h3.191Z"/>
      <ellipse class="b" cx="276.708" cy="141.847" rx="2.26" ry="7.454"/>
      <path class="l" d="M279.447,134.275h-5.5a1.175,1.175,0,0,0-1.137,1.137v12.859a1.016,1.016,0,0,0,.316.79,1.047,1.047,0,0,0,.821.348h5.5a1.16,1.16,0,0,0,1.169-1.138V135.412A1.181,1.181,0,0,0,279.447,134.275ZM278.31,147.1h-3.192V136.581h3.192Z"/>
      <ellipse class="b" cx="266.712" cy="143.988" rx="2.259" ry="4.426"/>
      <path class="l" d="M269.463,138.54h-5.5a1.187,1.187,0,0,0-1.169,1.169v8.562a1.035,1.035,0,0,0,.347.79,1,1,0,0,0,.822.348h5.5a1.133,1.133,0,0,0,1.137-1.138v-8.562A1.159,1.159,0,0,0,269.463,138.54Zm-1.138,8.562H265.1v-6.256h3.223Z"/>
      <path class="l" d="M299.268,118.441,286.089,130.09H272.83c-1.114,0-1.682.66-2.484,1.369l-3.522,3.112h-4.89a1.153,1.153,0,0,0,0,2.305h3.45c.955,0,1.989.192,2.777-.416,1.608-1.243,3.088-2.7,4.6-4.064,4.459.005,8.928.094,13.385,0,1.315-.028,2.307-1.327,3.242-2.154l6.766-5.981q2.372-2.094,4.741-4.19C302.011,119.086,300.376,117.461,299.268,118.441Z"/>
      <path class="l" d="M237.635,130.514H169.272a1.153,1.153,0,0,0,0,2.3h68.363A1.153,1.153,0,0,0,237.635,130.514Z"/>
      <path class="l" d="M237.635,137.487H169.272a1.153,1.153,0,0,0,0,2.3h68.363A1.153,1.153,0,0,0,237.635,137.487Z"/>
      <path class="l" d="M237.635,144.459H169.272a1.153,1.153,0,0,0,0,2.305h68.363A1.153,1.153,0,0,0,237.635,144.459Z"/>
      <path class="h" d="M297.83,86.965H261.92c0,.675-.02,1.353-.02,2.025v20.717c.227,0,.454.005.68.005h39.381c0-.675.012-1.351.012-2.025V86.97c-.227,0-.454,0-.681,0Z"/>
      <path class="l" d="M303.019,84.891H260.868a1.051,1.051,0,0,0-1.042,1.043V107.7c0,.979-.032,1.99,0,3v.032a1.051,1.051,0,0,0,1.042,1.043h40.413c.569,0,1.106.031,1.674,0h.064a1.073,1.073,0,0,0,1.042-1.043v-24.8A1.052,1.052,0,0,0,303.019,84.891Zm-1.043,24.834h-39.4a4.608,4.608,0,0,1-.664-.032V86.976h40.065Z"/>
      <path class="b" d="M219.686,110.054l-.456,4.679a13.22,13.22,0,0,0,6.055-.587l-2.5-4.173A8.531,8.531,0,0,1,219.686,110.054Z"/>
      <path class="b" d="M208.2,99.986a13.089,13.089,0,0,0,8.779,14.211l.474-4.866a8.412,8.412,0,0,1-4.688-7.228,1.381,1.381,0,0,1-.012-.2,1.346,1.346,0,0,1,.008-.17,8.4,8.4,0,0,1,7.7-8.071V88.972A13.1,13.1,0,0,0,208.2,99.986Z"/>
      <path class="l" d="M233.568,93.39a15.29,15.29,0,0,0-6.982-5.561,14.312,14.312,0,0,0-4.456-1.011.986.986,0,0,0-.537-.158,15.265,15.265,0,0,0-3.918,30.142,15.785,15.785,0,0,0,9.858-1.106,1.4,1.4,0,0,0,.474-.347,15.236,15.236,0,0,0,7.647-9.542,16.278,16.278,0,0,0,.537-3.886A15.426,15.426,0,0,0,233.568,93.39ZM216.98,114.212a12.949,12.949,0,0,1,3.476-25.245v4.708a8.417,8.417,0,0,0-7.71,8.056v.19a.394.394,0,0,0,.032.189,8.392,8.392,0,0,0,4.676,7.236C217.3,110.957,217.138,112.569,216.98,114.212Zm-1.927-12.291a6.082,6.082,0,0,1,6.54-5.972.6.6,0,0,0,.411-.063c.095.032.19.032.284.063.285.064.6.158.885.253a1.516,1.516,0,0,0,.221.095h.032c.126.063.221.126.347.189a5.328,5.328,0,0,1,.79.474.664.664,0,0,1,.19.127v.031a2.786,2.786,0,0,1,.316.222c.221.221.442.442.632.663a.7.7,0,0,0,.126.158l.032.032a2.786,2.786,0,0,0,.221.316c.158.252.316.537.442.789.064.095.064.158.127.222v.031c.031.127.094.253.126.379.095.285.19.6.253.885,0,.095.031.158.031.253v.031a1.653,1.653,0,0,1,.032.411,5.014,5.014,0,0,1,0,.98c0,.094-.032.158-.032.252v.063c-.031.127-.063.253-.094.411-.064.316-.158.6-.253.917a.325.325,0,0,0-.063.158c-.032.031-.032.063-.063.126a3.3,3.3,0,0,0-.19.347,6.565,6.565,0,0,1-.506.79c0,.032-.063.127-.094.127a.461.461,0,0,1-.095.126,3.745,3.745,0,0,0-.348.379,3.553,3.553,0,0,0-.347.348c-.064.031-.127.095-.19.126l-.063.063a.031.031,0,0,0-.032.032,8.28,8.28,0,0,1-.884.537,1.7,1.7,0,0,1-.411.221.635.635,0,0,0-.411.032,6.545,6.545,0,0,1-4.044-.032A6.049,6.049,0,0,1,215.053,101.921Zm4.17,12.828c.158-1.58.316-3.128.474-4.708a7.872,7.872,0,0,0,3.1-.063c.821,1.39,1.643,2.78,2.5,4.17A13.627,13.627,0,0,1,219.223,114.749Zm14.788-11.185v.031a.242.242,0,0,1-.032.095v.032a1.322,1.322,0,0,1-.063.347,7.123,7.123,0,0,1-.158.79,9.237,9.237,0,0,1-.442,1.517c-.032.095-.064.221-.095.316-.032.063-.063.1-.063.158a.108.108,0,0,0-.032.063.457.457,0,0,0-.063.126.535.535,0,0,0-.063.158c-.063.127-.127.253-.19.379a11.445,11.445,0,0,1-.758,1.359l-.379.569a2.7,2.7,0,0,0-.222.316l-.031.031a1.242,1.242,0,0,1-.095.127,13.611,13.611,0,0,1-2.117,2.148c-.031.032-.095.063-.126.095a.067.067,0,0,0-.063.063c-.127.063-.222.158-.348.221a3.545,3.545,0,0,1-.727.474c-.189.127-.379.253-.6.379-.822-1.421-1.675-2.843-2.528-4.265a8.072,8.072,0,0,0,4.234-5.782,8.156,8.156,0,0,0-2.875-7.709,8.342,8.342,0,0,0-3.539-1.675V88.935h.095c.094,0,.158.032.221.032l.569.095a15.3,15.3,0,0,1,1.99.537c.158.063.316.126.443.189a1.365,1.365,0,0,0,.158.063.443.443,0,0,0,.189.064c.285.158.6.316.917.474a11.908,11.908,0,0,1,1.706,1.074s.063.063.095.063l.126.126a5.015,5.015,0,0,1,.411.348c.252.221.473.442.726.664.222.252.474.5.7.758.094.126.221.253.315.379.032.063.095.095.127.158,0,.031.063.031.063.063a20.127,20.127,0,0,1,1.106,1.738c.158.284.284.6.411.884l.095.19a.32.32,0,0,1,.031.095c.063.189.126.347.19.5a13.86,13.86,0,0,1,.6,2.244c.032.094.032.189.063.316v.094a3.441,3.441,0,0,1,.063.569c.032.411.064.822.064,1.264A14.8,14.8,0,0,1,234.011,103.564Z"/>
      <path class="d" d="M222.807,88.944a.521.521,0,0,0-.054-.007Z"/>
      <path class="d" d="M228.977,112.294Z"/>
      <path class="h" d="M233.988,100.089c-.006-.035-.013-.077-.018-.109-.016-.1-.033-.208-.052-.312a14.1,14.1,0,0,0-.591-2.222c-.061-.17-.125-.338-.191-.506-.019-.045-.038-.092-.047-.112-.024-.057-.049-.114-.074-.17q-.2-.454-.44-.893a14.159,14.159,0,0,0-1.1-1.733c-.055-.074-.174-.225-.044-.062-.047-.059-.094-.119-.142-.178q-.154-.192-.315-.378-.334-.387-.7-.749t-.719-.671c-.134-.116-.269-.23-.407-.341l-.142-.113-.1-.073a14.155,14.155,0,0,0-1.7-1.083q-.454-.246-.926-.458l-.163-.071-.156-.064c-.155-.062-.312-.121-.469-.177a13.993,13.993,0,0,0-1.99-.549q-.272-.054-.544-.1l-.221-.033-.055-.006-.044,0v5a8.378,8.378,0,0,1,3.532,1.66,8.129,8.129,0,0,1-1.36,13.519l2.541,4.235c.2-.113.4-.226.6-.348q.363-.228.713-.475c.113-.081.224-.163.335-.246l.073-.057.127-.1a14.258,14.258,0,0,0,2.114-2.133c.025-.031.11-.141.1-.127l.037-.049c.073-.1.144-.2.215-.3q.2-.284.386-.576a14.082,14.082,0,0,0,.76-1.357c.06-.123.119-.247.175-.372.023-.05.045-.1.067-.15,0,0,.05-.119.061-.145l.026-.064c.021-.051.041-.1.06-.154.04-.1.078-.207.116-.311a14.151,14.151,0,0,0,.448-1.52q.091-.391.16-.786c.022-.126.041-.252.061-.378l0-.018c.007-.064.01-.082.009-.075l.007-.054a14.556,14.556,0,0,0,.094-1.643c0-.418-.018-.836-.055-1.252C234.033,100.466,234.017,100.275,233.988,100.089Z"/>
      <path class="d" d="M234,103.6l-.008.066C234,103.641,234,103.61,234,103.6Z"/>
      <path class="d" d="M233.989,103.718l.006-.049v.009Z"/>
      <path class="l" d="M233.994,103.678v-.009L234,103.6C234,103.6,234,103.614,233.994,103.678Z"/>
      <path class="b" d="M186.881,89.073V93.85a8.368,8.368,0,0,1,6.394,6.64h4.742A13.1,13.1,0,0,0,186.881,89.073Z"/>
      <polygon class="d" points="172.176 103.631 172.178 103.638 172.177 103.633 172.176 103.631"/>
      <path class="d" d="M190.24,113.96Z"/>
      <path class="h" d="M185.149,110.066a8.29,8.29,0,0,1-5.352-2.008,8.177,8.177,0,0,1-2.218-9.179,8.356,8.356,0,0,1,3.217-3.871,8.089,8.089,0,0,1,3.9-1.245v-4.92c-.117,0-.234,0-.351.01q-.321.018-.639.051c-.106.01-.211.023-.316.035l-.048.006-.069.012q-.621.095-1.231.245t-1.191.35q-.291.1-.578.213c-.089.035-.179.069-.267.108l-.121.055a14,14,0,0,0-2.122,1.187c-.178.12-.353.245-.525.373-.053.04-.142.111-.13.1l-.166.133q-.466.384-.9.806c-.288.281-.565.574-.828.878-.141.162-.272.332-.41.495l0,0-.043.057c-.061.081-.121.162-.179.244a13.99,13.99,0,0,0-1.242,2.087c-.05.1-.1.207-.146.311l-.063.14-.009.02c-.011.026-.03.069-.036.085-.019.047-.039.095-.057.142-.033.084-.066.168-.1.252-.144.386-.272.778-.381,1.176s-.2.808-.279,1.219c-.024.129-.045.259-.065.388l-.015.1c-.023.19-.045.38-.061.571a14.309,14.309,0,0,0,.018,2.618q.016.159.036.318a.248.248,0,0,1,.014.1l0,.013q.046.312.108.621.12.614.3,1.213t.4,1.169c.039.1.078.206.123.307l.054.117q.117.261.246.517a14.092,14.092,0,0,0,1.269,2.069c.035.047.263.332.09.121.064.078.125.158.189.236q.18.219.368.43.4.452.841.868c.292.278.6.54.911.793l.049.04.07.053c.081.061.162.12.244.179q.231.167.468.322a18.8,18.8,0,0,0,2.14,1.159l0,0,.139.056c.095.038.191.075.287.111q.27.1.546.191c.393.129.793.24,1.2.334.217.05.434.095.653.135.1.019.207.036.311.053l.119.018.015,0a5.527,5.527,0,0,1,.615.072q.321.029.642.04a14.155,14.155,0,0,0,1.471-.017c.264-.017.527-.042.79-.072l.039-.005.172-.025c.129-.02.257-.042.386-.066a13.913,13.913,0,0,0,1.5-.364c.244-.074.487-.154.727-.241.12-.044.239-.088.357-.135.06-.023.118-.047.177-.071l.021-.009a16.161,16.161,0,0,0,1.538-.792l-3.049-3.938A8.309,8.309,0,0,1,185.149,110.066Z"/>
      <polygon class="d" points="183.306 114.863 183.311 114.862 183.309 114.862 183.306 114.863"/>
      <path class="d" d="M172.181,103.671a.494.494,0,0,0,.01.064c0-.025-.009-.081-.013-.1Z"/>
      <path class="d" d="M183.311,114.862l.035.006c.138.021.026-.01-.022-.009Z"/>
      <path class="l" d="M179.106,101.129a.372.372,0,0,0,.013-.1l0,.03Z"/>
      <path class="l" d="M184.29,95.875a.364.364,0,0,0,.091-.012h-.015C184.346,95.868,184.317,95.872,184.29,95.875Z"/>
      <path class="l" d="M185.731,86.66a1.314,1.314,0,0,0-.506.095,15.348,15.348,0,0,0-9.763,3.507,14.943,14.943,0,0,0-5.214,8.942,15.227,15.227,0,0,0,1.991,10.616,15.387,15.387,0,0,0,8.278,6.508,15.2,15.2,0,0,0,12.07-1.232c.316-.158.632-.379.948-.569a.925.925,0,0,0,.411-.158,15.653,15.653,0,0,0,6.477-12.322v-.411A15.478,15.478,0,0,0,185.731,86.66Zm1.137,2.4A13.14,13.14,0,0,1,198.022,100.5h-4.74a8.306,8.306,0,0,0-6.414-6.635Zm-1.611,6.761a1.047,1.047,0,0,0,.474.126,5.994,5.994,0,0,1,2.78,10.9,1.341,1.341,0,0,0-.379.347,1.682,1.682,0,0,1-.411.221l-.189.095H187.5a.031.031,0,0,1-.032.032,3.128,3.128,0,0,1-.5.158c-.316.095-.632.158-.948.221l-.032.032H185.7a3.312,3.312,0,0,1-.537.031h-.537a.9.9,0,0,0-.285-.031.324.324,0,0,1-.095-.032,10.613,10.613,0,0,1-1.074-.253,1.634,1.634,0,0,0-.221-.1.736.736,0,0,0-.126-.031.525.525,0,0,0-.158-.063c-.095-.064-.158-.095-.253-.158a8.762,8.762,0,0,1-.916-.537l-.064-.064a.676.676,0,0,1-.158-.126c-.158-.126-.284-.253-.41-.348a4.489,4.489,0,0,1-.348-.41c-.063-.032-.095-.095-.158-.158a.068.068,0,0,0-.063-.063v-.032a8.352,8.352,0,0,1-.569-.885,3.148,3.148,0,0,0-.221-.474v-.063a1.1,1.1,0,0,1-.126-.284c-.095-.348-.19-.664-.253-1.011v-.127c0-.063-.032-.063-.032-.063v-.126a3.9,3.9,0,0,1-.031-.6v-.538a.885.885,0,0,0,.031-.284.1.1,0,0,1,.032-.063v-.032a6.173,6.173,0,0,1,.253-1.042,1.635,1.635,0,0,1,.158-.474.113.113,0,0,0,.031-.064c.032-.094.095-.158.127-.252a5.5,5.5,0,0,1,.568-.917c.032-.031.032-.063.063-.094s.064-.095.127-.158a5.851,5.851,0,0,1,.727-.727l.158-.158c.031-.032.063-.063.094-.063.348-.221.664-.443,1.011-.632.095-.032.159-.095.253-.127a.119.119,0,0,1,.095-.031l.032-.032c.158-.063.347-.126.537-.189.189-.032.379-.095.569-.127a.942.942,0,0,1,.315-.063h.032l.063-.032h.032A8.434,8.434,0,0,1,185.257,95.823Zm4.96,18.136v.031a.455.455,0,0,0-.189.063c-.127.032-.221.095-.348.127-.253.095-.5.158-.727.253-.5.126-1.011.252-1.516.347a1.564,1.564,0,0,1-.379.063.4.4,0,0,1-.19.032h-.032c-.252.032-.505.063-.789.095-.474,0-.98.031-1.454,0-.221,0-.442-.032-.663-.032-.064,0-.348-.063-.506-.063H183.3a.117.117,0,0,0-.095-.032c-.127-.031-.221-.031-.316-.063a4.849,4.849,0,0,1-.664-.126,8.611,8.611,0,0,1-1.2-.348,1.8,1.8,0,0,1-.538-.189l-.284-.095c-.063-.032-.095-.032-.158-.063a13.876,13.876,0,0,1-2.117-1.169,4.2,4.2,0,0,1-.474-.316,1.1,1.1,0,0,0-.253-.158c-.031-.032-.031-.064-.063-.064a.109.109,0,0,0-.063-.031c-.316-.253-.6-.537-.885-.79a7.465,7.465,0,0,1-.853-.885,5.424,5.424,0,0,1-.379-.442c-.063-.063-.095-.126-.158-.19l-.032-.031a.031.031,0,0,0-.031-.032c-.032-.063-.063-.063-.063-.094a14.858,14.858,0,0,1-1.264-2.054,4.13,4.13,0,0,0-.253-.537c0-.032-.032-.063-.032-.095a2.261,2.261,0,0,1-.126-.316c-.158-.379-.284-.79-.411-1.169-.094-.411-.221-.822-.284-1.232-.032-.19-.063-.411-.095-.6v-.031c-.032,0-.032-.063-.032-.095,0-.095-.031-.221-.031-.316a14.5,14.5,0,0,1-.032-2.622,3.441,3.441,0,0,0,.063-.569c0-.032.032-.063.032-.095a1.615,1.615,0,0,1,.063-.379,8.663,8.663,0,0,1,.285-1.232,8.279,8.279,0,0,1,.379-1.169c.031-.095.063-.158.095-.253,0-.063.031-.095.063-.158a.1.1,0,0,1,.031-.063v-.032c.032-.031.032-.095.064-.126a.975.975,0,0,1,.157-.316,13.894,13.894,0,0,1,1.233-2.085c.063-.095.126-.158.189-.253,0-.032,0-.032.032-.063.126-.158.284-.316.411-.474a10.927,10.927,0,0,1,.821-.885,11.556,11.556,0,0,1,.917-.822.685.685,0,0,1,.158-.126.6.6,0,0,1,.126-.095c.19-.126.348-.252.537-.379a15.324,15.324,0,0,1,2.117-1.2c.032,0,.063-.032.127-.032a.63.63,0,0,1,.252-.126l.569-.19c.411-.158.79-.253,1.2-.379.41-.095.821-.158,1.232-.221a.108.108,0,0,0,.063-.032h.064c.094,0,.189-.031.315-.031.19-.032.411-.032.632-.064h.348v4.929A8.056,8.056,0,0,0,180.8,95a8.416,8.416,0,0,0-3.223,3.886,8.163,8.163,0,0,0,2.211,9.162,8.383,8.383,0,0,0,5.372,2.022,8.08,8.08,0,0,0,3.539-.821c1.042,1.3,2.053,2.622,3.065,3.918A14.368,14.368,0,0,1,190.217,113.959Zm3.35-2.212c-.98-1.232-1.928-2.465-2.907-3.728a8.422,8.422,0,0,0,2.717-5.214h4.676A13.055,13.055,0,0,1,193.567,111.747Z"/>
      <path class="l" d="M183.311,114.862l.013,0-.015,0Z"/>
      <path class="l" d="M172.178,103.638c0,.016.011.072.013.1a.248.248,0,0,0-.014-.1Z"/>
      <path class="b" d="M190.668,108.023l2.892,3.736a13.131,13.131,0,0,0,4.508-8.964h-4.7A8.394,8.394,0,0,1,190.668,108.023Z"/>
      <path class="b" d="M131.269,178.232l-2.042,2.041-5.463,5.463c-.581.581-2.873,2.212-2.042,3.191l1.3,1.3c.393.393.918,1.158,1.548,1.039.446-.084.818-.6,1.122-.9l5.1-5.1,3.825-3.826A15.829,15.829,0,0,1,131.269,178.232Z"/>
      <path class="b" d="M157.1,166.881a13.733,13.733,0,0,0-4.8-8.657,12.777,12.777,0,0,0-2.307-1.548c-.189-.095-.41-.221-.632-.316a13.483,13.483,0,1,0,7.836,13.523,4.622,4.622,0,0,0,.032-.664A11.612,11.612,0,0,0,157.1,166.881Zm-8.721,11.564a11.032,11.032,0,0,1-12.165-2.054l-.095-.095-.095-.094a10.839,10.839,0,0,1,10.428-18.073,10.827,10.827,0,0,1,3.507,1.643,10.371,10.371,0,0,1,2.338,2.212,11.012,11.012,0,0,1,2.149,4.834c.031.221.063.442.094.695a10.129,10.129,0,0,1,.032,1.706A10.805,10.805,0,0,1,148.383,178.445Z"/>
      <path class="l" d="M159.41,166.913a15.788,15.788,0,0,0-6.761-11.312c-.127-.063-.222-.158-.348-.221a11.645,11.645,0,0,0-2.307-1.232,15.749,15.749,0,0,0-20.538,21.074c.158.348.348.695.506,1.043-.348.347-.727.726-1.074,1.106-2.307,2.274-4.614,4.581-6.92,6.887-.569.569-1.169,1.138-1.738,1.738a3.218,3.218,0,0,0-.316,4.329.6.6,0,0,0,.19.221.425.425,0,0,0,.095.126,16.223,16.223,0,0,0,2.5,2.4,3.173,3.173,0,0,0,4.044-.5c1.359-1.264,2.654-2.623,3.95-3.949,1.99-1.991,3.981-3.95,5.971-5.94a15.547,15.547,0,0,0,8.532,1.674,15.956,15.956,0,0,0,13.871-11.817,13.3,13.3,0,0,0,.442-3.317A11.277,11.277,0,0,0,159.41,166.913Zm-28.627,18.356c-1.674,1.707-3.38,3.381-5.087,5.087-.316.316-.663.822-1.137.916-.6.127-1.138-.663-1.548-1.042-.411-.442-.853-.885-1.3-1.3-.821-.979,1.454-2.622,2.054-3.191,1.8-1.832,3.634-3.665,5.466-5.466.664-.695,1.359-1.358,2.022-2.053a17.039,17.039,0,0,0,3.35,3.222C133.343,182.71,132.079,184.006,130.783,185.269ZM157.2,169.883a13.466,13.466,0,1,1-7.836-13.523c.222.095.443.221.632.316a12.777,12.777,0,0,1,2.307,1.548,13.733,13.733,0,0,1,4.8,8.657,11.612,11.612,0,0,1,.126,2.338A4.622,4.622,0,0,1,157.2,169.883Z"/>
      <path class="b" d="M152.048,166.6a8.615,8.615,0,0,0-7.488-6.445,8.525,8.525,0,1,0,3.949,15.608,8.481,8.481,0,0,0,3.76-6.54A8.113,8.113,0,0,0,152.048,166.6Zm-6.288-1.137c-1.643,1.58-3.254,3.191-4.9,4.8a1.151,1.151,0,0,1-1.612-1.643c1.612-1.612,3.255-3.192,4.866-4.8C145.192,162.774,146.835,164.416,145.76,165.459Z"/>
      <path class="l" d="M154.544,167.513c-.031-.253-.063-.474-.094-.695a11.012,11.012,0,0,0-2.149-4.834,10.371,10.371,0,0,0-2.338-2.212,10.827,10.827,0,0,0-3.507-1.643A10.839,10.839,0,0,0,136.028,176.2l.095.094.095.095a11.032,11.032,0,0,0,12.165,2.054,10.805,10.805,0,0,0,6.193-9.226A10.129,10.129,0,0,0,154.544,167.513Zm-6.035,8.246a8.54,8.54,0,1,1-3.949-15.608,8.615,8.615,0,0,1,7.488,6.445,8.113,8.113,0,0,1,.221,2.623A8.481,8.481,0,0,1,148.509,175.759Z"/>
      <path class="h" d="M144.131,163.816l-4.888,4.806c-1.059,1.042.57,2.671,1.629,1.63l4.888-4.807C146.82,164.4,145.19,162.774,144.131,163.816Z"/>
    </g>
  </g>
</svg>
